<svg xmlns="http://www.w3.org/2000/svg" xmlns:xlink="http://www.w3.org/1999/xlink" width="600" zoomAndPan="magnify" viewBox="0 0 450 449.999984" height="600" preserveAspectRatio="xMidYMid meet" version="1.0"><defs><filter x="0%" y="0%" width="100%" height="100%" id="77acb3ca00"><feColorMatrix values="0 0 0 0 1 0 0 0 0 1 0 0 0 0 1 0 0 0 1 0" color-interpolation-filters="sRGB"/></filter><g/><clipPath id="e2d5e2e11e"><path d="M 0 1.996094 L 388.679688 1.996094 L 388.679688 413 L 0 413 Z M 0 1.996094 " clip-rule="nonzero"/></clipPath><clipPath id="5091122ddc"><path d="M 0 0.996094 L 388.679688 0.996094 L 388.679688 412 L 0 412 Z M 0 0.996094 " clip-rule="nonzero"/></clipPath><clipPath id="bc1a5c3fa9"><path d="M 0 0.996094 L 345.804688 0.996094 L 345.804688 412 L 0 412 Z M 0 0.996094 " clip-rule="nonzero"/></clipPath><radialGradient gradientTransform="matrix(1.000363, 0, 0, 0.999637, 120.713063, 168.688061)" gradientUnits="userSpaceOnUse" r="123.437796" cx="43.07832" id="4448b8daee" cy="-9.731695" fx="43.07832" fy="-9.731695"><stop stop-opacity="1" stop-color="rgb(29.981995%, 26.44043%, 33.918762%)" offset="0"/><stop stop-opacity="1" stop-color="rgb(30.303955%, 26.741028%, 34.251404%)" offset="0.015625"/><stop stop-opacity="1" stop-color="rgb(30.580139%, 26.997375%, 34.535217%)" offset="0.0273438"/><stop stop-opacity="1" stop-color="rgb(30.856323%, 27.255249%, 34.820557%)" offset="0.0390625"/><stop stop-opacity="1" stop-color="rgb(31.132507%, 27.513123%, 35.10437%)" offset="0.0507812"/><stop stop-opacity="1" stop-color="rgb(31.407166%, 27.76947%, 35.389709%)" offset="0.0625"/><stop stop-opacity="1" stop-color="rgb(31.68335%, 28.027344%, 35.675049%)" offset="0.0742188"/><stop stop-opacity="1" stop-color="rgb(31.959534%, 28.285217%, 35.958862%)" offset="0.0859375"/><stop stop-opacity="1" stop-color="rgb(32.235718%, 28.541565%, 36.244202%)" offset="0.0976562"/><stop stop-opacity="1" stop-color="rgb(32.511902%, 28.799438%, 36.529541%)" offset="0.109375"/><stop stop-opacity="1" stop-color="rgb(32.78656%, 29.057312%, 36.813354%)" offset="0.121094"/><stop stop-opacity="1" stop-color="rgb(33.062744%, 29.31366%, 37.098694%)" offset="0.132812"/><stop stop-opacity="1" stop-color="rgb(33.338928%, 29.571533%, 37.382507%)" offset="0.144531"/><stop stop-opacity="1" stop-color="rgb(33.615112%, 29.829407%, 37.667847%)" offset="0.15625"/><stop stop-opacity="1" stop-color="rgb(33.891296%, 30.085754%, 37.953186%)" offset="0.167969"/><stop stop-opacity="1" stop-color="rgb(34.165955%, 30.343628%, 38.237%)" offset="0.179688"/><stop stop-opacity="1" stop-color="rgb(34.442139%, 30.599976%, 38.522339%)" offset="0.191406"/><stop stop-opacity="1" stop-color="rgb(34.718323%, 30.857849%, 38.807678%)" offset="0.203125"/><stop stop-opacity="1" stop-color="rgb(34.994507%, 31.115723%, 39.091492%)" offset="0.214844"/><stop stop-opacity="1" stop-color="rgb(35.269165%, 31.37207%, 39.376831%)" offset="0.226562"/><stop stop-opacity="1" stop-color="rgb(35.545349%, 31.629944%, 39.660645%)" offset="0.238281"/><stop stop-opacity="1" stop-color="rgb(35.821533%, 31.887817%, 39.945984%)" offset="0.25"/><stop stop-opacity="1" stop-color="rgb(36.051941%, 32.10144%, 40.184021%)" offset="0.261719"/><stop stop-opacity="1" stop-color="rgb(36.235046%, 32.273865%, 40.37323%)" offset="0.269531"/><stop stop-opacity="1" stop-color="rgb(36.419678%, 32.444763%, 40.563965%)" offset="0.277344"/><stop stop-opacity="1" stop-color="rgb(36.602783%, 32.617188%, 40.753174%)" offset="0.285156"/><stop stop-opacity="1" stop-color="rgb(36.787415%, 32.788086%, 40.942383%)" offset="0.292969"/><stop stop-opacity="1" stop-color="rgb(36.97052%, 32.96051%, 41.133118%)" offset="0.300781"/><stop stop-opacity="1" stop-color="rgb(37.155151%, 33.131409%, 41.322327%)" offset="0.308594"/><stop stop-opacity="1" stop-color="rgb(37.338257%, 33.302307%, 41.513062%)" offset="0.316406"/><stop stop-opacity="1" stop-color="rgb(37.522888%, 33.474731%, 41.702271%)" offset="0.324219"/><stop stop-opacity="1" stop-color="rgb(37.70752%, 33.64563%, 41.891479%)" offset="0.332031"/><stop stop-opacity="1" stop-color="rgb(37.890625%, 33.818054%, 42.082214%)" offset="0.339844"/><stop stop-opacity="1" stop-color="rgb(38.075256%, 33.988953%, 42.271423%)" offset="0.347656"/><stop stop-opacity="1" stop-color="rgb(38.258362%, 34.161377%, 42.462158%)" offset="0.355469"/><stop stop-opacity="1" stop-color="rgb(38.442993%, 34.332275%, 42.651367%)" offset="0.363281"/><stop stop-opacity="1" stop-color="rgb(38.626099%, 34.503174%, 42.842102%)" offset="0.371094"/><stop stop-opacity="1" stop-color="rgb(38.902283%, 34.761047%, 43.125916%)" offset="0.378906"/><stop stop-opacity="1" stop-color="rgb(39.27002%, 35.10437%, 43.505859%)" offset="0.394531"/><stop stop-opacity="1" stop-color="rgb(39.637756%, 35.447693%, 43.885803%)" offset="0.410156"/><stop stop-opacity="1" stop-color="rgb(40.005493%, 35.791016%, 44.264221%)" offset="0.425781"/><stop stop-opacity="1" stop-color="rgb(40.37323%, 36.132812%, 44.644165%)" offset="0.441406"/><stop stop-opacity="1" stop-color="rgb(40.740967%, 36.476135%, 45.024109%)" offset="0.457031"/><stop stop-opacity="1" stop-color="rgb(41.108704%, 36.819458%, 45.404053%)" offset="0.472656"/><stop stop-opacity="1" stop-color="rgb(41.479492%, 37.167358%, 45.783997%)" offset="0.488281"/><stop stop-opacity="1" stop-color="rgb(41.81366%, 37.486267%, 46.116638%)" offset="0.503906"/><stop stop-opacity="1" stop-color="rgb(42.108154%, 37.771606%, 46.400452%)" offset="0.515625"/><stop stop-opacity="1" stop-color="rgb(42.402649%, 38.05542%, 46.685791%)" offset="0.527344"/><stop stop-opacity="1" stop-color="rgb(42.695618%, 38.340759%, 46.97113%)" offset="0.539062"/><stop stop-opacity="1" stop-color="rgb(42.990112%, 38.626099%, 47.25647%)" offset="0.550781"/><stop stop-opacity="1" stop-color="rgb(43.284607%, 38.911438%, 47.541809%)" offset="0.5625"/><stop stop-opacity="1" stop-color="rgb(43.579102%, 39.196777%, 47.825623%)" offset="0.574219"/><stop stop-opacity="1" stop-color="rgb(43.87207%, 39.480591%, 48.110962%)" offset="0.585938"/><stop stop-opacity="1" stop-color="rgb(44.166565%, 39.76593%, 48.396301%)" offset="0.597656"/><stop stop-opacity="1" stop-color="rgb(44.46106%, 40.05127%, 48.681641%)" offset="0.609375"/><stop stop-opacity="1" stop-color="rgb(44.755554%, 40.336609%, 48.965454%)" offset="0.621094"/><stop stop-opacity="1" stop-color="rgb(45.001221%, 40.57312%, 49.203491%)" offset="0.632812"/><stop stop-opacity="1" stop-color="rgb(45.196533%, 40.763855%, 49.394226%)" offset="0.640625"/><stop stop-opacity="1" stop-color="rgb(45.393372%, 40.95459%, 49.583435%)" offset="0.648438"/><stop stop-opacity="1" stop-color="rgb(45.588684%, 41.143799%, 49.77417%)" offset="0.65625"/><stop stop-opacity="1" stop-color="rgb(45.785522%, 41.334534%, 49.963379%)" offset="0.664062"/><stop stop-opacity="1" stop-color="rgb(45.980835%, 41.523743%, 50.154114%)" offset="0.671875"/><stop stop-opacity="1" stop-color="rgb(46.177673%, 41.714478%, 50.343323%)" offset="0.679688"/><stop stop-opacity="1" stop-color="rgb(46.372986%, 41.903687%, 50.534058%)" offset="0.6875"/><stop stop-opacity="1" stop-color="rgb(46.569824%, 42.094421%, 50.723267%)" offset="0.695312"/><stop stop-opacity="1" stop-color="rgb(46.765137%, 42.28363%, 50.914001%)" offset="0.703125"/><stop stop-opacity="1" stop-color="rgb(46.961975%, 42.474365%, 51.10321%)" offset="0.710938"/><stop stop-opacity="1" stop-color="rgb(47.157288%, 42.663574%, 51.293945%)" offset="0.71875"/><stop stop-opacity="1" stop-color="rgb(47.354126%, 42.854309%, 51.483154%)" offset="0.726562"/><stop stop-opacity="1" stop-color="rgb(47.549438%, 43.043518%, 51.673889%)" offset="0.734375"/><stop stop-opacity="1" stop-color="rgb(47.746277%, 43.234253%, 51.863098%)" offset="0.742188"/><stop stop-opacity="1" stop-color="rgb(47.941589%, 43.423462%, 52.053833%)" offset="0.75"/><stop stop-opacity="1" stop-color="rgb(48.187256%, 43.661499%, 52.29187%)" offset="0.757812"/><stop stop-opacity="1" stop-color="rgb(48.480225%, 43.946838%, 52.575684%)" offset="0.769531"/><stop stop-opacity="1" stop-color="rgb(48.774719%, 44.230652%, 52.861023%)" offset="0.78125"/><stop stop-opacity="1" stop-color="rgb(49.069214%, 44.515991%, 53.146362%)" offset="0.792969"/><stop stop-opacity="1" stop-color="rgb(49.363708%, 44.801331%, 53.431702%)" offset="0.804688"/><stop stop-opacity="1" stop-color="rgb(49.609375%, 45.039368%, 53.668213%)" offset="0.816406"/><stop stop-opacity="1" stop-color="rgb(49.804688%, 45.228577%, 53.858948%)" offset="0.824219"/><stop stop-opacity="1" stop-color="rgb(50.001526%, 45.419312%, 54.048157%)" offset="0.832031"/><stop stop-opacity="1" stop-color="rgb(50.196838%, 45.608521%, 54.238892%)" offset="0.839844"/><stop stop-opacity="1" stop-color="rgb(50.393677%, 45.799255%, 54.428101%)" offset="0.847656"/><stop stop-opacity="1" stop-color="rgb(50.588989%, 45.988464%, 54.618835%)" offset="0.855469"/><stop stop-opacity="1" stop-color="rgb(50.785828%, 46.179199%, 54.80957%)" offset="0.863281"/><stop stop-opacity="1" stop-color="rgb(50.98114%, 46.368408%, 54.998779%)" offset="0.871094"/><stop stop-opacity="1" stop-color="rgb(51.226807%, 46.606445%, 55.236816%)" offset="0.878906"/><stop stop-opacity="1" stop-color="rgb(51.519775%, 46.891785%, 55.52063%)" offset="0.890625"/><stop stop-opacity="1" stop-color="rgb(51.81427%, 47.175598%, 55.805969%)" offset="0.902344"/><stop stop-opacity="1" stop-color="rgb(52.059937%, 47.413635%, 56.044006%)" offset="0.914062"/><stop stop-opacity="1" stop-color="rgb(52.255249%, 47.60437%, 56.233215%)" offset="0.921875"/><stop stop-opacity="1" stop-color="rgb(52.452087%, 47.793579%, 56.42395%)" offset="0.929688"/><stop stop-opacity="1" stop-color="rgb(52.6474%, 47.984314%, 56.613159%)" offset="0.9375"/><stop stop-opacity="1" stop-color="rgb(52.893066%, 48.220825%, 56.851196%)" offset="0.945312"/><stop stop-opacity="1" stop-color="rgb(53.138733%, 48.458862%, 57.089233%)" offset="0.957031"/><stop stop-opacity="1" stop-color="rgb(53.334045%, 48.649597%, 57.278442%)" offset="0.964844"/><stop stop-opacity="1" stop-color="rgb(53.579712%, 48.886108%, 57.516479%)" offset="0.972656"/><stop stop-opacity="1" stop-color="rgb(53.825378%, 49.124146%, 57.754517%)" offset="0.984375"/><stop stop-opacity="1" stop-color="rgb(54.020691%, 49.313354%, 57.943726%)" offset="0.992188"/><stop stop-opacity="1" stop-color="rgb(54.119873%, 49.409485%, 58.039856%)" offset="1"/></radialGradient><clipPath id="6797963642"><rect x="0" width="389" y="0" height="412"/></clipPath><clipPath id="791f28d442"><path d="M 0 0.996094 L 388.679688 0.996094 L 388.679688 412 L 0 412 Z M 0 0.996094 " clip-rule="nonzero"/></clipPath><clipPath id="fe08177f36"><rect x="0" width="389" y="0" height="412"/></clipPath><clipPath id="44452387cb"><rect x="0" width="389" y="0" height="412"/></clipPath><mask id="5363c82c2b"><g filter="url(#77acb3ca00)"><g transform="matrix(1, 0, 0, 1, 0, -0.000000000000007105)"><g clip-path="url(#44452387cb)"><g clip-path="url(#791f28d442)"><g transform="matrix(1, 0, 0, 1, 0, -0.000000000000007105)"><g clip-path="url(#fe08177f36)"><g fill="#000000" fill-opacity="1"><g transform="translate(163.853417, 244.594544)"><g><path d="M 2.515625 -4.703125 C 2.515625 -5.992188 2.960938 -7.085938 3.859375 -7.984375 C 4.753906 -8.878906 5.847656 -9.328125 7.140625 -9.328125 C 8.421875 -9.328125 9.492188 -8.878906 10.359375 -7.984375 C 11.234375 -7.085938 11.671875 -5.992188 11.671875 -4.703125 C 11.671875 -3.359375 11.234375 -2.238281 10.359375 -1.34375 C 9.492188 -0.445312 8.421875 0 7.140625 0 C 5.847656 0 4.753906 -0.445312 3.859375 -1.34375 C 2.960938 -2.238281 2.515625 -3.359375 2.515625 -4.703125 Z M 2.515625 -4.703125 "/></g></g></g><g fill="#000000" fill-opacity="1"><g transform="translate(178.058242, 244.594544)"><g/></g></g></g></g></g></g></g></g></mask><clipPath id="7a7d969ca7"><path d="M 0 0.996094 L 345.804688 0.996094 L 345.804688 412 L 0 412 Z M 0 0.996094 " clip-rule="nonzero"/></clipPath><clipPath id="8fbf92d109"><rect x="0" width="389" y="0" height="412"/></clipPath><clipPath id="e91561e3da"><rect x="0" width="389" y="0" height="412"/></clipPath><clipPath id="aa2530eeab"><rect x="0" width="390" y="0" height="413"/></clipPath><clipPath id="14cbe06c0c"><path d="M 0 0 L 450 0 L 450 450 L 0 450 Z M 0 0 " clip-rule="nonzero"/></clipPath><radialGradient gradientTransform="matrix(0.999937, 0, 0, 1.000063, 27.331647, 125.214818)" gradientUnits="userSpaceOnUse" r="391.440758" cx="30.733997" id="610a062ac4" cy="-25.496678" fx="30.733997" fy="-25.496678"><stop stop-opacity="1" stop-color="rgb(29.981995%, 26.44043%, 33.918762%)" offset="0"/><stop stop-opacity="1" stop-color="rgb(30.303955%, 26.741028%, 34.251404%)" offset="0.015625"/><stop stop-opacity="1" stop-color="rgb(30.580139%, 26.997375%, 34.535217%)" offset="0.0273438"/><stop stop-opacity="1" stop-color="rgb(30.856323%, 27.255249%, 34.820557%)" offset="0.0390625"/><stop stop-opacity="1" stop-color="rgb(31.132507%, 27.513123%, 35.10437%)" offset="0.0507812"/><stop stop-opacity="1" stop-color="rgb(31.407166%, 27.76947%, 35.389709%)" offset="0.0625"/><stop stop-opacity="1" stop-color="rgb(31.68335%, 28.027344%, 35.675049%)" offset="0.0742188"/><stop stop-opacity="1" stop-color="rgb(31.959534%, 28.285217%, 35.958862%)" offset="0.0859375"/><stop stop-opacity="1" stop-color="rgb(32.235718%, 28.541565%, 36.244202%)" offset="0.0976562"/><stop stop-opacity="1" stop-color="rgb(32.511902%, 28.799438%, 36.529541%)" offset="0.109375"/><stop stop-opacity="1" stop-color="rgb(32.78656%, 29.057312%, 36.813354%)" offset="0.121094"/><stop stop-opacity="1" stop-color="rgb(33.062744%, 29.31366%, 37.098694%)" offset="0.132812"/><stop stop-opacity="1" stop-color="rgb(33.338928%, 29.571533%, 37.382507%)" offset="0.144531"/><stop stop-opacity="1" stop-color="rgb(33.615112%, 29.829407%, 37.667847%)" offset="0.15625"/><stop stop-opacity="1" stop-color="rgb(33.891296%, 30.085754%, 37.953186%)" offset="0.167969"/><stop stop-opacity="1" stop-color="rgb(34.165955%, 30.343628%, 38.237%)" offset="0.179688"/><stop stop-opacity="1" stop-color="rgb(34.442139%, 30.599976%, 38.522339%)" offset="0.191406"/><stop stop-opacity="1" stop-color="rgb(34.718323%, 30.857849%, 38.807678%)" offset="0.203125"/><stop stop-opacity="1" stop-color="rgb(34.994507%, 31.115723%, 39.091492%)" offset="0.214844"/><stop stop-opacity="1" stop-color="rgb(35.269165%, 31.37207%, 39.376831%)" offset="0.226562"/><stop stop-opacity="1" stop-color="rgb(35.545349%, 31.629944%, 39.660645%)" offset="0.238281"/><stop stop-opacity="1" stop-color="rgb(35.821533%, 31.887817%, 39.945984%)" offset="0.25"/><stop stop-opacity="1" stop-color="rgb(36.051941%, 32.10144%, 40.184021%)" offset="0.261719"/><stop stop-opacity="1" stop-color="rgb(36.235046%, 32.273865%, 40.37323%)" offset="0.269531"/><stop stop-opacity="1" stop-color="rgb(36.419678%, 32.444763%, 40.563965%)" offset="0.277344"/><stop stop-opacity="1" stop-color="rgb(36.602783%, 32.617188%, 40.753174%)" offset="0.285156"/><stop stop-opacity="1" stop-color="rgb(36.787415%, 32.788086%, 40.942383%)" offset="0.292969"/><stop stop-opacity="1" stop-color="rgb(36.97052%, 32.96051%, 41.133118%)" offset="0.300781"/><stop stop-opacity="1" stop-color="rgb(37.155151%, 33.131409%, 41.322327%)" offset="0.308594"/><stop stop-opacity="1" stop-color="rgb(37.338257%, 33.302307%, 41.513062%)" offset="0.316406"/><stop stop-opacity="1" stop-color="rgb(37.522888%, 33.474731%, 41.702271%)" offset="0.324219"/><stop stop-opacity="1" stop-color="rgb(37.70752%, 33.64563%, 41.891479%)" offset="0.332031"/><stop stop-opacity="1" stop-color="rgb(37.890625%, 33.818054%, 42.082214%)" offset="0.339844"/><stop stop-opacity="1" stop-color="rgb(38.075256%, 33.988953%, 42.271423%)" offset="0.347656"/><stop stop-opacity="1" stop-color="rgb(38.258362%, 34.161377%, 42.462158%)" offset="0.355469"/><stop stop-opacity="1" stop-color="rgb(38.442993%, 34.332275%, 42.651367%)" offset="0.363281"/><stop stop-opacity="1" stop-color="rgb(38.626099%, 34.503174%, 42.842102%)" offset="0.371094"/><stop stop-opacity="1" stop-color="rgb(38.902283%, 34.761047%, 43.125916%)" offset="0.378906"/><stop stop-opacity="1" stop-color="rgb(39.27002%, 35.10437%, 43.505859%)" offset="0.394531"/><stop stop-opacity="1" stop-color="rgb(39.637756%, 35.447693%, 43.885803%)" offset="0.410156"/><stop stop-opacity="1" stop-color="rgb(40.005493%, 35.791016%, 44.264221%)" offset="0.425781"/><stop stop-opacity="1" stop-color="rgb(40.37323%, 36.132812%, 44.644165%)" offset="0.441406"/><stop stop-opacity="1" stop-color="rgb(40.740967%, 36.476135%, 45.024109%)" offset="0.457031"/><stop stop-opacity="1" stop-color="rgb(41.108704%, 36.819458%, 45.404053%)" offset="0.472656"/><stop stop-opacity="1" stop-color="rgb(41.479492%, 37.167358%, 45.783997%)" offset="0.488281"/><stop stop-opacity="1" stop-color="rgb(41.81366%, 37.486267%, 46.116638%)" offset="0.503906"/><stop stop-opacity="1" stop-color="rgb(42.108154%, 37.771606%, 46.400452%)" offset="0.515625"/><stop stop-opacity="1" stop-color="rgb(42.402649%, 38.05542%, 46.685791%)" offset="0.527344"/><stop stop-opacity="1" stop-color="rgb(42.695618%, 38.340759%, 46.97113%)" offset="0.539062"/><stop stop-opacity="1" stop-color="rgb(42.990112%, 38.626099%, 47.25647%)" offset="0.550781"/><stop stop-opacity="1" stop-color="rgb(43.284607%, 38.911438%, 47.541809%)" offset="0.5625"/><stop stop-opacity="1" stop-color="rgb(43.579102%, 39.196777%, 47.825623%)" offset="0.574219"/><stop stop-opacity="1" stop-color="rgb(43.87207%, 39.480591%, 48.110962%)" offset="0.585938"/><stop stop-opacity="1" stop-color="rgb(44.166565%, 39.76593%, 48.396301%)" offset="0.597656"/><stop stop-opacity="1" stop-color="rgb(44.46106%, 40.05127%, 48.681641%)" offset="0.609375"/><stop stop-opacity="1" stop-color="rgb(44.755554%, 40.336609%, 48.965454%)" offset="0.621094"/><stop stop-opacity="1" stop-color="rgb(45.001221%, 40.57312%, 49.203491%)" offset="0.632812"/><stop stop-opacity="1" stop-color="rgb(45.196533%, 40.763855%, 49.394226%)" offset="0.640625"/><stop stop-opacity="1" stop-color="rgb(45.393372%, 40.95459%, 49.583435%)" offset="0.648438"/><stop stop-opacity="1" stop-color="rgb(45.588684%, 41.143799%, 49.77417%)" offset="0.65625"/><stop stop-opacity="1" stop-color="rgb(45.785522%, 41.334534%, 49.963379%)" offset="0.664062"/><stop stop-opacity="1" stop-color="rgb(45.980835%, 41.523743%, 50.154114%)" offset="0.671875"/><stop stop-opacity="1" stop-color="rgb(46.177673%, 41.714478%, 50.343323%)" offset="0.679688"/><stop stop-opacity="1" stop-color="rgb(46.372986%, 41.903687%, 50.534058%)" offset="0.6875"/><stop stop-opacity="1" stop-color="rgb(46.569824%, 42.094421%, 50.723267%)" offset="0.695312"/><stop stop-opacity="1" stop-color="rgb(46.765137%, 42.28363%, 50.914001%)" offset="0.703125"/><stop stop-opacity="1" stop-color="rgb(46.961975%, 42.474365%, 51.10321%)" offset="0.710938"/><stop stop-opacity="1" stop-color="rgb(47.157288%, 42.663574%, 51.293945%)" offset="0.71875"/><stop stop-opacity="1" stop-color="rgb(47.354126%, 42.854309%, 51.483154%)" offset="0.726562"/><stop stop-opacity="1" stop-color="rgb(47.549438%, 43.043518%, 51.673889%)" offset="0.734375"/><stop stop-opacity="1" stop-color="rgb(47.746277%, 43.234253%, 51.863098%)" offset="0.742188"/><stop stop-opacity="1" stop-color="rgb(47.941589%, 43.423462%, 52.053833%)" offset="0.75"/><stop stop-opacity="1" stop-color="rgb(48.187256%, 43.661499%, 52.29187%)" offset="0.757812"/><stop stop-opacity="1" stop-color="rgb(48.480225%, 43.946838%, 52.575684%)" offset="0.769531"/><stop stop-opacity="1" stop-color="rgb(48.774719%, 44.230652%, 52.861023%)" offset="0.78125"/><stop stop-opacity="1" stop-color="rgb(49.069214%, 44.515991%, 53.146362%)" offset="0.792969"/><stop stop-opacity="1" stop-color="rgb(49.363708%, 44.801331%, 53.431702%)" offset="0.804688"/><stop stop-opacity="1" stop-color="rgb(49.609375%, 45.039368%, 53.668213%)" offset="0.816406"/><stop stop-opacity="1" stop-color="rgb(49.804688%, 45.228577%, 53.858948%)" offset="0.824219"/><stop stop-opacity="1" stop-color="rgb(50.001526%, 45.419312%, 54.048157%)" offset="0.832031"/><stop stop-opacity="1" stop-color="rgb(50.196838%, 45.608521%, 54.238892%)" offset="0.839844"/><stop stop-opacity="1" stop-color="rgb(50.393677%, 45.799255%, 54.428101%)" offset="0.847656"/><stop stop-opacity="1" stop-color="rgb(50.588989%, 45.988464%, 54.618835%)" offset="0.855469"/><stop stop-opacity="1" stop-color="rgb(50.785828%, 46.179199%, 54.80957%)" offset="0.863281"/><stop stop-opacity="1" stop-color="rgb(50.98114%, 46.368408%, 54.998779%)" offset="0.871094"/><stop stop-opacity="1" stop-color="rgb(51.226807%, 46.606445%, 55.236816%)" offset="0.878906"/><stop stop-opacity="1" stop-color="rgb(51.519775%, 46.891785%, 55.52063%)" offset="0.890625"/><stop stop-opacity="1" stop-color="rgb(51.81427%, 47.175598%, 55.805969%)" offset="0.902344"/><stop stop-opacity="1" stop-color="rgb(52.059937%, 47.413635%, 56.044006%)" offset="0.914062"/><stop stop-opacity="1" stop-color="rgb(52.255249%, 47.60437%, 56.233215%)" offset="0.921875"/><stop stop-opacity="1" stop-color="rgb(52.452087%, 47.793579%, 56.42395%)" offset="0.929688"/><stop stop-opacity="1" stop-color="rgb(52.6474%, 47.984314%, 56.613159%)" offset="0.9375"/><stop stop-opacity="1" stop-color="rgb(52.893066%, 48.220825%, 56.851196%)" offset="0.945312"/><stop stop-opacity="1" stop-color="rgb(53.138733%, 48.458862%, 57.089233%)" offset="0.957031"/><stop stop-opacity="1" stop-color="rgb(53.334045%, 48.649597%, 57.278442%)" offset="0.964844"/><stop stop-opacity="1" stop-color="rgb(53.579712%, 48.886108%, 57.516479%)" offset="0.972656"/><stop stop-opacity="1" stop-color="rgb(53.825378%, 49.124146%, 57.754517%)" offset="0.984375"/><stop stop-opacity="1" stop-color="rgb(54.020691%, 49.313354%, 57.943726%)" offset="0.992188"/><stop stop-opacity="1" stop-color="rgb(54.119873%, 49.409485%, 58.039856%)" offset="1"/></radialGradient><clipPath id="85b9f86533"><rect x="0" width="450" y="0" height="450"/></clipPath><clipPath id="a057e9a7dd"><rect x="0" width="450" y="0" height="450"/></clipPath><clipPath id="b587291b50"><rect x="0" width="450" y="0" height="450"/></clipPath><mask id="8f2340ac46"><g filter="url(#77acb3ca00)"><g transform="matrix(1, 0, 0, 1, 0, 0)"><g clip-path="url(#b587291b50)"><g transform="matrix(1, 0, 0, 1, 0, 0)"><g clip-path="url(#a057e9a7dd)"><g fill="#000000" fill-opacity="1"><g transform="translate(58.086535, 266.209856)"><g><path d="M 53.09375 3.28125 C 44.03125 3.28125 36.140625 1.367188 29.421875 -2.453125 C 22.703125 -6.273438 17.484375 -11.4375 13.765625 -17.9375 C 10.046875 -24.4375 8.1875 -31.566406 8.1875 -39.328125 C 8.1875 -45.554688 9.390625 -51.375 11.796875 -56.78125 C 14.203125 -62.1875 17.613281 -66.882812 22.03125 -70.875 C 26.457031 -74.863281 31.734375 -77.785156 37.859375 -79.640625 C 35.890625 -81.492188 33.8125 -83.269531 31.625 -84.96875 C 29.4375 -86.664062 27.144531 -88.222656 24.75 -89.640625 C 28.570312 -93.460938 33.050781 -96.25 38.1875 -98 C 43.320312 -99.75 49.054688 -100.625 55.390625 -100.625 C 65.328125 -100.625 73.519531 -98.816406 79.96875 -95.203125 C 86.414062 -91.597656 91.25 -86.65625 94.46875 -80.375 C 97.695312 -74.09375 99.3125 -67.019531 99.3125 -59.15625 L 99.3125 -17.046875 C 99.3125 -11.796875 100.070312 -7.96875 101.59375 -5.5625 C 103.125 -3.164062 106.1875 -1.96875 110.78125 -1.96875 L 110.78125 0 L 98.15625 0 C 94.226562 0 91.582031 -1.335938 90.21875 -4.015625 C 88.851562 -6.691406 88.171875 -9.503906 88.171875 -12.453125 L 88.171875 -13.109375 C 84.453125 -8.410156 79.613281 -4.503906 73.65625 -1.390625 C 67.707031 1.722656 60.851562 3.28125 53.09375 3.28125 Z M 40.3125 -77.1875 C 33.425781 -74.34375 28.015625 -69.425781 24.078125 -62.4375 C 20.148438 -55.445312 18.1875 -47.582031 18.1875 -38.84375 C 18.1875 -31.40625 19.632812 -24.65625 22.53125 -18.59375 C 25.425781 -12.53125 29.492188 -7.695312 34.734375 -4.09375 C 39.984375 -0.488281 46.160156 1.3125 53.265625 1.3125 C 59.921875 1.3125 66.472656 -0.242188 72.921875 -3.359375 C 79.367188 -6.472656 84.453125 -10.867188 88.171875 -16.546875 L 88.171875 -63.75 C 86.523438 -66.15625 84.253906 -68.585938 81.359375 -71.046875 C 78.460938 -73.503906 74.71875 -75.550781 70.125 -77.1875 C 65.539062 -78.820312 59.921875 -79.640625 53.265625 -79.640625 C 49.109375 -79.640625 45.226562 -78.984375 41.625 -77.671875 C 44.25 -75.054688 47.007812 -71.914062 49.90625 -68.25 C 52.800781 -64.59375 55.226562 -60.382812 57.1875 -55.625 C 59.15625 -50.875 60.140625 -45.441406 60.140625 -39.328125 C 60.140625 -33.535156 58.9375 -28.863281 56.53125 -25.3125 C 54.132812 -21.769531 50.96875 -20 47.03125 -20 C 46.375 -20 45.882812 -20.160156 45.5625 -20.484375 C 46.539062 -20.703125 47.847656 -21.578125 49.484375 -23.109375 C 51.128906 -24.640625 52.632812 -26.796875 54 -29.578125 C 55.363281 -32.367188 56.046875 -35.726562 56.046875 -39.65625 C 56.046875 -47.082031 54.625 -53.9375 51.78125 -60.21875 C 48.945312 -66.5 45.125 -72.15625 40.3125 -77.1875 Z M 55.71875 -98.65625 C 48.726562 -98.65625 43.617188 -97.613281 40.390625 -95.53125 C 37.171875 -93.457031 35.5625 -90.945312 35.5625 -88 C 35.5625 -87.019531 35.75 -85.898438 36.125 -84.640625 C 36.507812 -83.378906 37.523438 -81.878906 39.171875 -80.140625 C 41.347656 -80.679688 43.609375 -81.113281 45.953125 -81.4375 C 48.304688 -81.769531 50.6875 -81.9375 53.09375 -81.9375 C 60.738281 -81.9375 67.484375 -80.648438 73.328125 -78.078125 C 79.171875 -75.515625 84.007812 -71.992188 87.84375 -67.515625 C 87.84375 -72.753906 86.582031 -77.75 84.0625 -82.5 C 81.550781 -87.257812 77.921875 -91.140625 73.171875 -94.140625 C 68.421875 -97.148438 62.601562 -98.65625 55.71875 -98.65625 Z M 55.71875 -98.65625 "/></g></g></g><g fill="#000000" fill-opacity="1"><g transform="translate(146.576903, 266.209856)"><g><path d="M 3.28125 -1.96875 L 10.8125 -1.96875 C 11.90625 -1.96875 13.078125 -2.210938 14.328125 -2.703125 C 15.585938 -3.191406 16.707031 -4.203125 17.6875 -5.734375 C 18.675781 -7.265625 19.171875 -9.503906 19.171875 -12.453125 L 19.171875 -144.375 C 19.171875 -145.570312 19.0625 -146.90625 18.84375 -148.375 C 18.625 -149.851562 17.941406 -151.140625 16.796875 -152.234375 C 15.648438 -153.328125 13.65625 -153.875 10.8125 -153.875 L 10.8125 -155.84375 C 16.601562 -155.84375 20.972656 -157.125 23.921875 -159.6875 C 26.867188 -162.257812 28.34375 -164.75 28.34375 -167.15625 L 30.3125 -167.15625 L 30.3125 -12.453125 C 30.3125 -9.503906 30.800781 -7.265625 31.78125 -5.734375 C 32.769531 -4.203125 33.921875 -3.191406 35.234375 -2.703125 C 36.546875 -2.210938 37.691406 -1.96875 38.671875 -1.96875 L 46.21875 -1.96875 L 46.21875 0 L 3.28125 0 Z M 3.28125 -1.96875 "/></g></g></g><g fill="#000000" fill-opacity="1"><g transform="translate(170.500558, 266.209856)"><g><path d="M 53.09375 3.28125 C 44.03125 3.28125 36.140625 1.367188 29.421875 -2.453125 C 22.703125 -6.273438 17.484375 -11.4375 13.765625 -17.9375 C 10.046875 -24.4375 8.1875 -31.566406 8.1875 -39.328125 C 8.1875 -45.554688 9.390625 -51.375 11.796875 -56.78125 C 14.203125 -62.1875 17.613281 -66.882812 22.03125 -70.875 C 26.457031 -74.863281 31.734375 -77.785156 37.859375 -79.640625 C 35.890625 -81.492188 33.8125 -83.269531 31.625 -84.96875 C 29.4375 -86.664062 27.144531 -88.222656 24.75 -89.640625 C 28.570312 -93.460938 33.050781 -96.25 38.1875 -98 C 43.320312 -99.75 49.054688 -100.625 55.390625 -100.625 C 65.328125 -100.625 73.519531 -98.816406 79.96875 -95.203125 C 86.414062 -91.597656 91.25 -86.65625 94.46875 -80.375 C 97.695312 -74.09375 99.3125 -67.019531 99.3125 -59.15625 L 99.3125 -17.046875 C 99.3125 -11.796875 100.070312 -7.96875 101.59375 -5.5625 C 103.125 -3.164062 106.1875 -1.96875 110.78125 -1.96875 L 110.78125 0 L 98.15625 0 C 94.226562 0 91.582031 -1.335938 90.21875 -4.015625 C 88.851562 -6.691406 88.171875 -9.503906 88.171875 -12.453125 L 88.171875 -13.109375 C 84.453125 -8.410156 79.613281 -4.503906 73.65625 -1.390625 C 67.707031 1.722656 60.851562 3.28125 53.09375 3.28125 Z M 40.3125 -77.1875 C 33.425781 -74.34375 28.015625 -69.425781 24.078125 -62.4375 C 20.148438 -55.445312 18.1875 -47.582031 18.1875 -38.84375 C 18.1875 -31.40625 19.632812 -24.65625 22.53125 -18.59375 C 25.425781 -12.53125 29.492188 -7.695312 34.734375 -4.09375 C 39.984375 -0.488281 46.160156 1.3125 53.265625 1.3125 C 59.921875 1.3125 66.472656 -0.242188 72.921875 -3.359375 C 79.367188 -6.472656 84.453125 -10.867188 88.171875 -16.546875 L 88.171875 -63.75 C 86.523438 -66.15625 84.253906 -68.585938 81.359375 -71.046875 C 78.460938 -73.503906 74.71875 -75.550781 70.125 -77.1875 C 65.539062 -78.820312 59.921875 -79.640625 53.265625 -79.640625 C 49.109375 -79.640625 45.226562 -78.984375 41.625 -77.671875 C 44.25 -75.054688 47.007812 -71.914062 49.90625 -68.25 C 52.800781 -64.59375 55.226562 -60.382812 57.1875 -55.625 C 59.15625 -50.875 60.140625 -45.441406 60.140625 -39.328125 C 60.140625 -33.535156 58.9375 -28.863281 56.53125 -25.3125 C 54.132812 -21.769531 50.96875 -20 47.03125 -20 C 46.375 -20 45.882812 -20.160156 45.5625 -20.484375 C 46.539062 -20.703125 47.847656 -21.578125 49.484375 -23.109375 C 51.128906 -24.640625 52.632812 -26.796875 54 -29.578125 C 55.363281 -32.367188 56.046875 -35.726562 56.046875 -39.65625 C 56.046875 -47.082031 54.625 -53.9375 51.78125 -60.21875 C 48.945312 -66.5 45.125 -72.15625 40.3125 -77.1875 Z M 55.71875 -98.65625 C 48.726562 -98.65625 43.617188 -97.613281 40.390625 -95.53125 C 37.171875 -93.457031 35.5625 -90.945312 35.5625 -88 C 35.5625 -87.019531 35.75 -85.898438 36.125 -84.640625 C 36.507812 -83.378906 37.523438 -81.878906 39.171875 -80.140625 C 41.347656 -80.679688 43.609375 -81.113281 45.953125 -81.4375 C 48.304688 -81.769531 50.6875 -81.9375 53.09375 -81.9375 C 60.738281 -81.9375 67.484375 -80.648438 73.328125 -78.078125 C 79.171875 -75.515625 84.007812 -71.992188 87.84375 -67.515625 C 87.84375 -72.753906 86.582031 -77.75 84.0625 -82.5 C 81.550781 -87.257812 77.921875 -91.140625 73.171875 -94.140625 C 68.421875 -97.148438 62.601562 -98.65625 55.71875 -98.65625 Z M 55.71875 -98.65625 "/></g></g></g><g fill="#000000" fill-opacity="1"><g transform="translate(258.990939, 266.209856)"><g><path d="M 17.203125 -95.375 L 8.1875 -95.375 L 8.1875 -97.34375 C 12.445312 -97.34375 15.75 -98.539062 18.09375 -100.9375 C 20.445312 -103.34375 22.144531 -106.347656 23.1875 -109.953125 C 24.226562 -113.566406 24.859375 -117.253906 25.078125 -121.015625 C 25.296875 -124.785156 25.40625 -128.09375 25.40625 -130.9375 L 27.359375 -130.9375 L 27.359375 -97.34375 L 41.453125 -97.34375 L 41.453125 -95.375 L 27.359375 -95.375 L 27.359375 -18.03125 C 27.359375 -15.40625 27.492188 -12.585938 27.765625 -9.578125 C 28.046875 -6.578125 28.785156 -4.039062 29.984375 -1.96875 C 31.191406 0.101562 33.101562 1.140625 35.71875 1.140625 C 36.269531 1.140625 36.875 1.082031 37.53125 0.96875 C 38.1875 0.863281 38.785156 0.703125 39.328125 0.484375 L 39.328125 2.453125 C 39.003906 2.566406 38.59375 2.734375 38.09375 2.953125 C 37.601562 3.171875 36.429688 3.28125 34.578125 3.28125 C 29.878906 3.28125 26.273438 1.832031 23.765625 -1.0625 C 21.253906 -3.957031 19.53125 -7.535156 18.59375 -11.796875 C 17.664062 -16.054688 17.203125 -20.207031 17.203125 -24.25 Z M 17.203125 -95.375 "/></g></g></g><g fill="#000000" fill-opacity="1"><g transform="translate(281.439713, 266.209856)"><g><path d="M 60.140625 3.28125 C 49.765625 3.28125 40.671875 1.125 32.859375 -3.1875 C 25.046875 -7.507812 18.976562 -13.578125 14.65625 -21.390625 C 10.34375 -29.203125 8.1875 -38.296875 8.1875 -48.671875 C 8.1875 -59.046875 10.34375 -68.140625 14.65625 -75.953125 C 18.976562 -83.765625 25.046875 -89.828125 32.859375 -94.140625 C 40.671875 -98.460938 49.765625 -100.625 60.140625 -100.625 C 68.554688 -100.625 75.492188 -99.394531 80.953125 -96.9375 C 86.410156 -94.476562 90.722656 -91.441406 93.890625 -87.828125 C 97.066406 -84.222656 99.390625 -80.617188 100.859375 -77.015625 C 102.335938 -73.410156 103.296875 -70.378906 103.734375 -67.921875 C 104.171875 -65.460938 104.390625 -64.234375 104.390625 -64.234375 L 17.203125 -64.234375 C 16.984375 -62.816406 16.789062 -61.425781 16.625 -60.0625 C 16.46875 -58.695312 16.390625 -57.25 16.390625 -55.71875 C 16.390625 -46.207031 18.488281 -37.601562 22.6875 -29.90625 C 26.894531 -22.207031 32.847656 -16.0625 40.546875 -11.46875 C 48.253906 -6.882812 57.300781 -4.59375 67.6875 -4.59375 C 76.09375 -4.59375 83.460938 -6.394531 89.796875 -10 C 96.140625 -13.601562 101.113281 -18.707031 104.71875 -25.3125 C 108.320312 -31.925781 110.125 -39.710938 110.125 -48.671875 L 112.09375 -48.671875 C 112.09375 -38.296875 109.929688 -29.203125 105.609375 -21.390625 C 101.296875 -13.578125 95.234375 -7.507812 87.421875 -3.1875 C 79.609375 1.125 70.515625 3.28125 60.140625 3.28125 Z M 17.53125 -66.203125 L 93.25 -66.203125 C 93.132812 -72.535156 91.351562 -78.132812 87.90625 -83 C 84.46875 -87.863281 80.046875 -91.6875 74.640625 -94.46875 C 69.234375 -97.257812 63.472656 -98.65625 57.359375 -98.65625 C 50.910156 -98.65625 44.925781 -97.234375 39.40625 -94.390625 C 33.894531 -91.546875 29.253906 -87.691406 25.484375 -82.828125 C 21.710938 -77.972656 19.0625 -72.429688 17.53125 -66.203125 Z M 17.53125 -66.203125 "/></g></g></g></g></g></g></g></g></mask><clipPath id="d81a48542b"><path d="M 0 0 L 450 0 L 450 450 L 0 450 Z M 0 0 " clip-rule="nonzero"/></clipPath><clipPath id="769f4ea281"><rect x="0" width="450" y="0" height="450"/></clipPath><clipPath id="2ac940bd91"><rect x="0" width="450" y="0" height="450"/></clipPath></defs><g transform="matrix(1, 0, 0, 1, 0, 37)"><g clip-path="url(#aa2530eeab)"><g clip-path="url(#e2d5e2e11e)"><g transform="matrix(1, 0, 0, 1, 0, 1)"><g clip-path="url(#e91561e3da)"><g clip-path="url(#5091122ddc)"><g mask="url(#5363c82c2b)"><g transform="matrix(1, 0, 0, 1, 0, -0.000000000000007105)"><g clip-path="url(#8fbf92d109)"><g clip-path="url(#7a7d969ca7)"><path fill="url(#4448b8daee)" d="M 0 0.996094 L 0 412 L 345.804688 412 L 345.804688 0.996094 Z M 0 0.996094 " fill-rule="nonzero"/></g></g></g></g></g></g></g></g></g></g><g transform="matrix(1, 0, 0, 1, 0, 0)"><g clip-path="url(#2ac940bd91)"><g mask="url(#8f2340ac46)"><g transform="matrix(1, 0, 0, 1, 0, 0)"><g clip-path="url(#769f4ea281)"><g clip-path="url(#d81a48542b)"><rect x="-163.8" fill="url(#610a062ac4)" width="777.6" y="-163.799994" height="777.599972"/></g></g></g></g></g></g></svg>