<svg xmlns="http://www.w3.org/2000/svg" version="1.0" viewBox="-1 180 457 85"><path fill="#fff" d="M1.656 239.719h1.969q1.434.001 2.453-.875a8.5 8.5 0 0 0 1.735-2.125q.715-1.231 1.156-2.282.153-.386.781-2.39a521 521 0 0 0 1.625-5.235q.996-3.217 2.203-7.203l2.531-8.265q1.326-4.295 2.594-8.532 1.266-4.232 2.39-7.937 1.125-3.715 1.97-6.469.856-2.748 1.25-4.125h.656q.433 1.377 1.265 4.125.827 2.754 1.922 6.469l2.375 7.937 2.547 8.532q1.293 4.282 2.5 8.265l2.203 7.203c.664 2.149 1.207 3.891 1.625 5.235q.64 2.004.797 2.39.497 1.05 1.188 2.282a7.8 7.8 0 0 0 1.703 2.125c.676.586 1.492.875 2.453.875h1.969v.656H32.78v-.61h2.532c.406 0 .804-.062 1.203-.187q.609-.186.609-1.234 0-.61-.89-3.844a356 356 0 0 0-2.25-7.875H12.655a64 64 0 0 0-1.11 5.203q-.374 2.332-.374 3.766c0 1.543.398 2.625 1.203 3.25q1.2.924 2.578.922h2.485v.609H1.656Zm16.328-31.797a524 524 0 0 0-2.796 9.265 203 203 0 0 0-2.375 8.782h20.953q-1.05-3.576-2.25-7.532-1.206-3.967-2.422-7.953a596 596 0 0 0-2.344-7.562q-1.126-3.576-2-6.344a488 488 0 0 1-1.375-4.406q-.502-1.624-.5-1.625l.219.656a353 353 0 0 1-2.14 7.156q-1.377 4.455-2.97 9.563m0 0"/><path fill="#fff" d="M43.55 240.375v-.656h2.531q.562.001 1.188-.25.621-.247 1.125-1.016c.332-.508.5-1.266.5-2.266v-22c0-.394-.04-.835-.11-1.328q-.112-.748-.687-1.297-.58-.562-2.016-.562v-.656q2.919.001 4.407-1.282 1.483-1.296 1.484-2.515h.656v8.14a18.4 18.4 0 0 1 1.953-4.03q1.187-1.842 2.829-2.938 1.652-1.11 3.796-1.11 1.594 0 2.454.282c.57.18 1.16.359 1.765.546.602.18 1.488.266 2.656.266q1.595.002 1.922-.547.342-.546.344-.547h.656l-8.312 23.094h-.656l4.078-11.328c.726-2.02 1-3.867.812-5.547q-.27-2.53-1.734-4.047-1.453-1.513-3.985-1.515-2.08 0-3.656 1.156-1.564 1.159-2.64 2.922a16 16 0 0 0-1.625 3.562q-.551 1.815-.657 3.078v18.203q-.002 1.502.5 2.266.5.769 1.157 1.016.654.251 1.156.25h2.531v.656Zm40.927 1.094c-3.492 0-6.547-.727-9.172-2.172a15.25 15.25 0 0 1-6.094-6.094q-2.173-3.937-2.172-9.156 0-5.232 2.172-9.156a15.26 15.26 0 0 1 6.094-6.11c2.625-1.445 5.68-2.172 9.172-2.172q4.23.002 6.984 1.235 2.75 1.236 4.344 3.047c1.063 1.21 1.836 2.421 2.328 3.64.5 1.211.82 2.227.969 3.047q.218 1.235.219 1.234H70.07q-.111.72-.203 1.407-.08.69-.079 1.453 0 4.78 2.11 8.672 2.121 3.879 6 6.187 3.872 2.297 9.11 2.297c2.82 0 5.296-.601 7.421-1.812q3.186-1.811 5-5.141 1.812-3.328 1.813-7.828h.671q-.002 5.22-2.171 9.156a15.26 15.26 0 0 1-6.11 6.094c-2.625 1.445-5.68 2.172-9.156 2.172M70.18 218.156h25.406q-.063-3.187-1.797-5.64-1.722-2.45-4.453-3.844a12.44 12.44 0 0 0-5.797-1.406q-3.253 0-6.03 1.437a13.9 13.9 0 0 0-4.673 3.875q-1.893 2.437-2.656 5.578m63.295-9.796h-1.094q-1.05 0-1.906 1.03c-.563.68-1.07 1.547-1.516 2.61a44 44 0 0 0-1.234 3.406q-.58 1.816-1.125 3.469a16 16 0 0 0-.36 1.172q-.187.69-.468 1.469-.598 2.145-1.422 4.921a451 451 0 0 0-1.625 5.547 275 275 0 0 1-1.453 4.922 221 221 0 0 1-.47 1.719c-.167.586-.343 1.187-.53 1.812l-1.157 4.313a58 58 0 0 1-1.812 5.61 35 35 0 0 1-2.61 5.5q-1.516 2.56-3.53 4.156c-1.337 1.062-2.845 1.554-4.532 1.484v-4.734q3.685-.392 6.234-2.782c1.707-1.593 3.114-3.586 4.22-5.968a34.4 34.4 0 0 0 2.468-7.579l-.36-1.265q-.344-1.265-.953-3.297-.61-2.046-1.328-4.484a893 893 0 0 0-1.422-4.891 226 226 0 0 1-1.265-4.453 414 414 0 0 0-.875-3.172 88 88 0 0 0-1.016-3.5 32 32 0 0 0-1.297-3.438q-.719-1.593-1.61-2.578c-.585-.664-1.241-1-1.968-1h-1.234.14v-.656h12.813v.656h-1.219c-.918 0-1.496.54-1.734 1.61q-.347 1.594-.125 3.734c.07.805.195 1.625.375 2.469q.28 1.266.61 2.422c.288.992.64 2.23 1.046 3.718l1.266 4.61a647 647 0 0 0 1.203 4.344c.375 1.304.648 2.265.828 2.89q.215-.762.625-2.25c.281-.988.601-2.113.969-3.375q.543-1.905 1.093-3.875.56-1.981 1.063-3.64.217-.715.375-1.313c.113-.406.207-.773.281-1.11q.374-1.592.672-3.343.311-1.764.36-3.328.057-1.576-.376-2.563c-.293-.664-.808-1-1.547-1h-1.203v-.656h9.735Zm0 0"/><path fill="#fff" d="M145.851 241.469q-3.627-.001-6.797-1.344a17.5 17.5 0 0 1-5.562-3.734 17.4 17.4 0 0 1-3.735-5.547q-1.345-3.171-1.344-6.797-.002-3.64 1.344-6.797a17.4 17.4 0 0 1 3.735-5.563 17.6 17.6 0 0 1 5.562-3.734q3.17-1.343 6.797-1.344 3.622.001 6.781 1.344a17.4 17.4 0 0 1 5.563 3.734 17.4 17.4 0 0 1 3.734 5.563q1.36 3.158 1.36 6.797 0 3.627-1.36 6.797a17.4 17.4 0 0 1-3.734 5.547 17.4 17.4 0 0 1-5.563 3.734q-3.159 1.343-6.781 1.344m-15.078-21.328q0 3.737 1.265 7.14a18.8 18.8 0 0 0 3.625 6.047q2.374 2.642 5.72 4.188 3.357 1.546 7.546 1.546 3.684.002 6.344-1.484 2.67-1.499 4.156-4c.988-1.664 1.484-3.547 1.484-5.64q-.002-3.67-1.328-7.047a19.1 19.1 0 0 0-3.765-6.063 18.2 18.2 0 0 0-5.766-4.234q-3.33-1.561-7.281-1.563-3.644 0-6.344 1.453-2.689 1.454-4.172 3.985-1.486 2.53-1.484 5.672M162.617 211v-.656q2.919.001 4.407-1.282 1.483-1.296 1.484-2.515h.656v29.047q0 2.032.72 3.61.714 1.563 2.577 1.562 2.31 0 4.063-1.313 1.762-1.325 2.968-3.312c.813-1.32 1.438-2.641 1.875-3.954.446-1.32.688-2.406.72-3.25v-14.75c0-.394-.04-.835-.11-1.328q-.112-.748-.688-1.297-.58-.562-2-.562v-.656q2.905.001 4.391-1.282 1.483-1.296 1.484-2.515h.672v27.344q-.001 2.25.485 2.89.497.626 1.265.625h1.547v.656c-.512 0-1.148.04-1.906.11-.75.074-1.524.351-2.313.828q-1.171.721-2.156 2.469h-.672v-9.344a21 21 0 0 1-2.234 4.516q-1.395 2.144-3.235 3.484-1.844 1.343-4.046 1.344c-2.125 0-3.852-.57-5.172-1.703-1.313-1.133-1.969-3.204-1.969-6.204v-19.375c0-.394-.04-.835-.11-1.328q-.112-.748-.687-1.297-.58-.562-2.016-.562m52.957 30.469q-4.565 0-7.953-1.922-3.375-1.92-5.25-5.188-1.861-3.28-1.86-7.187-.001-3.124 1.204-5.844a14 14 0 0 1 3.437-4.734q2.232-2.016 5.313-2.953a25 25 0 0 0-2.094-1.782 21 21 0 0 0-2.297-1.562 11.5 11.5 0 0 1 4.5-2.813q2.593-.874 5.782-.875 4.999.001 8.234 1.813 3.246 1.814 4.875 4.984 1.624 3.16 1.625 7.11v14.14q-.001 2.642.766 3.86.78 1.205 3.093 1.203v.656h-4.25c-1.312 0-2.199-.445-2.656-1.344a6.1 6.1 0 0 1-.687-2.844v-.218q-1.875 2.379-4.875 3.937-3.002 1.562-6.907 1.563m-4.28-27c-2.313.96-4.134 2.61-5.454 4.953q-1.97 3.516-1.969 7.922 0 3.738 1.453 6.797 1.453 3.047 4.094 4.859 2.638 1.814 6.219 1.812 3.358 0 6.594-1.562c2.164-1.04 3.875-2.52 5.125-4.438v-15.828q-.832-1.218-2.297-2.453-1.456-1.23-3.766-2.062-2.298-.827-5.656-.828-2.098.002-3.906.671c.882.875 1.812 1.93 2.78 3.157q1.455 1.844 2.438 4.234c.664 1.594 1 3.418 1 5.469q0 2.925-1.218 4.719-1.208 1.78-3.188 1.78c-.219 0-.383-.054-.484-.171q.48-.106 1.312-.875.825-.778 1.516-2.172.686-1.405.687-3.39 0-3.733-1.437-6.891a20.1 20.1 0 0 0-3.844-5.703m5.17-7.203q-3.516.002-5.14 1.046c-1.086.7-1.625 1.543-1.625 2.532q0 .486.188 1.125c.125.418.46.922 1.015 1.515q1.109-.28 2.282-.437 1.184-.17 2.39-.172 3.855.001 6.797 1.297 2.953 1.284 4.875 3.547 0-2.639-1.265-5.032-1.266-2.389-3.657-3.906-2.39-1.513-5.86-1.515m26.003 32.453h2.532q.562.001 1.187-.25.622-.247 1.125-1.016c.332-.508.5-1.266.5-2.266v-44.265q-.002-.608-.11-1.344-.111-.748-.687-1.297-.58-.546-2.015-.547v-.672q2.918.001 4.406-1.28 1.483-1.295 1.484-2.5h.657v27.327q.997-1.263 2.593-2.422 1.593-1.154 4-1.89 2.42-.75 5.782-.75 5.56 0 9.375 2.344 3.825 2.33 5.828 6.265 2.015 3.937 2.015 8.719 0 3.58-1.156 6.75a17.5 17.5 0 0 1-3.328 5.61 15.9 15.9 0 0 1-5.172 3.843q-3.001 1.39-6.734 1.39-3.8-.001-6.39-.765-2.582-.763-4.235-2-1.64-1.249-2.578-2.516-.048 1.55-1.157 2.875-1.096 1.313-4.062 1.313h-3.86Zm9.079-6.282c0 .262.007.54.03.829q.031.44.032.937 1.201 1.816 2.797 2.86 1.591 1.048 3.219 1.546 1.624.487 2.937.625 1.326.141 1.985.141 3.029 0 5.687-1.266a15.2 15.2 0 0 0 4.734-3.515q2.06-2.262 3.22-5.25 1.154-2.998 1.155-6.407 0-3.42-1.156-6.39-1.158-2.966-3.219-5.188a15 15 0 0 0-4.734-3.468 13.4 13.4 0 0 0-5.687-1.235q-.657 0-2.016.14c-.898.087-1.887.282-2.969.595q-1.61.469-3.203 1.484-1.594 1.019-2.812 2.828Zm0 0"/><path fill="#fff" d="M278.268 240.375v-.656h2.532q.562.001 1.187-.25.622-.247 1.125-1.016c.332-.508.5-1.266.5-2.266v-22q-.002-.59-.11-1.328-.111-.748-.687-1.297-.58-.562-2.015-.562v-.656q2.918.001 4.406-1.282 1.483-1.296 1.484-2.515h.657v8.14a18.4 18.4 0 0 1 1.953-4.03q1.185-1.842 2.828-2.938 1.652-1.11 3.797-1.11 1.593 0 2.453.282c.57.18 1.16.359 1.765.546.602.18 1.489.266 2.657.266q1.593.002 1.922-.547.341-.546.343-.547h.657l-8.313 23.094h-.656l4.078-11.328c.726-2.02 1-3.867.812-5.547q-.27-2.53-1.734-4.047-1.454-1.513-3.984-1.515-2.08 0-3.657 1.156-1.563 1.159-2.64 2.922a16 16 0 0 0-1.625 3.562q-.55 1.815-.656 3.078v18.203c0 1 .164 1.758.5 2.266q.499.769 1.156 1.016.654.251 1.156.25h2.531v.656Zm38.552 1.094q-4.565 0-7.953-1.922-3.375-1.92-5.25-5.188-1.861-3.28-1.86-7.187-.002-3.124 1.204-5.844a14 14 0 0 1 3.437-4.734q2.231-2.016 5.313-2.953a25 25 0 0 0-2.094-1.782 21 21 0 0 0-2.297-1.562 11.5 11.5 0 0 1 4.5-2.813q2.592-.874 5.781-.875 4.999.001 8.235 1.813 3.246 1.814 4.875 4.984 1.624 3.16 1.625 7.11v14.14q0 2.642.765 3.86.78 1.205 3.094 1.203v.656h-4.25c-1.312 0-2.2-.445-2.656-1.344a6.1 6.1 0 0 1-.688-2.844v-.218q-1.875 2.379-4.875 3.937-3.002 1.562-6.906 1.563m-4.281-27q-3.471 1.44-5.453 4.953-1.97 3.516-1.97 7.922 0 3.738 1.454 6.797 1.452 3.047 4.094 4.859 2.638 1.814 6.219 1.812 3.358 0 6.593-1.562c2.164-1.04 3.875-2.52 5.125-4.438v-15.828q-.831-1.218-2.297-2.453c-.968-.82-2.226-1.508-3.765-2.062q-2.298-.827-5.656-.828-2.098.002-3.907.671 1.327 1.315 2.782 3.157 1.452 1.844 2.437 4.234c.664 1.594 1 3.418 1 5.469q0 2.925-1.219 4.719-1.207 1.78-3.187 1.78c-.219 0-.383-.054-.485-.171q.48-.106 1.313-.875.825-.778 1.516-2.172.686-1.405.687-3.39 0-3.733-1.437-6.891a20.1 20.1 0 0 0-3.844-5.703m5.172-7.203q-3.517.002-5.14 1.046c-1.087.7-1.626 1.543-1.626 2.532q0 .486.188 1.125c.125.418.46.922 1.015 1.515q1.108-.28 2.281-.437 1.184-.17 2.391-.172 3.855.001 6.797 1.297 2.954 1.284 4.875 3.547 0-2.639-1.266-5.032-1.265-2.389-3.656-3.906-2.39-1.513-5.86-1.515m0 0"/><path fill="#fff" d="M331.119 240.375v-.656h2.53q.563.001 1.188-.25.622-.247 1.125-1.016c.332-.508.5-1.266.5-2.266v-22c0-.394-.039-.835-.109-1.328q-.112-.748-.688-1.297-.58-.562-2.015-.562v-.656q2.918.001 4.406-1.282 1.483-1.296 1.484-2.515h.657v8.312a18.6 18.6 0 0 1 2.265-4.156c.914-1.258 1.985-2.266 3.203-3.016a7.56 7.56 0 0 1 4.047-1.14q3.187.002 5.172 1.703c1.32 1.137 1.985 3.21 1.985 6.219v21.718q-.001 1.502.484 2.266.5.769 1.156 1.016.67.251 1.156.25h2.532v.656H347.79v-.656h2.532a3.2 3.2 0 0 0 1.172-.25q.637-.247 1.125-1.016c.332-.508.5-1.266.5-2.266v-23.75c0-1.351-.23-2.562-.688-3.625-.46-1.07-1.328-1.609-2.61-1.609-1.542 0-2.902.399-4.077 1.188a11.3 11.3 0 0 0-2.97 2.953q-1.205 1.752-1.843 3.562-.628 1.815-.734 3.078v18.203c0 1 .164 1.758.5 2.266q.498.769 1.156 1.016.654.251 1.156.25h2.531v.656Zm0 0"/><path fill="#fff" d="M375.178 241.469q-3.69-.001-6.719-1.39a15.8 15.8 0 0 1-5.187-3.845 17.3 17.3 0 0 1-3.328-5.609q-1.159-3.17-1.157-6.75-.001-4.782 2-8.719c1.344-2.625 3.297-4.71 5.86-6.265q3.856-2.344 9.36-2.344 3.404 0 5.796.75c1.594.492 2.93 1.12 4.016 1.89q1.624 1.16 2.562 2.422v-19.687q-.002-.608-.11-1.344-.111-.748-.687-1.297-.58-.546-2.015-.547v-.672q2.918.001 4.406-1.28 1.483-1.295 1.484-2.5h.657v50.374q0 2.642.765 3.86.78 1.205 3.094 1.203v.656h-4.25q-1.97 0-2.61-1.313a7.9 7.9 0 0 1-.734-2.875q-.94 1.267-2.594 2.516-1.642 1.237-4.234 2-2.579.764-6.375.766m-12.594-17.532c0 2.274.383 4.407 1.157 6.407q1.155 2.988 3.218 5.25 2.06 2.25 4.72 3.515a13.15 13.15 0 0 0 5.702 1.266q.657 0 1.969-.14 1.324-.14 2.953-.626 1.624-.497 3.219-1.547 1.591-1.042 2.797-2.859l.062-22.5q-1.219-1.81-2.812-2.828-1.595-1.015-3.219-1.484c-1.086-.313-2.074-.508-2.969-.594-.898-.094-1.562-.14-2-.14q-3.033.001-5.703 1.234-2.658 1.236-4.719 3.468-2.064 2.221-3.218 5.188-1.159 2.97-1.157 6.39m42.02-12.984v-26.672h.657q0 1.817.375 2.672c.257.563.593.918 1 1.063q.607.22 1.156.218 1.37 0 2.578-.515a29 29 0 0 0 2.64-1.328q1.437-.798 3.407-1.594 1.982-.797 4.844-1.313 2.857-.528 6.875-.53 5.123.002 9.578 1.655 4.453 1.643 7.828 4.703 3.388 3.05 5.281 7.282 1.906 4.237 1.906 9.406-.001 4.455-1.718 8.312a21.2 21.2 0 0 1-4.75 6.766q-3.05 2.908-7.094 4.531c-2.7 1.086-5.606 1.625-8.719 1.625-2.46 0-5.008-.382-7.64-1.156v7.531h-4.016v-10.015q2.091 1.05 3.844 1.625 1.762.58 3.578.781 1.811.187 4.062.187 3.797.001 7.172-1.703 3.389-1.699 5.969-4.625a21.3 21.3 0 0 0 4-6.625 19.1 19.1 0 0 0 1.234-7.672 30 30 0 0 0-1.562-8.218c-.899-2.625-2.188-4.961-3.875-7.016q-2.532-3.075-6.282-4.89c-2.492-1.22-5.421-1.829-8.796-1.829-4.618 0-8.414.649-11.391 1.938q-4.454 1.922-6.984 5.531-2.52 3.599-3.516 8.625-.984 5.034-.984 11.25Zm16.282 30.516q-1.049 0-1.844-.797-.797-.796-.797-1.844 0-1.09.797-1.86.795-.78 1.844-.78 1.09 0 1.859.78a2.55 2.55 0 0 1 .766 1.86q-.002 1.049-.766 1.844a2.5 2.5 0 0 1-1.86.797m0 0"/></svg>