<svg xmlns="http://www.w3.org/2000/svg" version="1.0" viewBox="80 178 290 70"><path fill="#6b4f8f" d="M83.92 221.978v-.484h1.86q.389.002.86-.172.466-.187.828-.75.359-.576.36-1.672v-34.25q-.002-1.137-.36-1.687-.362-.544-.828-.72a2.4 2.4 0 0 0-.86-.187h-1.86v-.484h13.938q1.81 0 3.704.562 1.904.563 3.484 1.782 1.574 1.218 2.547 3.14c.644 1.274.969 2.813.969 4.625 0 1.668-.352 3.149-1.047 4.438a10.2 10.2 0 0 1-2.75 3.25 11.6 11.6 0 0 1-3.672 1.922q2.904.204 5.187 1.64a10.7 10.7 0 0 1 3.61 3.735c.894 1.53 1.343 3.257 1.343 5.172q-.001 3.033-1.375 5.312-1.376 2.284-3.578 3.563a9.4 9.4 0 0 1-4.75 1.265Zm6.86-20.203v19.719h6.828c2.157 0 3.93-.317 5.329-.953 1.406-.633 2.507-1.446 3.312-2.438.813-1 1.383-2.05 1.719-3.156q.516-1.654.515-3.063c0-.945-.199-2-.593-3.156q-.58-1.732-1.938-3.312-1.346-1.577-3.531-2.61-2.19-1.03-5.422-1.031Zm5.047-19.719H90.78v19.235h4.97q3.404.002 5.562-1.297 2.156-1.296 3.187-3.469 1.032-2.184 1.031-4.844 0-1.701-.562-3.39a9.2 9.2 0 0 0-1.766-3.11c-.793-.945-1.805-1.703-3.031-2.265-1.219-.57-2.668-.86-4.344-.86m0 0"/><path fill="#6b4f8f" d="M123.551 222.79q-3.844 0-6.734-1.593a11.4 11.4 0 0 1-4.484-4.484q-1.594-2.89-1.594-6.735 0-3.842 1.594-6.734a11.3 11.3 0 0 1 4.484-4.485q2.89-1.593 6.734-1.593c2.07 0 3.782.308 5.125.922q2.03.909 3.204 2.234 1.169 1.33 1.718 2.672.546 1.33.703 2.234c.102.606.157.906.157.906h-21.485a18 18 0 0 0-.156 1.047q-.047.502-.047 1.063 0 3.517 1.547 6.36 1.56 2.847 4.406 4.546 2.843 1.704 6.688 1.703 3.107.001 5.453-1.328 2.342-1.343 3.672-3.781 1.343-2.45 1.344-5.766h.484q0 3.845-1.594 6.735a11.3 11.3 0 0 1-4.484 4.484c-1.93 1.062-4.172 1.594-6.735 1.594m-10.5-17.14h18.657q-.036-2.342-1.313-4.14a9 9 0 0 0-3.265-2.829 9.2 9.2 0 0 0-4.266-1.031 9.46 9.46 0 0 0-4.422 1.063 10.1 10.1 0 0 0-3.437 2.843q-1.393 1.799-1.954 4.094m0 0"/><path fill="#6b4f8f" d="M131.84 221.494h1.859q.404.002.86-.172.466-.187.827-.75.375-.576.375-1.672v-20.437h-3.64v-.485h3.64v-7.469q-.002-1.5.36-3.187a9.9 9.9 0 0 1 1.265-3.172q.904-1.482 2.547-2.437c1.094-.633 2.489-.954 4.188-.954q1.98.002 3.234.532 1.247.532 2.031 1.078.796.532 1.282.531.435 0 .765-.437.327-.45.766-1.704h.531l-5.172 14.391h-.484l1.203-3.469q1.171-3.405.953-5.75-.221-2.341-1.562-3.547-1.331-1.218-3.547-1.218-2.315.002-3.828.859-1.5.844-2.25 2.156c-.5.875-.75 1.758-.75 2.64 0 .544.054 1.024.171 1.438q.188.628.422 1.438.246.813.422 2.078.188 1.266.188 3.328v2.875h3.64v.485h-3.64V218.9c0 .73.117 1.29.36 1.672q.373.563.858.75.48.174.844.172h1.86v.484h-10.579Zm0 0"/><path fill="#6b4f8f" d="M153.53 222.79q-2.671 0-5-.984a13.1 13.1 0 0 1-4.077-2.75 13.1 13.1 0 0 1-2.75-4.078q-.985-2.327-.985-5 0-2.67.985-4.984a12.88 12.88 0 0 1 6.828-6.828c1.55-.664 3.219-1 5-1s3.441.336 4.984 1q2.326.985 4.078 2.75a12.6 12.6 0 0 1 2.75 4.078q.999 2.314 1 4.984-.001 2.673-1 5a12.88 12.88 0 0 1-6.828 6.828q-2.314.985-4.984.985m-11.077-15.687q-.002 2.753.922 5.266a13.9 13.9 0 0 0 2.672 4.437 12.9 12.9 0 0 0 4.203 3.078q2.465 1.125 5.547 1.125 2.7.001 4.656-1.093 1.968-1.092 3.062-2.922c.727-1.227 1.094-2.61 1.094-4.14q0-2.72-.984-5.204a14.1 14.1 0 0 0-2.766-4.437 13.3 13.3 0 0 0-4.25-3.11q-2.437-1.156-5.344-1.156-2.66 0-4.64 1.078-1.988 1.065-3.078 2.922-1.094 1.861-1.094 4.156m0 0"/><path fill="#6b4f8f" d="M164.243 221.978v-.484h1.86c.27 0 .554-.055.86-.172q.466-.187.827-.75.375-.576.375-1.672v-16.156q0-.434-.093-.985a1.64 1.64 0 0 0-.5-.953q-.425-.406-1.47-.406v-.484q2.14 0 3.22-.938 1.091-.951 1.093-1.844h.485v5.97q.575-1.607 1.437-2.954.872-1.358 2.078-2.172c.813-.539 1.742-.812 2.797-.812q1.172.002 1.797.203c.414.136.844.273 1.281.406q.669.204 1.969.203 1.172.002 1.406-.406c.164-.27.25-.406.25-.406h.485l-6.094 16.968h-.484l2.984-8.312q.808-2.232.61-4.094-.204-1.856-1.282-2.969-1.065-1.108-2.922-1.109c-1.023 0-1.918.29-2.687.86a7.4 7.4 0 0 0-1.953 2.14q-.785 1.282-1.188 2.625-.392 1.33-.484 2.25V218.9q-.002 1.097.359 1.672.374.563.86.75.48.174.843.172h1.86v.484Zm30.057.812q-3.845 0-6.735-1.593a11.4 11.4 0 0 1-4.484-4.484q-1.594-2.89-1.594-6.735 0-3.842 1.594-6.734a11.3 11.3 0 0 1 4.484-4.485q2.89-1.593 6.735-1.593c2.07 0 3.781.308 5.125.922 1.351.605 2.422 1.351 3.203 2.234.781.887 1.351 1.777 1.719 2.672q.544 1.33.703 2.234c.101.606.156.906.156.906h-21.484q-.096.533-.157 1.047-.046.502-.046 1.063 0 3.517 1.546 6.36 1.56 2.847 4.407 4.546 2.843 1.704 6.687 1.703 3.107.001 5.453-1.328 2.343-1.343 3.672-3.781 1.343-2.45 1.344-5.766h.484q0 3.845-1.593 6.735a11.3 11.3 0 0 1-4.485 4.484q-2.893 1.594-6.734 1.594m-10.5-17.14h18.656q-.034-2.342-1.312-4.14a9 9 0 0 0-3.266-2.829 9.2 9.2 0 0 0-4.266-1.031 9.46 9.46 0 0 0-4.422 1.063 10.1 10.1 0 0 0-3.437 2.843c-.93 1.2-1.578 2.563-1.953 4.094m26.415-7.673h9.422v.485h-.89q-1.019 0-1.282.75-.252.752-.093 2.359c.05.562.144 1.164.28 1.797q.201.953.454 1.797.31 1.096.75 2.812c.3 1.149.613 2.344.938 3.594.32 1.25.617 2.383.89 3.39q.405 1.518.61 2.204.154-.562.484-1.735.327-1.171.719-2.687.404-1.512.812-3.047.406-1.531.735-2.75.152-.562.28-.984.124-.434.204-.797.406-1.53.64-3.078.249-1.562.016-2.594-.222-1.031-1.312-1.031h-.891v-.485h8.047v.485h-.89q-1.003 0-1.266.75-.269.752-.11 2.359c.051.562.145 1.164.282 1.797q.2.953.453 1.797.31 1.096.75 2.812c.3 1.149.613 2.344.937 3.594.32 1.25.617 2.383.89 3.39q.405 1.518.61 2.204.155-.562.485-1.735.325-1.171.734-2.687.405-1.512.797-3.047.405-1.531.734-2.75a32 32 0 0 1 .281-.984q.122-.434.204-.797.405-1.53.64-3.078.248-1.562.016-2.594c-.149-.688-.578-1.031-1.297-1.031h-.89v-.485h7.14v.485h-.797q-1.065 0-1.828 1.078-.768 1.065-1.36 2.64a55 55 0 0 0-1.062 3.188q-.127.408-.266.875c-.093.304-.21.656-.343 1.062a173 173 0 0 0-2.063 7.75q-.971 4.05-1.937 7.735h-.485l-.328-1.157q-.315-1.155-.844-3.046c-.343-1.27-.726-2.657-1.14-4.157q-.626-2.263-1.235-4.531a499 499 0 0 0-1.14-4.156q-.516-1.905-.797-3-.376 1.126-.734 2.281-.363 1.158-.688 2.281a147 147 0 0 0-2.062 7.75q-.973 4.05-2.016 7.735h-.438q-.002 0-.296-1.032-.283-1.03-.735-2.718a602 602 0 0 0-.969-3.688c-.343-1.32-.695-2.64-1.046-3.953-.344-1.32-.657-2.516-.938-3.578a100 100 0 0 0-.672-2.453q-.409-1.607-1.015-3.203-.598-1.606-1.407-2.657-.815-1.044-1.86-1.046h-.812Zm0 0"/><path fill="#6b4f8f" d="M249.412 222.79q-3.844 0-6.734-1.593a11.4 11.4 0 0 1-4.485-4.484q-1.593-2.89-1.593-6.735 0-3.842 1.593-6.734a11.3 11.3 0 0 1 4.485-4.485q2.89-1.593 6.734-1.593c2.07 0 3.781.308 5.125.922q2.03.909 3.203 2.234c.782.887 1.352 1.777 1.72 2.672q.544 1.33.702 2.234.154.907.156.906h-21.484a18 18 0 0 0-.156 1.047q-.047.502-.047 1.063 0 3.517 1.547 6.36 1.559 2.847 4.406 4.546 2.843 1.704 6.688 1.703 3.107.001 5.453-1.328 2.342-1.343 3.672-3.781 1.342-2.45 1.343-5.766h.485q0 3.845-1.594 6.735a11.3 11.3 0 0 1-4.484 4.484c-1.93 1.062-4.172 1.594-6.735 1.594m-10.5-17.14h18.656q-.034-2.342-1.312-4.14a9 9 0 0 0-3.266-2.829 9.2 9.2 0 0 0-4.265-1.031 9.46 9.46 0 0 0-4.422 1.063 10.1 10.1 0 0 0-3.438 2.843c-.93 1.2-1.578 2.563-1.953 4.094m28.041 15.843h1.86q.402.002.859-.172c.312-.125.585-.375.828-.75q.375-.576.375-1.672v-32.516q0-.449-.094-1a1.57 1.57 0 0 0-.5-.937c-.281-.27-.774-.406-1.469-.406v-.485q2.14.001 3.219-.953c.726-.633 1.094-1.25 1.094-1.844h.484v20.094q.733-.938 1.906-1.781 1.173-.856 2.953-1.39 1.78-.547 4.235-.548 4.078.001 6.89 1.72 2.811 1.704 4.282 4.593c.988 1.93 1.484 4.062 1.484 6.406q-.002 2.626-.86 4.953a12.6 12.6 0 0 1-2.437 4.125 11.6 11.6 0 0 1-3.797 2.828q-2.203 1.032-4.953 1.032c-1.855 0-3.418-.196-4.687-.578q-1.892-.562-3.11-1.47c-.812-.6-1.449-1.218-1.906-1.843q-.035 1.143-.844 2.11-.816.97-2.984.968h-2.828Zm6.656-4.61q-.001.282.016.61.03.33.03.687.892 1.33 2.063 2.11a9 9 0 0 0 2.36 1.125q1.184.363 2.156.468.983.094 1.469.094a9.6 9.6 0 0 0 4.172-.922 11.2 11.2 0 0 0 3.484-2.593 12 12 0 0 0 2.36-3.86q.843-2.202.843-4.703 0-2.514-.844-4.687a11.8 11.8 0 0 0-2.359-3.813 11 11 0 0 0-3.484-2.547 9.7 9.7 0 0 0-4.172-.922c-.324 0-.82.04-1.485.11q-.985.095-2.187.437a9 9 0 0 0-2.36 1.094q-1.17.752-2.062 2.078Zm0 0"/><path fill="#6b4f8f" d="M307.272 222.79q-3.844 0-6.734-1.593a11.4 11.4 0 0 1-4.484-4.484q-1.594-2.89-1.594-6.735 0-3.842 1.594-6.734a11.3 11.3 0 0 1 4.484-4.485q2.89-1.593 6.734-1.593c2.07 0 3.782.308 5.125.922q2.03.909 3.203 2.234c.782.887 1.352 1.777 1.72 2.672q.544 1.33.702 2.234.155.907.157.906h-21.485a18 18 0 0 0-.156 1.047q-.047.502-.047 1.063 0 3.517 1.547 6.36 1.559 2.847 4.406 4.546 2.843 1.704 6.688 1.703 3.107.001 5.453-1.328 2.342-1.343 3.672-3.781 1.342-2.45 1.343-5.766h.485q0 3.845-1.594 6.735a11.3 11.3 0 0 1-4.484 4.484c-1.93 1.062-4.172 1.594-6.735 1.594m-10.5-17.14h18.657q-.036-2.342-1.313-4.14a9 9 0 0 0-3.266-2.829 9.2 9.2 0 0 0-4.265-1.031 9.46 9.46 0 0 0-4.422 1.063 10.1 10.1 0 0 0-3.438 2.843c-.93 1.2-1.578 2.563-1.953 4.094m0 0"/><path fill="#6b4f8f" d="M313.326 233.619q.001-2.752 1.906-4.953 1.905-2.204 5.11-3.844 3.215-1.629 7.14-2.594a39 39 0 0 1-3.562-.234q-1.61-.172-2.594-.735c-.648-.382-.969-.953-.969-1.703q0-.762.75-1.593.75-.828 2.157-1.438 1.419-.61 3.406-.61-2.987-.233-5.235-1.468c-1.5-.82-2.664-1.906-3.484-3.25q-1.219-2.03-1.219-4.656 0-2.825 1.407-4.922 1.417-2.11 3.984-3.281 2.56-1.172 5.953-1.172 2.31 0 4.484.609c.22.055.415.102.594.14q.263.065.672.063h7.469v.485h-6.953c1.613.78 2.875 1.867 3.781 3.25q1.36 2.08 1.36 4.828c0 1.886-.477 3.539-1.423 4.953q-1.406 2.126-3.984 3.297-2.565 1.171-6 1.172-.487 0-1.531.14-1.05.142-2.203.453-1.16.3-1.969.828-.797.518-.797 1.282 0 .644.797.843.809.205 2.156.204a55 55 0 0 0 3.656-.141q2.075-.14 4.22-.14 1.902.001 3.671.25 1.781.236 3.188.859 1.417.627 2.25 1.828.827 1.216.828 3.172-.001 1.858-.969 3.828-.972 1.98-2.734 3.844-1.752 1.857-4.172 3.328-2.425 1.483-5.36 2.343-2.923.874-6.156.875-2.783 0-4.969-.796-2.19-.785-3.422-2.172c-.82-.93-1.234-1.985-1.234-3.172m2.719-.688c0 1.125.36 2.117 1.078 2.985q1.091 1.295 3.031 2 1.951.703 4.453.703c1.157 0 2.446-.18 3.875-.531a23.4 23.4 0 0 0 4.328-1.532 19 19 0 0 0 4-2.453 12.2 12.2 0 0 0 2.922-3.36q1.125-1.892 1.125-4.202 0-1.688-1.03-2.61-1.032-.908-2.72-1.265c-1.117-.243-2.34-.375-3.672-.407a222 222 0 0 0-3.906-.03q-3.909.637-6.969 2.062-3.046 1.436-4.78 3.593-1.735 2.17-1.735 5.047m12.031-35.281a8.47 8.47 0 0 0-4.219 1.11q-1.954 1.112-3.172 3.109c-.804 1.336-1.203 2.89-1.203 4.672q-.001 2.672 1.203 4.672 1.218 2.003 3.172 3.14a8.37 8.37 0 0 0 4.22 1.125 8.3 8.3 0 0 0 4.218-1.125q1.966-1.137 3.172-3.14 1.218-2 1.218-4.672c0-1.782-.406-3.336-1.218-4.672q-1.206-1.997-3.172-3.11a8.4 8.4 0 0 0-4.219-1.109m0 0"/><path fill="#6b4f8f" d="M337.177 221.494h1.86q.403.002.859-.172c.313-.125.586-.375.828-.75q.375-.576.375-1.672v-16.156q0-.434-.094-.985a1.64 1.64 0 0 0-.5-.953c-.28-.27-.773-.406-1.468-.406v-.484q2.14 0 3.218-.938 1.092-.951 1.094-1.844h.485V218.9q-.002 1.097.359 1.672.374.563.86.75.48.174.843.172h1.86v.484h-10.579Zm5.282-25.86q-.799.001-1.391-.578a1.94 1.94 0 0 1-.578-1.406q-.001-.81.578-1.39c.394-.383.86-.579 1.39-.579.54 0 1.004.196 1.391.578q.593.581.594 1.391-.002.815-.594 1.406a1.9 1.9 0 0 1-1.39.578m0 0"/><path fill="#6b4f8f" d="M344.046 221.978v-.484h1.86q.403.002.859-.172c.312-.125.585-.375.828-.75q.375-.576.375-1.672v-16.156q0-.434-.094-.985a1.64 1.64 0 0 0-.5-.953c-.281-.27-.774-.406-1.469-.406v-.484q2.14 0 3.219-.938c.726-.633 1.094-1.25 1.094-1.844h.484v6.094a14 14 0 0 1 1.656-3.047q1.013-1.388 2.36-2.218a5.63 5.63 0 0 1 2.984-.829q2.344.001 3.797 1.25 1.453 1.253 1.453 4.563V218.9c0 .73.117 1.29.36 1.672q.374.563.859.75.48.174.844.172h1.859v.484H356.28v-.484h1.86q.405.002.875-.172c.312-.125.585-.375.828-.75q.359-.576.36-1.672v-17.453q0-1.483-.517-2.656c-.336-.782-.968-1.172-1.906-1.172q-1.706.001-3 .875a8.1 8.1 0 0 0-2.172 2.156 11 11 0 0 0-1.36 2.625c-.304.887-.483 1.637-.546 2.25V218.9c0 .73.117 1.29.36 1.672q.374.563.859.75.48.174.844.172h1.859v.484Zm0 0"/></svg>