<svg xmlns="http://www.w3.org/2000/svg" xmlns:xlink="http://www.w3.org/1999/xlink" width="600" zoomAndPan="magnify" viewBox="0 0 450 449.999984" height="600" preserveAspectRatio="xMidYMid meet" version="1.0"><defs><g/></defs><g fill="#5a4377" fill-opacity="1"><g transform="translate(54.985449, 218.996453)"><g><path d="M 1.875 0 L 1.875 -0.75 L 4.734375 -0.75 C 5.148438 -0.75 5.59375 -0.84375 6.0625 -1.03125 C 6.539062 -1.21875 6.96875 -1.597656 7.34375 -2.171875 C 7.71875 -2.753906 7.90625 -3.609375 7.90625 -4.734375 L 7.90625 -57.546875 C 7.90625 -58.710938 7.71875 -59.570312 7.34375 -60.125 C 6.96875 -60.6875 6.539062 -61.0625 6.0625 -61.25 C 5.59375 -61.4375 5.148438 -61.53125 4.734375 -61.53125 L 1.875 -61.53125 L 1.875 -62.28125 L 23.359375 -62.28125 C 25.222656 -62.28125 27.128906 -61.988281 29.078125 -61.40625 C 31.035156 -60.820312 32.820312 -59.90625 34.4375 -58.65625 C 36.0625 -57.414062 37.367188 -55.8125 38.359375 -53.84375 C 39.359375 -51.875 39.859375 -49.492188 39.859375 -46.703125 C 39.859375 -44.128906 39.316406 -41.847656 38.234375 -39.859375 C 37.160156 -37.867188 35.75 -36.195312 34 -34.84375 C 32.257812 -33.5 30.375 -32.515625 28.34375 -31.890625 C 31.332031 -31.679688 34 -30.835938 36.34375 -29.359375 C 38.6875 -27.890625 40.539062 -25.96875 41.90625 -23.59375 C 43.28125 -21.226562 43.96875 -18.570312 43.96875 -15.625 C 43.96875 -12.519531 43.257812 -9.789062 41.84375 -7.4375 C 40.4375 -5.09375 38.601562 -3.265625 36.34375 -1.953125 C 34.082031 -0.648438 31.640625 0 29.015625 0 Z M 12.453125 -31.140625 L 12.453125 -0.75 L 22.984375 -0.75 C 26.304688 -0.75 29.046875 -1.234375 31.203125 -2.203125 C 33.359375 -3.179688 35.054688 -4.4375 36.296875 -5.96875 C 37.546875 -7.507812 38.429688 -9.128906 38.953125 -10.828125 C 39.472656 -12.535156 39.734375 -14.113281 39.734375 -15.5625 C 39.734375 -17.019531 39.429688 -18.640625 38.828125 -20.421875 C 38.222656 -22.210938 37.222656 -23.914062 35.828125 -25.53125 C 34.441406 -27.15625 32.628906 -28.492188 30.390625 -29.546875 C 28.148438 -30.609375 25.367188 -31.140625 22.046875 -31.140625 Z M 20.234375 -61.53125 L 12.453125 -61.53125 L 12.453125 -31.890625 L 20.109375 -31.890625 C 23.597656 -31.890625 26.453125 -32.550781 28.671875 -33.875 C 30.898438 -35.207031 32.539062 -36.992188 33.59375 -39.234375 C 34.65625 -41.472656 35.1875 -43.960938 35.1875 -46.703125 C 35.1875 -48.453125 34.894531 -50.195312 34.3125 -51.9375 C 33.726562 -53.6875 32.820312 -55.285156 31.59375 -56.734375 C 30.375 -58.191406 28.820312 -59.351562 26.9375 -60.21875 C 25.050781 -61.09375 22.816406 -61.53125 20.234375 -61.53125 Z M 20.234375 -61.53125 "/></g></g></g><g fill="#5a4377" fill-opacity="1"><g transform="translate(95.096255, 218.996453)"><g><path d="M 22.859375 1.25 C 20.117188 1.25 17.550781 0.738281 15.15625 -0.28125 C 12.769531 -1.300781 10.675781 -2.710938 8.875 -4.515625 C 7.070312 -6.316406 5.660156 -8.410156 4.640625 -10.796875 C 3.617188 -13.191406 3.109375 -15.757812 3.109375 -18.5 C 3.109375 -21.238281 3.617188 -23.800781 4.640625 -26.1875 C 5.660156 -28.570312 7.070312 -30.664062 8.875 -32.46875 C 10.675781 -34.28125 12.769531 -35.691406 15.15625 -36.703125 C 17.550781 -37.722656 20.117188 -38.234375 22.859375 -38.234375 C 25.597656 -38.234375 28.160156 -37.722656 30.546875 -36.703125 C 32.929688 -35.691406 35.023438 -34.28125 36.828125 -32.46875 C 38.640625 -30.664062 40.050781 -28.570312 41.0625 -26.1875 C 42.082031 -23.800781 42.59375 -21.238281 42.59375 -18.5 C 42.59375 -15.757812 42.082031 -13.191406 41.0625 -10.796875 C 40.050781 -8.410156 38.640625 -6.316406 36.828125 -4.515625 C 35.023438 -2.710938 32.929688 -1.300781 30.546875 -0.28125 C 28.160156 0.738281 25.597656 1.25 22.859375 1.25 Z M 5.796875 -22.921875 C 5.796875 -20.097656 6.269531 -17.398438 7.21875 -14.828125 C 8.175781 -12.253906 9.546875 -9.96875 11.328125 -7.96875 C 13.117188 -5.976562 15.28125 -4.398438 17.8125 -3.234375 C 20.34375 -2.078125 23.1875 -1.5 26.34375 -1.5 C 29.125 -1.5 31.519531 -2.054688 33.53125 -3.171875 C 35.550781 -4.296875 37.117188 -5.800781 38.234375 -7.6875 C 39.359375 -9.582031 39.921875 -11.710938 39.921875 -14.078125 C 39.921875 -16.859375 39.421875 -19.523438 38.421875 -22.078125 C 37.429688 -24.628906 36.007812 -26.910156 34.15625 -28.921875 C 32.3125 -30.941406 30.132812 -32.539062 27.625 -33.71875 C 25.113281 -34.90625 22.363281 -35.5 19.375 -35.5 C 16.632812 -35.5 14.242188 -34.945312 12.203125 -33.84375 C 10.171875 -32.75 8.59375 -31.242188 7.46875 -29.328125 C 6.351562 -27.421875 5.796875 -25.285156 5.796875 -22.921875 Z M 5.796875 -22.921875 "/></g></g></g><g fill="#5a4377" fill-opacity="1"><g transform="translate(133.213935, 218.996453)"><g><path d="M 21.671875 1.25 C 18.890625 1.25 16.359375 0.71875 14.078125 -0.34375 C 11.796875 -1.40625 9.832031 -2.859375 8.1875 -4.703125 C 6.550781 -6.546875 5.296875 -8.660156 4.421875 -11.046875 C 3.546875 -13.441406 3.109375 -15.988281 3.109375 -18.6875 C 3.109375 -22.300781 3.863281 -25.59375 5.375 -28.5625 C 6.894531 -31.53125 9.109375 -33.894531 12.015625 -35.65625 C 14.921875 -37.414062 18.453125 -38.296875 22.609375 -38.296875 C 25.179688 -38.296875 27.367188 -38.015625 29.171875 -37.453125 C 30.984375 -36.898438 32.5 -36.1875 33.71875 -35.3125 C 34.945312 -34.4375 35.914062 -33.523438 36.625 -32.578125 L 36.625 -54.875 C 36.625 -55.332031 36.582031 -55.835938 36.5 -56.390625 C 36.414062 -56.953125 36.15625 -57.441406 35.71875 -57.859375 C 35.28125 -58.273438 34.519531 -58.484375 33.4375 -58.484375 L 33.4375 -59.234375 C 35.644531 -59.234375 37.304688 -59.71875 38.421875 -60.6875 C 39.546875 -61.664062 40.109375 -62.613281 40.109375 -63.53125 L 40.859375 -63.53125 L 40.859375 -6.484375 C 40.859375 -4.484375 41.144531 -3.023438 41.71875 -2.109375 C 42.300781 -1.203125 43.46875 -0.75 45.21875 -0.75 L 45.21875 0 L 40.421875 0 C 38.921875 0 37.929688 -0.492188 37.453125 -1.484375 C 36.984375 -2.484375 36.707031 -3.566406 36.625 -4.734375 C 35.914062 -3.773438 34.9375 -2.828125 33.6875 -1.890625 C 32.445312 -0.960938 30.847656 -0.207031 28.890625 0.375 C 26.941406 0.957031 24.535156 1.25 21.671875 1.25 Z M 7.40625 -18.625 C 7.40625 -16.050781 7.84375 -13.628906 8.71875 -11.359375 C 9.59375 -9.097656 10.804688 -7.113281 12.359375 -5.40625 C 13.921875 -3.707031 15.707031 -2.378906 17.71875 -1.421875 C 19.726562 -0.472656 21.878906 0 24.171875 0 C 24.660156 0 25.40625 -0.0507812 26.40625 -0.15625 C 27.40625 -0.257812 28.515625 -0.5 29.734375 -0.875 C 30.960938 -1.25 32.175781 -1.828125 33.375 -2.609375 C 34.582031 -3.398438 35.644531 -4.484375 36.5625 -5.859375 L 36.625 -31.328125 C 35.707031 -32.691406 34.644531 -33.757812 33.4375 -34.53125 C 32.238281 -35.300781 31.023438 -35.863281 29.796875 -36.21875 C 28.578125 -36.570312 27.457031 -36.800781 26.4375 -36.90625 C 25.414062 -37.007812 24.660156 -37.0625 24.171875 -37.0625 C 21.878906 -37.0625 19.726562 -36.59375 17.71875 -35.65625 C 15.707031 -34.71875 13.921875 -33.40625 12.359375 -31.71875 C 10.804688 -30.039062 9.59375 -28.082031 8.71875 -25.84375 C 7.84375 -23.601562 7.40625 -21.195312 7.40625 -18.625 Z M 7.40625 -18.625 "/></g></g></g><g fill="#5a4377" fill-opacity="1"><g transform="translate(172.079041, 218.996453)"><g><path d="M 29.703125 -36.25 L 28.46875 -36.25 C 27.675781 -36.25 26.957031 -35.863281 26.3125 -35.09375 C 25.664062 -34.320312 25.09375 -33.332031 24.59375 -32.125 C 24.101562 -30.925781 23.640625 -29.640625 23.203125 -28.265625 C 22.765625 -26.898438 22.335938 -25.597656 21.921875 -24.359375 C 21.796875 -23.984375 21.660156 -23.535156 21.515625 -23.015625 C 21.367188 -22.492188 21.191406 -21.941406 20.984375 -21.359375 C 20.523438 -19.742188 19.984375 -17.882812 19.359375 -15.78125 C 18.742188 -13.6875 18.132812 -11.59375 17.53125 -9.5 C 16.925781 -7.40625 16.375 -5.546875 15.875 -3.921875 C 15.707031 -3.296875 15.53125 -2.648438 15.34375 -1.984375 C 15.164062 -1.328125 14.972656 -0.644531 14.765625 0.0625 C 14.429688 1.3125 13.992188 2.941406 13.453125 4.953125 C 12.910156 6.960938 12.222656 9.078125 11.390625 11.296875 C 10.566406 13.523438 9.582031 15.601562 8.4375 17.53125 C 7.289062 19.457031 5.960938 21.023438 4.453125 22.234375 C 2.941406 23.441406 1.226562 24.003906 -0.6875 23.921875 L -0.6875 18.5625 C 2.09375 18.269531 4.445312 17.21875 6.375 15.40625 C 8.3125 13.601562 9.898438 11.351562 11.140625 8.65625 C 12.390625 5.957031 13.328125 3.09375 13.953125 0.0625 C 13.953125 0.0625 13.816406 -0.410156 13.546875 -1.359375 C 13.273438 -2.316406 12.910156 -3.5625 12.453125 -5.09375 C 11.992188 -6.632812 11.492188 -8.328125 10.953125 -10.171875 C 10.421875 -12.023438 9.882812 -13.875 9.34375 -15.71875 C 8.800781 -17.570312 8.320312 -19.253906 7.90625 -20.765625 C 7.488281 -22.285156 7.15625 -23.484375 6.90625 -24.359375 C 6.582031 -25.597656 6.203125 -26.910156 5.765625 -28.296875 C 5.328125 -29.691406 4.835938 -30.988281 4.296875 -32.1875 C 3.753906 -33.394531 3.148438 -34.375 2.484375 -35.125 C 1.828125 -35.875 1.082031 -36.25 0.25 -36.25 C -0.5 -36.25 -0.945312 -36.25 -1.09375 -36.25 C -1.238281 -36.25 -1.257812 -36.25 -1.15625 -36.25 C -1.050781 -36.25 -1 -36.25 -1 -36.25 L -1 -37 L 13.515625 -37 L 13.515625 -36.25 C 13.222656 -36.25 13.023438 -36.25 12.921875 -36.25 C 12.816406 -36.25 12.554688 -36.25 12.140625 -36.25 C 11.109375 -36.25 10.457031 -35.644531 10.1875 -34.4375 C 9.914062 -33.238281 9.863281 -31.828125 10.03125 -30.203125 C 10.113281 -29.296875 10.257812 -28.363281 10.46875 -27.40625 C 10.675781 -26.445312 10.898438 -25.53125 11.140625 -24.65625 C 11.472656 -23.539062 11.867188 -22.140625 12.328125 -20.453125 C 12.785156 -18.773438 13.265625 -17.03125 13.765625 -15.21875 C 14.265625 -13.414062 14.71875 -11.773438 15.125 -10.296875 C 15.539062 -8.828125 15.851562 -7.738281 16.0625 -7.03125 C 16.226562 -7.613281 16.46875 -8.460938 16.78125 -9.578125 C 17.09375 -10.703125 17.457031 -11.976562 17.875 -13.40625 C 18.289062 -14.84375 18.707031 -16.304688 19.125 -17.796875 C 19.539062 -19.296875 19.929688 -20.671875 20.296875 -21.921875 C 20.460938 -22.460938 20.609375 -22.960938 20.734375 -23.421875 C 20.859375 -23.878906 20.960938 -24.289062 21.046875 -24.65625 C 21.335938 -25.863281 21.597656 -27.128906 21.828125 -28.453125 C 22.054688 -29.785156 22.191406 -31.039062 22.234375 -32.21875 C 22.273438 -33.40625 22.128906 -34.375 21.796875 -35.125 C 21.460938 -35.875 20.878906 -36.25 20.046875 -36.25 C 19.640625 -36.25 19.394531 -36.25 19.3125 -36.25 C 19.226562 -36.25 19.019531 -36.25 18.6875 -36.25 L 18.6875 -37 L 29.703125 -37 Z M 29.703125 -36.25 "/></g></g></g><g fill="#5a4377" fill-opacity="1"><g transform="translate(192.943724, 218.996453)"><g/></g></g><g fill="#5a4377" fill-opacity="1"><g transform="translate(207.206175, 218.996453)"><g><path d="M 1.875 -61.53125 L 1.875 -62.28125 L 23.359375 -62.28125 C 24.847656 -62.28125 26.484375 -62.09375 28.265625 -61.71875 C 30.054688 -61.34375 31.820312 -60.75 33.5625 -59.9375 C 35.3125 -59.132812 36.910156 -58.046875 38.359375 -56.671875 C 39.816406 -55.304688 40.976562 -53.613281 41.84375 -51.59375 C 42.71875 -49.582031 43.15625 -47.226562 43.15625 -44.53125 C 43.15625 -42 42.726562 -39.785156 41.875 -37.890625 C 41.03125 -36.003906 39.890625 -34.40625 38.453125 -33.09375 C 37.023438 -31.789062 35.4375 -30.734375 33.6875 -29.921875 C 31.945312 -29.117188 30.191406 -28.53125 28.421875 -28.15625 C 26.660156 -27.78125 25.035156 -27.59375 23.546875 -27.59375 L 12.453125 -27.59375 L 12.453125 -4.734375 C 12.453125 -3.609375 12.640625 -2.753906 13.015625 -2.171875 C 13.390625 -1.597656 13.828125 -1.21875 14.328125 -1.03125 C 14.828125 -0.84375 15.257812 -0.75 15.625 -0.75 L 18.5 -0.75 L 18.5 0 L 1.875 0 L 1.875 -0.75 L 4.734375 -0.75 C 5.148438 -0.75 5.59375 -0.84375 6.0625 -1.03125 C 6.539062 -1.21875 6.96875 -1.597656 7.34375 -2.171875 C 7.71875 -2.753906 7.90625 -3.609375 7.90625 -4.734375 L 7.90625 -57.546875 C 7.90625 -58.710938 7.71875 -59.570312 7.34375 -60.125 C 6.96875 -60.6875 6.539062 -61.0625 6.0625 -61.25 C 5.59375 -61.4375 5.148438 -61.53125 4.734375 -61.53125 Z M 12.453125 -61.59375 L 12.453125 -28.34375 L 20.984375 -28.34375 C 26.796875 -28.34375 31.164062 -29.660156 34.09375 -32.296875 C 37.019531 -34.929688 38.484375 -39.007812 38.484375 -44.53125 C 38.484375 -47.6875 37.835938 -50.550781 36.546875 -53.125 C 35.265625 -55.695312 33.335938 -57.757812 30.765625 -59.3125 C 28.191406 -60.875 24.972656 -61.65625 21.109375 -61.65625 C 19.617188 -61.65625 18.46875 -61.65625 17.65625 -61.65625 C 16.84375 -61.65625 16.070312 -61.65625 15.34375 -61.65625 C 14.625 -61.65625 13.660156 -61.632812 12.453125 -61.59375 Z M 12.453125 -61.59375 "/></g></g></g><g fill="#5a4377" fill-opacity="1"><g transform="translate(244.638721, 218.996453)"><g><path d="M 1.25 0 L 1.25 -0.75 L 4.109375 -0.75 C 4.523438 -0.75 4.972656 -0.84375 5.453125 -1.03125 C 5.929688 -1.21875 6.351562 -1.597656 6.71875 -2.171875 C 7.09375 -2.753906 7.28125 -3.609375 7.28125 -4.734375 L 7.28125 -29.640625 C 7.28125 -30.097656 7.238281 -30.609375 7.15625 -31.171875 C 7.070312 -31.734375 6.8125 -32.222656 6.375 -32.640625 C 5.945312 -33.054688 5.191406 -33.265625 4.109375 -33.265625 L 4.109375 -34 C 6.304688 -34 7.96875 -34.488281 9.09375 -35.46875 C 10.21875 -36.445312 10.78125 -37.390625 10.78125 -38.296875 L 11.515625 -38.296875 L 11.515625 -29.078125 C 12.097656 -30.742188 12.835938 -32.269531 13.734375 -33.65625 C 14.628906 -35.050781 15.695312 -36.160156 16.9375 -36.984375 C 18.1875 -37.816406 19.617188 -38.234375 21.234375 -38.234375 C 22.441406 -38.234375 23.363281 -38.128906 24 -37.921875 C 24.644531 -37.722656 25.3125 -37.519531 26 -37.3125 C 26.6875 -37.101562 27.691406 -37 29.015625 -37 C 30.222656 -37 30.953125 -37.203125 31.203125 -37.609375 C 31.453125 -38.023438 31.578125 -38.234375 31.578125 -38.234375 L 32.328125 -38.234375 L 22.921875 -12.078125 L 22.171875 -12.078125 L 26.78125 -24.90625 C 27.613281 -27.195312 27.925781 -29.296875 27.71875 -31.203125 C 27.507812 -33.109375 26.851562 -34.632812 25.75 -35.78125 C 24.65625 -36.925781 23.148438 -37.5 21.234375 -37.5 C 19.660156 -37.5 18.28125 -37.0625 17.09375 -36.1875 C 15.914062 -35.3125 14.921875 -34.207031 14.109375 -32.875 C 13.296875 -31.550781 12.679688 -30.203125 12.265625 -28.828125 C 11.847656 -27.460938 11.597656 -26.300781 11.515625 -25.34375 L 11.515625 -4.734375 C 11.515625 -3.609375 11.703125 -2.753906 12.078125 -2.171875 C 12.453125 -1.597656 12.890625 -1.21875 13.390625 -1.03125 C 13.890625 -0.84375 14.328125 -0.75 14.703125 -0.75 L 17.5625 -0.75 L 17.5625 0 Z M 1.25 0 "/></g></g></g><g fill="#5a4377" fill-opacity="1"><g transform="translate(269.365087, 218.996453)"><g><path d="M 22.859375 1.25 C 20.117188 1.25 17.550781 0.738281 15.15625 -0.28125 C 12.769531 -1.300781 10.675781 -2.710938 8.875 -4.515625 C 7.070312 -6.316406 5.660156 -8.410156 4.640625 -10.796875 C 3.617188 -13.191406 3.109375 -15.757812 3.109375 -18.5 C 3.109375 -21.238281 3.617188 -23.800781 4.640625 -26.1875 C 5.660156 -28.570312 7.070312 -30.664062 8.875 -32.46875 C 10.675781 -34.28125 12.769531 -35.691406 15.15625 -36.703125 C 17.550781 -37.722656 20.117188 -38.234375 22.859375 -38.234375 C 25.597656 -38.234375 28.160156 -37.722656 30.546875 -36.703125 C 32.929688 -35.691406 35.023438 -34.28125 36.828125 -32.46875 C 38.640625 -30.664062 40.050781 -28.570312 41.0625 -26.1875 C 42.082031 -23.800781 42.59375 -21.238281 42.59375 -18.5 C 42.59375 -15.757812 42.082031 -13.191406 41.0625 -10.796875 C 40.050781 -8.410156 38.640625 -6.316406 36.828125 -4.515625 C 35.023438 -2.710938 32.929688 -1.300781 30.546875 -0.28125 C 28.160156 0.738281 25.597656 1.25 22.859375 1.25 Z M 5.796875 -22.921875 C 5.796875 -20.097656 6.269531 -17.398438 7.21875 -14.828125 C 8.175781 -12.253906 9.546875 -9.96875 11.328125 -7.96875 C 13.117188 -5.976562 15.28125 -4.398438 17.8125 -3.234375 C 20.34375 -2.078125 23.1875 -1.5 26.34375 -1.5 C 29.125 -1.5 31.519531 -2.054688 33.53125 -3.171875 C 35.550781 -4.296875 37.117188 -5.800781 38.234375 -7.6875 C 39.359375 -9.582031 39.921875 -11.710938 39.921875 -14.078125 C 39.921875 -16.859375 39.421875 -19.523438 38.421875 -22.078125 C 37.429688 -24.628906 36.007812 -26.910156 34.15625 -28.921875 C 32.3125 -30.941406 30.132812 -32.539062 27.625 -33.71875 C 25.113281 -34.90625 22.363281 -35.5 19.375 -35.5 C 16.632812 -35.5 14.242188 -34.945312 12.203125 -33.84375 C 10.171875 -32.75 8.59375 -31.242188 7.46875 -29.328125 C 6.351562 -27.421875 5.796875 -25.285156 5.796875 -22.921875 Z M 5.796875 -22.921875 "/></g></g></g><g fill="#5a4377" fill-opacity="1"><g transform="translate(307.482768, 218.996453)"><g><path d="M 1.25 -0.75 L 4.109375 -0.75 C 4.523438 -0.75 4.972656 -0.84375 5.453125 -1.03125 C 5.929688 -1.21875 6.351562 -1.597656 6.71875 -2.171875 C 7.09375 -2.753906 7.28125 -3.609375 7.28125 -4.734375 L 7.28125 -36.25 L 1.6875 -36.25 L 1.6875 -37 L 7.28125 -37 L 7.28125 -48.515625 C 7.28125 -50.054688 7.46875 -51.695312 7.84375 -53.4375 C 8.21875 -55.175781 8.867188 -56.800781 9.796875 -58.3125 C 10.734375 -59.832031 12.039062 -61.082031 13.71875 -62.0625 C 15.40625 -63.039062 17.554688 -63.53125 20.171875 -63.53125 C 22.210938 -63.53125 23.875 -63.257812 25.15625 -62.71875 C 26.445312 -62.175781 27.492188 -61.625 28.296875 -61.0625 C 29.109375 -60.5 29.765625 -60.21875 30.265625 -60.21875 C 30.722656 -60.21875 31.117188 -60.445312 31.453125 -60.90625 C 31.785156 -61.363281 32.179688 -62.238281 32.640625 -63.53125 L 33.4375 -63.53125 L 25.46875 -41.359375 L 24.71875 -41.359375 L 26.59375 -46.703125 C 27.800781 -50.191406 28.289062 -53.140625 28.0625 -55.546875 C 27.832031 -57.960938 27.03125 -59.789062 25.65625 -61.03125 C 24.289062 -62.28125 22.460938 -62.90625 20.171875 -62.90625 C 17.804688 -62.90625 15.84375 -62.46875 14.28125 -61.59375 C 12.726562 -60.71875 11.566406 -59.601562 10.796875 -58.25 C 10.035156 -56.90625 9.65625 -55.550781 9.65625 -54.1875 C 9.65625 -53.351562 9.75 -52.613281 9.9375 -51.96875 C 10.125 -51.332031 10.34375 -50.597656 10.59375 -49.765625 C 10.84375 -48.929688 11.054688 -47.859375 11.234375 -46.546875 C 11.421875 -45.242188 11.515625 -43.535156 11.515625 -41.421875 L 11.515625 -37 L 17.125 -37 L 17.125 -36.25 L 11.515625 -36.25 L 11.515625 -4.734375 C 11.515625 -3.609375 11.703125 -2.753906 12.078125 -2.171875 C 12.453125 -1.597656 12.890625 -1.21875 13.390625 -1.03125 C 13.890625 -0.84375 14.328125 -0.75 14.703125 -0.75 L 17.5625 -0.75 L 17.5625 0 L 1.25 0 Z M 1.25 -0.75 "/></g></g></g><g fill="#5a4377" fill-opacity="1"><g transform="translate(333.330276, 218.996453)"><g><path d="M 1.25 -0.75 L 4.109375 -0.75 C 4.523438 -0.75 4.972656 -0.84375 5.453125 -1.03125 C 5.929688 -1.21875 6.351562 -1.597656 6.71875 -2.171875 C 7.09375 -2.753906 7.28125 -3.609375 7.28125 -4.734375 L 7.28125 -29.640625 C 7.28125 -30.097656 7.238281 -30.609375 7.15625 -31.171875 C 7.070312 -31.734375 6.8125 -32.222656 6.375 -32.640625 C 5.945312 -33.054688 5.191406 -33.265625 4.109375 -33.265625 L 4.109375 -34 C 6.304688 -34 7.96875 -34.488281 9.09375 -35.46875 C 10.21875 -36.445312 10.78125 -37.390625 10.78125 -38.296875 L 11.515625 -38.296875 L 11.515625 -4.734375 C 11.515625 -3.609375 11.703125 -2.753906 12.078125 -2.171875 C 12.453125 -1.597656 12.890625 -1.21875 13.390625 -1.03125 C 13.890625 -0.84375 14.328125 -0.75 14.703125 -0.75 L 17.5625 -0.75 L 17.5625 0 L 1.25 0 Z M 9.40625 -40.609375 C 8.570312 -40.609375 7.851562 -40.90625 7.25 -41.5 C 6.65625 -42.101562 6.359375 -42.820312 6.359375 -43.65625 C 6.359375 -44.488281 6.65625 -45.203125 7.25 -45.796875 C 7.851562 -46.398438 8.570312 -46.703125 9.40625 -46.703125 C 10.238281 -46.703125 10.953125 -46.398438 11.546875 -45.796875 C 12.148438 -45.203125 12.453125 -44.488281 12.453125 -43.65625 C 12.453125 -42.820312 12.148438 -42.101562 11.546875 -41.5 C 10.953125 -40.90625 10.238281 -40.609375 9.40625 -40.609375 Z M 9.40625 -40.609375 "/></g></g></g><g fill="#5a4377" fill-opacity="1"><g transform="translate(343.917892, 218.996453)"><g><path d="M 1.25 -0.75 L 4.109375 -0.75 C 4.523438 -0.75 4.972656 -0.84375 5.453125 -1.03125 C 5.929688 -1.21875 6.351562 -1.597656 6.71875 -2.171875 C 7.09375 -2.753906 7.28125 -3.609375 7.28125 -4.734375 L 7.28125 -54.875 C 7.28125 -55.332031 7.238281 -55.835938 7.15625 -56.390625 C 7.070312 -56.953125 6.8125 -57.441406 6.375 -57.859375 C 5.945312 -58.273438 5.191406 -58.484375 4.109375 -58.484375 L 4.109375 -59.234375 C 6.304688 -59.234375 7.96875 -59.71875 9.09375 -60.6875 C 10.21875 -61.664062 10.78125 -62.613281 10.78125 -63.53125 L 11.515625 -63.53125 L 11.515625 -4.734375 C 11.515625 -3.609375 11.703125 -2.753906 12.078125 -2.171875 C 12.453125 -1.597656 12.890625 -1.21875 13.390625 -1.03125 C 13.890625 -0.84375 14.328125 -0.75 14.703125 -0.75 L 17.5625 -0.75 L 17.5625 0 L 1.25 0 Z M 1.25 -0.75 "/></g></g></g><g fill="#5a4377" fill-opacity="1"><g transform="translate(354.505507, 218.996453)"><g><path d="M 22.859375 1.25 C 18.910156 1.25 15.453125 0.429688 12.484375 -1.203125 C 9.515625 -2.847656 7.207031 -5.15625 5.5625 -8.125 C 3.925781 -11.09375 3.109375 -14.550781 3.109375 -18.5 C 3.109375 -22.445312 3.925781 -25.90625 5.5625 -28.875 C 7.207031 -31.84375 9.515625 -34.144531 12.484375 -35.78125 C 15.453125 -37.414062 18.910156 -38.234375 22.859375 -38.234375 C 26.054688 -38.234375 28.691406 -37.765625 30.765625 -36.828125 C 32.835938 -35.898438 34.476562 -34.75 35.6875 -33.375 C 36.894531 -32.007812 37.773438 -30.640625 38.328125 -29.265625 C 38.890625 -27.898438 39.253906 -26.75 39.421875 -25.8125 C 39.585938 -24.882812 39.671875 -24.421875 39.671875 -24.421875 L 6.546875 -24.421875 C 6.460938 -23.878906 6.390625 -23.347656 6.328125 -22.828125 C 6.265625 -22.304688 6.234375 -21.753906 6.234375 -21.171875 C 6.234375 -17.554688 7.03125 -14.285156 8.625 -11.359375 C 10.226562 -8.429688 12.492188 -6.097656 15.421875 -4.359375 C 18.347656 -2.617188 21.78125 -1.75 25.71875 -1.75 C 28.914062 -1.75 31.71875 -2.429688 34.125 -3.796875 C 36.539062 -5.171875 38.429688 -7.113281 39.796875 -9.625 C 41.171875 -12.132812 41.859375 -15.09375 41.859375 -18.5 L 42.59375 -18.5 C 42.59375 -14.550781 41.773438 -11.09375 40.140625 -8.125 C 38.503906 -5.15625 36.203125 -2.847656 33.234375 -1.203125 C 30.265625 0.429688 26.804688 1.25 22.859375 1.25 Z M 6.671875 -25.15625 L 35.4375 -25.15625 C 35.394531 -27.570312 34.71875 -29.703125 33.40625 -31.546875 C 32.101562 -33.390625 30.421875 -34.84375 28.359375 -35.90625 C 26.304688 -36.96875 24.117188 -37.5 21.796875 -37.5 C 19.347656 -37.5 17.070312 -36.957031 14.96875 -35.875 C 12.875 -34.789062 11.109375 -33.328125 9.671875 -31.484375 C 8.242188 -29.640625 7.242188 -27.53125 6.671875 -25.15625 Z M 6.671875 -25.15625 "/></g></g></g></svg>