<svg xmlns="http://www.w3.org/2000/svg" xmlns:xlink="http://www.w3.org/1999/xlink" zoomAndPan="magnify" viewBox="54 149 332 98" preserveAspectRatio="xMidYMid meet" version="1.0"><defs><g/><clipPath id="52e6839b2e"><rect x="0" width="332" y="0" height="98"/></clipPath></defs><g transform="matrix(1, 0, 0, 1, 54, 149)"><g clip-path="url(#52e6839b2e)"><g fill="#2f2937" fill-opacity="1"><g transform="translate(0.985448, 67.388297)"><g><path d="M 1.25 -0.75 L 4.109375 -0.75 C 4.523438 -0.75 4.972656 -0.84375 5.453125 -1.03125 C 5.929688 -1.21875 6.351562 -1.597656 6.71875 -2.171875 C 7.09375 -2.753906 7.28125 -3.609375 7.28125 -4.734375 L 7.28125 -54.859375 C 7.28125 -55.316406 7.238281 -55.820312 7.15625 -56.375 C 7.070312 -56.9375 6.8125 -57.425781 6.375 -57.84375 C 5.945312 -58.257812 5.191406 -58.46875 4.109375 -58.46875 L 4.109375 -59.21875 C 6.304688 -59.21875 7.960938 -59.703125 9.078125 -60.671875 C 10.203125 -61.648438 10.765625 -62.597656 10.765625 -63.515625 L 11.515625 -63.515625 L 11.515625 -32.5625 C 12.265625 -33.519531 13.238281 -34.429688 14.4375 -35.296875 C 15.644531 -36.171875 17.160156 -36.890625 18.984375 -37.453125 C 20.816406 -38.015625 23 -38.296875 25.53125 -38.296875 C 29.71875 -38.296875 33.253906 -37.410156 36.140625 -35.640625 C 39.023438 -33.878906 41.222656 -31.515625 42.734375 -28.546875 C 44.253906 -25.578125 45.015625 -22.289062 45.015625 -18.6875 C 45.015625 -15.976562 44.578125 -13.429688 43.703125 -11.046875 C 42.835938 -8.660156 41.582031 -6.546875 39.9375 -4.703125 C 38.300781 -2.859375 36.351562 -1.40625 34.09375 -0.34375 C 31.832031 0.71875 29.289062 1.25 26.46875 1.25 C 23.601562 1.25 21.191406 0.957031 19.234375 0.375 C 17.285156 -0.207031 15.6875 -0.960938 14.4375 -1.890625 C 13.195312 -2.828125 12.222656 -3.773438 11.515625 -4.734375 C 11.472656 -3.566406 11.035156 -2.484375 10.203125 -1.484375 C 9.378906 -0.492188 7.847656 0 5.609375 0 L 1.25 0 Z M 11.515625 -7.84375 C 11.515625 -7.550781 11.523438 -7.238281 11.546875 -6.90625 C 11.566406 -6.570312 11.578125 -6.222656 11.578125 -5.859375 C 12.492188 -4.484375 13.550781 -3.398438 14.75 -2.609375 C 15.957031 -1.828125 17.171875 -1.25 18.390625 -0.875 C 19.617188 -0.5 20.726562 -0.257812 21.71875 -0.15625 C 22.71875 -0.0507812 23.46875 0 23.96875 0 C 26.25 0 28.394531 -0.472656 30.40625 -1.421875 C 32.425781 -2.378906 34.210938 -3.707031 35.765625 -5.40625 C 37.328125 -7.113281 38.539062 -9.097656 39.40625 -11.359375 C 40.28125 -13.617188 40.71875 -16.039062 40.71875 -18.625 C 40.71875 -21.195312 40.28125 -23.601562 39.40625 -25.84375 C 38.539062 -28.082031 37.328125 -30.039062 35.765625 -31.71875 C 34.210938 -33.40625 32.425781 -34.710938 30.40625 -35.640625 C 28.394531 -36.578125 26.25 -37.046875 23.96875 -37.046875 C 23.46875 -37.046875 22.707031 -36.992188 21.6875 -36.890625 C 20.675781 -36.785156 19.554688 -36.554688 18.328125 -36.203125 C 17.109375 -35.847656 15.894531 -35.285156 14.6875 -34.515625 C 13.488281 -33.753906 12.429688 -32.6875 11.515625 -31.3125 Z M 11.515625 -7.84375 "/></g></g></g><g fill="#2f2937" fill-opacity="1"><g transform="translate(40.015743, 67.388297)"><g><path d="M 22.84375 1.25 C 20.101562 1.25 17.539062 0.738281 15.15625 -0.28125 C 12.769531 -1.300781 10.675781 -2.710938 8.875 -4.515625 C 7.070312 -6.316406 5.660156 -8.410156 4.640625 -10.796875 C 3.617188 -13.191406 3.109375 -15.757812 3.109375 -18.5 C 3.109375 -21.238281 3.617188 -23.800781 4.640625 -26.1875 C 5.660156 -28.570312 7.070312 -30.664062 8.875 -32.46875 C 10.675781 -34.28125 12.769531 -35.691406 15.15625 -36.703125 C 17.539062 -37.722656 20.101562 -38.234375 22.84375 -38.234375 C 25.59375 -38.234375 28.160156 -37.722656 30.546875 -36.703125 C 32.929688 -35.691406 35.023438 -34.28125 36.828125 -32.46875 C 38.628906 -30.664062 40.039062 -28.570312 41.0625 -26.1875 C 42.082031 -23.800781 42.59375 -21.238281 42.59375 -18.5 C 42.59375 -15.757812 42.082031 -13.191406 41.0625 -10.796875 C 40.039062 -8.410156 38.628906 -6.316406 36.828125 -4.515625 C 35.023438 -2.710938 32.929688 -1.300781 30.546875 -0.28125 C 28.160156 0.738281 25.59375 1.25 22.84375 1.25 Z M 5.796875 -22.90625 C 5.796875 -20.09375 6.269531 -17.394531 7.21875 -14.8125 C 8.175781 -12.238281 9.546875 -9.957031 11.328125 -7.96875 C 13.117188 -5.976562 15.28125 -4.398438 17.8125 -3.234375 C 20.34375 -2.078125 23.1875 -1.5 26.34375 -1.5 C 29.125 -1.5 31.519531 -2.054688 33.53125 -3.171875 C 35.539062 -4.296875 37.101562 -5.800781 38.21875 -7.6875 C 39.34375 -9.570312 39.90625 -11.703125 39.90625 -14.078125 C 39.90625 -16.859375 39.40625 -19.523438 38.40625 -22.078125 C 37.414062 -24.628906 35.992188 -26.910156 34.140625 -28.921875 C 32.296875 -30.929688 30.117188 -32.523438 27.609375 -33.703125 C 25.097656 -34.890625 22.347656 -35.484375 19.359375 -35.484375 C 16.617188 -35.484375 14.234375 -34.929688 12.203125 -33.828125 C 10.171875 -32.734375 8.59375 -31.234375 7.46875 -29.328125 C 6.351562 -27.421875 5.796875 -25.28125 5.796875 -22.90625 Z M 5.796875 -22.90625 "/></g></g></g><g fill="#2f2937" fill-opacity="1"><g transform="translate(76.61803, 67.388297)"><g><path d="M 21.671875 1.25 C 18.890625 1.25 16.351562 0.71875 14.0625 -0.34375 C 11.78125 -1.40625 9.820312 -2.859375 8.1875 -4.703125 C 6.550781 -6.546875 5.296875 -8.660156 4.421875 -11.046875 C 3.546875 -13.429688 3.109375 -15.976562 3.109375 -18.6875 C 3.109375 -22.289062 3.863281 -25.578125 5.375 -28.546875 C 6.894531 -31.515625 9.109375 -33.878906 12.015625 -35.640625 C 14.921875 -37.410156 18.453125 -38.296875 22.609375 -38.296875 C 25.179688 -38.296875 27.367188 -38.015625 29.171875 -37.453125 C 30.972656 -36.890625 32.484375 -36.171875 33.703125 -35.296875 C 34.929688 -34.429688 35.898438 -33.519531 36.609375 -32.5625 L 36.609375 -54.859375 C 36.609375 -55.316406 36.566406 -55.820312 36.484375 -56.375 C 36.398438 -56.9375 36.140625 -57.425781 35.703125 -57.84375 C 35.273438 -58.257812 34.519531 -58.46875 33.4375 -58.46875 L 33.4375 -59.21875 C 35.632812 -59.21875 37.289062 -59.703125 38.40625 -60.671875 C 39.53125 -61.648438 40.09375 -62.597656 40.09375 -63.515625 L 40.84375 -63.515625 L 40.84375 -6.46875 C 40.84375 -4.476562 41.132812 -3.023438 41.71875 -2.109375 C 42.300781 -1.203125 43.460938 -0.75 45.203125 -0.75 L 45.203125 0 L 40.40625 0 C 38.914062 0 37.929688 -0.492188 37.453125 -1.484375 C 36.972656 -2.484375 36.691406 -3.566406 36.609375 -4.734375 C 35.898438 -3.773438 34.921875 -2.828125 33.671875 -1.890625 C 32.429688 -0.960938 30.835938 -0.207031 28.890625 0.375 C 26.941406 0.957031 24.535156 1.25 21.671875 1.25 Z M 7.40625 -18.625 C 7.40625 -16.039062 7.84375 -13.617188 8.71875 -11.359375 C 9.59375 -9.097656 10.804688 -7.113281 12.359375 -5.40625 C 13.910156 -3.707031 15.691406 -2.378906 17.703125 -1.421875 C 19.722656 -0.472656 21.875 0 24.15625 0 C 24.65625 0 25.398438 -0.0507812 26.390625 -0.15625 C 27.390625 -0.257812 28.5 -0.5 29.71875 -0.875 C 30.945312 -1.25 32.164062 -1.828125 33.375 -2.609375 C 34.582031 -3.398438 35.640625 -4.484375 36.546875 -5.859375 L 36.609375 -31.3125 C 35.703125 -32.6875 34.644531 -33.753906 33.4375 -34.515625 C 32.226562 -35.285156 31.007812 -35.847656 29.78125 -36.203125 C 28.5625 -36.554688 27.441406 -36.785156 26.421875 -36.890625 C 25.410156 -36.992188 24.65625 -37.046875 24.15625 -37.046875 C 21.875 -37.046875 19.722656 -36.578125 17.703125 -35.640625 C 15.691406 -34.710938 13.910156 -33.40625 12.359375 -31.71875 C 10.804688 -30.039062 9.59375 -28.082031 8.71875 -25.84375 C 7.84375 -23.601562 7.40625 -21.195312 7.40625 -18.625 Z M 7.40625 -18.625 "/></g></g></g><g fill="#2f2937" fill-opacity="1"><g transform="translate(113.967413, 67.388297)"><g><path d="M 29.703125 -36.234375 L 28.453125 -36.234375 C 27.660156 -36.234375 26.941406 -35.847656 26.296875 -35.078125 C 25.660156 -34.316406 25.09375 -33.332031 24.59375 -32.125 C 24.09375 -30.925781 23.625 -29.640625 23.1875 -28.265625 C 22.757812 -26.898438 22.335938 -25.59375 21.921875 -24.34375 C 21.796875 -23.96875 21.660156 -23.519531 21.515625 -23 C 21.367188 -22.488281 21.191406 -21.941406 20.984375 -21.359375 C 20.523438 -19.734375 19.984375 -17.875 19.359375 -15.78125 C 18.742188 -13.6875 18.132812 -11.585938 17.53125 -9.484375 C 16.925781 -7.390625 16.375 -5.535156 15.875 -3.921875 C 15.707031 -3.296875 15.53125 -2.648438 15.34375 -1.984375 C 15.15625 -1.328125 14.957031 -0.644531 14.75 0.0625 C 14.425781 1.3125 13.992188 2.941406 13.453125 4.953125 C 12.910156 6.960938 12.222656 9.078125 11.390625 11.296875 C 10.566406 13.515625 9.582031 15.585938 8.4375 17.515625 C 7.289062 19.453125 5.957031 21.019531 4.4375 22.21875 C 2.925781 23.425781 1.21875 23.988281 -0.6875 23.90625 L -0.6875 18.5625 C 2.09375 18.269531 4.445312 17.21875 6.375 15.40625 C 8.3125 13.601562 9.898438 11.351562 11.140625 8.65625 C 12.390625 5.957031 13.328125 3.09375 13.953125 0.0625 C 13.953125 0.0625 13.816406 -0.410156 13.546875 -1.359375 C 13.273438 -2.316406 12.910156 -3.5625 12.453125 -5.09375 C 11.992188 -6.632812 11.492188 -8.328125 10.953125 -10.171875 C 10.421875 -12.023438 9.882812 -13.875 9.34375 -15.71875 C 8.800781 -17.570312 8.320312 -19.253906 7.90625 -20.765625 C 7.488281 -22.273438 7.15625 -23.46875 6.90625 -24.34375 C 6.570312 -25.59375 6.1875 -26.910156 5.75 -28.296875 C 5.320312 -29.691406 4.835938 -30.988281 4.296875 -32.1875 C 3.753906 -33.394531 3.148438 -34.367188 2.484375 -35.109375 C 1.828125 -35.859375 1.082031 -36.234375 0.25 -36.234375 C -0.5 -36.234375 -0.945312 -36.234375 -1.09375 -36.234375 C -1.238281 -36.234375 -1.257812 -36.234375 -1.15625 -36.234375 C -1.050781 -36.234375 -1 -36.234375 -1 -36.234375 L -1 -36.984375 L 13.515625 -36.984375 L 13.515625 -36.234375 C 13.222656 -36.234375 13.023438 -36.234375 12.921875 -36.234375 C 12.816406 -36.234375 12.554688 -36.234375 12.140625 -36.234375 C 11.097656 -36.234375 10.441406 -35.628906 10.171875 -34.421875 C 9.910156 -33.222656 9.863281 -31.816406 10.03125 -30.203125 C 10.113281 -29.285156 10.253906 -28.347656 10.453125 -27.390625 C 10.660156 -26.441406 10.890625 -25.53125 11.140625 -24.65625 C 11.472656 -23.53125 11.867188 -22.128906 12.328125 -20.453125 C 12.785156 -18.773438 13.265625 -17.03125 13.765625 -15.21875 C 14.265625 -13.414062 14.71875 -11.773438 15.125 -10.296875 C 15.539062 -8.828125 15.851562 -7.738281 16.0625 -7.03125 C 16.226562 -7.613281 16.46875 -8.460938 16.78125 -9.578125 C 17.09375 -10.703125 17.457031 -11.976562 17.875 -13.40625 C 18.289062 -14.84375 18.703125 -16.304688 19.109375 -17.796875 C 19.523438 -19.296875 19.921875 -20.671875 20.296875 -21.921875 C 20.460938 -22.460938 20.609375 -22.957031 20.734375 -23.40625 C 20.859375 -23.863281 20.960938 -24.28125 21.046875 -24.65625 C 21.335938 -25.863281 21.597656 -27.128906 21.828125 -28.453125 C 22.054688 -29.785156 22.191406 -31.039062 22.234375 -32.21875 C 22.273438 -33.40625 22.128906 -34.367188 21.796875 -35.109375 C 21.460938 -35.859375 20.878906 -36.234375 20.046875 -36.234375 C 19.628906 -36.234375 19.378906 -36.234375 19.296875 -36.234375 C 19.210938 -36.234375 19.007812 -36.234375 18.6875 -36.234375 L 18.6875 -36.984375 L 29.703125 -36.984375 Z M 29.703125 -36.234375 "/></g></g></g><g fill="#2f2937" fill-opacity="1"><g transform="translate(133.324403, 67.388297)"><g/></g></g><g fill="#2f2937" fill-opacity="1"><g transform="translate(146.082092, 67.388297)"><g><path d="M 1.25 26.65625 L 4.109375 26.65625 C 4.523438 26.65625 4.972656 26.5625 5.453125 26.375 C 5.929688 26.1875 6.351562 25.800781 6.71875 25.21875 C 7.09375 24.632812 7.28125 23.785156 7.28125 22.671875 L 7.28125 -29.640625 C 7.28125 -30.097656 7.238281 -30.601562 7.15625 -31.15625 C 7.070312 -31.71875 6.8125 -32.207031 6.375 -32.625 C 5.945312 -33.039062 5.191406 -33.25 4.109375 -33.25 L 4.109375 -34 C 6.304688 -34 7.960938 -34.484375 9.078125 -35.453125 C 10.203125 -36.429688 10.765625 -37.378906 10.765625 -38.296875 L 11.515625 -38.296875 L 11.515625 -32 C 12.222656 -33 13.175781 -33.972656 14.375 -34.921875 C 15.582031 -35.878906 17.128906 -36.679688 19.015625 -37.328125 C 20.910156 -37.972656 23.226562 -38.296875 25.96875 -38.296875 C 30.15625 -38.296875 33.691406 -37.410156 36.578125 -35.640625 C 39.460938 -33.878906 41.660156 -31.515625 43.171875 -28.546875 C 44.691406 -25.578125 45.453125 -22.289062 45.453125 -18.6875 C 45.453125 -15.976562 45.015625 -13.429688 44.140625 -11.046875 C 43.273438 -8.660156 42.019531 -6.546875 40.375 -4.703125 C 38.738281 -2.859375 36.789062 -1.40625 34.53125 -0.34375 C 32.269531 0.71875 29.726562 1.25 26.90625 1.25 C 23.832031 1.25 21.273438 0.90625 19.234375 0.21875 C 17.203125 -0.46875 15.570312 -1.316406 14.34375 -2.328125 C 13.125 -3.347656 12.179688 -4.359375 11.515625 -5.359375 L 11.515625 22.671875 C 11.515625 23.785156 11.703125 24.632812 12.078125 25.21875 C 12.453125 25.800781 12.890625 26.1875 13.390625 26.375 C 13.890625 26.5625 14.320312 26.65625 14.6875 26.65625 L 17.5625 26.65625 L 17.5625 27.390625 L 1.25 27.390625 Z M 11.515625 -6.65625 C 12.390625 -5.125 13.445312 -3.910156 14.6875 -3.015625 C 15.9375 -2.128906 17.203125 -1.46875 18.484375 -1.03125 C 19.773438 -0.59375 20.945312 -0.3125 22 -0.1875 C 23.0625 -0.0625 23.863281 0 24.40625 0 C 26.6875 0 28.832031 -0.472656 30.84375 -1.421875 C 32.863281 -2.378906 34.648438 -3.707031 36.203125 -5.40625 C 37.765625 -7.113281 38.976562 -9.097656 39.84375 -11.359375 C 40.71875 -13.617188 41.15625 -16.039062 41.15625 -18.625 C 41.15625 -21.195312 40.71875 -23.601562 39.84375 -25.84375 C 38.976562 -28.082031 37.765625 -30.039062 36.203125 -31.71875 C 34.648438 -33.40625 32.863281 -34.710938 30.84375 -35.640625 C 28.832031 -36.578125 26.6875 -37.046875 24.40625 -37.046875 C 23.863281 -37.046875 23.0625 -36.992188 22 -36.890625 C 20.945312 -36.785156 19.773438 -36.535156 18.484375 -36.140625 C 17.203125 -35.742188 15.9375 -35.109375 14.6875 -34.234375 C 13.445312 -33.367188 12.390625 -32.171875 11.515625 -30.640625 Z M 9.59375 -13.515625 C 9.59375 -13.390625 9.613281 -13.285156 9.65625 -13.203125 Z M 9.59375 -13.515625 "/></g></g></g><g fill="#2f2937" fill-opacity="1"><g transform="translate(185.548208, 67.388297)"><g><path d="M 1.25 0 L 1.25 -0.75 L 4.109375 -0.75 C 4.523438 -0.75 4.972656 -0.84375 5.453125 -1.03125 C 5.929688 -1.21875 6.351562 -1.597656 6.71875 -2.171875 C 7.09375 -2.753906 7.28125 -3.609375 7.28125 -4.734375 L 7.28125 -29.640625 C 7.28125 -30.097656 7.238281 -30.601562 7.15625 -31.15625 C 7.070312 -31.71875 6.8125 -32.207031 6.375 -32.625 C 5.945312 -33.039062 5.191406 -33.25 4.109375 -33.25 L 4.109375 -34 C 6.304688 -34 7.960938 -34.484375 9.078125 -35.453125 C 10.203125 -36.429688 10.765625 -37.378906 10.765625 -38.296875 L 11.515625 -38.296875 L 11.515625 -29.078125 C 12.097656 -30.734375 12.832031 -32.253906 13.71875 -33.640625 C 14.613281 -35.035156 15.679688 -36.148438 16.921875 -36.984375 C 18.171875 -37.816406 19.609375 -38.234375 21.234375 -38.234375 C 22.429688 -38.234375 23.351562 -38.128906 24 -37.921875 C 24.644531 -37.710938 25.304688 -37.503906 25.984375 -37.296875 C 26.671875 -37.085938 27.679688 -36.984375 29.015625 -36.984375 C 30.222656 -36.984375 30.945312 -37.191406 31.1875 -37.609375 C 31.4375 -38.023438 31.5625 -38.234375 31.5625 -38.234375 L 32.3125 -38.234375 L 22.90625 -12.078125 L 22.171875 -12.078125 L 26.78125 -24.90625 C 27.601562 -27.1875 27.910156 -29.28125 27.703125 -31.1875 C 27.492188 -33.101562 26.835938 -34.628906 25.734375 -35.765625 C 24.640625 -36.910156 23.140625 -37.484375 21.234375 -37.484375 C 19.648438 -37.484375 18.265625 -37.046875 17.078125 -36.171875 C 15.898438 -35.304688 14.90625 -34.207031 14.09375 -32.875 C 13.289062 -31.550781 12.679688 -30.203125 12.265625 -28.828125 C 11.847656 -27.460938 11.597656 -26.300781 11.515625 -25.34375 L 11.515625 -4.734375 C 11.515625 -3.609375 11.703125 -2.753906 12.078125 -2.171875 C 12.453125 -1.597656 12.890625 -1.21875 13.390625 -1.03125 C 13.890625 -0.84375 14.320312 -0.75 14.6875 -0.75 L 17.5625 -0.75 L 17.5625 0 Z M 1.25 0 "/></g></g></g><g fill="#2f2937" fill-opacity="1"><g transform="translate(208.76517, 67.388297)"><g><path d="M 22.84375 1.25 C 20.101562 1.25 17.539062 0.738281 15.15625 -0.28125 C 12.769531 -1.300781 10.675781 -2.710938 8.875 -4.515625 C 7.070312 -6.316406 5.660156 -8.410156 4.640625 -10.796875 C 3.617188 -13.191406 3.109375 -15.757812 3.109375 -18.5 C 3.109375 -21.238281 3.617188 -23.800781 4.640625 -26.1875 C 5.660156 -28.570312 7.070312 -30.664062 8.875 -32.46875 C 10.675781 -34.28125 12.769531 -35.691406 15.15625 -36.703125 C 17.539062 -37.722656 20.101562 -38.234375 22.84375 -38.234375 C 25.59375 -38.234375 28.160156 -37.722656 30.546875 -36.703125 C 32.929688 -35.691406 35.023438 -34.28125 36.828125 -32.46875 C 38.628906 -30.664062 40.039062 -28.570312 41.0625 -26.1875 C 42.082031 -23.800781 42.59375 -21.238281 42.59375 -18.5 C 42.59375 -15.757812 42.082031 -13.191406 41.0625 -10.796875 C 40.039062 -8.410156 38.628906 -6.316406 36.828125 -4.515625 C 35.023438 -2.710938 32.929688 -1.300781 30.546875 -0.28125 C 28.160156 0.738281 25.59375 1.25 22.84375 1.25 Z M 5.796875 -22.90625 C 5.796875 -20.09375 6.269531 -17.394531 7.21875 -14.8125 C 8.175781 -12.238281 9.546875 -9.957031 11.328125 -7.96875 C 13.117188 -5.976562 15.28125 -4.398438 17.8125 -3.234375 C 20.34375 -2.078125 23.1875 -1.5 26.34375 -1.5 C 29.125 -1.5 31.519531 -2.054688 33.53125 -3.171875 C 35.539062 -4.296875 37.101562 -5.800781 38.21875 -7.6875 C 39.34375 -9.570312 39.90625 -11.703125 39.90625 -14.078125 C 39.90625 -16.859375 39.40625 -19.523438 38.40625 -22.078125 C 37.414062 -24.628906 35.992188 -26.910156 34.140625 -28.921875 C 32.296875 -30.929688 30.117188 -32.523438 27.609375 -33.703125 C 25.097656 -34.890625 22.347656 -35.484375 19.359375 -35.484375 C 16.617188 -35.484375 14.234375 -34.929688 12.203125 -33.828125 C 10.171875 -32.734375 8.59375 -31.234375 7.46875 -29.328125 C 6.351562 -27.421875 5.796875 -25.28125 5.796875 -22.90625 Z M 5.796875 -22.90625 "/></g></g></g><g fill="#2f2937" fill-opacity="1"><g transform="translate(245.367458, 67.388297)"><g><path d="M 1.25 -0.75 L 4.109375 -0.75 C 4.523438 -0.75 4.972656 -0.84375 5.453125 -1.03125 C 5.929688 -1.21875 6.351562 -1.597656 6.71875 -2.171875 C 7.09375 -2.753906 7.28125 -3.609375 7.28125 -4.734375 L 7.28125 -36.234375 L 1.6875 -36.234375 L 1.6875 -36.984375 L 7.28125 -36.984375 L 7.28125 -48.5 C 7.28125 -50.039062 7.46875 -51.679688 7.84375 -53.421875 C 8.21875 -55.171875 8.867188 -56.800781 9.796875 -58.3125 C 10.734375 -59.820312 12.039062 -61.066406 13.71875 -62.046875 C 15.40625 -63.023438 17.554688 -63.515625 20.171875 -63.515625 C 22.203125 -63.515625 23.859375 -63.242188 25.140625 -62.703125 C 26.429688 -62.160156 27.484375 -61.609375 28.296875 -61.046875 C 29.109375 -60.484375 29.765625 -60.203125 30.265625 -60.203125 C 30.722656 -60.203125 31.113281 -60.429688 31.4375 -60.890625 C 31.769531 -61.347656 32.164062 -62.222656 32.625 -63.515625 L 33.4375 -63.515625 L 25.46875 -41.34375 L 24.71875 -41.34375 L 26.59375 -46.703125 C 27.789062 -50.179688 28.273438 -53.125 28.046875 -55.53125 C 27.816406 -57.945312 27.015625 -59.773438 25.640625 -61.015625 C 24.273438 -62.265625 22.453125 -62.890625 20.171875 -62.890625 C 17.804688 -62.890625 15.84375 -62.453125 14.28125 -61.578125 C 12.726562 -60.703125 11.566406 -59.585938 10.796875 -58.234375 C 10.035156 -56.890625 9.65625 -55.535156 9.65625 -54.171875 C 9.65625 -53.335938 9.75 -52.597656 9.9375 -51.953125 C 10.125 -51.316406 10.335938 -50.582031 10.578125 -49.75 C 10.828125 -48.914062 11.046875 -47.84375 11.234375 -46.53125 C 11.421875 -45.226562 11.515625 -43.519531 11.515625 -41.40625 L 11.515625 -36.984375 L 17.125 -36.984375 L 17.125 -36.234375 L 11.515625 -36.234375 L 11.515625 -4.734375 C 11.515625 -3.609375 11.703125 -2.753906 12.078125 -2.171875 C 12.453125 -1.597656 12.890625 -1.21875 13.390625 -1.03125 C 13.890625 -0.84375 14.320312 -0.75 14.6875 -0.75 L 17.5625 -0.75 L 17.5625 0 L 1.25 0 Z M 1.25 -0.75 "/></g></g></g><g fill="#2f2937" fill-opacity="1"><g transform="translate(269.705011, 67.388297)"><g><path d="M 1.25 -0.75 L 4.109375 -0.75 C 4.523438 -0.75 4.972656 -0.84375 5.453125 -1.03125 C 5.929688 -1.21875 6.351562 -1.597656 6.71875 -2.171875 C 7.09375 -2.753906 7.28125 -3.609375 7.28125 -4.734375 L 7.28125 -29.640625 C 7.28125 -30.097656 7.238281 -30.601562 7.15625 -31.15625 C 7.070312 -31.71875 6.8125 -32.207031 6.375 -32.625 C 5.945312 -33.039062 5.191406 -33.25 4.109375 -33.25 L 4.109375 -34 C 6.304688 -34 7.960938 -34.484375 9.078125 -35.453125 C 10.203125 -36.429688 10.765625 -37.378906 10.765625 -38.296875 L 11.515625 -38.296875 L 11.515625 -4.734375 C 11.515625 -3.609375 11.703125 -2.753906 12.078125 -2.171875 C 12.453125 -1.597656 12.890625 -1.21875 13.390625 -1.03125 C 13.890625 -0.84375 14.320312 -0.75 14.6875 -0.75 L 17.5625 -0.75 L 17.5625 0 L 1.25 0 Z M 9.40625 -40.59375 C 8.570312 -40.59375 7.851562 -40.894531 7.25 -41.5 C 6.644531 -42.101562 6.34375 -42.816406 6.34375 -43.640625 C 6.34375 -44.472656 6.644531 -45.191406 7.25 -45.796875 C 7.851562 -46.398438 8.570312 -46.703125 9.40625 -46.703125 C 10.226562 -46.703125 10.941406 -46.398438 11.546875 -45.796875 C 12.148438 -45.191406 12.453125 -44.472656 12.453125 -43.640625 C 12.453125 -42.816406 12.148438 -42.101562 11.546875 -41.5 C 10.941406 -40.894531 10.226562 -40.59375 9.40625 -40.59375 Z M 9.40625 -40.59375 "/></g></g></g><g fill="#2f2937" fill-opacity="1"><g transform="translate(278.789553, 67.388297)"><g><path d="M 1.25 -0.75 L 4.109375 -0.75 C 4.523438 -0.75 4.972656 -0.84375 5.453125 -1.03125 C 5.929688 -1.21875 6.351562 -1.597656 6.71875 -2.171875 C 7.09375 -2.753906 7.28125 -3.609375 7.28125 -4.734375 L 7.28125 -54.859375 C 7.28125 -55.316406 7.238281 -55.820312 7.15625 -56.375 C 7.070312 -56.9375 6.8125 -57.425781 6.375 -57.84375 C 5.945312 -58.257812 5.191406 -58.46875 4.109375 -58.46875 L 4.109375 -59.21875 C 6.304688 -59.21875 7.960938 -59.703125 9.078125 -60.671875 C 10.203125 -61.648438 10.765625 -62.597656 10.765625 -63.515625 L 11.515625 -63.515625 L 11.515625 -4.734375 C 11.515625 -3.609375 11.703125 -2.753906 12.078125 -2.171875 C 12.453125 -1.597656 12.890625 -1.21875 13.390625 -1.03125 C 13.890625 -0.84375 14.320312 -0.75 14.6875 -0.75 L 17.5625 -0.75 L 17.5625 0 L 1.25 0 Z M 1.25 -0.75 "/></g></g></g><g fill="#2f2937" fill-opacity="1"><g transform="translate(287.874094, 67.388297)"><g><path d="M 22.84375 1.25 C 18.90625 1.25 15.453125 0.429688 12.484375 -1.203125 C 9.515625 -2.847656 7.207031 -5.15625 5.5625 -8.125 C 3.925781 -11.09375 3.109375 -14.550781 3.109375 -18.5 C 3.109375 -22.4375 3.925781 -25.890625 5.5625 -28.859375 C 7.207031 -31.828125 9.515625 -34.128906 12.484375 -35.765625 C 15.453125 -37.410156 18.90625 -38.234375 22.84375 -38.234375 C 26.039062 -38.234375 28.675781 -37.765625 30.75 -36.828125 C 32.832031 -35.890625 34.472656 -34.734375 35.671875 -33.359375 C 36.878906 -31.992188 37.765625 -30.625 38.328125 -29.25 C 38.890625 -27.882812 39.25 -26.734375 39.40625 -25.796875 C 39.570312 -24.867188 39.65625 -24.40625 39.65625 -24.40625 L 6.53125 -24.40625 C 6.445312 -23.863281 6.375 -23.332031 6.3125 -22.8125 C 6.257812 -22.300781 6.234375 -21.753906 6.234375 -21.171875 C 6.234375 -17.554688 7.03125 -14.285156 8.625 -11.359375 C 10.21875 -8.429688 12.476562 -6.097656 15.40625 -4.359375 C 18.332031 -2.617188 21.769531 -1.75 25.71875 -1.75 C 28.914062 -1.75 31.71875 -2.429688 34.125 -3.796875 C 36.53125 -5.171875 38.414062 -7.113281 39.78125 -9.625 C 41.15625 -12.132812 41.84375 -15.09375 41.84375 -18.5 L 42.59375 -18.5 C 42.59375 -14.550781 41.769531 -11.09375 40.125 -8.125 C 38.488281 -5.15625 36.1875 -2.847656 33.21875 -1.203125 C 30.25 0.429688 26.789062 1.25 22.84375 1.25 Z M 6.65625 -25.15625 L 35.421875 -25.15625 C 35.378906 -27.5625 34.703125 -29.6875 33.390625 -31.53125 C 32.085938 -33.382812 30.410156 -34.835938 28.359375 -35.890625 C 26.304688 -36.953125 24.117188 -37.484375 21.796875 -37.484375 C 19.347656 -37.484375 17.070312 -36.941406 14.96875 -35.859375 C 12.875 -34.785156 11.109375 -33.320312 9.671875 -31.46875 C 8.242188 -29.625 7.238281 -27.519531 6.65625 -25.15625 Z M 6.65625 -25.15625 "/></g></g></g></g></g></svg>