<svg xmlns="http://www.w3.org/2000/svg" version="1.0" viewBox="0 0 450 450"><path fill="#5a4377" d="M56.86 218.996v-.75h2.86c.414 0 .86-.093 1.328-.28q.717-.281 1.281-1.141.563-.874.563-2.563V161.45q0-1.746-.563-2.579-.564-.843-1.281-1.125a3.6 3.6 0 0 0-1.328-.28h-2.86v-.75h21.485q2.795 0 5.719.874c1.957.586 3.742 1.5 5.359 2.75q2.436 1.861 3.922 4.813c1 1.968 1.5 4.351 1.5 7.14q-.001 3.862-1.625 6.844a15.6 15.6 0 0 1-4.235 5.016q-2.611 2.015-5.656 2.953 4.483.316 8 2.531a16.3 16.3 0 0 1 5.563 5.766q2.062 3.55 2.062 7.968-.001 4.66-2.125 8.188-2.111 3.516-5.5 5.484c-2.262 1.305-4.703 1.953-7.328 1.953Zm10.579-31.14v30.39h10.53q4.983 0 8.22-1.453c2.156-.976 3.851-2.234 5.093-3.765q1.873-2.31 2.657-4.86.78-2.56.78-4.734-.002-2.186-.905-4.86-.909-2.683-3-5.109c-1.387-1.625-3.2-2.96-5.438-4.015q-3.363-1.594-8.344-1.594Zm7.78-30.39h-7.78v29.64h7.656q5.233.001 8.562-1.985 3.34-1.997 4.922-5.359 1.594-3.356 1.594-7.469-.001-2.623-.875-5.234a14.5 14.5 0 0 0-2.719-4.797q-1.83-2.184-4.656-3.484-2.83-1.313-6.703-1.313m0 0"/><path fill="#5a4377" d="M117.956 220.246q-4.113 0-7.703-1.53a19.7 19.7 0 0 1-6.282-4.235 19.7 19.7 0 0 1-4.234-6.281c-1.024-2.395-1.531-4.961-1.531-7.704 0-2.738.507-5.3 1.53-7.687a19.8 19.8 0 0 1 4.235-6.281 19.5 19.5 0 0 1 6.282-4.235q3.59-1.53 7.703-1.53 4.107 0 7.687 1.53a19.6 19.6 0 0 1 6.281 4.235 19.6 19.6 0 0 1 4.235 6.281q1.53 3.581 1.531 7.687-.001 4.113-1.531 7.704a19.5 19.5 0 0 1-4.235 6.28 19.8 19.8 0 0 1-6.28 4.235q-3.582 1.53-7.688 1.531m-17.063-24.171q0 4.237 1.422 8.093a21.5 21.5 0 0 0 4.11 6.86c1.788 1.992 3.953 3.57 6.484 4.734q3.797 1.734 8.531 1.734c2.781 0 5.176-.554 7.188-1.671q3.027-1.687 4.703-4.516 1.687-2.841 1.687-6.39c0-2.782-.5-5.446-1.5-8a21.6 21.6 0 0 0-4.265-6.844 20.7 20.7 0 0 0-6.532-4.797q-3.766-1.782-8.25-1.782-4.113.002-7.172 1.657c-2.03 1.093-3.609 2.601-4.734 4.515q-1.674 2.86-1.672 6.407m0 0"/><path fill="#5a4377" d="M154.886 220.246q-4.172 0-7.594-1.593a18 18 0 0 1-5.89-4.36q-2.454-2.764-3.766-6.343-1.313-3.593-1.313-7.641-.001-5.42 2.266-9.875 2.28-4.452 6.64-7.094 4.36-2.638 10.594-2.64 3.855 0 6.563.843 2.718.83 4.547 2.141 1.84 1.315 2.906 2.734v-22.297q-.001-.684-.125-1.515a2.5 2.5 0 0 0-.781-1.469c-.438-.414-1.2-.625-2.282-.625v-.75q3.31 0 4.985-1.453 1.687-1.466 1.687-2.844h.75v57.047c0 2 .285 3.461.86 4.375q.874 1.36 3.5 1.36v.75h-4.797q-2.252.002-2.969-1.485a9.1 9.1 0 0 1-.828-3.25c-.711.961-1.688 1.906-2.938 2.844q-1.863 1.394-4.796 2.265-2.924.874-7.22.875m-14.266-19.875q0 3.862 1.313 7.266 1.31 3.393 3.64 5.953 2.343 2.55 5.36 3.985 3.012 1.422 6.453 1.421.733.001 2.234-.156c1-.101 2.11-.344 3.328-.719q1.842-.562 3.64-1.734c1.208-.789 2.27-1.875 3.188-3.25l.063-25.469q-1.376-2.044-3.188-3.203-1.8-1.155-3.64-1.687-1.83-.528-3.36-.688c-1.023-.101-1.777-.156-2.265-.156q-3.441 0-6.453 1.406-3.017 1.407-5.36 3.938-2.33 2.518-3.64 5.875-1.313 3.363-1.313 7.218m0 0"/><path fill="#5a4377" d="M201.782 182.746h-1.234q-1.19.001-2.156 1.157-.972 1.159-1.72 2.968a51 51 0 0 0-1.39 3.86 315 315 0 0 1-1.281 3.906q-.189.563-.406 1.344a27 27 0 0 1-.532 1.656q-.689 2.426-1.625 5.578a951 951 0 0 0-1.828 6.281 348 348 0 0 1-1.656 5.579q-.251.94-.531 1.937-.269.985-.578 2.047l-1.313 4.89a71 71 0 0 1-2.062 6.344 38 38 0 0 1-2.953 6.235q-1.723 2.887-3.985 4.703-2.268 1.811-5.14 1.687v-5.359q4.169-.439 7.062-3.156c1.938-1.805 3.523-4.055 4.766-6.75a39.2 39.2 0 0 0 2.812-8.594l-.406-1.422q-.41-1.436-1.094-3.734-.69-2.312-1.5-5.078a997 997 0 0 0-1.61-5.547 297 297 0 0 1-1.437-5.047q-.626-2.28-1-3.594a83 83 0 0 0-1.14-3.937 35 35 0 0 0-1.47-3.891q-.815-1.812-1.812-2.938-.985-1.125-2.234-1.125h-1.406.156v-.75h14.516v.75h-1.375q-1.549.001-1.953 1.813-.41 1.799-.157 4.234.122 1.361.438 2.797c.207.961.43 1.875.672 2.75q.497 1.674 1.187 4.203c.457 1.68.938 3.422 1.438 5.235q.75 2.706 1.359 4.922.621 2.203.938 3.265.248-.872.718-2.547c.313-1.125.676-2.398 1.094-3.828a619 619 0 0 0 1.25-4.39q.621-2.25 1.172-4.125.248-.81.437-1.5.186-.685.313-1.235.434-1.81.781-3.797a29 29 0 0 0 .406-3.765q.06-1.782-.437-2.907-.503-1.125-1.75-1.125h-1.359v-.75h11.015Zm7.299-25.281v-.75h21.485q2.233 0 4.906.563 2.683.562 5.297 1.781c1.75.805 3.347 1.89 4.797 3.266q2.184 2.05 3.484 5.078 1.312 3.018 1.312 7.062c0 2.531-.43 4.746-1.28 6.64q-1.267 2.83-3.423 4.798a18.7 18.7 0 0 1-4.765 3.172 24.8 24.8 0 0 1-5.266 1.765q-2.643.563-4.875.563H219.66v22.86q0 1.688.563 2.562.562.86 1.312 1.14.748.281 1.297.281h2.875v.75h-16.625v-.75h2.86q.623 0 1.328-.28c.476-.188.906-.567 1.28-1.141q.563-.874.563-2.563V161.45q0-1.746-.562-2.579c-.375-.562-.805-.937-1.281-1.125a3.6 3.6 0 0 0-1.328-.28Zm10.578-.062v33.25h8.532q8.717 0 13.109-3.953 4.39-3.95 4.39-12.235-.002-4.734-1.937-8.594-1.923-3.855-5.781-6.187-3.861-2.344-9.656-2.344h-5.766c-.719 0-1.684.024-2.89.063m26.229 61.593v-.75h2.86q.62 0 1.343-.28.714-.281 1.265-1.141.563-.874.563-2.563v-24.906q-.001-.687-.125-1.531a2.5 2.5 0 0 0-.781-1.47c-.43-.413-1.184-.624-2.266-.624v-.735c2.195 0 3.86-.488 4.984-1.468q1.688-1.467 1.688-2.828h.734v9.218a21.3 21.3 0 0 1 2.22-4.578q1.34-2.091 3.202-3.328 1.873-1.249 4.297-1.25 1.81.001 2.766.313.967.298 2 .609 1.03.314 3.015.312 1.812 0 2.188-.609c.25-.414.375-.625.375-.625h.75l-9.406 26.156h-.75l4.609-12.828q1.248-3.435.937-6.297-.316-2.858-1.968-4.578-1.643-1.718-4.516-1.719-2.36 0-4.14 1.313c-1.18.875-2.172 1.98-2.985 3.312-.812 1.325-1.43 2.672-1.844 4.047q-.627 2.05-.75 3.485v20.61q0 1.688.563 2.562.562.86 1.312 1.14.75.281 1.313.281h2.86v.75Zm46.335 1.25q-4.112 0-7.703-1.53a19.7 19.7 0 0 1-6.28-4.235 19.7 19.7 0 0 1-4.235-6.281c-1.024-2.395-1.532-4.961-1.532-7.704 0-2.738.508-5.3 1.532-7.687a19.8 19.8 0 0 1 4.234-6.281 19.5 19.5 0 0 1 6.281-4.235q3.591-1.53 7.703-1.53 4.108 0 7.688 1.53a19.6 19.6 0 0 1 6.281 4.235 19.6 19.6 0 0 1 4.235 6.281q1.53 3.581 1.53 7.687 0 4.113-1.53 7.704a19.5 19.5 0 0 1-4.235 6.28 19.8 19.8 0 0 1-6.281 4.235q-3.58 1.53-7.688 1.531m-17.062-24.171q0 4.237 1.422 8.093a21.5 21.5 0 0 0 4.11 6.86q2.684 2.988 6.484 4.734 3.796 1.734 8.53 1.734c2.782 0 5.177-.554 7.188-1.671q3.029-1.687 4.703-4.516 1.688-2.841 1.688-6.39c0-2.782-.5-5.446-1.5-8a21.6 21.6 0 0 0-4.266-6.844 20.7 20.7 0 0 0-6.53-4.797q-3.77-1.782-8.25-1.782-4.115.002-7.173 1.657c-2.031 1.093-3.61 2.601-4.734 4.515q-1.674 2.86-1.672 6.407m0 0"/><path fill="#5a4377" d="M308.733 218.246h2.86q.62 0 1.343-.28.714-.281 1.266-1.141.562-.874.562-2.563v-31.516h-5.594v-.75h5.594v-11.515q0-2.31.563-4.922a15.5 15.5 0 0 1 1.953-4.875q1.404-2.28 3.922-3.75c1.687-.977 3.835-1.469 6.453-1.469 2.039 0 3.703.274 4.984.813q1.935.813 3.14 1.656 1.22.844 1.97.844.684.002 1.187-.688.497-.685 1.187-2.625h.797l-7.968 22.172h-.75l1.875-5.344q1.81-5.233 1.468-8.843-.344-3.621-2.406-5.485-2.05-1.875-5.484-1.875c-2.368 0-4.328.438-5.891 1.313q-2.332 1.315-3.484 3.343-1.142 2.017-1.141 4.063 0 1.253.281 2.219.282.954.657 2.203c.25.836.46 1.906.64 3.219q.281 1.955.281 5.125v4.421h5.61v.75h-5.61v31.516q0 1.688.563 2.563.562.86 1.312 1.14.75.281 1.313.281h2.86v.75h-16.313Zm25.847 0h2.86q.622 0 1.343-.28.716-.281 1.266-1.141.563-.874.563-2.563v-24.906q-.001-.687-.125-1.531a2.5 2.5 0 0 0-.782-1.47c-.43-.413-1.183-.624-2.265-.624v-.735q3.294.001 4.984-1.468 1.688-1.467 1.688-2.828h.734v33.562q0 1.688.562 2.563.563.86 1.313 1.14.75.281 1.312.281h2.86v.75H334.58Zm8.157-39.859a2.96 2.96 0 0 1-2.157-.89 2.96 2.96 0 0 1-.89-2.157q0-1.25.89-2.14c.602-.602 1.32-.907 2.157-.907q1.249.002 2.14.907.904.89.906 2.14-.001 1.254-.906 2.156a2.92 2.92 0 0 1-2.14.891m0 0"/><path fill="#5a4377" d="M345.168 218.246h2.86q.621 0 1.343-.28.715-.281 1.266-1.141.562-.874.562-2.563v-50.14q-.001-.685-.125-1.516a2.5 2.5 0 0 0-.781-1.469c-.43-.414-1.184-.625-2.266-.625v-.75q3.296 0 4.985-1.453 1.687-1.466 1.687-2.844h.735v58.797q0 1.688.562 2.563.563.86 1.313 1.14.75.281 1.312.281h2.86v.75h-16.313Zm0 0"/><path fill="#5a4377" d="M377.365 220.246q-5.923-.002-10.375-2.453-4.454-2.467-6.922-6.922-2.454-4.451-2.453-10.375c0-3.945.816-7.406 2.453-10.375q2.468-4.452 6.922-6.906 4.452-2.451 10.375-2.453 4.794 0 7.906 1.406c2.07.93 3.711 2.078 4.922 3.453 1.207 1.368 2.086 2.735 2.64 4.11.563 1.367.926 2.515 1.094 3.453.164.93.25 1.39.25 1.39h-33.125a43 43 0 0 0-.218 1.594 14 14 0 0 0-.094 1.657q0 5.424 2.39 9.812 2.403 4.394 6.797 7 4.39 2.612 10.297 2.61 4.795.002 8.407-2.047 3.62-2.062 5.671-5.829 2.063-3.762 2.063-8.875h.734q-.002 5.924-2.453 10.375-2.454 4.456-6.906 6.922c-2.969 1.633-6.43 2.453-10.375 2.453m-16.188-26.406h28.766c-.043-2.414-.719-4.547-2.031-6.39q-1.956-2.766-5.047-4.36a14.1 14.1 0 0 0-6.563-1.594q-3.674.001-6.828 1.625a15.9 15.9 0 0 0-5.297 4.391q-2.145 2.766-3 6.328m0 0"/></svg>