<svg xmlns="http://www.w3.org/2000/svg" xmlns:xlink="http://www.w3.org/1999/xlink" zoomAndPan="magnify" viewBox="138 168 217 100" preserveAspectRatio="xMidYMid meet" version="1.0"><defs><g/></defs><g fill="#4a6a58" fill-opacity="1"><g transform="translate(143.105607, 228.232393)"><g><path d="M -1.734375 14.25 C -1.734375 12.007812 -0.957031 9.988281 0.59375 8.1875 C 2.144531 6.394531 4.234375 4.828125 6.859375 3.484375 C 9.484375 2.148438 12.394531 1.085938 15.59375 0.296875 C 14.007812 0.265625 12.554688 0.171875 11.234375 0.015625 C 9.910156 -0.128906 8.851562 -0.429688 8.0625 -0.890625 C 7.269531 -1.347656 6.875 -2.039062 6.875 -2.96875 C 6.875 -3.59375 7.179688 -4.242188 7.796875 -4.921875 C 8.410156 -5.597656 9.289062 -6.179688 10.4375 -6.671875 C 11.59375 -7.171875 12.984375 -7.421875 14.609375 -7.421875 C 12.160156 -7.617188 10.019531 -8.21875 8.1875 -9.21875 C 6.351562 -10.226562 4.929688 -11.554688 3.921875 -13.203125 C 2.921875 -14.859375 2.421875 -16.757812 2.421875 -18.90625 C 2.421875 -21.21875 3 -23.226562 4.15625 -24.9375 C 5.3125 -26.65625 6.9375 -27.992188 9.03125 -28.953125 C 11.125 -29.910156 13.554688 -30.390625 16.328125 -30.390625 C 18.210938 -30.390625 20.046875 -30.144531 21.828125 -29.65625 C 22.085938 -29.582031 22.328125 -29.519531 22.546875 -29.46875 C 22.765625 -29.425781 23.035156 -29.40625 23.359375 -29.40625 L 32.515625 -29.40625 L 32.515625 -28.8125 L 24 -28.8125 C 25.988281 -27.851562 27.535156 -26.523438 28.640625 -24.828125 C 29.742188 -23.128906 30.296875 -21.15625 30.296875 -18.90625 C 30.296875 -16.59375 29.71875 -14.570312 28.5625 -12.84375 C 27.40625 -11.113281 25.78125 -9.769531 23.6875 -8.8125 C 21.59375 -7.851562 19.140625 -7.375 16.328125 -7.375 C 15.929688 -7.375 15.304688 -7.316406 14.453125 -7.203125 C 13.597656 -7.085938 12.695312 -6.90625 11.75 -6.65625 C 10.8125 -6.40625 10.007812 -6.066406 9.34375 -5.640625 C 8.6875 -5.210938 8.359375 -4.6875 8.359375 -4.0625 C 8.359375 -3.53125 8.6875 -3.179688 9.34375 -3.015625 C 10.007812 -2.847656 10.890625 -2.765625 11.984375 -2.765625 C 13.265625 -2.765625 14.753906 -2.820312 16.453125 -2.9375 C 18.160156 -3.0625 19.882812 -3.125 21.625 -3.125 C 23.175781 -3.125 24.675781 -3.023438 26.125 -2.828125 C 27.582031 -2.628906 28.890625 -2.269531 30.046875 -1.75 C 31.203125 -1.238281 32.117188 -0.488281 32.796875 0.5 C 33.472656 1.488281 33.8125 2.773438 33.8125 4.359375 C 33.8125 5.878906 33.414062 7.445312 32.625 9.0625 C 31.832031 10.675781 30.71875 12.238281 29.28125 13.75 C 27.84375 15.269531 26.132812 16.632812 24.15625 17.84375 C 22.175781 19.050781 19.988281 20.007812 17.59375 20.71875 C 15.207031 21.425781 12.691406 21.78125 10.046875 21.78125 C 7.773438 21.78125 5.742188 21.457031 3.953125 20.8125 C 2.171875 20.164062 0.78125 19.273438 -0.21875 18.140625 C -1.226562 17.003906 -1.734375 15.707031 -1.734375 14.25 Z M 1.578125 13.421875 C 1.578125 14.804688 2.019531 16.023438 2.90625 17.078125 C 3.800781 18.128906 5.039062 18.941406 6.625 19.515625 C 8.21875 20.097656 10.035156 20.390625 12.078125 20.390625 C 13.492188 20.390625 15.078125 20.175781 16.828125 19.75 C 18.578125 19.320312 20.34375 18.691406 22.125 17.859375 C 23.90625 17.035156 25.535156 16.03125 27.015625 14.84375 C 28.503906 13.65625 29.703125 12.285156 30.609375 10.734375 C 31.523438 9.191406 31.984375 7.476562 31.984375 5.59375 C 31.984375 4.207031 31.5625 3.140625 30.71875 2.390625 C 29.875 1.648438 28.765625 1.128906 27.390625 0.828125 C 26.023438 0.535156 24.523438 0.375 22.890625 0.34375 C 21.253906 0.3125 19.660156 0.296875 18.109375 0.296875 C 14.910156 0.828125 12.066406 1.675781 9.578125 2.84375 C 7.085938 4.019531 5.128906 5.488281 3.703125 7.25 C 2.285156 9.019531 1.578125 11.078125 1.578125 13.421875 Z M 16.328125 -29.796875 C 14.484375 -29.796875 12.757812 -29.34375 11.15625 -28.4375 C 9.5625 -27.53125 8.269531 -26.257812 7.28125 -24.625 C 6.289062 -22.988281 5.796875 -21.082031 5.796875 -18.90625 C 5.796875 -16.726562 6.289062 -14.820312 7.28125 -13.1875 C 8.269531 -11.550781 9.5625 -10.269531 11.15625 -9.34375 C 12.757812 -8.425781 14.484375 -7.96875 16.328125 -7.96875 C 18.179688 -7.96875 19.90625 -8.425781 21.5 -9.34375 C 23.101562 -10.269531 24.398438 -11.550781 25.390625 -13.1875 C 26.378906 -14.820312 26.875 -16.726562 26.875 -18.90625 C 26.875 -21.082031 26.378906 -22.988281 25.390625 -24.625 C 24.398438 -26.257812 23.101562 -27.53125 21.5 -28.4375 C 19.90625 -29.34375 18.179688 -29.796875 16.328125 -29.796875 Z M 16.328125 -29.796875 "/></g></g></g><g fill="#4a6a58" fill-opacity="1"><g transform="translate(168.398284, 228.232393)"><g><path d="M 0.984375 0 L 0.984375 -0.59375 L 3.265625 -0.59375 C 3.597656 -0.59375 3.953125 -0.664062 4.328125 -0.8125 C 4.710938 -0.96875 5.050781 -1.273438 5.34375 -1.734375 C 5.644531 -2.191406 5.796875 -2.867188 5.796875 -3.765625 L 5.796875 -23.5625 C 5.796875 -23.925781 5.757812 -24.328125 5.6875 -24.765625 C 5.625 -25.210938 5.414062 -25.601562 5.0625 -25.9375 C 4.71875 -26.269531 4.117188 -26.4375 3.265625 -26.4375 L 3.265625 -27.03125 C 5.015625 -27.03125 6.332031 -27.414062 7.21875 -28.1875 C 8.113281 -28.96875 8.5625 -29.71875 8.5625 -30.4375 L 9.15625 -30.4375 L 9.15625 -23.109375 C 9.613281 -24.429688 10.195312 -25.644531 10.90625 -26.75 C 11.625 -27.851562 12.476562 -28.734375 13.46875 -29.390625 C 14.457031 -30.054688 15.59375 -30.390625 16.875 -30.390625 C 17.832031 -30.390625 18.566406 -30.304688 19.078125 -30.140625 C 19.585938 -29.972656 20.113281 -29.804688 20.65625 -29.640625 C 21.207031 -29.484375 22.007812 -29.40625 23.0625 -29.40625 C 24.019531 -29.40625 24.597656 -29.566406 24.796875 -29.890625 C 24.992188 -30.222656 25.09375 -30.390625 25.09375 -30.390625 L 25.6875 -30.390625 L 18.21875 -9.609375 L 17.625 -9.609375 L 21.28125 -19.796875 C 21.945312 -21.609375 22.195312 -23.273438 22.03125 -24.796875 C 21.863281 -26.316406 21.34375 -27.53125 20.46875 -28.4375 C 19.59375 -29.34375 18.394531 -29.796875 16.875 -29.796875 C 15.625 -29.796875 14.523438 -29.445312 13.578125 -28.75 C 12.640625 -28.0625 11.847656 -27.1875 11.203125 -26.125 C 10.566406 -25.070312 10.082031 -24 9.75 -22.90625 C 9.414062 -21.820312 9.21875 -20.898438 9.15625 -20.140625 L 9.15625 -3.765625 C 9.15625 -2.867188 9.300781 -2.191406 9.59375 -1.734375 C 9.894531 -1.273438 10.242188 -0.96875 10.640625 -0.8125 C 11.035156 -0.664062 11.382812 -0.59375 11.6875 -0.59375 L 13.953125 -0.59375 L 13.953125 0 Z M 0.984375 0 "/></g></g></g><g fill="#4a6a58" fill-opacity="1"><g transform="translate(186.859972, 228.232393)"><g><path d="M 18.171875 0.984375 C 15.035156 0.984375 12.285156 0.332031 9.921875 -0.96875 C 7.566406 -2.269531 5.734375 -4.097656 4.421875 -6.453125 C 3.117188 -8.816406 2.46875 -11.566406 2.46875 -14.703125 C 2.46875 -17.835938 3.117188 -20.582031 4.421875 -22.9375 C 5.734375 -25.300781 7.566406 -27.132812 9.921875 -28.4375 C 12.285156 -29.738281 15.035156 -30.390625 18.171875 -30.390625 C 20.710938 -30.390625 22.804688 -30.019531 24.453125 -29.28125 C 26.097656 -28.539062 27.398438 -27.625 28.359375 -26.53125 C 29.316406 -25.445312 30.019531 -24.359375 30.46875 -23.265625 C 30.914062 -22.171875 31.203125 -21.253906 31.328125 -20.515625 C 31.460938 -19.773438 31.53125 -19.40625 31.53125 -19.40625 L 5.203125 -19.40625 C 5.128906 -18.976562 5.066406 -18.554688 5.015625 -18.140625 C 4.972656 -17.722656 4.953125 -17.285156 4.953125 -16.828125 C 4.953125 -13.960938 5.585938 -11.363281 6.859375 -9.03125 C 8.128906 -6.707031 9.925781 -4.851562 12.25 -3.46875 C 14.570312 -2.082031 17.300781 -1.390625 20.4375 -1.390625 C 22.976562 -1.390625 25.207031 -1.929688 27.125 -3.015625 C 29.039062 -4.109375 30.539062 -5.648438 31.625 -7.640625 C 32.71875 -9.640625 33.265625 -11.992188 33.265625 -14.703125 L 33.859375 -14.703125 C 33.859375 -11.566406 33.207031 -8.816406 31.90625 -6.453125 C 30.601562 -4.097656 28.769531 -2.269531 26.40625 -0.96875 C 24.050781 0.332031 21.304688 0.984375 18.171875 0.984375 Z M 5.296875 -20 L 28.171875 -20 C 28.128906 -21.914062 27.585938 -23.609375 26.546875 -25.078125 C 25.515625 -26.546875 24.179688 -27.695312 22.546875 -28.53125 C 20.910156 -29.375 19.171875 -29.796875 17.328125 -29.796875 C 15.378906 -29.796875 13.570312 -29.363281 11.90625 -28.5 C 10.238281 -27.644531 8.832031 -26.484375 7.6875 -25.015625 C 6.550781 -23.546875 5.753906 -21.875 5.296875 -20 Z M 5.296875 -20 "/></g></g></g><g fill="#4a6a58" fill-opacity="1"><g transform="translate(212.994156, 228.232393)"><g><path d="M 16.03125 0.984375 C 13.289062 0.984375 10.90625 0.410156 8.875 -0.734375 C 6.851562 -1.890625 5.28125 -3.445312 4.15625 -5.40625 C 3.03125 -7.375 2.46875 -9.53125 2.46875 -11.875 C 2.46875 -13.757812 2.832031 -15.519531 3.5625 -17.15625 C 4.289062 -18.789062 5.320312 -20.207031 6.65625 -21.40625 C 7.988281 -22.613281 9.582031 -23.5 11.4375 -24.0625 C 10.84375 -24.625 10.210938 -25.160156 9.546875 -25.671875 C 8.890625 -26.179688 8.195312 -26.648438 7.46875 -27.078125 C 8.625 -28.234375 9.976562 -29.070312 11.53125 -29.59375 C 13.082031 -30.125 14.816406 -30.390625 16.734375 -30.390625 C 19.734375 -30.390625 22.207031 -29.84375 24.15625 -28.75 C 26.101562 -27.664062 27.5625 -26.175781 28.53125 -24.28125 C 29.507812 -22.382812 30 -20.25 30 -17.875 L 30 -5.140625 C 30 -3.554688 30.226562 -2.398438 30.6875 -1.671875 C 31.15625 -0.953125 32.082031 -0.59375 33.46875 -0.59375 L 33.46875 0 L 29.65625 0 C 28.46875 0 27.664062 -0.398438 27.25 -1.203125 C 26.832031 -2.015625 26.625 -2.867188 26.625 -3.765625 L 26.625 -3.953125 C 25.507812 -2.535156 24.050781 -1.359375 22.25 -0.421875 C 20.445312 0.515625 18.375 0.984375 16.03125 0.984375 Z M 12.171875 -23.3125 C 10.097656 -22.457031 8.46875 -20.972656 7.28125 -18.859375 C 6.09375 -16.742188 5.5 -14.367188 5.5 -11.734375 C 5.5 -9.484375 5.9375 -7.441406 6.8125 -5.609375 C 7.6875 -3.785156 8.914062 -2.328125 10.5 -1.234375 C 12.082031 -0.148438 13.945312 0.390625 16.09375 0.390625 C 18.101562 0.390625 20.082031 -0.078125 22.03125 -1.015625 C 23.976562 -1.953125 25.507812 -3.28125 26.625 -5 L 26.625 -19.25 C 26.132812 -19.976562 25.453125 -20.710938 24.578125 -21.453125 C 23.703125 -22.203125 22.570312 -22.820312 21.1875 -23.3125 C 19.800781 -23.8125 18.101562 -24.0625 16.09375 -24.0625 C 14.832031 -24.0625 13.660156 -23.863281 12.578125 -23.46875 C 13.367188 -22.675781 14.203125 -21.722656 15.078125 -20.609375 C 15.953125 -19.503906 16.6875 -18.234375 17.28125 -16.796875 C 17.875 -15.367188 18.171875 -13.726562 18.171875 -11.875 C 18.171875 -10.125 17.804688 -8.710938 17.078125 -7.640625 C 16.347656 -6.566406 15.390625 -6.03125 14.203125 -6.03125 C 14.003906 -6.03125 13.859375 -6.082031 13.765625 -6.1875 C 14.054688 -6.25 14.445312 -6.507812 14.9375 -6.96875 C 15.4375 -7.4375 15.890625 -8.09375 16.296875 -8.9375 C 16.710938 -9.78125 16.921875 -10.796875 16.921875 -11.984375 C 16.921875 -14.222656 16.492188 -16.289062 15.640625 -18.1875 C 14.785156 -20.082031 13.628906 -21.789062 12.171875 -23.3125 Z M 16.828125 -29.796875 C 14.710938 -29.796875 13.164062 -29.484375 12.1875 -28.859375 C 11.21875 -28.234375 10.734375 -27.472656 10.734375 -26.578125 C 10.734375 -26.285156 10.789062 -25.945312 10.90625 -25.5625 C 11.03125 -25.1875 11.335938 -24.734375 11.828125 -24.203125 C 12.492188 -24.367188 13.179688 -24.5 13.890625 -24.59375 C 14.597656 -24.695312 15.3125 -24.75 16.03125 -24.75 C 18.34375 -24.75 20.378906 -24.359375 22.140625 -23.578125 C 23.910156 -22.804688 25.375 -21.742188 26.53125 -20.390625 C 26.53125 -21.972656 26.148438 -23.484375 25.390625 -24.921875 C 24.628906 -26.359375 23.53125 -27.53125 22.09375 -28.4375 C 20.664062 -29.34375 18.910156 -29.796875 16.828125 -29.796875 Z M 16.828125 -29.796875 "/></g></g></g><g fill="#4a6a58" fill-opacity="1"><g transform="translate(239.722333, 228.232393)"><g><path d="M 5.203125 -28.8125 L 2.46875 -28.8125 L 2.46875 -29.40625 C 3.757812 -29.40625 4.757812 -29.765625 5.46875 -30.484375 C 6.175781 -31.210938 6.6875 -32.117188 7 -33.203125 C 7.3125 -34.296875 7.5 -35.410156 7.5625 -36.546875 C 7.632812 -37.691406 7.671875 -38.691406 7.671875 -39.546875 L 8.265625 -39.546875 L 8.265625 -29.40625 L 12.53125 -29.40625 L 12.53125 -28.8125 L 8.265625 -28.8125 L 8.265625 -5.4375 C 8.265625 -4.644531 8.304688 -3.796875 8.390625 -2.890625 C 8.472656 -1.984375 8.695312 -1.21875 9.0625 -0.59375 C 9.425781 0.03125 10.003906 0.34375 10.796875 0.34375 C 10.953125 0.34375 11.128906 0.328125 11.328125 0.296875 C 11.523438 0.265625 11.707031 0.21875 11.875 0.15625 L 11.875 0.75 C 11.78125 0.78125 11.65625 0.828125 11.5 0.890625 C 11.351562 0.953125 11 0.984375 10.4375 0.984375 C 9.019531 0.984375 7.929688 0.546875 7.171875 -0.328125 C 6.410156 -1.203125 5.890625 -2.28125 5.609375 -3.5625 C 5.335938 -4.851562 5.203125 -6.109375 5.203125 -7.328125 Z M 5.203125 -28.8125 "/></g></g></g><g fill="#4a6a58" fill-opacity="1"><g transform="translate(246.502019, 228.232393)"><g/></g></g><g fill="#4a6a58" fill-opacity="1"><g transform="translate(256.647709, 228.232393)"><g><path d="M 0.984375 -0.59375 L 3.265625 -0.59375 C 3.597656 -0.59375 3.953125 -0.664062 4.328125 -0.8125 C 4.710938 -0.96875 5.050781 -1.273438 5.34375 -1.734375 C 5.644531 -2.191406 5.796875 -2.867188 5.796875 -3.765625 L 5.796875 -28.8125 L 1.34375 -28.8125 L 1.34375 -29.40625 L 5.796875 -29.40625 L 5.796875 -38.5625 C 5.796875 -39.78125 5.941406 -41.082031 6.234375 -42.46875 C 6.535156 -43.851562 7.054688 -45.144531 7.796875 -46.34375 C 8.535156 -47.550781 9.570312 -48.539062 10.90625 -49.3125 C 12.25 -50.09375 13.957031 -50.484375 16.03125 -50.484375 C 17.65625 -50.484375 18.976562 -50.269531 20 -49.84375 C 21.019531 -49.414062 21.851562 -48.976562 22.5 -48.53125 C 23.144531 -48.082031 23.664062 -47.859375 24.0625 -47.859375 C 24.414062 -47.859375 24.722656 -48.039062 24.984375 -48.40625 C 25.253906 -48.769531 25.570312 -49.460938 25.9375 -50.484375 L 26.578125 -50.484375 L 20.25 -32.875 L 19.65625 -32.875 L 21.140625 -37.125 C 22.097656 -39.894531 22.484375 -42.238281 22.296875 -44.15625 C 22.117188 -46.070312 21.484375 -47.523438 20.390625 -48.515625 C 19.304688 -49.503906 17.851562 -50 16.03125 -50 C 14.15625 -50 12.597656 -49.648438 11.359375 -48.953125 C 10.117188 -48.265625 9.191406 -47.382812 8.578125 -46.3125 C 7.972656 -45.238281 7.671875 -44.15625 7.671875 -43.0625 C 7.671875 -42.40625 7.742188 -41.820312 7.890625 -41.3125 C 8.046875 -40.800781 8.222656 -40.210938 8.421875 -39.546875 C 8.617188 -38.890625 8.789062 -38.039062 8.9375 -37 C 9.082031 -35.957031 9.15625 -34.597656 9.15625 -32.921875 L 9.15625 -29.40625 L 13.609375 -29.40625 L 13.609375 -28.8125 L 9.15625 -28.8125 L 9.15625 -3.765625 C 9.15625 -2.867188 9.300781 -2.191406 9.59375 -1.734375 C 9.894531 -1.273438 10.242188 -0.96875 10.640625 -0.8125 C 11.035156 -0.664062 11.382812 -0.59375 11.6875 -0.59375 L 13.953125 -0.59375 L 13.953125 0 L 0.984375 0 Z M 0.984375 -0.59375 "/></g></g></g><g fill="#4a6a58" fill-opacity="1"><g transform="translate(276.000388, 228.232393)"><g><path d="M 0.984375 -0.59375 L 3.265625 -0.59375 C 3.597656 -0.59375 3.953125 -0.664062 4.328125 -0.8125 C 4.710938 -0.96875 5.050781 -1.273438 5.34375 -1.734375 C 5.644531 -2.191406 5.796875 -2.867188 5.796875 -3.765625 L 5.796875 -23.5625 C 5.796875 -23.925781 5.757812 -24.328125 5.6875 -24.765625 C 5.625 -25.210938 5.414062 -25.601562 5.0625 -25.9375 C 4.71875 -26.269531 4.117188 -26.4375 3.265625 -26.4375 L 3.265625 -27.03125 C 5.015625 -27.03125 6.332031 -27.414062 7.21875 -28.1875 C 8.113281 -28.96875 8.5625 -29.71875 8.5625 -30.4375 L 9.15625 -30.4375 L 9.15625 -3.765625 C 9.15625 -2.867188 9.300781 -2.191406 9.59375 -1.734375 C 9.894531 -1.273438 10.242188 -0.96875 10.640625 -0.8125 C 11.035156 -0.664062 11.382812 -0.59375 11.6875 -0.59375 L 13.953125 -0.59375 L 13.953125 0 L 0.984375 0 Z M 7.46875 -32.28125 C 6.8125 -32.28125 6.242188 -32.515625 5.765625 -32.984375 C 5.285156 -33.460938 5.046875 -34.035156 5.046875 -34.703125 C 5.046875 -35.359375 5.285156 -35.925781 5.765625 -36.40625 C 6.242188 -36.882812 6.8125 -37.125 7.46875 -37.125 C 8.132812 -37.125 8.707031 -36.882812 9.1875 -36.40625 C 9.664062 -35.925781 9.90625 -35.359375 9.90625 -34.703125 C 9.90625 -34.035156 9.664062 -33.460938 9.1875 -32.984375 C 8.707031 -32.515625 8.132812 -32.28125 7.46875 -32.28125 Z M 7.46875 -32.28125 "/></g></g></g><g fill="#4a6a58" fill-opacity="1"><g transform="translate(283.22558, 228.232393)"><g><path d="M 5.203125 -28.8125 L 2.46875 -28.8125 L 2.46875 -29.40625 C 3.757812 -29.40625 4.757812 -29.765625 5.46875 -30.484375 C 6.175781 -31.210938 6.6875 -32.117188 7 -33.203125 C 7.3125 -34.296875 7.5 -35.410156 7.5625 -36.546875 C 7.632812 -37.691406 7.671875 -38.691406 7.671875 -39.546875 L 8.265625 -39.546875 L 8.265625 -29.40625 L 12.53125 -29.40625 L 12.53125 -28.8125 L 8.265625 -28.8125 L 8.265625 -5.4375 C 8.265625 -4.644531 8.304688 -3.796875 8.390625 -2.890625 C 8.472656 -1.984375 8.695312 -1.21875 9.0625 -0.59375 C 9.425781 0.03125 10.003906 0.34375 10.796875 0.34375 C 10.953125 0.34375 11.128906 0.328125 11.328125 0.296875 C 11.523438 0.265625 11.707031 0.21875 11.875 0.15625 L 11.875 0.75 C 11.78125 0.78125 11.65625 0.828125 11.5 0.890625 C 11.351562 0.953125 11 0.984375 10.4375 0.984375 C 9.019531 0.984375 7.929688 0.546875 7.171875 -0.328125 C 6.410156 -1.203125 5.890625 -2.28125 5.609375 -3.5625 C 5.335938 -4.851562 5.203125 -6.109375 5.203125 -7.328125 Z M 5.203125 -28.8125 "/></g></g></g><g fill="#4a6a58" fill-opacity="1"><g transform="translate(290.005266, 228.232393)"><g/></g></g><g fill="#4a6a58" fill-opacity="1"><g transform="translate(300.150956, 228.232393)"><g><path d="M 1.484375 -50.484375 L 5.203125 -50.484375 L 3.65625 -5.84375 L 3.0625 -5.84375 Z M 3.359375 -3.765625 C 4.023438 -3.765625 4.585938 -3.53125 5.046875 -3.0625 C 5.503906 -2.601562 5.734375 -2.046875 5.734375 -1.390625 C 5.734375 -0.765625 5.503906 -0.210938 5.046875 0.265625 C 4.585938 0.742188 4.023438 0.984375 3.359375 0.984375 C 2.734375 0.984375 2.179688 0.742188 1.703125 0.265625 C 1.222656 -0.210938 0.984375 -0.765625 0.984375 -1.390625 C 0.984375 -2.046875 1.222656 -2.601562 1.703125 -3.0625 C 2.179688 -3.53125 2.734375 -3.765625 3.359375 -3.765625 Z M 3.359375 -3.765625 "/></g></g></g></svg>