<svg xmlns="http://www.w3.org/2000/svg" xmlns:xlink="http://www.w3.org/1999/xlink" width="600" zoomAndPan="magnify" viewBox="0 0 450 449.999984" height="600" preserveAspectRatio="xMidYMid meet" version="1.0"><defs><g/></defs><g fill="#5a4377" fill-opacity="1"><g transform="translate(108.364637, 232.49295)"><g><path d="M 1.484375 -49.28125 L 17.046875 -49.28125 L 17.046875 -48.734375 L 14.9375 -48.734375 C 13.382812 -48.734375 12.609375 -48.09375 12.609375 -46.8125 C 12.609375 -46.382812 12.796875 -45.671875 13.171875 -44.671875 C 13.554688 -43.671875 14.0625 -42.488281 14.6875 -41.125 C 15.3125 -39.757812 15.992188 -38.3125 16.734375 -36.78125 C 17.472656 -35.257812 18.210938 -33.75 18.953125 -32.25 C 19.691406 -30.757812 20.375 -29.390625 21 -28.140625 C 21.625 -26.890625 22.113281 -25.851562 22.46875 -25.03125 C 23 -26.113281 23.648438 -27.441406 24.421875 -29.015625 C 25.191406 -30.597656 25.988281 -32.273438 26.8125 -34.046875 C 27.632812 -35.828125 28.394531 -37.5625 29.09375 -39.25 C 29.800781 -40.945312 30.375 -42.441406 30.8125 -43.734375 C 31.257812 -45.035156 31.484375 -46 31.484375 -46.625 C 31.484375 -47.28125 31.226562 -47.796875 30.71875 -48.171875 C 30.21875 -48.546875 29.585938 -48.734375 28.828125 -48.734375 L 25.421875 -48.734375 L 25.421875 -49.28125 L 40.265625 -49.28125 L 40.265625 -48.6875 L 38.25 -48.6875 C 37.257812 -48.6875 36.382812 -48.429688 35.625 -47.921875 C 34.875 -47.410156 34.234375 -46.796875 33.703125 -46.078125 C 33.179688 -45.359375 32.753906 -44.671875 32.421875 -44.015625 C 32.265625 -43.679688 31.910156 -42.957031 31.359375 -41.84375 C 30.816406 -40.726562 30.148438 -39.375 29.359375 -37.78125 C 28.578125 -36.1875 27.773438 -34.535156 26.953125 -32.828125 C 26.128906 -31.117188 25.335938 -29.5 24.578125 -27.96875 C 23.828125 -26.4375 23.222656 -25.195312 22.765625 -24.25 L 22.765625 -3.75 C 22.765625 -2.863281 22.910156 -2.1875 23.203125 -1.71875 C 23.503906 -1.257812 23.851562 -0.957031 24.25 -0.8125 C 24.644531 -0.664062 24.988281 -0.59375 25.28125 -0.59375 L 27.546875 -0.59375 L 27.546875 0 L 14.390625 0 L 14.390625 -0.59375 L 16.65625 -0.59375 C 16.988281 -0.59375 17.34375 -0.664062 17.71875 -0.8125 C 18.09375 -0.957031 18.425781 -1.257812 18.71875 -1.71875 C 19.019531 -2.1875 19.171875 -2.863281 19.171875 -3.75 L 19.171875 -24.046875 C 18.347656 -25.722656 17.628906 -27.1875 17.015625 -28.4375 C 16.410156 -29.6875 15.851562 -30.84375 15.34375 -31.90625 C 14.84375 -32.976562 14.3125 -34.078125 13.75 -35.203125 C 13.1875 -36.335938 12.550781 -37.601562 11.84375 -39 C 11.144531 -40.394531 10.300781 -42.066406 9.3125 -44.015625 C 8.988281 -44.671875 8.5625 -45.359375 8.03125 -46.078125 C 7.507812 -46.796875 6.867188 -47.410156 6.109375 -47.921875 C 5.359375 -48.429688 4.488281 -48.6875 3.5 -48.6875 L 1.484375 -48.6875 Z M 1.484375 -49.28125 "/></g></g></g><g fill="#5a4377" fill-opacity="1"><g transform="translate(144.08074, 232.49295)"><g><path d="M 18.09375 0.984375 C 15.914062 0.984375 13.882812 0.582031 12 -0.21875 C 10.113281 -1.019531 8.453125 -2.132812 7.015625 -3.5625 C 5.585938 -5 4.472656 -6.660156 3.671875 -8.546875 C 2.867188 -10.441406 2.46875 -12.472656 2.46875 -14.640625 C 2.46875 -16.804688 2.867188 -18.832031 3.671875 -20.71875 C 4.472656 -22.613281 5.585938 -24.273438 7.015625 -25.703125 C 8.453125 -27.128906 10.113281 -28.242188 12 -29.046875 C 13.882812 -29.859375 15.914062 -30.265625 18.09375 -30.265625 C 20.257812 -30.265625 22.285156 -29.859375 24.171875 -29.046875 C 26.054688 -28.242188 27.710938 -27.128906 29.140625 -25.703125 C 30.578125 -24.273438 31.695312 -22.613281 32.5 -20.71875 C 33.300781 -18.832031 33.703125 -16.804688 33.703125 -14.640625 C 33.703125 -12.472656 33.300781 -10.441406 32.5 -8.546875 C 31.695312 -6.660156 30.578125 -5 29.140625 -3.5625 C 27.710938 -2.132812 26.054688 -1.019531 24.171875 -0.21875 C 22.285156 0.582031 20.257812 0.984375 18.09375 0.984375 Z M 4.578125 -18.140625 C 4.578125 -15.898438 4.953125 -13.757812 5.703125 -11.71875 C 6.460938 -9.6875 7.550781 -7.878906 8.96875 -6.296875 C 10.382812 -4.722656 12.09375 -3.476562 14.09375 -2.5625 C 16.09375 -1.644531 18.34375 -1.1875 20.84375 -1.1875 C 23.039062 -1.1875 24.9375 -1.628906 26.53125 -2.515625 C 28.125 -3.398438 29.363281 -4.585938 30.25 -6.078125 C 31.144531 -7.578125 31.59375 -9.265625 31.59375 -11.140625 C 31.59375 -13.335938 31.195312 -15.445312 30.40625 -17.46875 C 29.613281 -19.488281 28.488281 -21.296875 27.03125 -22.890625 C 25.570312 -24.484375 23.847656 -25.75 21.859375 -26.6875 C 19.867188 -27.625 17.691406 -28.09375 15.328125 -28.09375 C 13.160156 -28.09375 11.269531 -27.65625 9.65625 -26.78125 C 8.050781 -25.914062 6.800781 -24.722656 5.90625 -23.203125 C 5.019531 -21.691406 4.578125 -20.003906 4.578125 -18.140625 Z M 4.578125 -18.140625 "/></g></g></g><g fill="#5a4377" fill-opacity="1"><g transform="translate(174.229843, 232.49295)"><g><path d="M 2.953125 -26.3125 L 2.953125 -26.90625 C 4.691406 -26.90625 6.003906 -27.289062 6.890625 -28.0625 C 7.785156 -28.832031 8.234375 -29.582031 8.234375 -30.3125 L 8.828125 -30.3125 L 8.828125 -4.28125 C 8.828125 -3.070312 9.039062 -2 9.46875 -1.0625 C 9.894531 -0.125 10.664062 0.34375 11.78125 0.34375 C 13.15625 0.34375 14.367188 -0.046875 15.421875 -0.828125 C 16.472656 -1.617188 17.359375 -2.601562 18.078125 -3.78125 C 18.804688 -4.96875 19.367188 -6.148438 19.765625 -7.328125 C 20.160156 -8.515625 20.375 -9.488281 20.40625 -10.25 L 20.40625 -23.453125 C 20.40625 -23.816406 20.367188 -24.21875 20.296875 -24.65625 C 20.234375 -25.101562 20.03125 -25.488281 19.6875 -25.8125 C 19.34375 -26.144531 18.742188 -26.3125 17.890625 -26.3125 L 17.890625 -26.90625 C 19.628906 -26.90625 20.941406 -27.289062 21.828125 -28.0625 C 22.710938 -28.832031 23.15625 -29.582031 23.15625 -30.3125 L 23.75 -30.3125 L 23.75 -5.8125 C 23.75 -4.46875 23.894531 -3.601562 24.1875 -3.21875 C 24.488281 -2.84375 24.867188 -2.65625 25.328125 -2.65625 L 26.703125 -2.65625 L 26.703125 -2.0625 C 26.242188 -2.0625 25.675781 -2.03125 25 -1.96875 C 24.332031 -1.90625 23.644531 -1.660156 22.9375 -1.234375 C 22.226562 -0.804688 21.582031 -0.0664062 21 0.984375 L 20.40625 0.984375 L 20.40625 -7.390625 C 19.90625 -5.972656 19.238281 -4.625 18.40625 -3.34375 C 17.570312 -2.0625 16.601562 -1.019531 15.5 -0.21875 C 14.394531 0.582031 13.1875 0.984375 11.875 0.984375 C 9.96875 0.984375 8.421875 0.476562 7.234375 -0.53125 C 6.054688 -1.550781 5.46875 -3.410156 5.46875 -6.109375 L 5.46875 -23.453125 C 5.46875 -23.816406 5.429688 -24.21875 5.359375 -24.65625 C 5.296875 -25.101562 5.09375 -25.488281 4.75 -25.8125 C 4.40625 -26.144531 3.804688 -26.3125 2.953125 -26.3125 Z M 2.953125 -26.3125 "/></g></g></g><g fill="#5a4377" fill-opacity="1"><g transform="translate(197.38323, 232.49295)"><g><path d="M 0.984375 0 L 0.984375 -0.59375 L 3.25 -0.59375 C 3.582031 -0.59375 3.9375 -0.664062 4.3125 -0.8125 C 4.6875 -0.957031 5.019531 -1.257812 5.3125 -1.71875 C 5.613281 -2.1875 5.765625 -2.863281 5.765625 -3.75 L 5.765625 -23.453125 C 5.765625 -23.816406 5.726562 -24.21875 5.65625 -24.65625 C 5.59375 -25.101562 5.390625 -25.488281 5.046875 -25.8125 C 4.703125 -26.144531 4.101562 -26.3125 3.25 -26.3125 L 3.25 -26.90625 C 4.988281 -26.90625 6.300781 -27.289062 7.1875 -28.0625 C 8.082031 -28.832031 8.53125 -29.582031 8.53125 -30.3125 L 9.109375 -30.3125 L 9.109375 -23.015625 C 9.578125 -24.328125 10.160156 -25.53125 10.859375 -26.625 C 11.566406 -27.726562 12.414062 -28.609375 13.40625 -29.265625 C 14.394531 -29.929688 15.53125 -30.265625 16.8125 -30.265625 C 17.757812 -30.265625 18.488281 -30.179688 19 -30.015625 C 19.507812 -29.847656 20.035156 -29.679688 20.578125 -29.515625 C 21.117188 -29.347656 21.914062 -29.265625 22.96875 -29.265625 C 23.914062 -29.265625 24.488281 -29.429688 24.6875 -29.765625 C 24.882812 -30.097656 24.984375 -30.265625 24.984375 -30.265625 L 25.578125 -30.265625 L 18.140625 -9.5625 L 17.546875 -9.5625 L 21.1875 -19.71875 C 21.84375 -21.519531 22.085938 -23.175781 21.921875 -24.6875 C 21.765625 -26.195312 21.25 -27.40625 20.375 -28.3125 C 19.507812 -29.21875 18.320312 -29.671875 16.8125 -29.671875 C 15.5625 -29.671875 14.46875 -29.320312 13.53125 -28.625 C 12.59375 -27.9375 11.800781 -27.066406 11.15625 -26.015625 C 10.519531 -24.960938 10.035156 -23.894531 9.703125 -22.8125 C 9.378906 -21.726562 9.179688 -20.8125 9.109375 -20.0625 L 9.109375 -3.75 C 9.109375 -2.863281 9.253906 -2.1875 9.546875 -1.71875 C 9.847656 -1.257812 10.195312 -0.957031 10.59375 -0.8125 C 10.988281 -0.664062 11.332031 -0.59375 11.625 -0.59375 L 13.890625 -0.59375 L 13.890625 0 Z M 0.984375 0 "/></g></g></g><g fill="#5a4377" fill-opacity="1"><g transform="translate(216.940231, 232.49295)"><g/></g></g><g fill="#5a4377" fill-opacity="1"><g transform="translate(228.220626, 232.49295)"><g><path d="M 1.484375 -0.59375 L 3.75 -0.59375 C 4.070312 -0.59375 4.421875 -0.664062 4.796875 -0.8125 C 5.179688 -0.957031 5.519531 -1.257812 5.8125 -1.71875 C 6.113281 -2.1875 6.265625 -2.863281 6.265625 -3.75 L 6.265625 -45.53125 C 6.265625 -46.457031 6.113281 -47.140625 5.8125 -47.578125 C 5.519531 -48.023438 5.179688 -48.320312 4.796875 -48.46875 C 4.421875 -48.613281 4.070312 -48.6875 3.75 -48.6875 L 1.484375 -48.6875 L 1.484375 -49.28125 L 14.640625 -49.28125 L 14.640625 -48.6875 L 12.375 -48.6875 C 12.070312 -48.6875 11.722656 -48.613281 11.328125 -48.46875 C 10.941406 -48.320312 10.597656 -48.023438 10.296875 -47.578125 C 10.003906 -47.140625 9.859375 -46.457031 9.859375 -45.53125 L 9.859375 -31.828125 L 31.25 -31.828125 L 31.25 -45.53125 C 31.25 -46.457031 31.097656 -47.140625 30.796875 -47.578125 C 30.503906 -48.023438 30.164062 -48.320312 29.78125 -48.46875 C 29.40625 -48.613281 29.054688 -48.6875 28.734375 -48.6875 L 26.46875 -48.6875 L 26.46875 -49.28125 L 39.625 -49.28125 L 39.625 -48.6875 L 37.359375 -48.6875 C 37.054688 -48.6875 36.707031 -48.613281 36.3125 -48.46875 C 35.925781 -48.320312 35.582031 -48.023438 35.28125 -47.578125 C 34.988281 -47.140625 34.84375 -46.457031 34.84375 -45.53125 L 34.84375 -3.75 C 34.84375 -2.863281 34.988281 -2.1875 35.28125 -1.71875 C 35.582031 -1.257812 35.925781 -0.957031 36.3125 -0.8125 C 36.707031 -0.664062 37.054688 -0.59375 37.359375 -0.59375 L 39.625 -0.59375 L 39.625 0 L 26.46875 0 L 26.46875 -0.59375 L 28.734375 -0.59375 C 29.054688 -0.59375 29.40625 -0.664062 29.78125 -0.8125 C 30.164062 -0.957031 30.503906 -1.257812 30.796875 -1.71875 C 31.097656 -2.1875 31.25 -2.863281 31.25 -3.75 L 31.25 -31.1875 L 9.859375 -31.1875 L 9.859375 -3.75 C 9.859375 -2.863281 10.003906 -2.1875 10.296875 -1.71875 C 10.597656 -1.257812 10.941406 -0.957031 11.328125 -0.8125 C 11.722656 -0.664062 12.070312 -0.59375 12.375 -0.59375 L 14.640625 -0.59375 L 14.640625 0 L 1.484375 0 Z M 1.484375 -0.59375 "/></g></g></g><g fill="#5a4377" fill-opacity="1"><g transform="translate(263.296284, 232.49295)"><g><path d="M 0.984375 -0.59375 L 3.25 -0.59375 C 3.582031 -0.59375 3.9375 -0.664062 4.3125 -0.8125 C 4.6875 -0.957031 5.019531 -1.257812 5.3125 -1.71875 C 5.613281 -2.1875 5.765625 -2.863281 5.765625 -3.75 L 5.765625 -23.453125 C 5.765625 -23.816406 5.726562 -24.21875 5.65625 -24.65625 C 5.59375 -25.101562 5.390625 -25.488281 5.046875 -25.8125 C 4.703125 -26.144531 4.101562 -26.3125 3.25 -26.3125 L 3.25 -26.90625 C 4.988281 -26.90625 6.300781 -27.289062 7.1875 -28.0625 C 8.082031 -28.832031 8.53125 -29.582031 8.53125 -30.3125 L 9.109375 -30.3125 L 9.109375 -3.75 C 9.109375 -2.863281 9.253906 -2.1875 9.546875 -1.71875 C 9.847656 -1.257812 10.195312 -0.957031 10.59375 -0.8125 C 10.988281 -0.664062 11.332031 -0.59375 11.625 -0.59375 L 13.890625 -0.59375 L 13.890625 0 L 0.984375 0 Z M 7.4375 -32.125 C 6.78125 -32.125 6.210938 -32.363281 5.734375 -32.84375 C 5.265625 -33.320312 5.03125 -33.890625 5.03125 -34.546875 C 5.03125 -35.203125 5.265625 -35.769531 5.734375 -36.25 C 6.210938 -36.726562 6.78125 -36.96875 7.4375 -36.96875 C 8.09375 -36.96875 8.660156 -36.726562 9.140625 -36.25 C 9.617188 -35.769531 9.859375 -35.203125 9.859375 -34.546875 C 9.859375 -33.890625 9.617188 -33.320312 9.140625 -32.84375 C 8.660156 -32.363281 8.09375 -32.125 7.4375 -32.125 Z M 7.4375 -32.125 "/></g></g></g><g fill="#5a4377" fill-opacity="1"><g transform="translate(271.670006, 232.49295)"><g><path d="M 1.96875 0.984375 L 1.96875 -11.390625 L 2.5625 -11.390625 L 2.5625 -9.015625 C 2.5625 -8.191406 2.738281 -7.242188 3.09375 -6.171875 C 3.457031 -5.109375 4 -4.078125 4.71875 -3.078125 C 5.445312 -2.078125 6.351562 -1.25 7.4375 -0.59375 C 8.519531 0.0625 9.769531 0.390625 11.1875 0.390625 C 12.5625 0.390625 13.71875 0.0859375 14.65625 -0.515625 C 15.59375 -1.117188 16.289062 -1.914062 16.75 -2.90625 C 17.21875 -3.894531 17.453125 -4.914062 17.453125 -5.96875 C 17.453125 -7.144531 17.085938 -8.191406 16.359375 -9.109375 C 15.640625 -10.035156 14.703125 -10.890625 13.546875 -11.671875 C 12.398438 -12.460938 11.1875 -13.253906 9.90625 -14.046875 C 8.625 -14.835938 7.40625 -15.679688 6.25 -16.578125 C 5.101562 -17.484375 4.164062 -18.507812 3.4375 -19.65625 C 2.71875 -20.8125 2.359375 -22.160156 2.359375 -23.703125 C 2.359375 -25.015625 2.726562 -26.160156 3.46875 -27.140625 C 4.207031 -28.128906 5.1875 -28.90625 6.40625 -29.46875 C 7.625 -30.03125 8.921875 -30.3125 10.296875 -30.3125 C 11.210938 -30.3125 12 -30.226562 12.65625 -30.0625 C 13.320312 -29.894531 13.984375 -29.726562 14.640625 -29.5625 C 15.296875 -29.40625 16.050781 -29.328125 16.90625 -29.328125 C 17.195312 -29.328125 17.488281 -29.382812 17.78125 -29.5 C 18.082031 -29.613281 18.234375 -29.882812 18.234375 -30.3125 L 18.828125 -30.3125 L 18.828125 -20.5 L 18.234375 -20.5 L 18.234375 -22.859375 C 18.234375 -24.273438 17.992188 -25.425781 17.515625 -26.3125 C 17.046875 -27.195312 16.429688 -27.882812 15.671875 -28.375 C 14.910156 -28.875 14.09375 -29.222656 13.21875 -29.421875 C 12.351562 -29.617188 11.53125 -29.71875 10.75 -29.71875 C 9.164062 -29.71875 7.804688 -29.222656 6.671875 -28.234375 C 5.546875 -27.253906 4.984375 -25.957031 4.984375 -24.34375 C 4.984375 -23.164062 5.332031 -22.128906 6.03125 -21.234375 C 6.738281 -20.347656 7.648438 -19.535156 8.765625 -18.796875 C 9.890625 -18.054688 11.066406 -17.316406 12.296875 -16.578125 C 13.523438 -15.835938 14.695312 -15.054688 15.8125 -14.234375 C 16.9375 -13.421875 17.847656 -12.476562 18.546875 -11.40625 C 19.253906 -10.34375 19.609375 -9.085938 19.609375 -7.640625 C 19.609375 -6.097656 19.28125 -4.664062 18.625 -3.34375 C 17.96875 -2.03125 17.003906 -0.976562 15.734375 -0.1875 C 14.472656 0.59375 12.941406 0.984375 11.140625 0.984375 C 9.722656 0.984375 8.445312 0.734375 7.3125 0.234375 C 6.1875 -0.253906 5.257812 -0.742188 4.53125 -1.234375 C 3.8125 -1.722656 3.320312 -1.96875 3.0625 -1.96875 C 2.789062 -1.96875 2.628906 -1.867188 2.578125 -1.671875 C 2.535156 -1.472656 2.515625 -1.3125 2.515625 -1.1875 L 2.515625 0.984375 Z M 1.96875 0.984375 "/></g></g></g><g fill="#5a4377" fill-opacity="1"><g transform="translate(287.236498, 232.49295)"><g><path d="M 5.171875 -28.6875 L 2.46875 -28.6875 L 2.46875 -29.265625 C 3.75 -29.265625 4.738281 -29.625 5.4375 -30.34375 C 6.144531 -31.070312 6.65625 -31.976562 6.96875 -33.0625 C 7.28125 -34.144531 7.46875 -35.253906 7.53125 -36.390625 C 7.601562 -37.523438 7.640625 -38.519531 7.640625 -39.375 L 8.234375 -39.375 L 8.234375 -29.265625 L 12.46875 -29.265625 L 12.46875 -28.6875 L 8.234375 -28.6875 L 8.234375 -5.421875 C 8.234375 -4.628906 8.269531 -3.78125 8.34375 -2.875 C 8.425781 -1.976562 8.648438 -1.21875 9.015625 -0.59375 C 9.378906 0.03125 9.957031 0.34375 10.75 0.34375 C 10.90625 0.34375 11.082031 0.328125 11.28125 0.296875 C 11.476562 0.265625 11.660156 0.210938 11.828125 0.140625 L 11.828125 0.734375 C 11.722656 0.765625 11.597656 0.8125 11.453125 0.875 C 11.304688 0.945312 10.953125 0.984375 10.390625 0.984375 C 8.984375 0.984375 7.898438 0.550781 7.140625 -0.3125 C 6.390625 -1.1875 5.875 -2.265625 5.59375 -3.546875 C 5.3125 -4.828125 5.171875 -6.078125 5.171875 -7.296875 Z M 5.171875 -28.6875 "/></g></g></g><g fill="#5a4377" fill-opacity="1"><g transform="translate(295.16683, 232.49295)"><g><path d="M 18.09375 0.984375 C 15.914062 0.984375 13.882812 0.582031 12 -0.21875 C 10.113281 -1.019531 8.453125 -2.132812 7.015625 -3.5625 C 5.585938 -5 4.472656 -6.660156 3.671875 -8.546875 C 2.867188 -10.441406 2.46875 -12.472656 2.46875 -14.640625 C 2.46875 -16.804688 2.867188 -18.832031 3.671875 -20.71875 C 4.472656 -22.613281 5.585938 -24.273438 7.015625 -25.703125 C 8.453125 -27.128906 10.113281 -28.242188 12 -29.046875 C 13.882812 -29.859375 15.914062 -30.265625 18.09375 -30.265625 C 20.257812 -30.265625 22.285156 -29.859375 24.171875 -29.046875 C 26.054688 -28.242188 27.710938 -27.128906 29.140625 -25.703125 C 30.578125 -24.273438 31.695312 -22.613281 32.5 -20.71875 C 33.300781 -18.832031 33.703125 -16.804688 33.703125 -14.640625 C 33.703125 -12.472656 33.300781 -10.441406 32.5 -8.546875 C 31.695312 -6.660156 30.578125 -5 29.140625 -3.5625 C 27.710938 -2.132812 26.054688 -1.019531 24.171875 -0.21875 C 22.285156 0.582031 20.257812 0.984375 18.09375 0.984375 Z M 4.578125 -18.140625 C 4.578125 -15.898438 4.953125 -13.757812 5.703125 -11.71875 C 6.460938 -9.6875 7.550781 -7.878906 8.96875 -6.296875 C 10.382812 -4.722656 12.09375 -3.476562 14.09375 -2.5625 C 16.09375 -1.644531 18.34375 -1.1875 20.84375 -1.1875 C 23.039062 -1.1875 24.9375 -1.628906 26.53125 -2.515625 C 28.125 -3.398438 29.363281 -4.585938 30.25 -6.078125 C 31.144531 -7.578125 31.59375 -9.265625 31.59375 -11.140625 C 31.59375 -13.335938 31.195312 -15.445312 30.40625 -17.46875 C 29.613281 -19.488281 28.488281 -21.296875 27.03125 -22.890625 C 25.570312 -24.484375 23.847656 -25.75 21.859375 -26.6875 C 19.867188 -27.625 17.691406 -28.09375 15.328125 -28.09375 C 13.160156 -28.09375 11.269531 -27.65625 9.65625 -26.78125 C 8.050781 -25.914062 6.800781 -24.722656 5.90625 -23.203125 C 5.019531 -21.691406 4.578125 -20.003906 4.578125 -18.140625 Z M 4.578125 -18.140625 "/></g></g></g><g fill="#5a4377" fill-opacity="1"><g transform="translate(325.315944, 232.49295)"><g><path d="M 0.984375 0 L 0.984375 -0.59375 L 3.25 -0.59375 C 3.582031 -0.59375 3.9375 -0.664062 4.3125 -0.8125 C 4.6875 -0.957031 5.019531 -1.257812 5.3125 -1.71875 C 5.613281 -2.1875 5.765625 -2.863281 5.765625 -3.75 L 5.765625 -23.453125 C 5.765625 -23.816406 5.726562 -24.21875 5.65625 -24.65625 C 5.59375 -25.101562 5.390625 -25.488281 5.046875 -25.8125 C 4.703125 -26.144531 4.101562 -26.3125 3.25 -26.3125 L 3.25 -26.90625 C 4.988281 -26.90625 6.300781 -27.289062 7.1875 -28.0625 C 8.082031 -28.832031 8.53125 -29.582031 8.53125 -30.3125 L 9.109375 -30.3125 L 9.109375 -23.015625 C 9.578125 -24.328125 10.160156 -25.53125 10.859375 -26.625 C 11.566406 -27.726562 12.414062 -28.609375 13.40625 -29.265625 C 14.394531 -29.929688 15.53125 -30.265625 16.8125 -30.265625 C 17.757812 -30.265625 18.488281 -30.179688 19 -30.015625 C 19.507812 -29.847656 20.035156 -29.679688 20.578125 -29.515625 C 21.117188 -29.347656 21.914062 -29.265625 22.96875 -29.265625 C 23.914062 -29.265625 24.488281 -29.429688 24.6875 -29.765625 C 24.882812 -30.097656 24.984375 -30.265625 24.984375 -30.265625 L 25.578125 -30.265625 L 18.140625 -9.5625 L 17.546875 -9.5625 L 21.1875 -19.71875 C 21.84375 -21.519531 22.085938 -23.175781 21.921875 -24.6875 C 21.765625 -26.195312 21.25 -27.40625 20.375 -28.3125 C 19.507812 -29.21875 18.320312 -29.671875 16.8125 -29.671875 C 15.5625 -29.671875 14.46875 -29.320312 13.53125 -28.625 C 12.59375 -27.9375 11.800781 -27.066406 11.15625 -26.015625 C 10.519531 -24.960938 10.035156 -23.894531 9.703125 -22.8125 C 9.378906 -21.726562 9.179688 -20.8125 9.109375 -20.0625 L 9.109375 -3.75 C 9.109375 -2.863281 9.253906 -2.1875 9.546875 -1.71875 C 9.847656 -1.257812 10.195312 -0.957031 10.59375 -0.8125 C 10.988281 -0.664062 11.332031 -0.59375 11.625 -0.59375 L 13.890625 -0.59375 L 13.890625 0 Z M 0.984375 0 "/></g></g></g><g fill="#5a4377" fill-opacity="1"><g transform="translate(344.872934, 232.49295)"><g><path d="M 23.5 -28.6875 L 22.515625 -28.6875 C 21.890625 -28.6875 21.320312 -28.378906 20.8125 -27.765625 C 20.3125 -27.160156 19.863281 -26.378906 19.46875 -25.421875 C 19.070312 -24.472656 18.703125 -23.457031 18.359375 -22.375 C 18.015625 -21.289062 17.675781 -20.253906 17.34375 -19.265625 C 17.25 -18.972656 17.144531 -18.617188 17.03125 -18.203125 C 16.914062 -17.796875 16.773438 -17.363281 16.609375 -16.90625 C 16.242188 -15.625 15.816406 -14.148438 15.328125 -12.484375 C 14.835938 -10.828125 14.351562 -9.171875 13.875 -7.515625 C 13.394531 -5.859375 12.957031 -4.390625 12.5625 -3.109375 C 12.4375 -2.609375 12.296875 -2.09375 12.140625 -1.5625 C 11.992188 -1.039062 11.835938 -0.503906 11.671875 0.046875 C 11.410156 1.035156 11.066406 2.328125 10.640625 3.921875 C 10.210938 5.515625 9.671875 7.1875 9.015625 8.9375 C 8.359375 10.695312 7.578125 12.34375 6.671875 13.875 C 5.773438 15.40625 4.722656 16.644531 3.515625 17.59375 C 2.316406 18.539062 0.960938 18.984375 -0.546875 18.921875 L -0.546875 14.6875 C 1.660156 14.457031 3.523438 13.625 5.046875 12.1875 C 6.578125 10.757812 7.832031 8.976562 8.8125 6.84375 C 9.800781 4.707031 10.539062 2.441406 11.03125 0.046875 C 11.03125 0.046875 10.921875 -0.328125 10.703125 -1.078125 C 10.492188 -1.835938 10.207031 -2.820312 9.84375 -4.03125 C 9.488281 -5.25 9.097656 -6.585938 8.671875 -8.046875 C 8.242188 -9.515625 7.816406 -10.976562 7.390625 -12.4375 C 6.960938 -13.90625 6.582031 -15.238281 6.25 -16.4375 C 5.925781 -17.632812 5.664062 -18.578125 5.46875 -19.265625 C 5.207031 -20.253906 4.90625 -21.296875 4.5625 -22.390625 C 4.21875 -23.492188 3.832031 -24.519531 3.40625 -25.46875 C 2.976562 -26.425781 2.5 -27.203125 1.96875 -27.796875 C 1.445312 -28.390625 0.859375 -28.6875 0.203125 -28.6875 C -0.390625 -28.6875 -0.742188 -28.6875 -0.859375 -28.6875 C -0.972656 -28.6875 -0.988281 -28.6875 -0.90625 -28.6875 C -0.820312 -28.6875 -0.78125 -28.6875 -0.78125 -28.6875 L -0.78125 -29.265625 L 10.6875 -29.265625 L 10.6875 -28.6875 C 10.457031 -28.6875 10.300781 -28.6875 10.21875 -28.6875 C 10.144531 -28.6875 9.941406 -28.6875 9.609375 -28.6875 C 8.785156 -28.6875 8.265625 -28.207031 8.046875 -27.25 C 7.835938 -26.300781 7.800781 -25.1875 7.9375 -23.90625 C 8 -23.175781 8.113281 -22.429688 8.28125 -21.671875 C 8.445312 -20.921875 8.628906 -20.203125 8.828125 -19.515625 C 9.085938 -18.628906 9.394531 -17.519531 9.75 -16.1875 C 10.113281 -14.851562 10.492188 -13.472656 10.890625 -12.046875 C 11.285156 -10.617188 11.644531 -9.320312 11.96875 -8.15625 C 12.300781 -6.988281 12.550781 -6.125 12.71875 -5.5625 C 12.84375 -6.03125 13.03125 -6.707031 13.28125 -7.59375 C 13.53125 -8.476562 13.816406 -9.488281 14.140625 -10.625 C 14.472656 -11.757812 14.800781 -12.914062 15.125 -14.09375 C 15.457031 -15.28125 15.769531 -16.363281 16.0625 -17.34375 C 16.195312 -17.769531 16.3125 -18.164062 16.40625 -18.53125 C 16.507812 -18.894531 16.59375 -19.222656 16.65625 -19.515625 C 16.882812 -20.460938 17.085938 -21.460938 17.265625 -22.515625 C 17.453125 -23.566406 17.5625 -24.5625 17.59375 -25.5 C 17.625 -26.4375 17.507812 -27.203125 17.25 -27.796875 C 16.988281 -28.390625 16.53125 -28.6875 15.875 -28.6875 C 15.539062 -28.6875 15.335938 -28.6875 15.265625 -28.6875 C 15.203125 -28.6875 15.039062 -28.6875 14.78125 -28.6875 L 14.78125 -29.265625 L 23.5 -29.265625 Z M 23.5 -28.6875 "/></g></g></g></svg>