<svg xmlns="http://www.w3.org/2000/svg" xmlns:xlink="http://www.w3.org/1999/xlink" zoomAndPan="magnify" viewBox="39 148 372 131" preserveAspectRatio="xMidYMid meet" version="1.0"><defs><g/><clipPath id="35272622d2"><rect x="0" width="372" y="0" height="131"/></clipPath></defs><g transform="matrix(1, 0, 0, 1, 39, 148)"><g clip-path="url(#35272622d2)"><g fill="#2f2937" fill-opacity="1"><g transform="translate(5.037269, 90.375357)"><g><path d="M 39.8125 -48.5625 L 38.140625 -48.5625 C 37.078125 -48.5625 36.113281 -48.046875 35.25 -47.015625 C 34.394531 -45.992188 33.632812 -44.675781 32.96875 -43.0625 C 32.300781 -41.445312 31.671875 -39.722656 31.078125 -37.890625 C 30.492188 -36.054688 29.925781 -34.300781 29.375 -32.625 C 29.207031 -32.125 29.023438 -31.523438 28.828125 -30.828125 C 28.640625 -30.140625 28.40625 -29.40625 28.125 -28.625 C 27.507812 -26.457031 26.785156 -23.96875 25.953125 -21.15625 C 25.117188 -18.34375 24.296875 -15.53125 23.484375 -12.71875 C 22.679688 -9.914062 21.945312 -7.425781 21.28125 -5.25 C 21.0625 -4.414062 20.828125 -3.550781 20.578125 -2.65625 C 20.328125 -1.769531 20.0625 -0.859375 19.78125 0.078125 C 19.332031 1.753906 18.742188 3.941406 18.015625 6.640625 C 17.296875 9.335938 16.378906 12.171875 15.265625 15.140625 C 14.160156 18.117188 12.84375 20.898438 11.3125 23.484375 C 9.78125 26.078125 8 28.179688 5.96875 29.796875 C 3.9375 31.410156 1.640625 32.160156 -0.921875 32.046875 L -0.921875 24.875 C 2.804688 24.476562 5.960938 23.070312 8.546875 20.65625 C 11.140625 18.238281 13.269531 15.21875 14.9375 11.59375 C 16.601562 7.976562 17.851562 4.140625 18.6875 0.078125 C 18.6875 0.078125 18.503906 -0.554688 18.140625 -1.828125 C 17.785156 -3.109375 17.300781 -4.78125 16.6875 -6.84375 C 16.070312 -8.90625 15.40625 -11.171875 14.6875 -13.640625 C 13.96875 -16.117188 13.242188 -18.59375 12.515625 -21.0625 C 11.796875 -23.539062 11.15625 -25.796875 10.59375 -27.828125 C 10.039062 -29.859375 9.597656 -31.457031 9.265625 -32.625 C 8.816406 -34.300781 8.300781 -36.066406 7.71875 -37.921875 C 7.132812 -39.785156 6.476562 -41.523438 5.75 -43.140625 C 5.03125 -44.753906 4.222656 -46.0625 3.328125 -47.0625 C 2.441406 -48.0625 1.441406 -48.5625 0.328125 -48.5625 C -0.671875 -48.5625 -1.265625 -48.5625 -1.453125 -48.5625 C -1.648438 -48.5625 -1.675781 -48.5625 -1.53125 -48.5625 C -1.394531 -48.5625 -1.328125 -48.5625 -1.328125 -48.5625 L -1.328125 -49.578125 L 18.109375 -49.578125 L 18.109375 -48.5625 C 17.722656 -48.5625 17.457031 -48.5625 17.3125 -48.5625 C 17.175781 -48.5625 16.828125 -48.5625 16.265625 -48.5625 C 14.878906 -48.5625 14.003906 -47.753906 13.640625 -46.140625 C 13.285156 -44.535156 13.21875 -42.644531 13.4375 -40.46875 C 13.550781 -39.25 13.742188 -38 14.015625 -36.71875 C 14.296875 -35.4375 14.601562 -34.210938 14.9375 -33.046875 C 15.382812 -31.546875 15.910156 -29.664062 16.515625 -27.40625 C 17.128906 -25.15625 17.769531 -22.820312 18.4375 -20.40625 C 19.101562 -17.988281 19.710938 -15.789062 20.265625 -13.8125 C 20.828125 -11.832031 21.25 -10.375 21.53125 -9.4375 C 21.75 -10.207031 22.066406 -11.34375 22.484375 -12.84375 C 22.898438 -14.351562 23.382812 -16.066406 23.9375 -17.984375 C 24.5 -19.898438 25.054688 -21.859375 25.609375 -23.859375 C 26.171875 -25.867188 26.703125 -27.707031 27.203125 -29.375 C 27.429688 -30.09375 27.628906 -30.757812 27.796875 -31.375 C 27.960938 -31.988281 28.097656 -32.546875 28.203125 -33.046875 C 28.597656 -34.660156 28.945312 -36.359375 29.25 -38.140625 C 29.550781 -39.921875 29.726562 -41.601562 29.78125 -43.1875 C 29.84375 -44.769531 29.648438 -46.0625 29.203125 -47.0625 C 28.765625 -48.0625 27.988281 -48.5625 26.875 -48.5625 C 26.3125 -48.5625 25.972656 -48.5625 25.859375 -48.5625 C 25.753906 -48.5625 25.476562 -48.5625 25.03125 -48.5625 L 25.03125 -49.578125 L 39.8125 -49.578125 Z M 39.8125 -48.5625 "/></g></g></g><g fill="#2f2937" fill-opacity="1"><g transform="translate(30.979232, 90.375357)"><g><path d="M 30.625 1.671875 C 26.957031 1.671875 23.519531 0.988281 20.3125 -0.375 C 17.113281 -1.738281 14.304688 -3.628906 11.890625 -6.046875 C 9.472656 -8.472656 7.582031 -11.285156 6.21875 -14.484375 C 4.851562 -17.679688 4.171875 -21.113281 4.171875 -24.78125 C 4.171875 -28.457031 4.851562 -31.894531 6.21875 -35.09375 C 7.582031 -38.289062 9.472656 -41.097656 11.890625 -43.515625 C 14.304688 -45.941406 17.113281 -47.832031 20.3125 -49.1875 C 23.519531 -50.550781 26.957031 -51.234375 30.625 -51.234375 C 34.300781 -51.234375 37.738281 -50.550781 40.9375 -49.1875 C 44.132812 -47.832031 46.941406 -45.941406 49.359375 -43.515625 C 51.785156 -41.097656 53.675781 -38.289062 55.03125 -35.09375 C 56.394531 -31.894531 57.078125 -28.457031 57.078125 -24.78125 C 57.078125 -21.113281 56.394531 -17.679688 55.03125 -14.484375 C 53.675781 -11.285156 51.785156 -8.472656 49.359375 -6.046875 C 46.941406 -3.628906 44.132812 -1.738281 40.9375 -0.375 C 37.738281 0.988281 34.300781 1.671875 30.625 1.671875 Z M 7.765625 -30.703125 C 7.765625 -26.921875 8.398438 -23.304688 9.671875 -19.859375 C 10.953125 -16.410156 12.789062 -13.347656 15.1875 -10.671875 C 17.582031 -8.003906 20.472656 -5.890625 23.859375 -4.328125 C 27.253906 -2.773438 31.066406 -2 35.296875 -2 C 39.023438 -2 42.238281 -2.75 44.9375 -4.25 C 47.632812 -5.757812 49.734375 -7.78125 51.234375 -10.3125 C 52.742188 -12.84375 53.5 -15.691406 53.5 -18.859375 C 53.5 -22.585938 52.828125 -26.160156 51.484375 -29.578125 C 50.148438 -33.003906 48.242188 -36.066406 45.765625 -38.765625 C 43.296875 -41.460938 40.378906 -43.601562 37.015625 -45.1875 C 33.648438 -46.769531 29.960938 -47.5625 25.953125 -47.5625 C 22.285156 -47.5625 19.085938 -46.820312 16.359375 -45.34375 C 13.628906 -43.875 11.515625 -41.859375 10.015625 -39.296875 C 8.515625 -36.742188 7.765625 -33.878906 7.765625 -30.703125 Z M 7.765625 -30.703125 "/></g></g></g><g fill="#2f2937" fill-opacity="1"><g transform="translate(80.033096, 90.375357)"><g><path d="M 5 -44.5625 L 5 -45.5625 C 7.957031 -45.5625 10.1875 -46.210938 11.6875 -47.515625 C 13.1875 -48.828125 13.9375 -50.097656 13.9375 -51.328125 L 14.9375 -51.328125 L 14.9375 -7.265625 C 14.9375 -5.203125 15.296875 -3.378906 16.015625 -1.796875 C 16.742188 -0.210938 18.050781 0.578125 19.9375 0.578125 C 22.28125 0.578125 24.34375 -0.0859375 26.125 -1.421875 C 27.90625 -2.753906 29.40625 -4.421875 30.625 -6.421875 C 31.851562 -8.429688 32.800781 -10.4375 33.46875 -12.4375 C 34.132812 -14.4375 34.492188 -16.078125 34.546875 -17.359375 L 34.546875 -39.71875 C 34.546875 -40.332031 34.488281 -41.015625 34.375 -41.765625 C 34.269531 -42.515625 33.925781 -43.164062 33.34375 -43.71875 C 32.757812 -44.28125 31.742188 -44.5625 30.296875 -44.5625 L 30.296875 -45.5625 C 33.242188 -45.5625 35.46875 -46.210938 36.96875 -47.515625 C 38.46875 -48.828125 39.21875 -50.097656 39.21875 -51.328125 L 40.21875 -51.328125 L 40.21875 -9.84375 C 40.21875 -7.5625 40.46875 -6.097656 40.96875 -5.453125 C 41.476562 -4.816406 42.117188 -4.5 42.890625 -4.5 L 45.234375 -4.5 L 45.234375 -3.5 C 44.453125 -3.5 43.488281 -3.441406 42.34375 -3.328125 C 41.207031 -3.222656 40.039062 -2.804688 38.84375 -2.078125 C 37.644531 -1.359375 36.546875 -0.109375 35.546875 1.671875 L 34.546875 1.671875 L 34.546875 -12.515625 C 33.710938 -10.117188 32.585938 -7.835938 31.171875 -5.671875 C 29.753906 -3.503906 28.113281 -1.738281 26.25 -0.375 C 24.382812 0.988281 22.335938 1.671875 20.109375 1.671875 C 16.878906 1.671875 14.265625 0.8125 12.265625 -0.90625 C 10.265625 -2.632812 9.265625 -5.78125 9.265625 -10.34375 L 9.265625 -39.71875 C 9.265625 -40.332031 9.207031 -41.015625 9.09375 -41.765625 C 8.976562 -42.515625 8.628906 -43.164062 8.046875 -43.71875 C 7.460938 -44.28125 6.445312 -44.5625 5 -44.5625 Z M 5 -44.5625 "/></g></g></g><g fill="#2f2937" fill-opacity="1"><g transform="translate(117.239002, 90.375357)"><g><path d="M 1.671875 0 L 1.671875 -1 L 5.515625 -1 C 6.066406 -1 6.660156 -1.125 7.296875 -1.375 C 7.941406 -1.625 8.515625 -2.140625 9.015625 -2.921875 C 9.515625 -3.703125 9.765625 -4.84375 9.765625 -6.34375 L 9.765625 -39.71875 C 9.765625 -40.332031 9.707031 -41.015625 9.59375 -41.765625 C 9.488281 -42.515625 9.140625 -43.164062 8.546875 -43.71875 C 7.960938 -44.28125 6.953125 -44.5625 5.515625 -44.5625 L 5.515625 -45.5625 C 8.460938 -45.5625 10.6875 -46.210938 12.1875 -47.515625 C 13.6875 -48.828125 14.4375 -50.097656 14.4375 -51.328125 L 15.4375 -51.328125 L 15.4375 -38.96875 C 16.21875 -41.195312 17.207031 -43.242188 18.40625 -45.109375 C 19.601562 -46.972656 21.035156 -48.457031 22.703125 -49.5625 C 24.367188 -50.675781 26.285156 -51.234375 28.453125 -51.234375 C 30.066406 -51.234375 31.304688 -51.09375 32.171875 -50.8125 C 33.035156 -50.539062 33.925781 -50.265625 34.84375 -49.984375 C 35.757812 -49.710938 37.109375 -49.578125 38.890625 -49.578125 C 40.503906 -49.578125 41.476562 -49.851562 41.8125 -50.40625 C 42.144531 -50.957031 42.3125 -51.234375 42.3125 -51.234375 L 43.3125 -51.234375 L 30.703125 -16.1875 L 29.703125 -16.1875 L 35.890625 -33.375 C 36.992188 -36.4375 37.40625 -39.25 37.125 -41.8125 C 36.851562 -44.375 35.976562 -46.414062 34.5 -47.9375 C 33.03125 -49.46875 31.015625 -50.234375 28.453125 -50.234375 C 26.335938 -50.234375 24.488281 -49.648438 22.90625 -48.484375 C 21.320312 -47.316406 19.988281 -45.84375 18.90625 -44.0625 C 17.820312 -42.28125 17 -40.472656 16.4375 -38.640625 C 15.882812 -36.804688 15.550781 -35.25 15.4375 -33.96875 L 15.4375 -6.34375 C 15.4375 -4.84375 15.6875 -3.703125 16.1875 -2.921875 C 16.6875 -2.140625 17.269531 -1.625 17.9375 -1.375 C 18.601562 -1.125 19.1875 -1 19.6875 -1 L 23.53125 -1 L 23.53125 0 Z M 1.671875 0 "/></g></g></g><g fill="#2f2937" fill-opacity="1"><g transform="translate(148.354043, 90.375357)"><g/></g></g><g fill="#2f2937" fill-opacity="1"><g transform="translate(165.451716, 90.375357)"><g><path d="M 23.53125 0 L 1.671875 0 L 1.671875 -1 L 5.515625 -1 C 6.066406 -1 6.660156 -1.125 7.296875 -1.375 C 7.941406 -1.625 8.515625 -2.140625 9.015625 -2.921875 C 9.515625 -3.703125 9.765625 -4.84375 9.765625 -6.34375 L 9.765625 -73.515625 C 9.765625 -74.128906 9.707031 -74.8125 9.59375 -75.5625 C 9.488281 -76.3125 9.140625 -76.960938 8.546875 -77.515625 C 7.960938 -78.078125 6.953125 -78.359375 5.515625 -78.359375 L 5.515625 -79.359375 C 8.460938 -79.359375 10.6875 -80.007812 12.1875 -81.3125 C 13.6875 -82.625 14.4375 -83.894531 14.4375 -85.125 L 15.4375 -85.125 L 15.4375 -39.21875 C 16.882812 -43.164062 18.957031 -46.171875 21.65625 -48.234375 C 24.351562 -50.296875 27.066406 -51.328125 29.796875 -51.328125 C 32.460938 -51.328125 34.601562 -50.769531 36.21875 -49.65625 C 37.832031 -48.539062 39 -47.066406 39.71875 -45.234375 C 40.445312 -43.398438 40.8125 -41.367188 40.8125 -39.140625 L 40.8125 -6.34375 C 40.8125 -4.84375 41.0625 -3.703125 41.5625 -2.921875 C 42.0625 -2.140625 42.644531 -1.625 43.3125 -1.375 C 43.976562 -1.125 44.5625 -1 45.0625 -1 L 48.90625 -1 L 48.90625 0 L 27.03125 0 L 27.03125 -1 L 30.875 -1 C 31.4375 -1 32.035156 -1.125 32.671875 -1.375 C 33.304688 -1.625 33.875 -2.140625 34.375 -2.921875 C 34.882812 -3.703125 35.140625 -4.84375 35.140625 -6.34375 L 35.140625 -41.46875 C 35.140625 -41.914062 35.125 -42.613281 35.09375 -43.5625 C 35.0625 -44.507812 34.90625 -45.484375 34.625 -46.484375 C 34.351562 -47.484375 33.8125 -48.34375 33 -49.0625 C 32.195312 -49.789062 31.046875 -50.15625 29.546875 -50.15625 C 27.367188 -50.15625 25.347656 -49.515625 23.484375 -48.234375 C 21.628906 -46.953125 20.019531 -45.269531 18.65625 -43.1875 C 17.289062 -41.101562 16.21875 -38.863281 15.4375 -36.46875 L 15.4375 -6.34375 C 15.4375 -4.84375 15.6875 -3.703125 16.1875 -2.921875 C 16.6875 -2.140625 17.269531 -1.625 17.9375 -1.375 C 18.601562 -1.125 19.1875 -1 19.6875 -1 L 23.53125 -1 Z M 23.53125 0 "/></g></g></g><g fill="#2f2937" fill-opacity="1"><g transform="translate(202.991325, 90.375357)"><g><path d="M 1.671875 -1 L 5.515625 -1 C 6.066406 -1 6.660156 -1.125 7.296875 -1.375 C 7.941406 -1.625 8.515625 -2.140625 9.015625 -2.921875 C 9.515625 -3.703125 9.765625 -4.84375 9.765625 -6.34375 L 9.765625 -39.71875 C 9.765625 -40.332031 9.707031 -41.015625 9.59375 -41.765625 C 9.488281 -42.515625 9.140625 -43.164062 8.546875 -43.71875 C 7.960938 -44.28125 6.953125 -44.5625 5.515625 -44.5625 L 5.515625 -45.5625 C 8.460938 -45.5625 10.6875 -46.210938 12.1875 -47.515625 C 13.6875 -48.828125 14.4375 -50.097656 14.4375 -51.328125 L 15.4375 -51.328125 L 15.4375 -6.34375 C 15.4375 -4.84375 15.6875 -3.703125 16.1875 -2.921875 C 16.6875 -2.140625 17.269531 -1.625 17.9375 -1.375 C 18.601562 -1.125 19.1875 -1 19.6875 -1 L 23.53125 -1 L 23.53125 0 L 1.671875 0 Z M 12.59375 -54.40625 C 11.488281 -54.40625 10.53125 -54.804688 9.71875 -55.609375 C 8.914062 -56.421875 8.515625 -57.382812 8.515625 -58.5 C 8.515625 -59.613281 8.914062 -60.570312 9.71875 -61.375 C 10.53125 -62.1875 11.488281 -62.59375 12.59375 -62.59375 C 13.707031 -62.59375 14.664062 -62.1875 15.46875 -61.375 C 16.28125 -60.570312 16.6875 -59.613281 16.6875 -58.5 C 16.6875 -57.382812 16.28125 -56.421875 15.46875 -55.609375 C 14.664062 -54.804688 13.707031 -54.40625 12.59375 -54.40625 Z M 12.59375 -54.40625 "/></g></g></g><g fill="#2f2937" fill-opacity="1"><g transform="translate(215.166298, 90.375357)"><g><path d="M 3.34375 1.671875 L 3.34375 -19.28125 L 4.34375 -19.28125 L 4.34375 -15.265625 C 4.34375 -13.878906 4.644531 -12.28125 5.25 -10.46875 C 5.863281 -8.664062 6.78125 -6.914062 8 -5.21875 C 9.226562 -3.519531 10.757812 -2.113281 12.59375 -1 C 14.4375 0.113281 16.550781 0.671875 18.9375 0.671875 C 21.28125 0.671875 23.242188 0.15625 24.828125 -0.875 C 26.410156 -1.90625 27.59375 -3.253906 28.375 -4.921875 C 29.15625 -6.585938 29.546875 -8.3125 29.546875 -10.09375 C 29.546875 -12.101562 28.929688 -13.882812 27.703125 -15.4375 C 26.484375 -17 24.898438 -18.445312 22.953125 -19.78125 C 21.003906 -21.113281 18.941406 -22.445312 16.765625 -23.78125 C 14.597656 -25.113281 12.539062 -26.546875 10.59375 -28.078125 C 8.644531 -29.609375 7.054688 -31.347656 5.828125 -33.296875 C 4.609375 -35.242188 4 -37.523438 4 -40.140625 C 4 -42.367188 4.625 -44.316406 5.875 -45.984375 C 7.132812 -47.648438 8.789062 -48.957031 10.84375 -49.90625 C 12.90625 -50.851562 15.101562 -51.328125 17.4375 -51.328125 C 19 -51.328125 20.332031 -51.1875 21.4375 -50.90625 C 22.550781 -50.625 23.664062 -50.34375 24.78125 -50.0625 C 25.894531 -49.789062 27.175781 -49.65625 28.625 -49.65625 C 29.125 -49.65625 29.625 -49.75 30.125 -49.9375 C 30.625 -50.132812 30.875 -50.597656 30.875 -51.328125 L 31.875 -51.328125 L 31.875 -34.71875 L 30.875 -34.71875 L 30.875 -38.71875 C 30.875 -41.113281 30.46875 -43.0625 29.65625 -44.5625 C 28.851562 -46.0625 27.8125 -47.226562 26.53125 -48.0625 C 25.257812 -48.90625 23.882812 -49.492188 22.40625 -49.828125 C 20.9375 -50.160156 19.53125 -50.328125 18.1875 -50.328125 C 15.519531 -50.328125 13.222656 -49.488281 11.296875 -47.8125 C 9.378906 -46.144531 8.421875 -43.945312 8.421875 -41.21875 C 8.421875 -39.21875 9.019531 -37.46875 10.21875 -35.96875 C 11.414062 -34.46875 12.957031 -33.085938 14.84375 -31.828125 C 16.738281 -30.578125 18.726562 -29.328125 20.8125 -28.078125 C 22.90625 -26.828125 24.894531 -25.503906 26.78125 -24.109375 C 28.675781 -22.722656 30.222656 -21.125 31.421875 -19.3125 C 32.617188 -17.507812 33.21875 -15.382812 33.21875 -12.9375 C 33.21875 -10.320312 32.660156 -7.898438 31.546875 -5.671875 C 30.429688 -3.453125 28.800781 -1.671875 26.65625 -0.328125 C 24.519531 1.003906 21.921875 1.671875 18.859375 1.671875 C 16.460938 1.671875 14.304688 1.253906 12.390625 0.421875 C 10.472656 -0.410156 8.898438 -1.242188 7.671875 -2.078125 C 6.453125 -2.921875 5.617188 -3.34375 5.171875 -3.34375 C 4.722656 -3.34375 4.457031 -3.175781 4.375 -2.84375 C 4.289062 -2.507812 4.25 -2.226562 4.25 -2 L 4.25 1.671875 Z M 3.34375 1.671875 "/></g></g></g><g fill="#2f2937" fill-opacity="1"><g transform="translate(239.522933, 90.375357)"><g><path d="M 8.765625 -48.5625 L 4.171875 -48.5625 L 4.171875 -49.578125 C 6.335938 -49.578125 8.019531 -50.1875 9.21875 -51.40625 C 10.414062 -52.632812 11.273438 -54.164062 11.796875 -56 C 12.328125 -57.832031 12.648438 -59.707031 12.765625 -61.625 C 12.878906 -63.550781 12.9375 -65.234375 12.9375 -66.671875 L 13.9375 -66.671875 L 13.9375 -49.578125 L 21.109375 -49.578125 L 21.109375 -48.5625 L 13.9375 -48.5625 L 13.9375 -9.1875 C 13.9375 -7.84375 14.003906 -6.40625 14.140625 -4.875 C 14.285156 -3.351562 14.660156 -2.0625 15.265625 -1 C 15.878906 0.0507812 16.851562 0.578125 18.1875 0.578125 C 18.46875 0.578125 18.773438 0.550781 19.109375 0.5 C 19.441406 0.445312 19.75 0.363281 20.03125 0.25 L 20.03125 1.25 C 19.863281 1.300781 19.65625 1.382812 19.40625 1.5 C 19.15625 1.613281 18.554688 1.671875 17.609375 1.671875 C 15.210938 1.671875 13.375 0.9375 12.09375 -0.53125 C 10.820312 -2.007812 9.945312 -3.832031 9.46875 -6 C 9 -8.175781 8.765625 -10.289062 8.765625 -12.34375 Z M 8.765625 -48.5625 "/></g></g></g><g fill="#2f2937" fill-opacity="1"><g transform="translate(250.946972, 90.375357)"><g><path d="M 30.625 1.671875 C 26.957031 1.671875 23.519531 0.988281 20.3125 -0.375 C 17.113281 -1.738281 14.304688 -3.628906 11.890625 -6.046875 C 9.472656 -8.472656 7.582031 -11.285156 6.21875 -14.484375 C 4.851562 -17.679688 4.171875 -21.113281 4.171875 -24.78125 C 4.171875 -28.457031 4.851562 -31.894531 6.21875 -35.09375 C 7.582031 -38.289062 9.472656 -41.097656 11.890625 -43.515625 C 14.304688 -45.941406 17.113281 -47.832031 20.3125 -49.1875 C 23.519531 -50.550781 26.957031 -51.234375 30.625 -51.234375 C 34.300781 -51.234375 37.738281 -50.550781 40.9375 -49.1875 C 44.132812 -47.832031 46.941406 -45.941406 49.359375 -43.515625 C 51.785156 -41.097656 53.675781 -38.289062 55.03125 -35.09375 C 56.394531 -31.894531 57.078125 -28.457031 57.078125 -24.78125 C 57.078125 -21.113281 56.394531 -17.679688 55.03125 -14.484375 C 53.675781 -11.285156 51.785156 -8.472656 49.359375 -6.046875 C 46.941406 -3.628906 44.132812 -1.738281 40.9375 -0.375 C 37.738281 0.988281 34.300781 1.671875 30.625 1.671875 Z M 7.765625 -30.703125 C 7.765625 -26.921875 8.398438 -23.304688 9.671875 -19.859375 C 10.953125 -16.410156 12.789062 -13.347656 15.1875 -10.671875 C 17.582031 -8.003906 20.472656 -5.890625 23.859375 -4.328125 C 27.253906 -2.773438 31.066406 -2 35.296875 -2 C 39.023438 -2 42.238281 -2.75 44.9375 -4.25 C 47.632812 -5.757812 49.734375 -7.78125 51.234375 -10.3125 C 52.742188 -12.84375 53.5 -15.691406 53.5 -18.859375 C 53.5 -22.585938 52.828125 -26.160156 51.484375 -29.578125 C 50.148438 -33.003906 48.242188 -36.066406 45.765625 -38.765625 C 43.296875 -41.460938 40.378906 -43.601562 37.015625 -45.1875 C 33.648438 -46.769531 29.960938 -47.5625 25.953125 -47.5625 C 22.285156 -47.5625 19.085938 -46.820312 16.359375 -45.34375 C 13.628906 -43.875 11.515625 -41.859375 10.015625 -39.296875 C 8.515625 -36.742188 7.765625 -33.878906 7.765625 -30.703125 Z M 7.765625 -30.703125 "/></g></g></g><g fill="#2f2937" fill-opacity="1"><g transform="translate(300.000836, 90.375357)"><g><path d="M 1.671875 0 L 1.671875 -1 L 5.515625 -1 C 6.066406 -1 6.660156 -1.125 7.296875 -1.375 C 7.941406 -1.625 8.515625 -2.140625 9.015625 -2.921875 C 9.515625 -3.703125 9.765625 -4.84375 9.765625 -6.34375 L 9.765625 -39.71875 C 9.765625 -40.332031 9.707031 -41.015625 9.59375 -41.765625 C 9.488281 -42.515625 9.140625 -43.164062 8.546875 -43.71875 C 7.960938 -44.28125 6.953125 -44.5625 5.515625 -44.5625 L 5.515625 -45.5625 C 8.460938 -45.5625 10.6875 -46.210938 12.1875 -47.515625 C 13.6875 -48.828125 14.4375 -50.097656 14.4375 -51.328125 L 15.4375 -51.328125 L 15.4375 -38.96875 C 16.21875 -41.195312 17.207031 -43.242188 18.40625 -45.109375 C 19.601562 -46.972656 21.035156 -48.457031 22.703125 -49.5625 C 24.367188 -50.675781 26.285156 -51.234375 28.453125 -51.234375 C 30.066406 -51.234375 31.304688 -51.09375 32.171875 -50.8125 C 33.035156 -50.539062 33.925781 -50.265625 34.84375 -49.984375 C 35.757812 -49.710938 37.109375 -49.578125 38.890625 -49.578125 C 40.503906 -49.578125 41.476562 -49.851562 41.8125 -50.40625 C 42.144531 -50.957031 42.3125 -51.234375 42.3125 -51.234375 L 43.3125 -51.234375 L 30.703125 -16.1875 L 29.703125 -16.1875 L 35.890625 -33.375 C 36.992188 -36.4375 37.40625 -39.25 37.125 -41.8125 C 36.851562 -44.375 35.976562 -46.414062 34.5 -47.9375 C 33.03125 -49.46875 31.015625 -50.234375 28.453125 -50.234375 C 26.335938 -50.234375 24.488281 -49.648438 22.90625 -48.484375 C 21.320312 -47.316406 19.988281 -45.84375 18.90625 -44.0625 C 17.820312 -42.28125 17 -40.472656 16.4375 -38.640625 C 15.882812 -36.804688 15.550781 -35.25 15.4375 -33.96875 L 15.4375 -6.34375 C 15.4375 -4.84375 15.6875 -3.703125 16.1875 -2.921875 C 16.6875 -2.140625 17.269531 -1.625 17.9375 -1.375 C 18.601562 -1.125 19.1875 -1 19.6875 -1 L 23.53125 -1 L 23.53125 0 Z M 1.671875 0 "/></g></g></g><g fill="#2f2937" fill-opacity="1"><g transform="translate(331.115877, 90.375357)"><g><path d="M 39.8125 -48.5625 L 38.140625 -48.5625 C 37.078125 -48.5625 36.113281 -48.046875 35.25 -47.015625 C 34.394531 -45.992188 33.632812 -44.675781 32.96875 -43.0625 C 32.300781 -41.445312 31.671875 -39.722656 31.078125 -37.890625 C 30.492188 -36.054688 29.925781 -34.300781 29.375 -32.625 C 29.207031 -32.125 29.023438 -31.523438 28.828125 -30.828125 C 28.640625 -30.140625 28.40625 -29.40625 28.125 -28.625 C 27.507812 -26.457031 26.785156 -23.96875 25.953125 -21.15625 C 25.117188 -18.34375 24.296875 -15.53125 23.484375 -12.71875 C 22.679688 -9.914062 21.945312 -7.425781 21.28125 -5.25 C 21.0625 -4.414062 20.828125 -3.550781 20.578125 -2.65625 C 20.328125 -1.769531 20.0625 -0.859375 19.78125 0.078125 C 19.332031 1.753906 18.742188 3.941406 18.015625 6.640625 C 17.296875 9.335938 16.378906 12.171875 15.265625 15.140625 C 14.160156 18.117188 12.84375 20.898438 11.3125 23.484375 C 9.78125 26.078125 8 28.179688 5.96875 29.796875 C 3.9375 31.410156 1.640625 32.160156 -0.921875 32.046875 L -0.921875 24.875 C 2.804688 24.476562 5.960938 23.070312 8.546875 20.65625 C 11.140625 18.238281 13.269531 15.21875 14.9375 11.59375 C 16.601562 7.976562 17.851562 4.140625 18.6875 0.078125 C 18.6875 0.078125 18.503906 -0.554688 18.140625 -1.828125 C 17.785156 -3.109375 17.300781 -4.78125 16.6875 -6.84375 C 16.070312 -8.90625 15.40625 -11.171875 14.6875 -13.640625 C 13.96875 -16.117188 13.242188 -18.59375 12.515625 -21.0625 C 11.796875 -23.539062 11.15625 -25.796875 10.59375 -27.828125 C 10.039062 -29.859375 9.597656 -31.457031 9.265625 -32.625 C 8.816406 -34.300781 8.300781 -36.066406 7.71875 -37.921875 C 7.132812 -39.785156 6.476562 -41.523438 5.75 -43.140625 C 5.03125 -44.753906 4.222656 -46.0625 3.328125 -47.0625 C 2.441406 -48.0625 1.441406 -48.5625 0.328125 -48.5625 C -0.671875 -48.5625 -1.265625 -48.5625 -1.453125 -48.5625 C -1.648438 -48.5625 -1.675781 -48.5625 -1.53125 -48.5625 C -1.394531 -48.5625 -1.328125 -48.5625 -1.328125 -48.5625 L -1.328125 -49.578125 L 18.109375 -49.578125 L 18.109375 -48.5625 C 17.722656 -48.5625 17.457031 -48.5625 17.3125 -48.5625 C 17.175781 -48.5625 16.828125 -48.5625 16.265625 -48.5625 C 14.878906 -48.5625 14.003906 -47.753906 13.640625 -46.140625 C 13.285156 -44.535156 13.21875 -42.644531 13.4375 -40.46875 C 13.550781 -39.25 13.742188 -38 14.015625 -36.71875 C 14.296875 -35.4375 14.601562 -34.210938 14.9375 -33.046875 C 15.382812 -31.546875 15.910156 -29.664062 16.515625 -27.40625 C 17.128906 -25.15625 17.769531 -22.820312 18.4375 -20.40625 C 19.101562 -17.988281 19.710938 -15.789062 20.265625 -13.8125 C 20.828125 -11.832031 21.25 -10.375 21.53125 -9.4375 C 21.75 -10.207031 22.066406 -11.34375 22.484375 -12.84375 C 22.898438 -14.351562 23.382812 -16.066406 23.9375 -17.984375 C 24.5 -19.898438 25.054688 -21.859375 25.609375 -23.859375 C 26.171875 -25.867188 26.703125 -27.707031 27.203125 -29.375 C 27.429688 -30.09375 27.628906 -30.757812 27.796875 -31.375 C 27.960938 -31.988281 28.097656 -32.546875 28.203125 -33.046875 C 28.597656 -34.660156 28.945312 -36.359375 29.25 -38.140625 C 29.550781 -39.921875 29.726562 -41.601562 29.78125 -43.1875 C 29.84375 -44.769531 29.648438 -46.0625 29.203125 -47.0625 C 28.765625 -48.0625 27.988281 -48.5625 26.875 -48.5625 C 26.3125 -48.5625 25.972656 -48.5625 25.859375 -48.5625 C 25.753906 -48.5625 25.476562 -48.5625 25.03125 -48.5625 L 25.03125 -49.578125 L 39.8125 -49.578125 Z M 39.8125 -48.5625 "/></g></g></g></g></g></svg>