<svg xmlns="http://www.w3.org/2000/svg" version="1.0" viewBox="0 0 450 450"><path fill="#5a4377" d="M109.849 183.212h15.563v.547h-2.11c-1.555 0-2.328.64-2.328 1.921q0 .643.563 2.141c.382 1 .89 2.184 1.515 3.547a213 213 0 0 0 2.047 4.344 614 614 0 0 0 2.219 4.531q1.108 2.237 2.047 4.11a65 65 0 0 1 1.468 3.109c.532-1.082 1.18-2.41 1.954-3.985q1.154-2.372 2.39-5.03 1.231-2.673 2.281-5.204a71 71 0 0 0 1.72-4.484c.444-1.301.671-2.266.671-2.891 0-.656-.258-1.172-.766-1.547q-.752-.562-1.89-.562h-3.406v-.547h14.843v.593h-2.015c-.993 0-1.868.258-2.625.766a7.9 7.9 0 0 0-1.922 1.844q-.785 1.078-1.281 2.062-.236.503-1.063 2.172a658 658 0 0 1-2 4.063 704 704 0 0 0-2.406 4.953 507 507 0 0 1-2.375 4.86 847 847 0 0 0-1.813 3.718v20.5q0 1.329.438 2.031.45.69 1.047.906.591.222 1.03.22h2.267v.593h-13.157v-.594h2.266c.332 0 .687-.07 1.062-.219q.561-.215 1-.906.453-.702.454-2.031v-20.297q-1.237-2.514-2.157-4.39a752 752 0 0 1-1.672-3.47q-.75-1.607-1.593-3.296-.846-1.7-1.907-3.797-1.049-2.092-2.53-5.016a14 14 0 0 0-1.282-2.062 7.6 7.6 0 0 0-1.922-1.844q-1.126-.764-2.61-.766h-2.015Zm52.325 50.265q-3.27 0-6.093-1.203a15.7 15.7 0 0 1-4.985-3.344 15.7 15.7 0 0 1-3.343-4.984q-1.206-2.841-1.204-6.094-.002-3.247 1.204-6.078a15.5 15.5 0 0 1 3.343-4.984 15.8 15.8 0 0 1 4.985-3.344q2.825-1.219 6.093-1.219 3.248 0 6.079 1.22a15.7 15.7 0 0 1 4.968 3.343 15.5 15.5 0 0 1 3.36 4.984q1.202 2.831 1.203 6.078 0 3.252-1.203 6.094a15.67 15.67 0 0 1-8.328 8.328q-2.831 1.202-6.079 1.203m-13.515-19.125q0 3.364 1.125 6.422a16.9 16.9 0 0 0 3.265 5.422q2.124 2.362 5.125 3.734 3 1.376 6.75 1.375 3.296.001 5.688-1.328 2.39-1.323 3.719-3.562 1.342-2.25 1.343-5.063a17.4 17.4 0 0 0-4.562-11.75 16.5 16.5 0 0 0-5.172-3.797q-2.987-1.406-6.531-1.406-3.252 0-5.672 1.313-2.407 1.3-3.75 3.578-1.33 2.268-1.328 5.062m28.524-8.172v-.593q2.607.002 3.937-1.157 1.343-1.155 1.344-2.25h.594v26.032c0 1.21.21 2.281.64 3.218q.638 1.407 2.313 1.407 2.06 0 3.64-1.172a10.4 10.4 0 0 0 2.657-2.953c.727-1.188 1.289-2.367 1.687-3.547q.594-1.78.641-2.922V209.04q-.002-.546-.11-1.203a1.92 1.92 0 0 0-.609-1.157c-.343-.332-.945-.5-1.797-.5v-.593q2.608.002 3.938-1.157 1.326-1.155 1.328-2.25h.594v24.5q-.001 2.018.437 2.594.45.563 1.141.563h1.375v.593a19 19 0 0 0-1.703.094q-1.002.095-2.063.735-1.065.644-1.937 2.218h-.594v-8.375a19 19 0 0 1-2 4.047q-1.254 1.923-2.906 3.125-1.658 1.202-3.625 1.203-2.86-.002-4.64-1.515c-1.18-1.02-1.766-2.88-1.766-5.578V209.04c0-.363-.04-.766-.11-1.203a1.92 1.92 0 0 0-.61-1.157q-.516-.499-1.796-.5m0 0"/><path fill="#5a4377" d="M198.368 232.493v-.594h2.265c.332 0 .688-.07 1.063-.219q.561-.215 1-.906.452-.702.453-2.031V209.04c0-.363-.04-.766-.11-1.203a1.92 1.92 0 0 0-.609-1.157q-.517-.499-1.797-.5v-.593q2.608.002 3.938-1.157 1.342-1.155 1.343-2.25h.579v7.297a17.8 17.8 0 0 1 1.75-3.609q1.06-1.655 2.546-2.64 1.484-.999 3.407-1 1.419.001 2.187.25.763.252 1.578.5.81.25 2.391.25 1.419.001 1.719-.5c.195-.333.297-.5.297-.5h.593l-7.437 20.702h-.594l3.64-10.156q.984-2.7.735-4.969-.234-2.262-1.547-3.625-1.3-1.359-3.562-1.359c-1.25 0-2.344.352-3.282 1.047a9.1 9.1 0 0 0-2.375 2.61 14.3 14.3 0 0 0-1.453 3.202c-.324 1.086-.523 2-.593 2.75v16.313q-.001 1.329.437 2.031.45.69 1.047.906.592.222 1.031.22h2.266v.593Zm31.337-.593h2.266c.32 0 .672-.071 1.047-.22q.574-.215 1.015-.906.452-.702.453-2.031v-41.781q0-1.39-.453-2.047-.44-.668-1.015-.89a3 3 0 0 0-1.047-.22h-2.266v-.593h13.156v.593h-2.265q-.457.001-1.047.22-.58.222-1.031.89-.439.656-.438 2.047v13.703h21.39v-13.703q-.001-1.39-.452-2.047-.44-.668-1.016-.89a3 3 0 0 0-1.047-.22h-2.266v-.593h13.157v.593h-2.266q-.456.001-1.047.22-.58.222-1.031.89-.439.656-.438 2.047v41.781q0 1.329.438 2.031.45.69 1.031.906.591.222 1.047.22h2.266v.593h-13.157v-.594h2.266c.32 0 .672-.07 1.047-.219q.575-.215 1.016-.906.452-.702.453-2.031v-27.438H238.08v27.438q0 1.329.438 2.031.45.69 1.03.906.591.222 1.048.22h2.265v.593h-13.156Zm0 0"/><path fill="#5a4377" d="M264.28 231.9h2.266q.5.002 1.063-.22.562-.215 1-.906.452-.702.453-2.031V209.04c0-.363-.04-.766-.11-1.203a1.92 1.92 0 0 0-.609-1.157q-.517-.499-1.797-.5v-.593q2.608.002 3.938-1.157 1.342-1.155 1.344-2.25h.578v26.563q-.001 1.329.437 2.031.45.69 1.047.906.592.222 1.031.22h2.266v.593H264.28Zm6.454-31.532a2.32 2.32 0 0 1-1.703-.719 2.35 2.35 0 0 1-.703-1.703q0-.983.703-1.703c.476-.477 1.047-.719 1.703-.719q.983.002 1.703.719c.476.48.719 1.047.719 1.703s-.243 1.227-.72 1.703q-.719.72-1.702.719m0 0"/><path fill="#5a4377" d="M273.639 233.477v-12.375h.594v2.375q-.001 1.238.53 2.844.547 1.594 1.626 3.094a9.2 9.2 0 0 0 2.719 2.484q1.623.985 3.75.985 2.062-.002 3.468-.907a5.6 5.6 0 0 0 2.094-2.39 7.1 7.1 0 0 0 .703-3.063 4.93 4.93 0 0 0-1.094-3.14q-1.078-1.39-2.812-2.563a91 91 0 0 0-3.64-2.375 41 41 0 0 1-3.657-2.531q-1.723-1.358-2.812-3.078-1.08-1.734-1.079-4.047-.002-1.968 1.11-3.438 1.108-1.483 2.937-2.328a9.2 9.2 0 0 1 3.89-.844c.915 0 1.704.086 2.36.25q.998.253 1.985.5.983.235 2.265.235.435.002.875-.172.452-.169.453-.813h.594v9.813h-.594v-2.36q-.002-2.121-.718-3.453-.706-1.323-1.844-2.062a7.5 7.5 0 0 0-2.453-1.047 11.2 11.2 0 0 0-2.469-.297q-2.379 0-4.078 1.485-1.688 1.47-1.688 3.89 0 1.769 1.047 3.11 1.06 1.33 2.735 2.437 1.686 1.112 3.53 2.219a47 47 0 0 1 3.517 2.344q1.686 1.22 2.734 2.828c.707 1.062 1.062 2.32 1.062 3.765q0 2.316-.984 4.297a7.73 7.73 0 0 1-2.89 3.156q-1.893 1.173-4.594 1.172-2.129 0-3.828-.75-1.69-.731-2.782-1.468-1.079-.734-1.468-.735c-.274 0-.434.102-.485.297q-.063.299-.062.484v2.172Zm0 0"/><path fill="#5a4377" d="M292.408 203.805h-2.703v-.578q1.921 0 2.969-1.078 1.062-1.09 1.531-2.719.469-1.623.563-3.328c.07-1.132.11-2.129.11-2.984h.593v10.11h4.234v.577h-4.234v23.266q-.001 1.188.11 2.547.121 1.345.671 2.281.545.938 1.734.938.235 0 .532-.047a2.4 2.4 0 0 0 .547-.156v.593q-.158.047-.375.141c-.149.07-.5.11-1.063.11-1.406 0-2.492-.434-3.25-1.298q-1.125-1.312-1.547-3.234a17.5 17.5 0 0 1-.422-3.75Zm0 0"/><path fill="#5a4377" d="M313.26 233.477q-3.27 0-6.093-1.203a15.7 15.7 0 0 1-4.985-3.344 15.7 15.7 0 0 1-3.343-4.984c-.805-1.894-1.203-3.926-1.203-6.094 0-2.164.398-4.191 1.203-6.078a15.5 15.5 0 0 1 3.343-4.984 15.8 15.8 0 0 1 4.985-3.344q2.824-1.219 6.094-1.219 3.247 0 6.078 1.22a15.7 15.7 0 0 1 4.968 3.343 15.5 15.5 0 0 1 3.36 4.984q1.202 2.831 1.203 6.078 0 3.252-1.203 6.094a15.67 15.67 0 0 1-8.328 8.328q-2.831 1.202-6.078 1.203m-13.515-19.125q0 3.364 1.125 6.422a16.9 16.9 0 0 0 3.266 5.422c1.414 1.574 3.125 2.82 5.125 3.734q3 1.376 6.75 1.375 3.294.001 5.687-1.328 2.39-1.323 3.719-3.562 1.343-2.25 1.344-5.063a17.4 17.4 0 0 0-4.562-11.75 16.5 16.5 0 0 0-5.173-3.797q-2.987-1.406-6.531-1.406-3.252 0-5.672 1.313-2.408 1.3-3.75 3.578-1.33 2.268-1.328 5.062m0 0"/><path fill="#5a4377" d="M326.3 232.493v-.594h2.266c.332 0 .687-.07 1.062-.219q.562-.215 1-.906.453-.702.454-2.031V209.04c0-.363-.04-.766-.11-1.203a1.92 1.92 0 0 0-.61-1.157q-.516-.499-1.796-.5v-.593q2.607.002 3.937-1.157 1.343-1.155 1.344-2.25h.578v7.297a17.8 17.8 0 0 1 1.75-3.609q1.06-1.655 2.547-2.64 1.483-.999 3.406-1 1.42.001 2.188.25.763.252 1.578.5.81.25 2.39.25 1.42.001 1.72-.5.294-.5.296-.5h.594l-7.437 20.702h-.594l3.64-10.156c.657-1.8.899-3.457.735-4.969q-.234-2.262-1.547-3.625-1.3-1.359-3.563-1.359c-1.25 0-2.343.352-3.28 1.047a9.1 9.1 0 0 0-2.376 2.61 14.3 14.3 0 0 0-1.453 3.202c-.324 1.086-.523 2-.594 2.75v16.313q0 1.329.438 2.031.45.69 1.047.906.592.222 1.03.22h2.267v.593Zm0 0"/><path fill="#5a4377" d="M368.373 203.805h-.984c-.625 0-1.196.309-1.704.922q-.751.909-1.343 2.344c-.399.95-.766 1.965-1.11 3.047a186 186 0 0 1-1.015 3.11q-.142.44-.313 1.062-.176.61-.422 1.297a720 720 0 0 1-1.28 4.422 596 596 0 0 0-1.454 4.968q-.72 2.485-1.313 4.407-.187.75-.421 1.546-.223.785-.47 1.61-.391 1.483-1.03 3.875a55 55 0 0 1-1.625 5.015 31 31 0 0 1-2.344 4.938q-1.348 2.296-3.156 3.719-1.8 1.42-4.063 1.328v-4.235q3.31-.344 5.594-2.5 2.296-2.144 3.765-5.343a31 31 0 0 0 2.22-6.797l-.329-1.125a158 158 0 0 0-.86-2.953l-1.171-4.016q-.644-2.202-1.281-4.39-.644-2.203-1.141-4-.487-1.796-.781-2.829a71 71 0 0 0-.907-3.125 28 28 0 0 0-1.156-3.078c-.43-.957-.906-1.734-1.437-2.328q-.784-.89-1.766-.89h-1.109.125v-.579h11.468v.578h-1.078q-1.235 0-1.562 1.438-.315 1.423-.11 3.344.093 1.096.344 2.234.247 1.125.547 2.156.387 1.33.922 3.328.544 2.003 1.14 4.141.592 2.145 1.079 3.89.498 1.752.75 2.594.187-.702.562-2.03.374-1.326.86-3.032.498-1.7.984-3.469.498-1.78.937-3.25.201-.638.344-1.187.155-.546.25-.985.34-1.417.61-3 .28-1.577.328-2.984.044-1.406-.344-2.297-.392-.89-1.375-.89h-1.094v-.579h8.719Zm0 0"/></svg>