<svg xmlns="http://www.w3.org/2000/svg" version="1.0" viewBox="0 0 450 450"><path fill="#fff" d="M42.801 88.719v-.735h21c1.47 0 3.07.184 4.813.547a24 24 0 0 1 5.172 1.735q2.561 1.188 4.687 3.203c1.426 1.336 2.567 2.984 3.422 4.953q1.28 2.954 1.281 6.922c0 2.468-.418 4.633-1.25 6.484-.836 1.844-1.953 3.406-3.36 4.688a18.3 18.3 0 0 1-4.655 3.093 24.4 24.4 0 0 1-5.14 1.75c-1.731.368-3.325.547-4.782.547H53.145v22.344c0 1.094.18 1.93.547 2.5q.561.843 1.281 1.125.731.268 1.281.266h2.797v.734h-16.25v-.734h2.797q.61.002 1.313-.266c.468-.188.882-.563 1.25-1.125.363-.57.547-1.406.547-2.5V92.61q-.001-1.7-.547-2.516c-.368-.551-.782-.914-1.25-1.094q-.704-.281-1.313-.281Zm10.344-.063v32.516h8.344q8.53.001 12.812-3.86 4.297-3.872 4.297-11.968c0-3.094-.633-5.895-1.89-8.407q-1.876-3.778-5.657-6.062-3.766-2.28-9.437-2.281h-5.641q-1.065.002-2.828.062m44.15 61.438c-3.375 0-6.313-.711-8.813-2.125q-3.739-2.139-5.812-5.766-2.063-3.623-2.063-7.937 0-3.468 1.328-6.485a15.4 15.4 0 0 1 3.813-5.234q2.466-2.233 5.875-3.266a31 31 0 0 0-2.313-1.969 25 25 0 0 0-2.562-1.75 12.9 12.9 0 0 1 5-3.093q2.858-.985 6.39-.985 5.544 0 9.141 2.016c2.395 1.336 4.192 3.172 5.39 5.516 1.196 2.336 1.798 4.96 1.798 7.875v15.656q0 2.924.843 4.265.856 1.33 3.407 1.329v.734h-4.688c-1.46 0-2.445-.492-2.953-1.484q-.75-1.5-.75-3.141V144q-2.079 2.625-5.406 4.36-3.315 1.734-7.625 1.734m-4.75-29.89q-3.845 1.581-6.031 5.483-2.19 3.892-2.188 8.75-.001 4.144 1.61 7.532 1.606 3.375 4.53 5.39c1.946 1.336 4.243 2 6.891 2 2.47 0 4.899-.578 7.297-1.734q3.592-1.733 5.672-4.906v-17.532q-.925-1.342-2.531-2.703-1.611-1.372-4.172-2.28-2.564-.922-6.266-.923-2.33 0-4.328.735 1.452 1.453 3.063 3.5 1.623 2.033 2.718 4.687 1.092 2.642 1.094 6.063 0 3.222-1.344 5.203-1.328 1.985-3.53 1.984-.362 0-.548-.187.546-.124 1.453-.97.92-.857 1.688-2.405.764-1.56.766-3.75 0-4.137-1.594-7.641a22.5 22.5 0 0 0-4.25-6.297m5.719-7.985c-2.594 0-4.493.386-5.688 1.156q-1.798 1.158-1.797 2.797 0 .549.203 1.25.217.704 1.125 1.672 1.22-.296 2.532-.485a19 19 0 0 1 2.656-.187q4.248 0 7.5 1.437 3.263 1.44 5.406 3.922 0-2.918-1.406-5.562-1.394-2.654-4.047-4.328-2.66-1.672-6.484-1.672m0 0"/><path fill="#fff" d="M114.333 150.094v-15.282h.734v2.922q0 1.519.656 3.5.668 1.987 2.016 3.844a11.4 11.4 0 0 0 3.344 3.063q2.015 1.218 4.64 1.218 2.545 0 4.282-1.125a7.04 7.04 0 0 0 2.593-2.953c.57-1.219.86-2.476.86-3.781q-.001-2.186-1.344-3.89-1.347-1.702-3.484-3.157a100 100 0 0 0-4.5-2.922 47 47 0 0 1-4.5-3.14q-2.127-1.687-3.47-3.813-1.345-2.123-1.343-4.984 0-2.437 1.36-4.266c.913-1.219 2.124-2.172 3.624-2.86a11.4 11.4 0 0 1 4.813-1.046q1.715 0 2.922.312 1.219.3 2.437.61 1.219.298 2.813.297a3.1 3.1 0 0 0 1.094-.204q.545-.217.546-1.015h.735v12.125h-.735v-2.922q0-2.625-.89-4.266-.877-1.639-2.281-2.547a9 9 0 0 0-3.016-1.28 13.5 13.5 0 0 0-3.063-.376q-2.94 0-5.03 1.828c-1.4 1.22-2.095 2.825-2.095 4.813q-.002 2.19 1.297 3.844c.875 1.093 2 2.101 3.375 3.015q2.074 1.36 4.36 2.735a52 52 0 0 1 4.343 2.89q2.077 1.519 3.391 3.5 1.313 1.971 1.313 4.656 0 2.86-1.22 5.297a9.6 9.6 0 0 1-3.562 3.907q-2.345 1.452-5.687 1.453-2.625-.001-4.735-.922-2.096-.904-3.437-1.813-1.331-.92-1.813-.922c-.336 0-.53.125-.593.375a2.8 2.8 0 0 0-.078.594v2.688Zm0 0"/><path fill="#fff" d="M137.523 113.437h-3.344v-.734q2.371.001 3.672-1.328 1.312-1.341 1.89-3.344c.383-1.344.617-2.71.703-4.11q.124-2.108.125-3.702h.735v12.484h5.234v.734h-5.234v28.735q0 1.47.14 3.14.154 1.676.829 2.829.669 1.156 2.14 1.156c.195 0 .414-.024.656-.063q.374-.065.672-.172v.72c-.117.038-.265.1-.453.187q-.27.124-1.312.125c-1.743 0-3.078-.54-4.016-1.61q-1.406-1.622-1.922-4a21.8 21.8 0 0 1-.515-4.625Zm0 0"/><path fill="#fff" d="M163.276 150.094q-5.782-.002-10.14-2.407-4.349-2.402-6.75-6.75-2.408-4.358-2.407-10.14-.001-5.794 2.407-10.14 2.401-4.359 6.75-6.766 4.358-2.405 10.14-2.407c3.125 0 5.703.461 7.735 1.375q3.043 1.376 4.812 3.391c1.176 1.336 2.035 2.672 2.578 4.016q.827 2.003 1.063 3.375c.164.906.25 1.359.25 1.359h-32.39a42 42 0 0 0-.22 1.562c-.054.5-.078 1.04-.078 1.61q0 5.297 2.344 9.594 2.343 4.3 6.625 6.859 4.295 2.548 10.078 2.547c3.133 0 5.879-.664 8.234-2 2.352-1.344 4.196-3.242 5.532-5.703q2.015-3.686 2.015-8.672h.735q-.002 5.782-2.407 10.14-2.407 4.348-6.765 6.75c-2.906 1.602-6.29 2.407-10.14 2.407m-15.828-25.813h28.125q-.064-3.527-1.984-6.234-1.91-2.72-4.922-4.266a13.8 13.8 0 0 0-6.422-1.562q-3.596 0-6.672 1.593a15.3 15.3 0 0 0-5.172 4.282q-2.097 2.707-2.953 6.187m60.762 25.813c-3.375 0-6.312-.711-8.812-2.125q-3.738-2.139-5.813-5.766-2.062-3.623-2.062-7.937-.001-3.468 1.328-6.485a15.4 15.4 0 0 1 3.812-5.234q2.467-2.233 5.875-3.266a31 31 0 0 0-2.312-1.969 25 25 0 0 0-2.563-1.75 12.9 12.9 0 0 1 5-3.093q2.86-.985 6.391-.985 5.543 0 9.14 2.016c2.395 1.336 4.192 3.172 5.391 5.516q1.796 3.503 1.797 7.875v15.656q0 2.924.844 4.265.856 1.33 3.406 1.329v.734h-4.687c-1.461 0-2.446-.492-2.953-1.484q-.75-1.5-.75-3.141V144q-2.08 2.625-5.407 4.36-3.314 1.734-7.625 1.734m-4.75-29.89q-3.844 1.581-6.031 5.483-2.189 3.892-2.187 8.75-.001 4.144 1.609 7.532 1.606 3.375 4.531 5.39c1.945 1.336 4.242 2 6.89 2q3.703 0 7.298-1.734 3.591-1.733 5.672-4.906v-17.532q-.926-1.342-2.532-2.703-1.611-1.372-4.172-2.28-2.563-.922-6.265-.923-2.331 0-4.328.735 1.452 1.453 3.062 3.5 1.623 2.033 2.719 4.687c.726 1.762 1.094 3.781 1.094 6.063q-.001 3.222-1.344 5.203-1.33 1.985-3.531 1.984c-.243 0-.422-.062-.547-.187q.544-.124 1.453-.97.92-.857 1.687-2.405.764-1.56.766-3.75 0-4.137-1.594-7.641a22.5 22.5 0 0 0-4.25-6.297m5.719-7.985q-3.893 0-5.687 1.156-1.799 1.158-1.797 2.797-.001.549.203 1.25.217.704 1.125 1.672 1.218-.296 2.531-.485a19 19 0 0 1 2.656-.187q4.248 0 7.5 1.437 3.263 1.44 5.407 3.922 0-2.918-1.407-5.562-1.393-2.654-4.047-4.328-2.658-1.672-6.484-1.672m0 0"/><path fill="#fff" d="M224.03 148.875v-.734h2.797q.61.002 1.313-.266.702-.282 1.25-1.125c.363-.57.547-1.406.547-2.5v-24.36q-.001-.668-.125-1.484a2.47 2.47 0 0 0-.766-1.437q-.626-.61-2.219-.61v-.734q3.236 0 4.875-1.422 1.64-1.435 1.64-2.781h.735v9.203a20.3 20.3 0 0 1 2.485-4.594c1.02-1.406 2.207-2.523 3.562-3.36a8.45 8.45 0 0 1 4.485-1.25c2.351 0 4.257.634 5.718 1.891q2.203 1.894 2.203 6.891v24.047c0 1.094.18 1.93.547 2.5q.545.843 1.266 1.125c.488.18.914.266 1.281.266h2.813v.734h-15.953v-.734h2.796q.61.002 1.313-.266.702-.282 1.25-1.125c.363-.57.547-1.406.547-2.5v-26.313c0-1.5-.258-2.835-.766-4.015q-.768-1.765-2.89-1.766-2.565 0-4.516 1.313a12.4 12.4 0 0 0-3.281 3.265c-.899 1.293-1.578 2.61-2.047 3.953q-.69 2.003-.813 3.407v20.156c0 1.094.18 1.93.547 2.5q.544.843 1.281 1.125c.489.18.914.266 1.282.266h2.797v.734Zm0 0"/><path fill="#fff" d="M280.653 113.437h-1.218q-1.16 0-2.11 1.125-.938 1.126-1.672 2.891a50 50 0 0 0-1.36 3.781 383 383 0 0 1-1.25 3.828q-.187.552-.405 1.313a19 19 0 0 1-.516 1.61 625 625 0 0 1-1.578 5.452q-.907 3.081-1.797 6.157a425 425 0 0 1-1.61 5.437q-.25.924-.53 1.906c-.18.649-.368 1.313-.563 2q-.502 1.83-1.297 4.782a66 66 0 0 1-2 6.203 38.4 38.4 0 0 1-2.89 6.094q-1.676 2.824-3.907 4.593-2.22 1.764-5.015 1.641v-5.234q4.077-.424 6.906-3.079 2.84-2.641 4.656-6.609a38.8 38.8 0 0 0 2.75-8.39q-.001.002-.406-1.391a247 247 0 0 0-1.063-3.656q-.656-2.262-1.453-4.97c-.531-1.812-1.062-3.616-1.594-5.421q-.783-2.7-1.39-4.922-.61-2.232-.969-3.516a114 114 0 0 0-1.14-3.859 32 32 0 0 0-1.422-3.812q-.799-1.764-1.766-2.86c-.649-.726-1.375-1.094-2.188-1.094h-1.375.157v-.734h14.187v.734h-1.344q-1.535.001-1.921 1.766-.392 1.77-.157 4.14c.082.9.223 1.813.422 2.75q.312 1.395.688 2.673c.32 1.093.703 2.464 1.14 4.109a975 975 0 0 0 2.75 9.922c.407 1.437.707 2.508.907 3.203.164-.57.398-1.406.703-2.5q.452-1.639 1.062-3.734a446 446 0 0 0 1.219-4.297q.607-2.203 1.156-4.032.246-.778.422-1.453.186-.667.313-1.218.42-1.762.75-3.72.34-1.95.406-3.687.058-1.733-.422-2.828c-.324-.726-.89-1.094-1.703-1.094h-1.344v-.734h10.781Zm0 0"/><path fill="#fff" d="M278.39 113.437h-3.343v-.734q2.371.001 3.672-1.328 1.312-1.341 1.89-3.344c.383-1.344.617-2.71.703-4.11q.124-2.108.125-3.702h.735v12.484h5.234v.734h-5.234v28.735q0 1.47.14 3.14.154 1.676.828 2.829.67 1.156 2.141 1.156c.195 0 .414-.024.656-.063q.374-.065.672-.172v.72c-.117.038-.265.1-.453.187q-.27.124-1.312.125c-1.743 0-3.079-.54-4.016-1.61q-1.406-1.622-1.922-4a21.8 21.8 0 0 1-.516-4.625Zm0 0"/><path fill="#fff" d="M298.972 148.875H283.02v-.734h2.797q.61.002 1.313-.266c.468-.188.882-.563 1.25-1.125.363-.57.546-1.406.546-2.5V95.234q-.001-.668-.125-1.484a2.47 2.47 0 0 0-.765-1.438q-.626-.609-2.219-.609v-.734q3.234 0 4.875-1.422 1.64-1.435 1.64-2.781h.735v33.484q1.577-4.313 4.531-6.563c1.969-1.507 3.946-2.265 5.938-2.265q2.918 0 4.687 1.219a6.95 6.95 0 0 1 2.563 3.234c.531 1.336.797 2.812.797 4.437v23.938c0 1.094.18 1.93.547 2.5q.545.843 1.265 1.125c.488.18.914.266 1.281.266h2.813v.734h-15.953v-.734h2.797q.607.002 1.297-.266c.468-.188.882-.563 1.25-1.125.375-.57.562-1.406.562-2.5v-25.64c0-.32-.012-.829-.031-1.516a9 9 0 0 0-.344-2.125 3.8 3.8 0 0 0-1.187-1.89c-.586-.532-1.422-.798-2.516-.798q-2.378 0-4.422 1.406-2.05 1.394-3.531 3.672a20.7 20.7 0 0 0-2.344 4.907v21.984c0 1.094.18 1.93.547 2.5q.544.843 1.281 1.125c.488.18.914.266 1.281.266h2.797Zm0 0"/><path fill="#fff" d="M311.875 148.14h2.797c.406 0 .843-.085 1.312-.265.469-.188.883-.563 1.25-1.125.363-.57.547-1.406.547-2.5v-24.36q-.001-.668-.125-1.484a2.47 2.47 0 0 0-.766-1.437q-.626-.61-2.218-.61v-.734q3.233 0 4.875-1.422 1.64-1.435 1.64-2.781h.735v32.828c0 1.094.18 1.93.547 2.5q.544.843 1.28 1.125.733.268 1.282.266h2.797v.734h-15.953Zm7.969-38.968c-.805 0-1.5-.29-2.094-.875q-.89-.89-.89-2.11c0-.812.296-1.507.89-2.093.594-.594 1.289-.89 2.094-.89.812 0 1.507.296 2.093.89q.89.877.89 2.093 0 1.22-.89 2.11c-.586.586-1.281.875-2.093.875m0 0"/><path fill="#fff" d="M322.223 148.875v-.734h2.797q.61.002 1.313-.266c.468-.188.882-.563 1.25-1.125.363-.57.546-1.406.546-2.5v-24.36q-.001-.668-.125-1.484a2.47 2.47 0 0 0-.765-1.437q-.626-.61-2.219-.61v-.734q3.234 0 4.875-1.422 1.64-1.435 1.64-2.781h.735v9.203a20.3 20.3 0 0 1 2.484-4.594c1.02-1.406 2.207-2.523 3.563-3.36a8.45 8.45 0 0 1 4.484-1.25c2.352 0 4.258.634 5.72 1.891q2.202 1.894 2.202 6.891v24.047c0 1.094.18 1.93.547 2.5q.545.843 1.266 1.125c.488.18.914.266 1.28.266h2.813v.734h-15.953v-.734h2.797q.61.002 1.313-.266c.468-.188.882-.563 1.25-1.125.363-.57.547-1.406.547-2.5v-26.313c0-1.5-.258-2.835-.766-4.015q-.77-1.765-2.89-1.766-2.567 0-4.516 1.313a12.4 12.4 0 0 0-3.282 3.265q-1.345 1.939-2.046 3.953-.69 2.003-.813 3.407v20.156c0 1.094.18 1.93.547 2.5q.544.843 1.281 1.125c.488.18.914.266 1.281.266h2.797v.734Zm0 0"/><path fill="#fff" d="M347.674 166.406q0-4.142 2.86-7.453 2.858-3.315 7.703-5.781 4.841-2.473 10.75-3.938a58 58 0 0 1-5.375-.343q-2.427-.265-3.89-1.11-1.455-.856-1.454-2.562 0-1.153 1.125-2.407 1.124-1.248 3.25-2.156 2.138-.92 5.125-.922-4.516-.356-7.89-2.218-3.376-1.857-5.235-4.891c-1.242-2.031-1.86-4.367-1.86-7.016q0-4.246 2.126-7.422 2.138-3.168 6-4.937 3.874-1.765 8.984-1.766 3.467.001 6.766.922.481.11.875.203c.257.063.593.094 1 .094h11.265v.734H379.33c2.438 1.18 4.332 2.813 5.688 4.907q2.046 3.13 2.047 7.265-.001 4.268-2.14 7.47-2.128 3.187-6 4.952c-2.575 1.18-5.587 1.766-9.032 1.766q-.737 0-2.313.219a30 30 0 0 0-3.328.671q-1.734.456-2.953 1.25c-.805.524-1.203 1.168-1.203 1.938 0 .656.398 1.09 1.203 1.297q1.218.298 3.235.297c1.582 0 3.414-.07 5.5-.219a93 93 0 0 1 6.375-.219q2.86 0 5.53.375 2.686.363 4.813 1.313 2.138.938 3.39 2.765 1.25 1.828 1.25 4.75-.001 2.795-1.468 5.782-1.454 2.981-4.11 5.78-2.64 2.813-6.296 5.032-3.659 2.217-8.078 3.531-4.407 1.313-9.281 1.313c-2.805 0-5.305-.399-7.5-1.188q-3.284-1.188-5.125-3.297-1.86-2.097-1.86-4.78m4.078-1.031q0 2.56 1.64 4.5 1.641 1.95 4.563 3.016 2.918 1.077 6.704 1.078 2.608 0 5.843-.797 3.235-.798 6.516-2.328a29.3 29.3 0 0 0 6.016-3.703q2.747-2.192 4.421-5.063 1.671-2.86 1.672-6.328 0-2.55-1.547-3.922-1.545-1.377-4.078-1.922c-1.687-.367-3.539-.57-5.547-.61a275 275 0 0 0-5.875-.062q-5.905.985-10.5 3.141-4.593 2.155-7.218 5.406c-1.743 2.176-2.61 4.707-2.61 7.594m18.14-53.156q-3.408 0-6.358 1.672-2.954 1.676-4.782 4.687-1.827 3.018-1.828 7.031c0 2.688.61 5.04 1.828 7.047q1.83 3 4.782 4.719a12.5 12.5 0 0 0 6.359 1.703q3.405.001 6.36-1.703 2.952-1.718 4.78-4.719c1.22-2.008 1.829-4.36 1.829-7.047q0-4.014-1.828-7.03-1.83-3.013-4.782-4.688a12.7 12.7 0 0 0-6.36-1.672m31.526 36.655c-.887 0-1.656-.32-2.312-.969-.649-.656-.97-1.445-.97-2.375q-.002-1.406.97-2.344c.656-.632 1.425-.953 2.312-.953q1.765 0 2.61 1.22.855 1.218.984 3.046a11.3 11.3 0 0 1-.39 3.734c-.345 1.282-.876 2.414-1.595 3.407-.71 1-1.527 1.664-2.453 2l-.312-.563q.984-.595 1.828-2c.57-.937.86-1.851.86-2.734 0-.7-.087-1.274-.25-1.719q-.301.064-.641.156a2.3 2.3 0 0 1-.64.094M71.723 243.844q-5.003-.002-9.812-1.094-4.8-1.092-8.703-3.344-3.89-2.264-6.235-5.828-2.343-3.562-2.344-8.484-.002-4.513 1.766-7.672 1.763-3.17 5.078-5.516 3.328-2.341 7.89-4.297c-1.948-2.187-3.51-4.351-4.687-6.5-1.18-2.156-1.765-4.289-1.765-6.406 0-2.844.757-5.273 2.28-7.297q2.28-3.047 6.11-4.687c2.563-1.102 5.344-1.657 8.344-1.657 2.645 0 4.93.368 6.86 1.094q2.888 1.096 4.78 2.844c1.258 1.156 2.204 2.418 2.829 3.781.625 1.356.937 2.64.937 3.86q-.001 3.28-1.375 5.53a11.9 11.9 0 0 1-3.5 3.72 19.8 19.8 0 0 1-4.53 2.312 39 39 0 0 1-4.532 1.344l-3.406.781q-.799.065-1.625.219-.816.157-1.672.39a173 173 0 0 0 5.453 5.094 648 648 0 0 0 7.031 6.235l18.64-22.282.548.422-12.547 15.047c.687-.32 1.468-.594 2.343-.812q1.312-.342 3.204-.344 3.34 0 6.171 1.5a11.9 11.9 0 0 1 4.563 4.219q1.748 2.735 1.75 6.578 0 3.41-1.594 6.515-1.582 3.11-4.265 5.782 3.046 2.625 5.39 4.64c1.563 1.336 2.832 2.281 3.813 2.844q1.218.733 2.437.734h2.375v.735h-5.515q-2.052-.001-3.422-.407-1.363-.39-2.875-1.609a60 60 0 0 1-2.407-1.969l-2.89-2.468q-4.144 2.986-9.594 4.718a37 37 0 0 1-11.297 1.735M49.13 224.109q0 4.032 1.922 7.438 1.921 3.409 5.172 5.969 3.263 2.547 7.375 3.953a25.8 25.8 0 0 0 8.422 1.406q5.608.001 10.813-1.61 5.202-1.621 9.234-4.421c-2.156-1.864-4.54-3.93-7.14-6.203a734 734 0 0 0-8.032-6.954c-3-2.593-5.977-5.148-8.922-7.671q-4.407-3.78-7.812-7.485a21 21 0 0 0-5.485 3.563 17.6 17.6 0 0 0-4.03 5.234q-1.518 3.02-1.517 6.781m6.454-31.593q-.065 1.938.703 3.953c.507 1.343 1.382 2.82 2.625 4.422q1.857 2.408 5.015 5.562 1.53-.233 3.688-.719a27.7 27.7 0 0 0 4.406-1.437 19 19 0 0 0 4.203-2.438q1.953-1.499 3.172-3.625 1.22-2.121 1.219-5.047c0-1.132-.196-2.343-.578-3.625q-.581-1.921-1.86-3.656-1.283-1.733-3.422-2.828c-1.418-.726-3.156-1.094-5.218-1.094q-4.753 0-7.828 1.547c-2.055 1.031-3.57 2.352-4.547 3.953q-1.455 2.408-1.578 5.032m21.859 26.234a167 167 0 0 1 3.36 2.922q3.95 3.363 7.577 6.656a391 391 0 0 0 6.782 6.016c1.75-1.664 3.117-3.473 4.11-5.422q1.5-2.918 1.5-6.094c0-2.719-.603-4.945-1.798-6.687q-1.8-2.624-4.484-3.875-2.673-1.249-5.469-1.25-2.753.002-4.61.765-1.846.767-2.89 1.985Zm41.209-12.297h14.187v.734h-1.344q-1.517 0-1.922 1.125-.392 1.125-.14 3.563.123 1.283.422 2.719.31 1.424.672 2.703.481 1.643 1.156 4.234.669 2.58 1.39 5.422.734 2.83 1.344 5.11c.406 1.523.711 2.624.922 3.312.156-.563.395-1.43.719-2.61a288 288 0 0 0 1.11-4.046q.608-2.297 1.218-4.61c.406-1.539.77-2.922 1.094-4.14.156-.563.297-1.055.422-1.485.125-.425.226-.82.312-1.187q.608-2.311.969-4.656.356-2.345.015-3.891-.328-1.561-1.968-1.563h-1.328v-.734h12.109v.734h-1.344q-1.517 0-1.922 1.125-.392 1.125-.14 3.563.123 1.283.422 2.719.31 1.424.671 2.703.481 1.643 1.157 4.234.669 2.58 1.39 5.422.734 2.83 1.344 5.11c.406 1.523.711 2.624.922 3.312l.719-2.61a288 288 0 0 0 1.11-4.046q.608-2.297 1.218-4.61c.406-1.539.77-2.922 1.094-4.14.156-.563.296-1.055.421-1.485q.186-.637.313-1.187.608-2.311.969-4.656.356-2.345.015-3.891-.328-1.561-1.968-1.563h-1.344v-.734h10.781v.734h-1.219c-1.054 0-1.965.54-2.734 1.61q-1.158 1.611-2.047 3.984a82 82 0 0 0-1.61 4.813q-.187.609-.406 1.312a57 57 0 0 1-.5 1.61q-1.658 5.549-3.125 11.671a525 525 0 0 1-2.906 11.657h-.734q-.002 0-.485-1.735-.486-1.734-1.28-4.593a2675 2675 0 0 1-1.735-6.282q-.938-3.404-1.86-6.812-.906-3.406-1.703-6.266a259 259 0 0 1-1.218-4.515 450 450 0 0 0-1.094 3.437 112 112 0 0 0-1.031 3.438q-1.66 5.549-3.125 11.671a277 277 0 0 1-3.032 11.657h-.672l-.421-1.547q-.425-1.56-1.094-4.11-.674-2.56-1.469-5.546-.783-2.982-1.578-5.97-.798-2.98-1.438-5.39a451 451 0 0 0-1-3.687 41 41 0 0 0-1.53-4.828q-.908-2.403-2.126-3.985-1.22-1.594-2.797-1.594h-1.218Zm0 0"/><path fill="#fff" d="M179.532 243.844q-5.782-.002-10.14-2.407-4.35-2.402-6.75-6.75-2.408-4.358-2.407-10.14-.001-5.794 2.406-10.14 2.403-4.359 6.75-6.766 4.359-2.405 10.14-2.407c3.126 0 5.704.461 7.735 1.375 2.032.918 3.633 2.047 4.813 3.391 1.176 1.336 2.035 2.672 2.578 4.016q.827 2.003 1.062 3.375c.164.906.25 1.359.25 1.359h-32.39a42 42 0 0 0-.219 1.562c-.055.5-.078 1.04-.078 1.61q0 5.297 2.344 9.594 2.343 4.3 6.625 6.859 4.294 2.548 10.078 2.547c3.133 0 5.879-.664 8.234-2 2.352-1.344 4.195-3.242 5.531-5.703q2.016-3.686 2.016-8.672h.734q-.002 5.782-2.406 10.14-2.407 4.348-6.765 6.75-4.363 2.405-10.141 2.407m-15.828-25.813h28.125q-.063-3.527-1.985-6.234-1.91-2.72-4.921-4.266a13.8 13.8 0 0 0-6.422-1.562q-3.597 0-6.672 1.593a15.3 15.3 0 0 0-5.172 4.282q-2.098 2.706-2.953 6.187m31.526-32.219q-1.096 0-1.86-.75-.75-.761-.75-1.921 0-1.11.75-1.86a2.54 2.54 0 0 1 1.86-.765q1.405 0 2.11.984.7.972.78 2.437a9 9 0 0 1-.328 2.985 9.3 9.3 0 0 1-1.25 2.734q-.815 1.22-1.968 1.578l-.25-.422q.795-.499 1.453-1.625c.445-.75.672-1.488.672-2.218 0-.532-.059-.977-.172-1.344a3.2 3.2 0 0 1-1.047.187m0 0"/><path fill="#fff" d="M193.776 241.89h2.796c.407 0 .844-.085 1.313-.265q.702-.282 1.25-1.125c.363-.57.547-1.406.547-2.5v-49.016q-.001-.668-.125-1.484a2.47 2.47 0 0 0-.766-1.438q-.626-.609-2.219-.609v-.734q3.236 0 4.875-1.422 1.641-1.435 1.641-2.781h.734V238c0 1.094.18 1.93.547 2.5q.545.843 1.282 1.125.731.268 1.28.266h2.798v.734h-15.953Zm0 0"/><path fill="#fff" d="M204.124 241.89h2.797c.406 0 .844-.085 1.312-.265.47-.188.883-.563 1.25-1.125.364-.57.547-1.406.547-2.5v-49.016q-.001-.668-.125-1.484a2.47 2.47 0 0 0-.765-1.438q-.626-.609-2.22-.609v-.734q3.235 0 4.876-1.422 1.64-1.435 1.64-2.781h.735V238c0 1.094.18 1.93.547 2.5q.544.843 1.281 1.125.731.268 1.281.266h2.797v.734h-15.953Zm29.461-34.703h-3.344v-.734q2.372.001 3.672-1.328 1.312-1.341 1.89-3.344c.383-1.344.617-2.71.703-4.11q.124-2.108.125-3.702h.735v12.484h5.234v.734h-5.234v28.735q0 1.47.14 3.14.154 1.676.829 2.829.669 1.156 2.14 1.156c.195 0 .414-.024.656-.063q.374-.065.672-.172v.72c-.117.038-.265.1-.453.187q-.27.124-1.312.125c-1.743 0-3.078-.54-4.016-1.61q-1.406-1.622-1.922-4a21.8 21.8 0 0 1-.515-4.625Zm0 0"/><path fill="#fff" d="M259.338 243.844q-5.782-.002-10.14-2.407-4.349-2.402-6.75-6.75-2.408-4.358-2.407-10.14-.001-5.794 2.407-10.14 2.401-4.359 6.75-6.766 4.358-2.405 10.14-2.407c3.125 0 5.703.461 7.735 1.375q3.043 1.376 4.812 3.391c1.176 1.336 2.035 2.672 2.578 4.016q.827 2.003 1.063 3.375c.164.906.25 1.359.25 1.359h-32.39a42 42 0 0 0-.22 1.562c-.054.5-.078 1.04-.078 1.61q0 5.297 2.344 9.594 2.343 4.3 6.625 6.859 4.295 2.548 10.078 2.547c3.133 0 5.879-.664 8.234-2 2.352-1.344 4.196-3.242 5.532-5.703q2.015-3.686 2.015-8.672h.735c0 3.855-.805 7.234-2.407 10.14q-2.407 4.348-6.765 6.75c-2.906 1.602-6.29 2.407-10.14 2.407M243.51 218.03h28.125q-.063-3.527-1.984-6.234-1.91-2.72-4.922-4.266a13.8 13.8 0 0 0-6.422-1.562q-3.597 0-6.672 1.593a15.3 15.3 0 0 0-5.172 4.282q-2.098 2.706-2.953 6.187m0 0"/><path fill="#fff" d="M271.817 241.89h2.797c.407 0 .844-.085 1.313-.265.469-.188.883-.563 1.25-1.125.363-.57.547-1.406.547-2.5v-49.016q-.001-.668-.125-1.484a2.47 2.47 0 0 0-.766-1.438q-.626-.609-2.219-.609v-.734q3.235 0 4.875-1.422 1.64-1.435 1.64-2.781h.735V238c0 1.094.18 1.93.547 2.5q.545.843 1.281 1.125.732.268 1.282.266h2.797v.734h-15.954Zm0 0"/><path fill="#fff" d="M282.166 241.89h2.797c.406 0 .843-.085 1.312-.265.469-.188.883-.563 1.25-1.125.363-.57.547-1.406.547-2.5v-49.016q-.001-.668-.125-1.484a2.47 2.47 0 0 0-.766-1.438q-.626-.609-2.218-.609v-.734q3.233 0 4.875-1.422 1.64-1.435 1.64-2.781h.735V238c0 1.094.18 1.93.547 2.5q.544.843 1.28 1.125.733.268 1.282.266h2.797v.734h-15.953Zm52.117-34.703h-1.22q-1.16 0-2.109 1.125-.938 1.126-1.671 2.891a50 50 0 0 0-1.36 3.781 383 383 0 0 1-1.25 3.828q-.188.552-.406 1.313a19 19 0 0 1-.516 1.61 625 625 0 0 1-1.578 5.452q-.907 3.082-1.797 6.157a425 425 0 0 1-1.609 5.437q-.251.924-.531 1.906c-.18.649-.367 1.313-.563 2-.336 1.22-.765 2.813-1.297 4.782a66 66 0 0 1-2 6.203 38.4 38.4 0 0 1-2.89 6.094q-1.674 2.824-3.907 4.593-2.22 1.764-5.015 1.641v-5.234q4.078-.423 6.906-3.079 2.841-2.642 4.656-6.609a38.8 38.8 0 0 0 2.75-8.39l-.406-1.391a247 247 0 0 0-1.062-3.656q-.657-2.262-1.454-4.97c-.53-1.812-1.062-3.616-1.593-5.421q-.784-2.7-1.39-4.922-.611-2.232-.97-3.516a114 114 0 0 0-1.14-3.859 32 32 0 0 0-1.422-3.812q-.798-1.764-1.766-2.86c-.648-.726-1.375-1.094-2.187-1.094h-1.375.156v-.734h14.187v.734h-1.343q-1.535.001-1.922 1.766-.392 1.77-.156 4.14c.082.9.222 1.813.421 2.75q.313 1.395.688 2.673c.32 1.093.703 2.464 1.14 4.109a975 975 0 0 0 2.75 9.922c.407 1.437.708 2.508.907 3.203.164-.57.398-1.406.703-2.5q.452-1.639 1.062-3.734a446 446 0 0 0 1.22-4.297q.606-2.204 1.155-4.032.247-.779.422-1.453.186-.668.313-1.218.421-1.762.75-3.72.34-1.95.406-3.687.06-1.733-.422-2.828c-.324-.726-.89-1.094-1.703-1.094h-1.344v-.734h10.782Zm0 0"/><path fill="#fff" d="M347.973 243.844q-4.019 0-7.516-1.485a19.5 19.5 0 0 1-6.156-4.14 19.5 19.5 0 0 1-4.14-6.157c-.993-2.332-1.485-4.835-1.485-7.515 0-2.688.492-5.195 1.484-7.531q1.5-3.499 4.141-6.141a19.3 19.3 0 0 1 6.156-4.14q3.497-1.5 7.516-1.5 4.013 0 7.516 1.5a19.1 19.1 0 0 1 6.156 4.14 19.2 19.2 0 0 1 4.14 6.14c1 2.337 1.5 4.844 1.5 7.532q0 4.019-1.5 7.515a19.3 19.3 0 0 1-4.14 6.157 19.4 19.4 0 0 1-6.156 4.14q-3.503 1.484-7.516 1.485m-16.688-23.625q0 4.142 1.407 7.922 1.404 3.768 4.015 6.687 2.625 2.925 6.328 4.625 3.715 1.704 8.344 1.703 4.092 0 7.047-1.64 2.953-1.641 4.594-4.407c1.094-1.851 1.64-3.937 1.64-6.25 0-2.718-.492-5.32-1.468-7.812a21 21 0 0 0-4.172-6.703 20.3 20.3 0 0 0-6.39-4.688q-3.675-1.734-8.063-1.734-4.019.002-7 1.61-2.989 1.609-4.64 4.421-1.642 2.798-1.642 6.266m35.257-10.109v-.735q3.218 0 4.86-1.422c1.101-.957 1.656-1.883 1.656-2.781h.734v32.156c0 1.5.258 2.828.782 3.984q.796 1.735 2.859 1.735 2.56 0 4.5-1.453 1.95-1.466 3.297-3.657 1.341-2.184 2.062-4.375.733-2.202.797-3.609v-16.312q-.001-.67-.125-1.485a2.4 2.4 0 0 0-.75-1.437q-.644-.61-2.219-.61v-.734q3.218 0 4.86-1.422c1.101-.957 1.656-1.883 1.656-2.781h.719v30.265q-.002 2.501.547 3.204.562.702 1.406.703h1.703v.718q-.845.001-2.094.125c-.836.086-1.687.391-2.562.922-.875.524-1.68 1.434-2.406 2.735h-.735v-10.36a22.5 22.5 0 0 1-2.469 5c-1.03 1.586-2.23 2.875-3.593 3.875q-2.033 1.484-4.469 1.485c-2.355 0-4.262-.633-5.719-1.89q-2.188-1.89-2.187-6.876v-21.437q-.001-.67-.125-1.485a2.47 2.47 0 0 0-.766-1.437q-.644-.61-2.219-.61M42.192 335.64h2.797c.406 0 .844-.085 1.312-.265.47-.188.883-.563 1.25-1.125.364-.57.547-1.406.547-2.5v-24.36q-.001-.668-.125-1.484a2.47 2.47 0 0 0-.765-1.437q-.626-.61-2.22-.61v-.734q3.235 0 4.876-1.422 1.64-1.435 1.64-2.781h.735v32.828c0 1.094.18 1.93.547 2.5q.544.843 1.28 1.125c.49.18.915.266 1.282.266h2.797v.734H42.192Zm7.969-38.968c-.805 0-1.5-.29-2.094-.875q-.89-.89-.89-2.11c0-.812.296-1.507.89-2.093.594-.594 1.289-.89 2.094-.89q1.216 0 2.093.89.891.877.891 2.093 0 1.22-.89 2.11c-.587.586-1.282.875-2.094.875m0 0"/><path fill="#fff" d="M52.54 335.64h2.797c.406 0 .844-.085 1.313-.265q.7-.282 1.25-1.125c.363-.57.547-1.406.547-2.5v-30.813h-5.485v-.734h5.485v-11.266q-.001-2.249.546-4.796.546-2.56 1.907-4.782 1.371-2.232 3.843-3.656 2.468-1.436 6.313-1.437 2.984 0 4.86.796 1.887.786 3.077 1.61c.79.555 1.43.828 1.922.828q.67 0 1.157-.672.481-.668 1.156-2.562h.797l-7.797 21.671h-.735l1.829-5.234q1.762-5.108 1.421-8.64-.328-3.53-2.343-5.36-2.004-1.828-5.344-1.828c-2.324 0-4.246.43-5.766 1.281q-2.283 1.285-3.406 3.266-1.125 1.968-1.125 3.984c0 .813.086 1.531.266 2.156l.64 2.157q.373 1.219.641 3.14.28 1.922.281 5.016v4.328h5.485v.734h-5.485v30.813c0 1.094.18 1.93.547 2.5q.544.843 1.281 1.125c.489.18.914.266 1.282.266h2.796v.734H52.54Zm39.204 0h2.797c.407 0 .844-.085 1.313-.265q.701-.282 1.25-1.125c.363-.57.547-1.406.547-2.5v-24.36q-.001-.668-.125-1.484a2.47 2.47 0 0 0-.766-1.437q-.626-.61-2.219-.61v-.734q3.236 0 4.875-1.422 1.64-1.435 1.64-2.781h.735v32.828c0 1.094.18 1.93.547 2.5q.544.843 1.281 1.125c.489.18.914.266 1.282.266h2.797v.734H91.744Zm7.97-38.968c-.806 0-1.5-.29-2.095-.875q-.89-.89-.89-2.11c0-.812.297-1.507.89-2.093q.89-.89 2.094-.89c.813 0 1.508.296 2.094.89q.89.877.89 2.093 0 1.22-.89 2.11c-.586.586-1.281.875-2.094.875m7.552 4.265h-3.344v-.734q2.372.001 3.672-1.328 1.312-1.341 1.89-3.344c.383-1.344.618-2.71.704-4.11q.124-2.108.125-3.702h.734v12.484h5.234v.734h-5.234v28.735q0 1.47.14 3.14.154 1.676.829 2.829.669 1.155 2.14 1.156c.196 0 .414-.024.657-.063q.374-.065.671-.172v.72c-.117.038-.265.1-.453.187q-.27.124-1.312.125c-1.742 0-3.078-.54-4.016-1.61q-1.406-1.622-1.922-4a21.8 21.8 0 0 1-.515-4.625Zm18.569 34.703h2.796c.407 0 .844-.085 1.313-.265q.702-.282 1.25-1.125c.363-.57.547-1.406.547-2.5v-30.813h-5.485v-.734h5.485v-11.266q-.002-2.249.547-4.796.546-2.56 1.906-4.782 1.37-2.232 3.844-3.656 2.467-1.436 6.312-1.437 2.984 0 4.86.796 1.887.786 3.078 1.61c.789.555 1.43.828 1.922.828q.669 0 1.156-.672.481-.668 1.156-2.562h.797l-7.797 21.671h-.734l1.828-5.234q1.762-5.108 1.422-8.64-.328-3.53-2.344-5.36-2.004-1.828-5.344-1.828c-2.324 0-4.246.43-5.765 1.281-1.524.856-2.657 1.946-3.407 3.266q-1.125 1.968-1.125 3.984-.002 1.219.266 2.156l.64 2.157q.374 1.219.641 3.14.281 1.922.281 5.016v4.328h5.485v.734h-5.485v30.813c0 1.094.18 1.93.547 2.5q.545.843 1.282 1.125c.488.18.914.266 1.28.266h2.798v.734h-15.953Zm25.263 0h2.797c.407 0 .844-.085 1.313-.265q.702-.282 1.25-1.125c.363-.57.547-1.406.547-2.5v-24.36q-.001-.668-.125-1.484a2.47 2.47 0 0 0-.766-1.437q-.626-.61-2.219-.61v-.734q3.236 0 4.875-1.422 1.64-1.435 1.64-2.781h.735v32.828c0 1.094.18 1.93.547 2.5q.544.843 1.281 1.125c.489.18.914.266 1.282.266h2.797v.734h-15.954Zm7.97-38.968c-.806 0-1.5-.29-2.095-.875q-.89-.89-.89-2.11c0-.812.297-1.507.89-2.093q.89-.89 2.094-.89c.813 0 1.508.296 2.094.89q.89.877.89 2.093 0 1.22-.89 2.11c-.586.586-1.281.875-2.094.875m7.552 4.265h-3.344v-.734q2.372.001 3.672-1.328 1.312-1.341 1.89-3.344c.383-1.344.618-2.71.704-4.11q.124-2.108.125-3.702h.734v12.484h5.234v.734H170.4v28.735q0 1.47.14 3.14.154 1.676.829 2.829.669 1.155 2.14 1.156c.196 0 .414-.024.657-.063q.374-.065.671-.172v.72c-.117.038-.265.1-.453.187q-.27.124-1.312.125c-1.742 0-3.078-.54-4.016-1.61q-1.406-1.622-1.922-4a21.8 21.8 0 0 1-.515-4.625Zm0 0"/><path fill="#fff" d="M172.465 337.594v-15.282h.734v2.922q0 1.519.657 3.5.668 1.987 2.015 3.844a11.4 11.4 0 0 0 3.344 3.063q2.016 1.218 4.64 1.218 2.546 0 4.282-1.125a7.04 7.04 0 0 0 2.594-2.953c.57-1.219.86-2.476.86-3.781q-.001-2.186-1.345-3.89-1.346-1.701-3.484-3.157a100 100 0 0 0-4.5-2.922 47 47 0 0 1-4.5-3.14q-2.127-1.687-3.469-3.813-1.346-2.123-1.344-4.984 0-2.438 1.36-4.266c.914-1.219 2.125-2.172 3.625-2.86a11.4 11.4 0 0 1 4.812-1.046q1.717 0 2.922.312 1.219.3 2.438.61 1.219.298 2.812.297a3.1 3.1 0 0 0 1.094-.204q.546-.217.547-1.015h.734v12.125h-.734v-2.922q0-2.625-.89-4.266-.879-1.639-2.282-2.547a9 9 0 0 0-3.016-1.28 13.5 13.5 0 0 0-3.062-.376q-2.94 0-5.031 1.828c-1.399 1.22-2.094 2.825-2.094 4.813q-.002 2.19 1.297 3.844c.875 1.093 2 2.101 3.375 3.015q2.074 1.36 4.36 2.735a52 52 0 0 1 4.343 2.89q2.076 1.519 3.39 3.5 1.313 1.971 1.313 4.656 0 2.86-1.219 5.297a9.6 9.6 0 0 1-3.562 3.907q-2.346 1.452-5.688 1.453-2.625-.001-4.734-.922-2.097-.903-3.438-1.813-1.33-.92-1.812-.922c-.336 0-.531.125-.594.375a2.8 2.8 0 0 0-.078.594v2.688Zm32.568-4.625c0-.938.32-1.727.968-2.375a3.23 3.23 0 0 1 2.375-.985q1.407 0 2.344.985c.633.648.953 1.437.953 2.375q-.002 1.453-.953 2.437c-.625.649-1.406.969-2.344.969-.93 0-1.718-.32-2.375-.969q-.97-.984-.968-2.437m16.8 0c0-.938.32-1.727.969-2.375a3.23 3.23 0 0 1 2.375-.985q1.407 0 2.344.985c.633.648.953 1.437.953 2.375q-.002 1.453-.953 2.437c-.625.649-1.406.969-2.344.969-.93 0-1.719-.32-2.375-.969q-.97-.984-.969-2.437m16.801 0c0-.938.32-1.727.969-2.375a3.23 3.23 0 0 1 2.375-.985q1.406 0 2.343.985c.633.648.953 1.437.953 2.375q-.002 1.453-.953 2.437c-.625.649-1.406.969-2.343.969-.93 0-1.72-.32-2.375-.969q-.972-.984-.97-2.437m0 0"/></svg>