<svg xmlns="http://www.w3.org/2000/svg" xmlns:xlink="http://www.w3.org/1999/xlink" zoomAndPan="magnify" viewBox="76 119 277 189" preserveAspectRatio="xMidYMid meet" version="1.0"><defs><g/><clipPath id="9f39e698af"><rect x="0" width="277" y="0" height="189"/></clipPath></defs><g transform="matrix(1, 0, 0, 1, 76, 119)"><g clip-path="url(#9f39e698af)"><g fill="#ffffff" fill-opacity="1"><g transform="translate(3.093149, 53.175893)"><g><path d="M 0.984375 21.1875 L 3.265625 21.1875 C 3.597656 21.1875 3.953125 21.109375 4.328125 20.953125 C 4.710938 20.804688 5.050781 20.503906 5.34375 20.046875 C 5.644531 19.585938 5.796875 18.910156 5.796875 18.015625 L 5.796875 -23.5625 C 5.796875 -23.925781 5.757812 -24.328125 5.6875 -24.765625 C 5.625 -25.210938 5.414062 -25.601562 5.0625 -25.9375 C 4.71875 -26.269531 4.117188 -26.4375 3.265625 -26.4375 L 3.265625 -27.03125 C 5.015625 -27.03125 6.332031 -27.414062 7.21875 -28.1875 C 8.113281 -28.96875 8.5625 -29.71875 8.5625 -30.4375 L 9.15625 -30.4375 L 9.15625 -25.4375 C 9.71875 -26.226562 10.476562 -27.003906 11.4375 -27.765625 C 12.394531 -28.523438 13.625 -29.160156 15.125 -29.671875 C 16.625 -30.179688 18.460938 -30.4375 20.640625 -30.4375 C 23.972656 -30.4375 26.785156 -29.734375 29.078125 -28.328125 C 31.367188 -26.929688 33.117188 -25.050781 34.328125 -22.6875 C 35.535156 -20.332031 36.140625 -17.71875 36.140625 -14.84375 C 36.140625 -12.695312 35.789062 -10.675781 35.09375 -8.78125 C 34.40625 -6.882812 33.40625 -5.203125 32.09375 -3.734375 C 30.789062 -2.265625 29.238281 -1.109375 27.4375 -0.265625 C 25.644531 0.566406 23.628906 0.984375 21.390625 0.984375 C 18.941406 0.984375 16.910156 0.710938 15.296875 0.171875 C 13.679688 -0.367188 12.382812 -1.039062 11.40625 -1.84375 C 10.4375 -2.65625 9.6875 -3.457031 9.15625 -4.25 L 9.15625 18.015625 C 9.15625 18.910156 9.300781 19.585938 9.59375 20.046875 C 9.894531 20.503906 10.242188 20.804688 10.640625 20.953125 C 11.035156 21.109375 11.382812 21.1875 11.6875 21.1875 L 13.953125 21.1875 L 13.953125 21.78125 L 0.984375 21.78125 Z M 9.15625 -5.296875 C 9.851562 -4.078125 10.695312 -3.113281 11.6875 -2.40625 C 12.675781 -1.695312 13.679688 -1.164062 14.703125 -0.8125 C 15.722656 -0.46875 16.65625 -0.242188 17.5 -0.140625 C 18.34375 -0.046875 18.976562 0 19.40625 0 C 21.21875 0 22.921875 -0.378906 24.515625 -1.140625 C 26.117188 -1.898438 27.539062 -2.957031 28.78125 -4.3125 C 30.019531 -5.664062 30.984375 -7.238281 31.671875 -9.03125 C 32.367188 -10.832031 32.71875 -12.753906 32.71875 -14.796875 C 32.71875 -16.847656 32.367188 -18.765625 31.671875 -20.546875 C 30.984375 -22.328125 30.019531 -23.882812 28.78125 -25.21875 C 27.539062 -26.550781 26.117188 -27.585938 24.515625 -28.328125 C 22.921875 -29.078125 21.21875 -29.453125 19.40625 -29.453125 C 18.976562 -29.453125 18.34375 -29.410156 17.5 -29.328125 C 16.65625 -29.242188 15.722656 -29.046875 14.703125 -28.734375 C 13.679688 -28.421875 12.675781 -27.914062 11.6875 -27.21875 C 10.695312 -26.53125 9.851562 -25.578125 9.15625 -24.359375 Z M 7.625 -10.734375 C 7.625 -10.640625 7.640625 -10.5625 7.671875 -10.5 Z M 7.625 -10.734375 "/></g></g></g><g fill="#ffffff" fill-opacity="1"><g transform="translate(34.462458, 53.175893)"><g><path d="M 16.03125 0.984375 C 13.289062 0.984375 10.90625 0.410156 8.875 -0.734375 C 6.851562 -1.890625 5.28125 -3.445312 4.15625 -5.40625 C 3.03125 -7.375 2.46875 -9.53125 2.46875 -11.875 C 2.46875 -13.757812 2.832031 -15.519531 3.5625 -17.15625 C 4.289062 -18.789062 5.320312 -20.207031 6.65625 -21.40625 C 7.988281 -22.613281 9.582031 -23.5 11.4375 -24.0625 C 10.84375 -24.625 10.210938 -25.160156 9.546875 -25.671875 C 8.890625 -26.179688 8.195312 -26.648438 7.46875 -27.078125 C 8.625 -28.234375 9.976562 -29.070312 11.53125 -29.59375 C 13.082031 -30.125 14.816406 -30.390625 16.734375 -30.390625 C 19.734375 -30.390625 22.207031 -29.84375 24.15625 -28.75 C 26.101562 -27.664062 27.5625 -26.175781 28.53125 -24.28125 C 29.507812 -22.382812 30 -20.25 30 -17.875 L 30 -5.140625 C 30 -3.554688 30.226562 -2.398438 30.6875 -1.671875 C 31.15625 -0.953125 32.082031 -0.59375 33.46875 -0.59375 L 33.46875 0 L 29.65625 0 C 28.46875 0 27.664062 -0.398438 27.25 -1.203125 C 26.832031 -2.015625 26.625 -2.867188 26.625 -3.765625 L 26.625 -3.953125 C 25.507812 -2.535156 24.050781 -1.359375 22.25 -0.421875 C 20.445312 0.515625 18.375 0.984375 16.03125 0.984375 Z M 12.171875 -23.3125 C 10.097656 -22.457031 8.46875 -20.972656 7.28125 -18.859375 C 6.09375 -16.742188 5.5 -14.367188 5.5 -11.734375 C 5.5 -9.484375 5.9375 -7.441406 6.8125 -5.609375 C 7.6875 -3.785156 8.914062 -2.328125 10.5 -1.234375 C 12.082031 -0.148438 13.945312 0.390625 16.09375 0.390625 C 18.101562 0.390625 20.082031 -0.078125 22.03125 -1.015625 C 23.976562 -1.953125 25.507812 -3.28125 26.625 -5 L 26.625 -19.25 C 26.132812 -19.976562 25.453125 -20.710938 24.578125 -21.453125 C 23.703125 -22.203125 22.570312 -22.820312 21.1875 -23.3125 C 19.800781 -23.8125 18.101562 -24.0625 16.09375 -24.0625 C 14.832031 -24.0625 13.660156 -23.863281 12.578125 -23.46875 C 13.367188 -22.675781 14.203125 -21.722656 15.078125 -20.609375 C 15.953125 -19.503906 16.6875 -18.234375 17.28125 -16.796875 C 17.875 -15.367188 18.171875 -13.726562 18.171875 -11.875 C 18.171875 -10.125 17.804688 -8.710938 17.078125 -7.640625 C 16.347656 -6.566406 15.390625 -6.03125 14.203125 -6.03125 C 14.003906 -6.03125 13.859375 -6.082031 13.765625 -6.1875 C 14.054688 -6.25 14.445312 -6.507812 14.9375 -6.96875 C 15.4375 -7.4375 15.890625 -8.09375 16.296875 -8.9375 C 16.710938 -9.78125 16.921875 -10.796875 16.921875 -11.984375 C 16.921875 -14.222656 16.492188 -16.289062 15.640625 -18.1875 C 14.785156 -20.082031 13.628906 -21.789062 12.171875 -23.3125 Z M 16.828125 -29.796875 C 14.710938 -29.796875 13.164062 -29.484375 12.1875 -28.859375 C 11.21875 -28.234375 10.734375 -27.472656 10.734375 -26.578125 C 10.734375 -26.285156 10.789062 -25.945312 10.90625 -25.5625 C 11.03125 -25.1875 11.335938 -24.734375 11.828125 -24.203125 C 12.492188 -24.367188 13.179688 -24.5 13.890625 -24.59375 C 14.597656 -24.695312 15.3125 -24.75 16.03125 -24.75 C 18.34375 -24.75 20.378906 -24.359375 22.140625 -23.578125 C 23.910156 -22.804688 25.375 -21.742188 26.53125 -20.390625 C 26.53125 -21.972656 26.148438 -23.484375 25.390625 -24.921875 C 24.628906 -26.359375 23.53125 -27.53125 22.09375 -28.4375 C 20.664062 -29.34375 18.910156 -29.796875 16.828125 -29.796875 Z M 16.828125 -29.796875 "/></g></g></g><g fill="#ffffff" fill-opacity="1"><g transform="translate(61.18019, 53.175893)"><g><path d="M 1.984375 0.984375 L 1.984375 -11.4375 L 2.578125 -11.4375 L 2.578125 -9.0625 C 2.578125 -8.238281 2.753906 -7.289062 3.109375 -6.21875 C 3.472656 -5.144531 4.019531 -4.101562 4.75 -3.09375 C 5.476562 -2.082031 6.382812 -1.25 7.46875 -0.59375 C 8.5625 0.0625 9.816406 0.390625 11.234375 0.390625 C 12.617188 0.390625 13.78125 0.0859375 14.71875 -0.515625 C 15.664062 -1.128906 16.367188 -1.929688 16.828125 -2.921875 C 17.285156 -3.910156 17.515625 -4.929688 17.515625 -5.984375 C 17.515625 -7.171875 17.148438 -8.226562 16.421875 -9.15625 C 15.703125 -10.082031 14.765625 -10.941406 13.609375 -11.734375 C 12.453125 -12.523438 11.226562 -13.316406 9.9375 -14.109375 C 8.65625 -14.898438 7.4375 -15.75 6.28125 -16.65625 C 5.125 -17.5625 4.179688 -18.59375 3.453125 -19.75 C 2.734375 -20.90625 2.375 -22.257812 2.375 -23.8125 C 2.375 -25.132812 2.742188 -26.289062 3.484375 -27.28125 C 4.234375 -28.269531 5.21875 -29.039062 6.4375 -29.59375 C 7.65625 -30.15625 8.957031 -30.4375 10.34375 -30.4375 C 11.269531 -30.4375 12.0625 -30.351562 12.71875 -30.1875 C 13.382812 -30.03125 14.046875 -29.867188 14.703125 -29.703125 C 15.359375 -29.535156 16.117188 -29.453125 16.984375 -29.453125 C 17.273438 -29.453125 17.566406 -29.507812 17.859375 -29.625 C 18.160156 -29.738281 18.3125 -30.007812 18.3125 -30.4375 L 18.90625 -30.4375 L 18.90625 -20.59375 L 18.3125 -20.59375 L 18.3125 -22.96875 C 18.3125 -24.382812 18.070312 -25.535156 17.59375 -26.421875 C 17.113281 -27.316406 16.492188 -28.007812 15.734375 -28.5 C 14.984375 -29 14.171875 -29.347656 13.296875 -29.546875 C 12.421875 -29.742188 11.585938 -29.84375 10.796875 -29.84375 C 9.210938 -29.84375 7.847656 -29.347656 6.703125 -28.359375 C 5.566406 -27.367188 5 -26.066406 5 -24.453125 C 5 -23.265625 5.351562 -22.222656 6.0625 -21.328125 C 6.769531 -20.441406 7.6875 -19.625 8.8125 -18.875 C 9.9375 -18.132812 11.113281 -17.394531 12.34375 -16.65625 C 13.582031 -15.914062 14.765625 -15.128906 15.890625 -14.296875 C 17.015625 -13.472656 17.929688 -12.523438 18.640625 -11.453125 C 19.347656 -10.378906 19.703125 -9.117188 19.703125 -7.671875 C 19.703125 -6.117188 19.367188 -4.679688 18.703125 -3.359375 C 18.046875 -2.046875 17.082031 -0.992188 15.8125 -0.203125 C 14.539062 0.585938 13 0.984375 11.1875 0.984375 C 9.769531 0.984375 8.488281 0.734375 7.34375 0.234375 C 6.207031 -0.253906 5.273438 -0.742188 4.546875 -1.234375 C 3.828125 -1.734375 3.332031 -1.984375 3.0625 -1.984375 C 2.800781 -1.984375 2.644531 -1.882812 2.59375 -1.6875 C 2.550781 -1.488281 2.53125 -1.320312 2.53125 -1.1875 L 2.53125 0.984375 Z M 1.984375 0.984375 "/></g></g></g><g fill="#ffffff" fill-opacity="1"><g transform="translate(75.6257, 53.175893)"><g><path d="M 5.203125 -28.8125 L 2.46875 -28.8125 L 2.46875 -29.40625 C 3.757812 -29.40625 4.757812 -29.765625 5.46875 -30.484375 C 6.175781 -31.210938 6.6875 -32.117188 7 -33.203125 C 7.3125 -34.296875 7.5 -35.410156 7.5625 -36.546875 C 7.632812 -37.691406 7.671875 -38.691406 7.671875 -39.546875 L 8.265625 -39.546875 L 8.265625 -29.40625 L 12.53125 -29.40625 L 12.53125 -28.8125 L 8.265625 -28.8125 L 8.265625 -5.4375 C 8.265625 -4.644531 8.304688 -3.796875 8.390625 -2.890625 C 8.472656 -1.984375 8.695312 -1.21875 9.0625 -0.59375 C 9.425781 0.03125 10.003906 0.34375 10.796875 0.34375 C 10.953125 0.34375 11.128906 0.328125 11.328125 0.296875 C 11.523438 0.265625 11.707031 0.21875 11.875 0.15625 L 11.875 0.75 C 11.78125 0.78125 11.65625 0.828125 11.5 0.890625 C 11.351562 0.953125 11 0.984375 10.4375 0.984375 C 9.019531 0.984375 7.929688 0.546875 7.171875 -0.328125 C 6.410156 -1.203125 5.890625 -2.28125 5.609375 -3.5625 C 5.335938 -4.851562 5.203125 -6.109375 5.203125 -7.328125 Z M 5.203125 -28.8125 "/></g></g></g><g fill="#ffffff" fill-opacity="1"><g transform="translate(82.401105, 53.175893)"><g><path d="M 18.171875 0.984375 C 15.035156 0.984375 12.285156 0.332031 9.921875 -0.96875 C 7.566406 -2.269531 5.734375 -4.097656 4.421875 -6.453125 C 3.117188 -8.816406 2.46875 -11.566406 2.46875 -14.703125 C 2.46875 -17.835938 3.117188 -20.582031 4.421875 -22.9375 C 5.734375 -25.300781 7.566406 -27.132812 9.921875 -28.4375 C 12.285156 -29.738281 15.035156 -30.390625 18.171875 -30.390625 C 20.710938 -30.390625 22.804688 -30.019531 24.453125 -29.28125 C 26.097656 -28.539062 27.398438 -27.625 28.359375 -26.53125 C 29.316406 -25.445312 30.019531 -24.359375 30.46875 -23.265625 C 30.914062 -22.171875 31.203125 -21.253906 31.328125 -20.515625 C 31.460938 -19.773438 31.53125 -19.40625 31.53125 -19.40625 L 5.203125 -19.40625 C 5.128906 -18.976562 5.066406 -18.554688 5.015625 -18.140625 C 4.972656 -17.722656 4.953125 -17.285156 4.953125 -16.828125 C 4.953125 -13.960938 5.585938 -11.363281 6.859375 -9.03125 C 8.128906 -6.707031 9.925781 -4.851562 12.25 -3.46875 C 14.570312 -2.082031 17.300781 -1.390625 20.4375 -1.390625 C 22.976562 -1.390625 25.207031 -1.929688 27.125 -3.015625 C 29.039062 -4.109375 30.539062 -5.648438 31.625 -7.640625 C 32.71875 -9.640625 33.265625 -11.992188 33.265625 -14.703125 L 33.859375 -14.703125 C 33.859375 -11.566406 33.207031 -8.816406 31.90625 -6.453125 C 30.601562 -4.097656 28.769531 -2.269531 26.40625 -0.96875 C 24.050781 0.332031 21.304688 0.984375 18.171875 0.984375 Z M 5.296875 -20 L 28.171875 -20 C 28.128906 -21.914062 27.585938 -23.609375 26.546875 -25.078125 C 25.515625 -26.546875 24.179688 -27.695312 22.546875 -28.53125 C 20.910156 -29.375 19.171875 -29.796875 17.328125 -29.796875 C 15.378906 -29.796875 13.570312 -29.363281 11.90625 -28.5 C 10.238281 -27.644531 8.832031 -26.484375 7.6875 -25.015625 C 6.550781 -23.546875 5.753906 -21.875 5.296875 -20 Z M 5.296875 -20 "/></g></g></g><g fill="#ffffff" fill-opacity="1"><g transform="translate(108.525015, 53.175893)"><g/></g></g><g fill="#ffffff" fill-opacity="1"><g transform="translate(118.665356, 53.175893)"><g><path d="M 16.03125 0.984375 C 13.289062 0.984375 10.90625 0.410156 8.875 -0.734375 C 6.851562 -1.890625 5.28125 -3.445312 4.15625 -5.40625 C 3.03125 -7.375 2.46875 -9.53125 2.46875 -11.875 C 2.46875 -13.757812 2.832031 -15.519531 3.5625 -17.15625 C 4.289062 -18.789062 5.320312 -20.207031 6.65625 -21.40625 C 7.988281 -22.613281 9.582031 -23.5 11.4375 -24.0625 C 10.84375 -24.625 10.210938 -25.160156 9.546875 -25.671875 C 8.890625 -26.179688 8.195312 -26.648438 7.46875 -27.078125 C 8.625 -28.234375 9.976562 -29.070312 11.53125 -29.59375 C 13.082031 -30.125 14.816406 -30.390625 16.734375 -30.390625 C 19.734375 -30.390625 22.207031 -29.84375 24.15625 -28.75 C 26.101562 -27.664062 27.5625 -26.175781 28.53125 -24.28125 C 29.507812 -22.382812 30 -20.25 30 -17.875 L 30 -5.140625 C 30 -3.554688 30.226562 -2.398438 30.6875 -1.671875 C 31.15625 -0.953125 32.082031 -0.59375 33.46875 -0.59375 L 33.46875 0 L 29.65625 0 C 28.46875 0 27.664062 -0.398438 27.25 -1.203125 C 26.832031 -2.015625 26.625 -2.867188 26.625 -3.765625 L 26.625 -3.953125 C 25.507812 -2.535156 24.050781 -1.359375 22.25 -0.421875 C 20.445312 0.515625 18.375 0.984375 16.03125 0.984375 Z M 12.171875 -23.3125 C 10.097656 -22.457031 8.46875 -20.972656 7.28125 -18.859375 C 6.09375 -16.742188 5.5 -14.367188 5.5 -11.734375 C 5.5 -9.484375 5.9375 -7.441406 6.8125 -5.609375 C 7.6875 -3.785156 8.914062 -2.328125 10.5 -1.234375 C 12.082031 -0.148438 13.945312 0.390625 16.09375 0.390625 C 18.101562 0.390625 20.082031 -0.078125 22.03125 -1.015625 C 23.976562 -1.953125 25.507812 -3.28125 26.625 -5 L 26.625 -19.25 C 26.132812 -19.976562 25.453125 -20.710938 24.578125 -21.453125 C 23.703125 -22.203125 22.570312 -22.820312 21.1875 -23.3125 C 19.800781 -23.8125 18.101562 -24.0625 16.09375 -24.0625 C 14.832031 -24.0625 13.660156 -23.863281 12.578125 -23.46875 C 13.367188 -22.675781 14.203125 -21.722656 15.078125 -20.609375 C 15.953125 -19.503906 16.6875 -18.234375 17.28125 -16.796875 C 17.875 -15.367188 18.171875 -13.726562 18.171875 -11.875 C 18.171875 -10.125 17.804688 -8.710938 17.078125 -7.640625 C 16.347656 -6.566406 15.390625 -6.03125 14.203125 -6.03125 C 14.003906 -6.03125 13.859375 -6.082031 13.765625 -6.1875 C 14.054688 -6.25 14.445312 -6.507812 14.9375 -6.96875 C 15.4375 -7.4375 15.890625 -8.09375 16.296875 -8.9375 C 16.710938 -9.78125 16.921875 -10.796875 16.921875 -11.984375 C 16.921875 -14.222656 16.492188 -16.289062 15.640625 -18.1875 C 14.785156 -20.082031 13.628906 -21.789062 12.171875 -23.3125 Z M 16.828125 -29.796875 C 14.710938 -29.796875 13.164062 -29.484375 12.1875 -28.859375 C 11.21875 -28.234375 10.734375 -27.472656 10.734375 -26.578125 C 10.734375 -26.285156 10.789062 -25.945312 10.90625 -25.5625 C 11.03125 -25.1875 11.335938 -24.734375 11.828125 -24.203125 C 12.492188 -24.367188 13.179688 -24.5 13.890625 -24.59375 C 14.597656 -24.695312 15.3125 -24.75 16.03125 -24.75 C 18.34375 -24.75 20.378906 -24.359375 22.140625 -23.578125 C 23.910156 -22.804688 25.375 -21.742188 26.53125 -20.390625 C 26.53125 -21.972656 26.148438 -23.484375 25.390625 -24.921875 C 24.628906 -26.359375 23.53125 -27.53125 22.09375 -28.4375 C 20.664062 -29.34375 18.910156 -29.796875 16.828125 -29.796875 Z M 16.828125 -29.796875 "/></g></g></g><g fill="#ffffff" fill-opacity="1"><g transform="translate(145.383089, 53.175893)"><g><path d="M 0.984375 0 L 0.984375 -0.59375 L 3.265625 -0.59375 C 3.597656 -0.59375 3.953125 -0.664062 4.328125 -0.8125 C 4.710938 -0.96875 5.050781 -1.273438 5.34375 -1.734375 C 5.644531 -2.191406 5.796875 -2.867188 5.796875 -3.765625 L 5.796875 -23.5625 C 5.796875 -23.925781 5.757812 -24.328125 5.6875 -24.765625 C 5.625 -25.210938 5.414062 -25.601562 5.0625 -25.9375 C 4.71875 -26.269531 4.117188 -26.4375 3.265625 -26.4375 L 3.265625 -27.03125 C 5.015625 -27.03125 6.332031 -27.414062 7.21875 -28.1875 C 8.113281 -28.96875 8.5625 -29.71875 8.5625 -30.4375 L 9.15625 -30.4375 L 9.15625 -22.96875 C 9.6875 -24.320312 10.363281 -25.566406 11.1875 -26.703125 C 12.007812 -27.835938 12.972656 -28.742188 14.078125 -29.421875 C 15.179688 -30.097656 16.394531 -30.4375 17.71875 -30.4375 C 19.632812 -30.4375 21.1875 -29.925781 22.375 -28.90625 C 23.5625 -27.882812 24.15625 -26.019531 24.15625 -23.3125 L 24.15625 -3.765625 C 24.15625 -2.867188 24.300781 -2.191406 24.59375 -1.734375 C 24.894531 -1.273438 25.242188 -0.96875 25.640625 -0.8125 C 26.035156 -0.664062 26.382812 -0.59375 26.6875 -0.59375 L 28.953125 -0.59375 L 28.953125 0 L 15.984375 0 L 15.984375 -0.59375 L 18.265625 -0.59375 C 18.597656 -0.59375 18.953125 -0.664062 19.328125 -0.8125 C 19.710938 -0.96875 20.050781 -1.273438 20.34375 -1.734375 C 20.644531 -2.191406 20.796875 -2.867188 20.796875 -3.765625 L 20.796875 -25.140625 C 20.796875 -26.367188 20.585938 -27.457031 20.171875 -28.40625 C 19.753906 -29.363281 18.96875 -29.84375 17.8125 -29.84375 C 16.425781 -29.84375 15.207031 -29.488281 14.15625 -28.78125 C 13.101562 -28.070312 12.210938 -27.1875 11.484375 -26.125 C 10.753906 -25.070312 10.195312 -24 9.8125 -22.90625 C 9.4375 -21.820312 9.21875 -20.898438 9.15625 -20.140625 L 9.15625 -3.765625 C 9.15625 -2.867188 9.300781 -2.191406 9.59375 -1.734375 C 9.894531 -1.273438 10.242188 -0.96875 10.640625 -0.8125 C 11.035156 -0.664062 11.382812 -0.59375 11.6875 -0.59375 L 13.953125 -0.59375 L 13.953125 0 Z M 0.984375 0 "/></g></g></g><g fill="#ffffff" fill-opacity="1"><g transform="translate(167.597699, 53.175893)"><g><path d="M 23.609375 -28.8125 L 22.625 -28.8125 C 22 -28.8125 21.425781 -28.503906 20.90625 -27.890625 C 20.394531 -27.285156 19.941406 -26.503906 19.546875 -25.546875 C 19.148438 -24.585938 18.78125 -23.5625 18.4375 -22.46875 C 18.09375 -21.382812 17.753906 -20.347656 17.421875 -19.359375 C 17.328125 -19.054688 17.21875 -18.695312 17.09375 -18.28125 C 16.976562 -17.875 16.84375 -17.441406 16.6875 -16.984375 C 16.320312 -15.691406 15.890625 -14.210938 15.390625 -12.546875 C 14.898438 -10.878906 14.414062 -9.210938 13.9375 -7.546875 C 13.457031 -5.878906 13.019531 -4.40625 12.625 -3.125 C 12.488281 -2.625 12.347656 -2.109375 12.203125 -1.578125 C 12.054688 -1.054688 11.898438 -0.515625 11.734375 0.046875 C 11.460938 1.035156 11.113281 2.332031 10.6875 3.9375 C 10.257812 5.539062 9.710938 7.222656 9.046875 8.984375 C 8.390625 10.742188 7.609375 12.390625 6.703125 13.921875 C 5.796875 15.460938 4.738281 16.710938 3.53125 17.671875 C 2.332031 18.628906 0.972656 19.078125 -0.546875 19.015625 L -0.546875 14.75 C 1.660156 14.519531 3.53125 13.6875 5.0625 12.25 C 6.601562 10.8125 7.867188 9.019531 8.859375 6.875 C 9.847656 4.726562 10.59375 2.453125 11.09375 0.046875 C 11.09375 0.046875 10.984375 -0.332031 10.765625 -1.09375 C 10.546875 -1.851562 10.253906 -2.84375 9.890625 -4.0625 C 9.535156 -5.28125 9.140625 -6.625 8.703125 -8.09375 C 8.273438 -9.5625 7.847656 -11.03125 7.421875 -12.5 C 6.992188 -13.96875 6.613281 -15.300781 6.28125 -16.5 C 5.957031 -17.707031 5.695312 -18.660156 5.5 -19.359375 C 5.226562 -20.347656 4.921875 -21.394531 4.578125 -22.5 C 4.234375 -23.601562 3.84375 -24.632812 3.40625 -25.59375 C 2.976562 -26.550781 2.5 -27.328125 1.96875 -27.921875 C 1.445312 -28.515625 0.859375 -28.8125 0.203125 -28.8125 C -0.390625 -28.8125 -0.742188 -28.8125 -0.859375 -28.8125 C -0.984375 -28.8125 -1.003906 -28.8125 -0.921875 -28.8125 C -0.835938 -28.8125 -0.796875 -28.8125 -0.796875 -28.8125 L -0.796875 -29.40625 L 10.734375 -29.40625 L 10.734375 -28.8125 C 10.503906 -28.8125 10.347656 -28.8125 10.265625 -28.8125 C 10.179688 -28.8125 9.976562 -28.8125 9.65625 -28.8125 C 8.832031 -28.8125 8.3125 -28.332031 8.09375 -27.375 C 7.875 -26.414062 7.832031 -25.289062 7.96875 -24 C 8.03125 -23.28125 8.144531 -22.539062 8.3125 -21.78125 C 8.476562 -21.019531 8.660156 -20.296875 8.859375 -19.609375 C 9.117188 -18.710938 9.429688 -17.59375 9.796875 -16.25 C 10.160156 -14.914062 10.539062 -13.53125 10.9375 -12.09375 C 11.332031 -10.664062 11.695312 -9.363281 12.03125 -8.1875 C 12.363281 -7.019531 12.609375 -6.15625 12.765625 -5.59375 C 12.898438 -6.050781 13.09375 -6.722656 13.34375 -7.609375 C 13.59375 -8.503906 13.878906 -9.519531 14.203125 -10.65625 C 14.535156 -11.800781 14.863281 -12.96875 15.1875 -14.15625 C 15.519531 -15.34375 15.835938 -16.429688 16.140625 -17.421875 C 16.265625 -17.847656 16.375 -18.242188 16.46875 -18.609375 C 16.570312 -18.972656 16.660156 -19.304688 16.734375 -19.609375 C 16.960938 -20.554688 17.164062 -21.554688 17.34375 -22.609375 C 17.53125 -23.671875 17.640625 -24.671875 17.671875 -25.609375 C 17.703125 -26.554688 17.582031 -27.328125 17.3125 -27.921875 C 17.050781 -28.515625 16.59375 -28.8125 15.9375 -28.8125 C 15.601562 -28.8125 15.40625 -28.8125 15.34375 -28.8125 C 15.28125 -28.8125 15.113281 -28.8125 14.84375 -28.8125 L 14.84375 -29.40625 L 23.609375 -29.40625 Z M 23.609375 -28.8125 "/></g></g></g><g fill="#ffffff" fill-opacity="1"><g transform="translate(182.983439, 53.175893)"><g><path d="M 5.203125 -28.8125 L 2.46875 -28.8125 L 2.46875 -29.40625 C 3.757812 -29.40625 4.757812 -29.765625 5.46875 -30.484375 C 6.175781 -31.210938 6.6875 -32.117188 7 -33.203125 C 7.3125 -34.296875 7.5 -35.410156 7.5625 -36.546875 C 7.632812 -37.691406 7.671875 -38.691406 7.671875 -39.546875 L 8.265625 -39.546875 L 8.265625 -29.40625 L 12.53125 -29.40625 L 12.53125 -28.8125 L 8.265625 -28.8125 L 8.265625 -5.4375 C 8.265625 -4.644531 8.304688 -3.796875 8.390625 -2.890625 C 8.472656 -1.984375 8.695312 -1.21875 9.0625 -0.59375 C 9.425781 0.03125 10.003906 0.34375 10.796875 0.34375 C 10.953125 0.34375 11.128906 0.328125 11.328125 0.296875 C 11.523438 0.265625 11.707031 0.21875 11.875 0.15625 L 11.875 0.75 C 11.78125 0.78125 11.65625 0.828125 11.5 0.890625 C 11.351562 0.953125 11 0.984375 10.4375 0.984375 C 9.019531 0.984375 7.929688 0.546875 7.171875 -0.328125 C 6.410156 -1.203125 5.890625 -2.28125 5.609375 -3.5625 C 5.335938 -4.851562 5.203125 -6.109375 5.203125 -7.328125 Z M 5.203125 -28.8125 "/></g></g></g><g fill="#ffffff" fill-opacity="1"><g transform="translate(189.758844, 53.175893)"><g><path d="M 13.953125 0 L 0.984375 0 L 0.984375 -0.59375 L 3.265625 -0.59375 C 3.597656 -0.59375 3.953125 -0.664062 4.328125 -0.8125 C 4.710938 -0.96875 5.050781 -1.273438 5.34375 -1.734375 C 5.644531 -2.191406 5.796875 -2.867188 5.796875 -3.765625 L 5.796875 -43.609375 C 5.796875 -43.972656 5.757812 -44.375 5.6875 -44.8125 C 5.625 -45.257812 5.414062 -45.648438 5.0625 -45.984375 C 4.71875 -46.316406 4.117188 -46.484375 3.265625 -46.484375 L 3.265625 -47.078125 C 5.015625 -47.078125 6.332031 -47.460938 7.21875 -48.234375 C 8.113281 -49.015625 8.5625 -49.765625 8.5625 -50.484375 L 9.15625 -50.484375 L 9.15625 -23.265625 C 10.007812 -25.609375 11.238281 -27.390625 12.84375 -28.609375 C 14.445312 -29.828125 16.054688 -30.4375 17.671875 -30.4375 C 19.253906 -30.4375 20.523438 -30.109375 21.484375 -29.453125 C 22.441406 -28.796875 23.132812 -27.921875 23.5625 -26.828125 C 23.988281 -25.742188 24.203125 -24.539062 24.203125 -23.21875 L 24.203125 -3.765625 C 24.203125 -2.867188 24.347656 -2.191406 24.640625 -1.734375 C 24.941406 -1.273438 25.289062 -0.96875 25.6875 -0.8125 C 26.082031 -0.664062 26.429688 -0.59375 26.734375 -0.59375 L 29 -0.59375 L 29 0 L 16.03125 0 L 16.03125 -0.59375 L 18.3125 -0.59375 C 18.644531 -0.59375 19 -0.664062 19.375 -0.8125 C 19.757812 -0.96875 20.097656 -1.273438 20.390625 -1.734375 C 20.691406 -2.191406 20.84375 -2.867188 20.84375 -3.765625 L 20.84375 -24.59375 C 20.84375 -24.863281 20.832031 -25.28125 20.8125 -25.84375 C 20.800781 -26.40625 20.710938 -26.984375 20.546875 -27.578125 C 20.378906 -28.171875 20.054688 -28.679688 19.578125 -29.109375 C 19.097656 -29.535156 18.410156 -29.75 17.515625 -29.75 C 16.234375 -29.75 15.039062 -29.367188 13.9375 -28.609375 C 12.832031 -27.847656 11.875 -26.847656 11.0625 -25.609375 C 10.25 -24.378906 9.613281 -23.050781 9.15625 -21.625 L 9.15625 -3.765625 C 9.15625 -2.867188 9.300781 -2.191406 9.59375 -1.734375 C 9.894531 -1.273438 10.242188 -0.96875 10.640625 -0.8125 C 11.035156 -0.664062 11.382812 -0.59375 11.6875 -0.59375 L 13.953125 -0.59375 Z M 13.953125 0 "/></g></g></g><g fill="#ffffff" fill-opacity="1"><g transform="translate(212.022953, 53.175893)"><g><path d="M 0.984375 -0.59375 L 3.265625 -0.59375 C 3.597656 -0.59375 3.953125 -0.664062 4.328125 -0.8125 C 4.710938 -0.96875 5.050781 -1.273438 5.34375 -1.734375 C 5.644531 -2.191406 5.796875 -2.867188 5.796875 -3.765625 L 5.796875 -23.5625 C 5.796875 -23.925781 5.757812 -24.328125 5.6875 -24.765625 C 5.625 -25.210938 5.414062 -25.601562 5.0625 -25.9375 C 4.71875 -26.269531 4.117188 -26.4375 3.265625 -26.4375 L 3.265625 -27.03125 C 5.015625 -27.03125 6.332031 -27.414062 7.21875 -28.1875 C 8.113281 -28.96875 8.5625 -29.71875 8.5625 -30.4375 L 9.15625 -30.4375 L 9.15625 -3.765625 C 9.15625 -2.867188 9.300781 -2.191406 9.59375 -1.734375 C 9.894531 -1.273438 10.242188 -0.96875 10.640625 -0.8125 C 11.035156 -0.664062 11.382812 -0.59375 11.6875 -0.59375 L 13.953125 -0.59375 L 13.953125 0 L 0.984375 0 Z M 7.46875 -32.28125 C 6.8125 -32.28125 6.242188 -32.515625 5.765625 -32.984375 C 5.285156 -33.460938 5.046875 -34.035156 5.046875 -34.703125 C 5.046875 -35.359375 5.285156 -35.925781 5.765625 -36.40625 C 6.242188 -36.882812 6.8125 -37.125 7.46875 -37.125 C 8.132812 -37.125 8.707031 -36.882812 9.1875 -36.40625 C 9.664062 -35.925781 9.90625 -35.359375 9.90625 -34.703125 C 9.90625 -34.035156 9.664062 -33.460938 9.1875 -32.984375 C 8.707031 -32.515625 8.132812 -32.28125 7.46875 -32.28125 Z M 7.46875 -32.28125 "/></g></g></g><g fill="#ffffff" fill-opacity="1"><g transform="translate(219.243725, 53.175893)"><g><path d="M 0.984375 0 L 0.984375 -0.59375 L 3.265625 -0.59375 C 3.597656 -0.59375 3.953125 -0.664062 4.328125 -0.8125 C 4.710938 -0.96875 5.050781 -1.273438 5.34375 -1.734375 C 5.644531 -2.191406 5.796875 -2.867188 5.796875 -3.765625 L 5.796875 -23.5625 C 5.796875 -23.925781 5.757812 -24.328125 5.6875 -24.765625 C 5.625 -25.210938 5.414062 -25.601562 5.0625 -25.9375 C 4.71875 -26.269531 4.117188 -26.4375 3.265625 -26.4375 L 3.265625 -27.03125 C 5.015625 -27.03125 6.332031 -27.414062 7.21875 -28.1875 C 8.113281 -28.96875 8.5625 -29.71875 8.5625 -30.4375 L 9.15625 -30.4375 L 9.15625 -22.96875 C 9.6875 -24.320312 10.363281 -25.566406 11.1875 -26.703125 C 12.007812 -27.835938 12.972656 -28.742188 14.078125 -29.421875 C 15.179688 -30.097656 16.394531 -30.4375 17.71875 -30.4375 C 19.632812 -30.4375 21.1875 -29.925781 22.375 -28.90625 C 23.5625 -27.882812 24.15625 -26.019531 24.15625 -23.3125 L 24.15625 -3.765625 C 24.15625 -2.867188 24.300781 -2.191406 24.59375 -1.734375 C 24.894531 -1.273438 25.242188 -0.96875 25.640625 -0.8125 C 26.035156 -0.664062 26.382812 -0.59375 26.6875 -0.59375 L 28.953125 -0.59375 L 28.953125 0 L 15.984375 0 L 15.984375 -0.59375 L 18.265625 -0.59375 C 18.597656 -0.59375 18.953125 -0.664062 19.328125 -0.8125 C 19.710938 -0.96875 20.050781 -1.273438 20.34375 -1.734375 C 20.644531 -2.191406 20.796875 -2.867188 20.796875 -3.765625 L 20.796875 -25.140625 C 20.796875 -26.367188 20.585938 -27.457031 20.171875 -28.40625 C 19.753906 -29.363281 18.96875 -29.84375 17.8125 -29.84375 C 16.425781 -29.84375 15.207031 -29.488281 14.15625 -28.78125 C 13.101562 -28.070312 12.210938 -27.1875 11.484375 -26.125 C 10.753906 -25.070312 10.195312 -24 9.8125 -22.90625 C 9.4375 -21.820312 9.21875 -20.898438 9.15625 -20.140625 L 9.15625 -3.765625 C 9.15625 -2.867188 9.300781 -2.191406 9.59375 -1.734375 C 9.894531 -1.273438 10.242188 -0.96875 10.640625 -0.8125 C 11.035156 -0.664062 11.382812 -0.59375 11.6875 -0.59375 L 13.953125 -0.59375 L 13.953125 0 Z M 0.984375 0 "/></g></g></g><g fill="#ffffff" fill-opacity="1"><g transform="translate(241.458335, 53.175893)"><g><path d="M -1.734375 14.25 C -1.734375 12.007812 -0.957031 9.988281 0.59375 8.1875 C 2.144531 6.394531 4.234375 4.828125 6.859375 3.484375 C 9.484375 2.148438 12.394531 1.085938 15.59375 0.296875 C 14.007812 0.265625 12.554688 0.171875 11.234375 0.015625 C 9.910156 -0.128906 8.851562 -0.429688 8.0625 -0.890625 C 7.269531 -1.347656 6.875 -2.039062 6.875 -2.96875 C 6.875 -3.59375 7.179688 -4.242188 7.796875 -4.921875 C 8.410156 -5.597656 9.289062 -6.179688 10.4375 -6.671875 C 11.59375 -7.171875 12.984375 -7.421875 14.609375 -7.421875 C 12.160156 -7.617188 10.019531 -8.21875 8.1875 -9.21875 C 6.351562 -10.226562 4.929688 -11.554688 3.921875 -13.203125 C 2.921875 -14.859375 2.421875 -16.757812 2.421875 -18.90625 C 2.421875 -21.21875 3 -23.226562 4.15625 -24.9375 C 5.3125 -26.65625 6.9375 -27.992188 9.03125 -28.953125 C 11.125 -29.910156 13.554688 -30.390625 16.328125 -30.390625 C 18.210938 -30.390625 20.046875 -30.144531 21.828125 -29.65625 C 22.085938 -29.582031 22.328125 -29.519531 22.546875 -29.46875 C 22.765625 -29.425781 23.035156 -29.40625 23.359375 -29.40625 L 32.515625 -29.40625 L 32.515625 -28.8125 L 24 -28.8125 C 25.988281 -27.851562 27.535156 -26.523438 28.640625 -24.828125 C 29.742188 -23.128906 30.296875 -21.15625 30.296875 -18.90625 C 30.296875 -16.59375 29.71875 -14.570312 28.5625 -12.84375 C 27.40625 -11.113281 25.78125 -9.769531 23.6875 -8.8125 C 21.59375 -7.851562 19.140625 -7.375 16.328125 -7.375 C 15.929688 -7.375 15.304688 -7.316406 14.453125 -7.203125 C 13.597656 -7.085938 12.695312 -6.90625 11.75 -6.65625 C 10.8125 -6.40625 10.007812 -6.066406 9.34375 -5.640625 C 8.6875 -5.210938 8.359375 -4.6875 8.359375 -4.0625 C 8.359375 -3.53125 8.6875 -3.179688 9.34375 -3.015625 C 10.007812 -2.847656 10.890625 -2.765625 11.984375 -2.765625 C 13.265625 -2.765625 14.753906 -2.820312 16.453125 -2.9375 C 18.160156 -3.0625 19.882812 -3.125 21.625 -3.125 C 23.175781 -3.125 24.675781 -3.023438 26.125 -2.828125 C 27.582031 -2.628906 28.890625 -2.269531 30.046875 -1.75 C 31.203125 -1.238281 32.117188 -0.488281 32.796875 0.5 C 33.472656 1.488281 33.8125 2.773438 33.8125 4.359375 C 33.8125 5.878906 33.414062 7.445312 32.625 9.0625 C 31.832031 10.675781 30.71875 12.238281 29.28125 13.75 C 27.84375 15.269531 26.132812 16.632812 24.15625 17.84375 C 22.175781 19.050781 19.988281 20.007812 17.59375 20.71875 C 15.207031 21.425781 12.691406 21.78125 10.046875 21.78125 C 7.773438 21.78125 5.742188 21.457031 3.953125 20.8125 C 2.171875 20.164062 0.78125 19.273438 -0.21875 18.140625 C -1.226562 17.003906 -1.734375 15.707031 -1.734375 14.25 Z M 1.578125 13.421875 C 1.578125 14.804688 2.019531 16.023438 2.90625 17.078125 C 3.800781 18.128906 5.039062 18.941406 6.625 19.515625 C 8.21875 20.097656 10.035156 20.390625 12.078125 20.390625 C 13.492188 20.390625 15.078125 20.175781 16.828125 19.75 C 18.578125 19.320312 20.34375 18.691406 22.125 17.859375 C 23.90625 17.035156 25.535156 16.03125 27.015625 14.84375 C 28.503906 13.65625 29.703125 12.285156 30.609375 10.734375 C 31.523438 9.191406 31.984375 7.476562 31.984375 5.59375 C 31.984375 4.207031 31.5625 3.140625 30.71875 2.390625 C 29.875 1.648438 28.765625 1.128906 27.390625 0.828125 C 26.023438 0.535156 24.523438 0.375 22.890625 0.34375 C 21.253906 0.3125 19.660156 0.296875 18.109375 0.296875 C 14.910156 0.828125 12.066406 1.675781 9.578125 2.84375 C 7.085938 4.019531 5.128906 5.488281 3.703125 7.25 C 2.285156 9.019531 1.578125 11.078125 1.578125 13.421875 Z M 16.328125 -29.796875 C 14.484375 -29.796875 12.757812 -29.34375 11.15625 -28.4375 C 9.5625 -27.53125 8.269531 -26.257812 7.28125 -24.625 C 6.289062 -22.988281 5.796875 -21.082031 5.796875 -18.90625 C 5.796875 -16.726562 6.289062 -14.820312 7.28125 -13.1875 C 8.269531 -11.550781 9.5625 -10.269531 11.15625 -9.34375 C 12.757812 -8.425781 14.484375 -7.96875 16.328125 -7.96875 C 18.179688 -7.96875 19.90625 -8.425781 21.5 -9.34375 C 23.101562 -10.269531 24.398438 -11.550781 25.390625 -13.1875 C 26.378906 -14.820312 26.875 -16.726562 26.875 -18.90625 C 26.875 -21.082031 26.378906 -22.988281 25.390625 -24.625 C 24.398438 -26.257812 23.101562 -27.53125 21.5 -28.4375 C 19.90625 -29.34375 18.179688 -29.796875 16.328125 -29.796875 Z M 16.328125 -29.796875 "/></g></g></g><g fill="#ffffff" fill-opacity="1"><g transform="translate(3.093149, 108.877287)"><g><path d="M -0.984375 -29.40625 L 10.546875 -29.40625 L 10.546875 -28.8125 L 9.453125 -28.8125 C 8.628906 -28.8125 8.109375 -28.503906 7.890625 -27.890625 C 7.679688 -27.285156 7.640625 -26.320312 7.765625 -25 C 7.835938 -24.300781 7.953125 -23.5625 8.109375 -22.78125 C 8.273438 -22.007812 8.457031 -21.28125 8.65625 -20.59375 C 8.925781 -19.695312 9.238281 -18.546875 9.59375 -17.140625 C 9.957031 -15.742188 10.335938 -14.273438 10.734375 -12.734375 C 11.128906 -11.203125 11.492188 -9.816406 11.828125 -8.578125 C 12.160156 -7.347656 12.410156 -6.453125 12.578125 -5.890625 C 12.703125 -6.347656 12.894531 -7.054688 13.15625 -8.015625 C 13.425781 -8.972656 13.722656 -10.070312 14.046875 -11.3125 C 14.378906 -12.550781 14.710938 -13.796875 15.046875 -15.046875 C 15.378906 -16.296875 15.675781 -17.414062 15.9375 -18.40625 C 16.070312 -18.875 16.1875 -19.28125 16.28125 -19.625 C 16.382812 -19.96875 16.46875 -20.289062 16.53125 -20.59375 C 16.863281 -21.84375 17.128906 -23.101562 17.328125 -24.375 C 17.523438 -25.644531 17.53125 -26.703125 17.34375 -27.546875 C 17.164062 -28.390625 16.628906 -28.8125 15.734375 -28.8125 L 14.65625 -28.8125 L 14.65625 -29.40625 L 24.5 -29.40625 L 24.5 -28.8125 L 23.40625 -28.8125 C 22.582031 -28.8125 22.0625 -28.503906 21.84375 -27.890625 C 21.632812 -27.285156 21.597656 -26.320312 21.734375 -25 C 21.796875 -24.300781 21.910156 -23.5625 22.078125 -22.78125 C 22.242188 -22.007812 22.425781 -21.28125 22.625 -20.59375 C 22.882812 -19.695312 23.195312 -18.546875 23.5625 -17.140625 C 23.925781 -15.742188 24.304688 -14.273438 24.703125 -12.734375 C 25.097656 -11.203125 25.457031 -9.816406 25.78125 -8.578125 C 26.113281 -7.347656 26.363281 -6.453125 26.53125 -5.890625 C 26.664062 -6.347656 26.863281 -7.054688 27.125 -8.015625 C 27.382812 -8.972656 27.679688 -10.070312 28.015625 -11.3125 C 28.347656 -12.550781 28.675781 -13.796875 29 -15.046875 C 29.332031 -16.296875 29.628906 -17.414062 29.890625 -18.40625 C 30.023438 -18.875 30.140625 -19.28125 30.234375 -19.625 C 30.335938 -19.96875 30.421875 -20.289062 30.484375 -20.59375 C 30.816406 -21.84375 31.082031 -23.101562 31.28125 -24.375 C 31.476562 -25.644531 31.484375 -26.703125 31.296875 -27.546875 C 31.117188 -28.390625 30.585938 -28.8125 29.703125 -28.8125 L 28.609375 -28.8125 L 28.609375 -29.40625 L 37.375 -29.40625 L 37.375 -28.8125 L 36.375 -28.8125 C 35.519531 -28.8125 34.78125 -28.375 34.15625 -27.5 C 33.53125 -26.625 32.976562 -25.539062 32.5 -24.25 C 32.019531 -22.96875 31.582031 -21.664062 31.1875 -20.34375 C 31.082031 -20.007812 30.972656 -19.65625 30.859375 -19.28125 C 30.742188 -18.90625 30.601562 -18.46875 30.4375 -17.96875 C 29.550781 -14.96875 28.710938 -11.804688 27.921875 -8.484375 C 27.128906 -5.171875 26.335938 -2.015625 25.546875 0.984375 L 24.953125 0.984375 C 24.953125 0.984375 24.816406 0.515625 24.546875 -0.421875 C 24.285156 -1.359375 23.941406 -2.601562 23.515625 -4.15625 C 23.085938 -5.707031 22.613281 -7.40625 22.09375 -9.25 C 21.582031 -11.101562 21.078125 -12.953125 20.578125 -14.796875 C 20.085938 -16.648438 19.628906 -18.347656 19.203125 -19.890625 C 18.773438 -21.441406 18.445312 -22.664062 18.21875 -23.5625 C 17.914062 -22.632812 17.613281 -21.703125 17.3125 -20.765625 C 17.019531 -19.828125 16.742188 -18.894531 16.484375 -17.96875 C 15.585938 -14.96875 14.742188 -11.804688 13.953125 -8.484375 C 13.160156 -5.171875 12.335938 -2.015625 11.484375 0.984375 L 10.9375 0.984375 C 10.9375 0.984375 10.820312 0.566406 10.59375 -0.265625 C 10.363281 -1.109375 10.066406 -2.222656 9.703125 -3.609375 C 9.335938 -4.992188 8.941406 -6.492188 8.515625 -8.109375 C 8.085938 -9.734375 7.65625 -11.351562 7.21875 -12.96875 C 6.789062 -14.582031 6.40625 -16.039062 6.0625 -17.34375 C 5.71875 -18.65625 5.445312 -19.65625 5.25 -20.34375 C 4.914062 -21.664062 4.5 -22.976562 4 -24.28125 C 3.507812 -25.582031 2.929688 -26.660156 2.265625 -27.515625 C 1.609375 -28.378906 0.851562 -28.8125 0 -28.8125 L -0.984375 -28.8125 Z M -0.984375 -29.40625 "/></g></g></g><g fill="#ffffff" fill-opacity="1"><g transform="translate(32.235627, 108.877287)"><g><path d="M 18.171875 0.984375 C 15.035156 0.984375 12.285156 0.332031 9.921875 -0.96875 C 7.566406 -2.269531 5.734375 -4.097656 4.421875 -6.453125 C 3.117188 -8.816406 2.46875 -11.566406 2.46875 -14.703125 C 2.46875 -17.835938 3.117188 -20.582031 4.421875 -22.9375 C 5.734375 -25.300781 7.566406 -27.132812 9.921875 -28.4375 C 12.285156 -29.738281 15.035156 -30.390625 18.171875 -30.390625 C 20.710938 -30.390625 22.804688 -30.019531 24.453125 -29.28125 C 26.097656 -28.539062 27.398438 -27.625 28.359375 -26.53125 C 29.316406 -25.445312 30.019531 -24.359375 30.46875 -23.265625 C 30.914062 -22.171875 31.203125 -21.253906 31.328125 -20.515625 C 31.460938 -19.773438 31.53125 -19.40625 31.53125 -19.40625 L 5.203125 -19.40625 C 5.128906 -18.976562 5.066406 -18.554688 5.015625 -18.140625 C 4.972656 -17.722656 4.953125 -17.285156 4.953125 -16.828125 C 4.953125 -13.960938 5.585938 -11.363281 6.859375 -9.03125 C 8.128906 -6.707031 9.925781 -4.851562 12.25 -3.46875 C 14.570312 -2.082031 17.300781 -1.390625 20.4375 -1.390625 C 22.976562 -1.390625 25.207031 -1.929688 27.125 -3.015625 C 29.039062 -4.109375 30.539062 -5.648438 31.625 -7.640625 C 32.71875 -9.640625 33.265625 -11.992188 33.265625 -14.703125 L 33.859375 -14.703125 C 33.859375 -11.566406 33.207031 -8.816406 31.90625 -6.453125 C 30.601562 -4.097656 28.769531 -2.269531 26.40625 -0.96875 C 24.050781 0.332031 21.304688 0.984375 18.171875 0.984375 Z M 5.296875 -20 L 28.171875 -20 C 28.128906 -21.914062 27.585938 -23.609375 26.546875 -25.078125 C 25.515625 -26.546875 24.179688 -27.695312 22.546875 -28.53125 C 20.910156 -29.375 19.171875 -29.796875 17.328125 -29.796875 C 15.378906 -29.796875 13.570312 -29.363281 11.90625 -28.5 C 10.238281 -27.644531 8.832031 -26.484375 7.6875 -25.015625 C 6.550781 -23.546875 5.753906 -21.875 5.296875 -20 Z M 5.296875 -20 "/></g></g></g><g fill="#ffffff" fill-opacity="1"><g transform="translate(58.359537, 108.877287)"><g><path d="M 3.609375 -46.1875 C 3.015625 -46.1875 2.507812 -46.390625 2.09375 -46.796875 C 1.6875 -47.210938 1.484375 -47.734375 1.484375 -48.359375 C 1.484375 -48.953125 1.6875 -49.453125 2.09375 -49.859375 C 2.507812 -50.273438 3.015625 -50.484375 3.609375 -50.484375 C 4.367188 -50.484375 4.9375 -50.21875 5.3125 -49.6875 C 5.695312 -49.164062 5.910156 -48.507812 5.953125 -47.71875 C 6.003906 -46.925781 5.914062 -46.117188 5.6875 -45.296875 C 5.457031 -44.472656 5.117188 -43.726562 4.671875 -43.0625 C 4.234375 -42.40625 3.695312 -41.976562 3.0625 -41.78125 L 2.875 -42.125 C 3.300781 -42.382812 3.695312 -42.820312 4.0625 -43.4375 C 4.425781 -44.050781 4.609375 -44.65625 4.609375 -45.25 C 4.609375 -45.675781 4.554688 -46.035156 4.453125 -46.328125 C 4.160156 -46.234375 3.878906 -46.1875 3.609375 -46.1875 Z M 3.609375 -46.1875 "/></g></g></g><g fill="#ffffff" fill-opacity="1"><g transform="translate(58.602943, 108.877287)"><g><path d="M 0.984375 -0.59375 L 3.265625 -0.59375 C 3.597656 -0.59375 3.953125 -0.664062 4.328125 -0.8125 C 4.710938 -0.96875 5.050781 -1.273438 5.34375 -1.734375 C 5.644531 -2.191406 5.796875 -2.867188 5.796875 -3.765625 L 5.796875 -43.609375 C 5.796875 -43.972656 5.757812 -44.375 5.6875 -44.8125 C 5.625 -45.257812 5.414062 -45.648438 5.0625 -45.984375 C 4.71875 -46.316406 4.117188 -46.484375 3.265625 -46.484375 L 3.265625 -47.078125 C 5.015625 -47.078125 6.332031 -47.460938 7.21875 -48.234375 C 8.113281 -49.015625 8.5625 -49.765625 8.5625 -50.484375 L 9.15625 -50.484375 L 9.15625 -3.765625 C 9.15625 -2.867188 9.300781 -2.191406 9.59375 -1.734375 C 9.894531 -1.273438 10.242188 -0.96875 10.640625 -0.8125 C 11.035156 -0.664062 11.382812 -0.59375 11.6875 -0.59375 L 13.953125 -0.59375 L 13.953125 0 L 0.984375 0 Z M 0.984375 -0.59375 "/></g></g></g><g fill="#ffffff" fill-opacity="1"><g transform="translate(65.823714, 108.877287)"><g><path d="M 0.984375 -0.59375 L 3.265625 -0.59375 C 3.597656 -0.59375 3.953125 -0.664062 4.328125 -0.8125 C 4.710938 -0.96875 5.050781 -1.273438 5.34375 -1.734375 C 5.644531 -2.191406 5.796875 -2.867188 5.796875 -3.765625 L 5.796875 -43.609375 C 5.796875 -43.972656 5.757812 -44.375 5.6875 -44.8125 C 5.625 -45.257812 5.414062 -45.648438 5.0625 -45.984375 C 4.71875 -46.316406 4.117188 -46.484375 3.265625 -46.484375 L 3.265625 -47.078125 C 5.015625 -47.078125 6.332031 -47.460938 7.21875 -48.234375 C 8.113281 -49.015625 8.5625 -49.765625 8.5625 -50.484375 L 9.15625 -50.484375 L 9.15625 -3.765625 C 9.15625 -2.867188 9.300781 -2.191406 9.59375 -1.734375 C 9.894531 -1.273438 10.242188 -0.96875 10.640625 -0.8125 C 11.035156 -0.664062 11.382812 -0.59375 11.6875 -0.59375 L 13.953125 -0.59375 L 13.953125 0 L 0.984375 0 Z M 0.984375 -0.59375 "/></g></g></g><g fill="#ffffff" fill-opacity="1"><g transform="translate(73.044485, 108.877287)"><g/></g></g><g fill="#ffffff" fill-opacity="1"><g transform="translate(83.184827, 108.877287)"><g><path d="M 5.203125 -28.8125 L 2.46875 -28.8125 L 2.46875 -29.40625 C 3.757812 -29.40625 4.757812 -29.765625 5.46875 -30.484375 C 6.175781 -31.210938 6.6875 -32.117188 7 -33.203125 C 7.3125 -34.296875 7.5 -35.410156 7.5625 -36.546875 C 7.632812 -37.691406 7.671875 -38.691406 7.671875 -39.546875 L 8.265625 -39.546875 L 8.265625 -29.40625 L 12.53125 -29.40625 L 12.53125 -28.8125 L 8.265625 -28.8125 L 8.265625 -5.4375 C 8.265625 -4.644531 8.304688 -3.796875 8.390625 -2.890625 C 8.472656 -1.984375 8.695312 -1.21875 9.0625 -0.59375 C 9.425781 0.03125 10.003906 0.34375 10.796875 0.34375 C 10.953125 0.34375 11.128906 0.328125 11.328125 0.296875 C 11.523438 0.265625 11.707031 0.21875 11.875 0.15625 L 11.875 0.75 C 11.78125 0.78125 11.65625 0.828125 11.5 0.890625 C 11.351562 0.953125 11 0.984375 10.4375 0.984375 C 9.019531 0.984375 7.929688 0.546875 7.171875 -0.328125 C 6.410156 -1.203125 5.890625 -2.28125 5.609375 -3.5625 C 5.335938 -4.851562 5.203125 -6.109375 5.203125 -7.328125 Z M 5.203125 -28.8125 "/></g></g></g><g fill="#ffffff" fill-opacity="1"><g transform="translate(89.960232, 108.877287)"><g><path d="M 18.171875 0.984375 C 15.035156 0.984375 12.285156 0.332031 9.921875 -0.96875 C 7.566406 -2.269531 5.734375 -4.097656 4.421875 -6.453125 C 3.117188 -8.816406 2.46875 -11.566406 2.46875 -14.703125 C 2.46875 -17.835938 3.117188 -20.582031 4.421875 -22.9375 C 5.734375 -25.300781 7.566406 -27.132812 9.921875 -28.4375 C 12.285156 -29.738281 15.035156 -30.390625 18.171875 -30.390625 C 20.710938 -30.390625 22.804688 -30.019531 24.453125 -29.28125 C 26.097656 -28.539062 27.398438 -27.625 28.359375 -26.53125 C 29.316406 -25.445312 30.019531 -24.359375 30.46875 -23.265625 C 30.914062 -22.171875 31.203125 -21.253906 31.328125 -20.515625 C 31.460938 -19.773438 31.53125 -19.40625 31.53125 -19.40625 L 5.203125 -19.40625 C 5.128906 -18.976562 5.066406 -18.554688 5.015625 -18.140625 C 4.972656 -17.722656 4.953125 -17.285156 4.953125 -16.828125 C 4.953125 -13.960938 5.585938 -11.363281 6.859375 -9.03125 C 8.128906 -6.707031 9.925781 -4.851562 12.25 -3.46875 C 14.570312 -2.082031 17.300781 -1.390625 20.4375 -1.390625 C 22.976562 -1.390625 25.207031 -1.929688 27.125 -3.015625 C 29.039062 -4.109375 30.539062 -5.648438 31.625 -7.640625 C 32.71875 -9.640625 33.265625 -11.992188 33.265625 -14.703125 L 33.859375 -14.703125 C 33.859375 -11.566406 33.207031 -8.816406 31.90625 -6.453125 C 30.601562 -4.097656 28.769531 -2.269531 26.40625 -0.96875 C 24.050781 0.332031 21.304688 0.984375 18.171875 0.984375 Z M 5.296875 -20 L 28.171875 -20 C 28.128906 -21.914062 27.585938 -23.609375 26.546875 -25.078125 C 25.515625 -26.546875 24.179688 -27.695312 22.546875 -28.53125 C 20.910156 -29.375 19.171875 -29.796875 17.328125 -29.796875 C 15.378906 -29.796875 13.570312 -29.363281 11.90625 -28.5 C 10.238281 -27.644531 8.832031 -26.484375 7.6875 -25.015625 C 6.550781 -23.546875 5.753906 -21.875 5.296875 -20 Z M 5.296875 -20 "/></g></g></g><g fill="#ffffff" fill-opacity="1"><g transform="translate(116.084142, 108.877287)"><g><path d="M 0.984375 -0.59375 L 3.265625 -0.59375 C 3.597656 -0.59375 3.953125 -0.664062 4.328125 -0.8125 C 4.710938 -0.96875 5.050781 -1.273438 5.34375 -1.734375 C 5.644531 -2.191406 5.796875 -2.867188 5.796875 -3.765625 L 5.796875 -43.609375 C 5.796875 -43.972656 5.757812 -44.375 5.6875 -44.8125 C 5.625 -45.257812 5.414062 -45.648438 5.0625 -45.984375 C 4.71875 -46.316406 4.117188 -46.484375 3.265625 -46.484375 L 3.265625 -47.078125 C 5.015625 -47.078125 6.332031 -47.460938 7.21875 -48.234375 C 8.113281 -49.015625 8.5625 -49.765625 8.5625 -50.484375 L 9.15625 -50.484375 L 9.15625 -3.765625 C 9.15625 -2.867188 9.300781 -2.191406 9.59375 -1.734375 C 9.894531 -1.273438 10.242188 -0.96875 10.640625 -0.8125 C 11.035156 -0.664062 11.382812 -0.59375 11.6875 -0.59375 L 13.953125 -0.59375 L 13.953125 0 L 0.984375 0 Z M 0.984375 -0.59375 "/></g></g></g><g fill="#ffffff" fill-opacity="1"><g transform="translate(123.304913, 108.877287)"><g><path d="M 0.984375 -0.59375 L 3.265625 -0.59375 C 3.597656 -0.59375 3.953125 -0.664062 4.328125 -0.8125 C 4.710938 -0.96875 5.050781 -1.273438 5.34375 -1.734375 C 5.644531 -2.191406 5.796875 -2.867188 5.796875 -3.765625 L 5.796875 -43.609375 C 5.796875 -43.972656 5.757812 -44.375 5.6875 -44.8125 C 5.625 -45.257812 5.414062 -45.648438 5.0625 -45.984375 C 4.71875 -46.316406 4.117188 -46.484375 3.265625 -46.484375 L 3.265625 -47.078125 C 5.015625 -47.078125 6.332031 -47.460938 7.21875 -48.234375 C 8.113281 -49.015625 8.5625 -49.765625 8.5625 -50.484375 L 9.15625 -50.484375 L 9.15625 -3.765625 C 9.15625 -2.867188 9.300781 -2.191406 9.59375 -1.734375 C 9.894531 -1.273438 10.242188 -0.96875 10.640625 -0.8125 C 11.035156 -0.664062 11.382812 -0.59375 11.6875 -0.59375 L 13.953125 -0.59375 L 13.953125 0 L 0.984375 0 Z M 0.984375 -0.59375 "/></g></g></g><g fill="#ffffff" fill-opacity="1"><g transform="translate(130.525685, 108.877287)"><g/></g></g><g fill="#ffffff" fill-opacity="1"><g transform="translate(140.666026, 108.877287)"><g><path d="M 23.609375 -28.8125 L 22.625 -28.8125 C 22 -28.8125 21.425781 -28.503906 20.90625 -27.890625 C 20.394531 -27.285156 19.941406 -26.503906 19.546875 -25.546875 C 19.148438 -24.585938 18.78125 -23.5625 18.4375 -22.46875 C 18.09375 -21.382812 17.753906 -20.347656 17.421875 -19.359375 C 17.328125 -19.054688 17.21875 -18.695312 17.09375 -18.28125 C 16.976562 -17.875 16.84375 -17.441406 16.6875 -16.984375 C 16.320312 -15.691406 15.890625 -14.210938 15.390625 -12.546875 C 14.898438 -10.878906 14.414062 -9.210938 13.9375 -7.546875 C 13.457031 -5.878906 13.019531 -4.40625 12.625 -3.125 C 12.488281 -2.625 12.347656 -2.109375 12.203125 -1.578125 C 12.054688 -1.054688 11.898438 -0.515625 11.734375 0.046875 C 11.460938 1.035156 11.113281 2.332031 10.6875 3.9375 C 10.257812 5.539062 9.710938 7.222656 9.046875 8.984375 C 8.390625 10.742188 7.609375 12.390625 6.703125 13.921875 C 5.796875 15.460938 4.738281 16.710938 3.53125 17.671875 C 2.332031 18.628906 0.972656 19.078125 -0.546875 19.015625 L -0.546875 14.75 C 1.660156 14.519531 3.53125 13.6875 5.0625 12.25 C 6.601562 10.8125 7.867188 9.019531 8.859375 6.875 C 9.847656 4.726562 10.59375 2.453125 11.09375 0.046875 C 11.09375 0.046875 10.984375 -0.332031 10.765625 -1.09375 C 10.546875 -1.851562 10.253906 -2.84375 9.890625 -4.0625 C 9.535156 -5.28125 9.140625 -6.625 8.703125 -8.09375 C 8.273438 -9.5625 7.847656 -11.03125 7.421875 -12.5 C 6.992188 -13.96875 6.613281 -15.300781 6.28125 -16.5 C 5.957031 -17.707031 5.695312 -18.660156 5.5 -19.359375 C 5.226562 -20.347656 4.921875 -21.394531 4.578125 -22.5 C 4.234375 -23.601562 3.84375 -24.632812 3.40625 -25.59375 C 2.976562 -26.550781 2.5 -27.328125 1.96875 -27.921875 C 1.445312 -28.515625 0.859375 -28.8125 0.203125 -28.8125 C -0.390625 -28.8125 -0.742188 -28.8125 -0.859375 -28.8125 C -0.984375 -28.8125 -1.003906 -28.8125 -0.921875 -28.8125 C -0.835938 -28.8125 -0.796875 -28.8125 -0.796875 -28.8125 L -0.796875 -29.40625 L 10.734375 -29.40625 L 10.734375 -28.8125 C 10.503906 -28.8125 10.347656 -28.8125 10.265625 -28.8125 C 10.179688 -28.8125 9.976562 -28.8125 9.65625 -28.8125 C 8.832031 -28.8125 8.3125 -28.332031 8.09375 -27.375 C 7.875 -26.414062 7.832031 -25.289062 7.96875 -24 C 8.03125 -23.28125 8.144531 -22.539062 8.3125 -21.78125 C 8.476562 -21.019531 8.660156 -20.296875 8.859375 -19.609375 C 9.117188 -18.710938 9.429688 -17.59375 9.796875 -16.25 C 10.160156 -14.914062 10.539062 -13.53125 10.9375 -12.09375 C 11.332031 -10.664062 11.695312 -9.363281 12.03125 -8.1875 C 12.363281 -7.019531 12.609375 -6.15625 12.765625 -5.59375 C 12.898438 -6.050781 13.09375 -6.722656 13.34375 -7.609375 C 13.59375 -8.503906 13.878906 -9.519531 14.203125 -10.65625 C 14.535156 -11.800781 14.863281 -12.96875 15.1875 -14.15625 C 15.519531 -15.34375 15.835938 -16.429688 16.140625 -17.421875 C 16.265625 -17.847656 16.375 -18.242188 16.46875 -18.609375 C 16.570312 -18.972656 16.660156 -19.304688 16.734375 -19.609375 C 16.960938 -20.554688 17.164062 -21.554688 17.34375 -22.609375 C 17.53125 -23.671875 17.640625 -24.671875 17.671875 -25.609375 C 17.703125 -26.554688 17.582031 -27.328125 17.3125 -27.921875 C 17.050781 -28.515625 16.59375 -28.8125 15.9375 -28.8125 C 15.601562 -28.8125 15.40625 -28.8125 15.34375 -28.8125 C 15.28125 -28.8125 15.113281 -28.8125 14.84375 -28.8125 L 14.84375 -29.40625 L 23.609375 -29.40625 Z M 23.609375 -28.8125 "/></g></g></g><g fill="#ffffff" fill-opacity="1"><g transform="translate(156.051766, 108.877287)"><g><path d="M 18.171875 0.984375 C 15.992188 0.984375 13.953125 0.582031 12.046875 -0.21875 C 10.148438 -1.03125 8.484375 -2.148438 7.046875 -3.578125 C 5.617188 -5.015625 4.5 -6.679688 3.6875 -8.578125 C 2.875 -10.484375 2.46875 -12.523438 2.46875 -14.703125 C 2.46875 -16.878906 2.875 -18.914062 3.6875 -20.8125 C 4.5 -22.707031 5.617188 -24.375 7.046875 -25.8125 C 8.484375 -27.25 10.148438 -28.367188 12.046875 -29.171875 C 13.953125 -29.984375 15.992188 -30.390625 18.171875 -30.390625 C 20.347656 -30.390625 22.382812 -29.984375 24.28125 -29.171875 C 26.175781 -28.367188 27.84375 -27.25 29.28125 -25.8125 C 30.71875 -24.375 31.835938 -22.707031 32.640625 -20.8125 C 33.453125 -18.914062 33.859375 -16.878906 33.859375 -14.703125 C 33.859375 -12.523438 33.453125 -10.484375 32.640625 -8.578125 C 31.835938 -6.679688 30.71875 -5.015625 29.28125 -3.578125 C 27.84375 -2.148438 26.175781 -1.03125 24.28125 -0.21875 C 22.382812 0.582031 20.347656 0.984375 18.171875 0.984375 Z M 4.609375 -18.21875 C 4.609375 -15.96875 4.984375 -13.820312 5.734375 -11.78125 C 6.492188 -9.738281 7.582031 -7.921875 9 -6.328125 C 10.425781 -4.742188 12.144531 -3.488281 14.15625 -2.5625 C 16.164062 -1.644531 18.425781 -1.1875 20.9375 -1.1875 C 23.144531 -1.1875 25.050781 -1.628906 26.65625 -2.515625 C 28.257812 -3.410156 29.503906 -4.609375 30.390625 -6.109375 C 31.285156 -7.609375 31.734375 -9.300781 31.734375 -11.1875 C 31.734375 -13.394531 31.335938 -15.515625 30.546875 -17.546875 C 29.753906 -19.578125 28.625 -21.390625 27.15625 -22.984375 C 25.6875 -24.585938 23.953125 -25.859375 21.953125 -26.796875 C 19.953125 -27.742188 17.765625 -28.21875 15.390625 -28.21875 C 13.210938 -28.21875 11.316406 -27.78125 9.703125 -26.90625 C 8.085938 -26.03125 6.832031 -24.832031 5.9375 -23.3125 C 5.050781 -21.789062 4.609375 -20.09375 4.609375 -18.21875 Z M 4.609375 -18.21875 "/></g></g></g><g fill="#ffffff" fill-opacity="1"><g transform="translate(185.144786, 108.877287)"><g><path d="M 2.96875 -26.4375 L 2.96875 -27.03125 C 4.71875 -27.03125 6.035156 -27.414062 6.921875 -28.1875 C 7.816406 -28.96875 8.265625 -29.71875 8.265625 -30.4375 L 8.859375 -30.4375 L 8.859375 -4.3125 C 8.859375 -3.082031 9.070312 -2 9.5 -1.0625 C 9.925781 -0.125 10.703125 0.34375 11.828125 0.34375 C 13.210938 0.34375 14.429688 -0.0507812 15.484375 -0.84375 C 16.546875 -1.632812 17.4375 -2.625 18.15625 -3.8125 C 18.882812 -5 19.445312 -6.1875 19.84375 -7.375 C 20.238281 -8.5625 20.457031 -9.535156 20.5 -10.296875 L 20.5 -23.5625 C 20.5 -23.925781 20.460938 -24.328125 20.390625 -24.765625 C 20.328125 -25.210938 20.117188 -25.601562 19.765625 -25.9375 C 19.421875 -26.269531 18.820312 -26.4375 17.96875 -26.4375 L 17.96875 -27.03125 C 19.71875 -27.03125 21.035156 -27.414062 21.921875 -28.1875 C 22.816406 -28.96875 23.265625 -29.71875 23.265625 -30.4375 L 23.859375 -30.4375 L 23.859375 -5.84375 C 23.859375 -4.488281 24.003906 -3.617188 24.296875 -3.234375 C 24.597656 -2.859375 24.976562 -2.671875 25.4375 -2.671875 L 26.828125 -2.671875 L 26.828125 -2.078125 C 26.367188 -2.078125 25.800781 -2.039062 25.125 -1.96875 C 24.445312 -1.90625 23.753906 -1.660156 23.046875 -1.234375 C 22.335938 -0.804688 21.6875 -0.0664062 21.09375 0.984375 L 20.5 0.984375 L 20.5 -7.421875 C 20 -6.003906 19.328125 -4.648438 18.484375 -3.359375 C 17.640625 -2.078125 16.664062 -1.03125 15.5625 -0.21875 C 14.457031 0.582031 13.242188 0.984375 11.921875 0.984375 C 10.015625 0.984375 8.46875 0.472656 7.28125 -0.546875 C 6.09375 -1.566406 5.5 -3.429688 5.5 -6.140625 L 5.5 -23.5625 C 5.5 -23.925781 5.460938 -24.328125 5.390625 -24.765625 C 5.328125 -25.210938 5.117188 -25.601562 4.765625 -25.9375 C 4.421875 -26.269531 3.820312 -26.4375 2.96875 -26.4375 Z M 2.96875 -26.4375 "/></g></g></g><g fill="#ffffff" fill-opacity="1"><g transform="translate(207.248702, 108.877287)"><g/></g></g><g fill="#ffffff" fill-opacity="1"><g transform="translate(3.093149, 164.57868)"><g><path d="M 0.984375 -0.59375 L 3.265625 -0.59375 C 3.597656 -0.59375 3.953125 -0.664062 4.328125 -0.8125 C 4.710938 -0.96875 5.050781 -1.273438 5.34375 -1.734375 C 5.644531 -2.191406 5.796875 -2.867188 5.796875 -3.765625 L 5.796875 -23.5625 C 5.796875 -23.925781 5.757812 -24.328125 5.6875 -24.765625 C 5.625 -25.210938 5.414062 -25.601562 5.0625 -25.9375 C 4.71875 -26.269531 4.117188 -26.4375 3.265625 -26.4375 L 3.265625 -27.03125 C 5.015625 -27.03125 6.332031 -27.414062 7.21875 -28.1875 C 8.113281 -28.96875 8.5625 -29.71875 8.5625 -30.4375 L 9.15625 -30.4375 L 9.15625 -3.765625 C 9.15625 -2.867188 9.300781 -2.191406 9.59375 -1.734375 C 9.894531 -1.273438 10.242188 -0.96875 10.640625 -0.8125 C 11.035156 -0.664062 11.382812 -0.59375 11.6875 -0.59375 L 13.953125 -0.59375 L 13.953125 0 L 0.984375 0 Z M 7.46875 -32.28125 C 6.8125 -32.28125 6.242188 -32.515625 5.765625 -32.984375 C 5.285156 -33.460938 5.046875 -34.035156 5.046875 -34.703125 C 5.046875 -35.359375 5.285156 -35.925781 5.765625 -36.40625 C 6.242188 -36.882812 6.8125 -37.125 7.46875 -37.125 C 8.132812 -37.125 8.707031 -36.882812 9.1875 -36.40625 C 9.664062 -35.925781 9.90625 -35.359375 9.90625 -34.703125 C 9.90625 -34.035156 9.664062 -33.460938 9.1875 -32.984375 C 8.707031 -32.515625 8.132812 -32.28125 7.46875 -32.28125 Z M 7.46875 -32.28125 "/></g></g></g><g fill="#ffffff" fill-opacity="1"><g transform="translate(10.31392, 164.57868)"><g><path d="M 0.984375 -0.59375 L 3.265625 -0.59375 C 3.597656 -0.59375 3.953125 -0.664062 4.328125 -0.8125 C 4.710938 -0.96875 5.050781 -1.273438 5.34375 -1.734375 C 5.644531 -2.191406 5.796875 -2.867188 5.796875 -3.765625 L 5.796875 -28.8125 L 1.34375 -28.8125 L 1.34375 -29.40625 L 5.796875 -29.40625 L 5.796875 -38.5625 C 5.796875 -39.78125 5.941406 -41.082031 6.234375 -42.46875 C 6.535156 -43.851562 7.054688 -45.144531 7.796875 -46.34375 C 8.535156 -47.550781 9.570312 -48.539062 10.90625 -49.3125 C 12.25 -50.09375 13.957031 -50.484375 16.03125 -50.484375 C 17.65625 -50.484375 18.976562 -50.269531 20 -49.84375 C 21.019531 -49.414062 21.851562 -48.976562 22.5 -48.53125 C 23.144531 -48.082031 23.664062 -47.859375 24.0625 -47.859375 C 24.414062 -47.859375 24.722656 -48.039062 24.984375 -48.40625 C 25.253906 -48.769531 25.570312 -49.460938 25.9375 -50.484375 L 26.578125 -50.484375 L 20.25 -32.875 L 19.65625 -32.875 L 21.140625 -37.125 C 22.097656 -39.894531 22.484375 -42.238281 22.296875 -44.15625 C 22.117188 -46.070312 21.484375 -47.523438 20.390625 -48.515625 C 19.304688 -49.503906 17.851562 -50 16.03125 -50 C 14.15625 -50 12.597656 -49.648438 11.359375 -48.953125 C 10.117188 -48.265625 9.191406 -47.382812 8.578125 -46.3125 C 7.972656 -45.238281 7.671875 -44.15625 7.671875 -43.0625 C 7.671875 -42.40625 7.742188 -41.820312 7.890625 -41.3125 C 8.046875 -40.800781 8.222656 -40.210938 8.421875 -39.546875 C 8.617188 -38.890625 8.789062 -38.039062 8.9375 -37 C 9.082031 -35.957031 9.15625 -34.597656 9.15625 -32.921875 L 9.15625 -29.40625 L 13.609375 -29.40625 L 13.609375 -28.8125 L 9.15625 -28.8125 L 9.15625 -3.765625 C 9.15625 -2.867188 9.300781 -2.191406 9.59375 -1.734375 C 9.894531 -1.273438 10.242188 -0.96875 10.640625 -0.8125 C 11.035156 -0.664062 11.382812 -0.59375 11.6875 -0.59375 L 13.953125 -0.59375 L 13.953125 0 L 0.984375 0 Z M 0.984375 -0.59375 "/></g></g></g><g fill="#ffffff" fill-opacity="1"><g transform="translate(29.658419, 164.57868)"><g/></g></g><g fill="#ffffff" fill-opacity="1"><g transform="translate(39.79876, 164.57868)"><g><path d="M 0.984375 -0.59375 L 3.265625 -0.59375 C 3.597656 -0.59375 3.953125 -0.664062 4.328125 -0.8125 C 4.710938 -0.96875 5.050781 -1.273438 5.34375 -1.734375 C 5.644531 -2.191406 5.796875 -2.867188 5.796875 -3.765625 L 5.796875 -23.5625 C 5.796875 -23.925781 5.757812 -24.328125 5.6875 -24.765625 C 5.625 -25.210938 5.414062 -25.601562 5.0625 -25.9375 C 4.71875 -26.269531 4.117188 -26.4375 3.265625 -26.4375 L 3.265625 -27.03125 C 5.015625 -27.03125 6.332031 -27.414062 7.21875 -28.1875 C 8.113281 -28.96875 8.5625 -29.71875 8.5625 -30.4375 L 9.15625 -30.4375 L 9.15625 -3.765625 C 9.15625 -2.867188 9.300781 -2.191406 9.59375 -1.734375 C 9.894531 -1.273438 10.242188 -0.96875 10.640625 -0.8125 C 11.035156 -0.664062 11.382812 -0.59375 11.6875 -0.59375 L 13.953125 -0.59375 L 13.953125 0 L 0.984375 0 Z M 7.46875 -32.28125 C 6.8125 -32.28125 6.242188 -32.515625 5.765625 -32.984375 C 5.285156 -33.460938 5.046875 -34.035156 5.046875 -34.703125 C 5.046875 -35.359375 5.285156 -35.925781 5.765625 -36.40625 C 6.242188 -36.882812 6.8125 -37.125 7.46875 -37.125 C 8.132812 -37.125 8.707031 -36.882812 9.1875 -36.40625 C 9.664062 -35.925781 9.90625 -35.359375 9.90625 -34.703125 C 9.90625 -34.035156 9.664062 -33.460938 9.1875 -32.984375 C 8.707031 -32.515625 8.132812 -32.28125 7.46875 -32.28125 Z M 7.46875 -32.28125 "/></g></g></g><g fill="#ffffff" fill-opacity="1"><g transform="translate(47.019532, 164.57868)"><g><path d="M 5.203125 -28.8125 L 2.46875 -28.8125 L 2.46875 -29.40625 C 3.757812 -29.40625 4.757812 -29.765625 5.46875 -30.484375 C 6.175781 -31.210938 6.6875 -32.117188 7 -33.203125 C 7.3125 -34.296875 7.5 -35.410156 7.5625 -36.546875 C 7.632812 -37.691406 7.671875 -38.691406 7.671875 -39.546875 L 8.265625 -39.546875 L 8.265625 -29.40625 L 12.53125 -29.40625 L 12.53125 -28.8125 L 8.265625 -28.8125 L 8.265625 -5.4375 C 8.265625 -4.644531 8.304688 -3.796875 8.390625 -2.890625 C 8.472656 -1.984375 8.695312 -1.21875 9.0625 -0.59375 C 9.425781 0.03125 10.003906 0.34375 10.796875 0.34375 C 10.953125 0.34375 11.128906 0.328125 11.328125 0.296875 C 11.523438 0.265625 11.707031 0.21875 11.875 0.15625 L 11.875 0.75 C 11.78125 0.78125 11.65625 0.828125 11.5 0.890625 C 11.351562 0.953125 11 0.984375 10.4375 0.984375 C 9.019531 0.984375 7.929688 0.546875 7.171875 -0.328125 C 6.410156 -1.203125 5.890625 -2.28125 5.609375 -3.5625 C 5.335938 -4.851562 5.203125 -6.109375 5.203125 -7.328125 Z M 5.203125 -28.8125 "/></g></g></g><g fill="#ffffff" fill-opacity="1"><g transform="translate(53.794937, 164.57868)"><g/></g></g><g fill="#ffffff" fill-opacity="1"><g transform="translate(63.935278, 164.57868)"><g><path d="M 0.984375 -0.59375 L 3.265625 -0.59375 C 3.597656 -0.59375 3.953125 -0.664062 4.328125 -0.8125 C 4.710938 -0.96875 5.050781 -1.273438 5.34375 -1.734375 C 5.644531 -2.191406 5.796875 -2.867188 5.796875 -3.765625 L 5.796875 -28.8125 L 1.34375 -28.8125 L 1.34375 -29.40625 L 5.796875 -29.40625 L 5.796875 -38.5625 C 5.796875 -39.78125 5.941406 -41.082031 6.234375 -42.46875 C 6.535156 -43.851562 7.054688 -45.144531 7.796875 -46.34375 C 8.535156 -47.550781 9.570312 -48.539062 10.90625 -49.3125 C 12.25 -50.09375 13.957031 -50.484375 16.03125 -50.484375 C 17.65625 -50.484375 18.976562 -50.269531 20 -49.84375 C 21.019531 -49.414062 21.851562 -48.976562 22.5 -48.53125 C 23.144531 -48.082031 23.664062 -47.859375 24.0625 -47.859375 C 24.414062 -47.859375 24.722656 -48.039062 24.984375 -48.40625 C 25.253906 -48.769531 25.570312 -49.460938 25.9375 -50.484375 L 26.578125 -50.484375 L 20.25 -32.875 L 19.65625 -32.875 L 21.140625 -37.125 C 22.097656 -39.894531 22.484375 -42.238281 22.296875 -44.15625 C 22.117188 -46.070312 21.484375 -47.523438 20.390625 -48.515625 C 19.304688 -49.503906 17.851562 -50 16.03125 -50 C 14.15625 -50 12.597656 -49.648438 11.359375 -48.953125 C 10.117188 -48.265625 9.191406 -47.382812 8.578125 -46.3125 C 7.972656 -45.238281 7.671875 -44.15625 7.671875 -43.0625 C 7.671875 -42.40625 7.742188 -41.820312 7.890625 -41.3125 C 8.046875 -40.800781 8.222656 -40.210938 8.421875 -39.546875 C 8.617188 -38.890625 8.789062 -38.039062 8.9375 -37 C 9.082031 -35.957031 9.15625 -34.597656 9.15625 -32.921875 L 9.15625 -29.40625 L 13.609375 -29.40625 L 13.609375 -28.8125 L 9.15625 -28.8125 L 9.15625 -3.765625 C 9.15625 -2.867188 9.300781 -2.191406 9.59375 -1.734375 C 9.894531 -1.273438 10.242188 -0.96875 10.640625 -0.8125 C 11.035156 -0.664062 11.382812 -0.59375 11.6875 -0.59375 L 13.953125 -0.59375 L 13.953125 0 L 0.984375 0 Z M 0.984375 -0.59375 "/></g></g></g><g fill="#ffffff" fill-opacity="1"><g transform="translate(83.279777, 164.57868)"><g><path d="M 0.984375 -0.59375 L 3.265625 -0.59375 C 3.597656 -0.59375 3.953125 -0.664062 4.328125 -0.8125 C 4.710938 -0.96875 5.050781 -1.273438 5.34375 -1.734375 C 5.644531 -2.191406 5.796875 -2.867188 5.796875 -3.765625 L 5.796875 -23.5625 C 5.796875 -23.925781 5.757812 -24.328125 5.6875 -24.765625 C 5.625 -25.210938 5.414062 -25.601562 5.0625 -25.9375 C 4.71875 -26.269531 4.117188 -26.4375 3.265625 -26.4375 L 3.265625 -27.03125 C 5.015625 -27.03125 6.332031 -27.414062 7.21875 -28.1875 C 8.113281 -28.96875 8.5625 -29.71875 8.5625 -30.4375 L 9.15625 -30.4375 L 9.15625 -3.765625 C 9.15625 -2.867188 9.300781 -2.191406 9.59375 -1.734375 C 9.894531 -1.273438 10.242188 -0.96875 10.640625 -0.8125 C 11.035156 -0.664062 11.382812 -0.59375 11.6875 -0.59375 L 13.953125 -0.59375 L 13.953125 0 L 0.984375 0 Z M 7.46875 -32.28125 C 6.8125 -32.28125 6.242188 -32.515625 5.765625 -32.984375 C 5.285156 -33.460938 5.046875 -34.035156 5.046875 -34.703125 C 5.046875 -35.359375 5.285156 -35.925781 5.765625 -36.40625 C 6.242188 -36.882812 6.8125 -37.125 7.46875 -37.125 C 8.132812 -37.125 8.707031 -36.882812 9.1875 -36.40625 C 9.664062 -35.925781 9.90625 -35.359375 9.90625 -34.703125 C 9.90625 -34.035156 9.664062 -33.460938 9.1875 -32.984375 C 8.707031 -32.515625 8.132812 -32.28125 7.46875 -32.28125 Z M 7.46875 -32.28125 "/></g></g></g><g fill="#ffffff" fill-opacity="1"><g transform="translate(90.500548, 164.57868)"><g><path d="M 5.203125 -28.8125 L 2.46875 -28.8125 L 2.46875 -29.40625 C 3.757812 -29.40625 4.757812 -29.765625 5.46875 -30.484375 C 6.175781 -31.210938 6.6875 -32.117188 7 -33.203125 C 7.3125 -34.296875 7.5 -35.410156 7.5625 -36.546875 C 7.632812 -37.691406 7.671875 -38.691406 7.671875 -39.546875 L 8.265625 -39.546875 L 8.265625 -29.40625 L 12.53125 -29.40625 L 12.53125 -28.8125 L 8.265625 -28.8125 L 8.265625 -5.4375 C 8.265625 -4.644531 8.304688 -3.796875 8.390625 -2.890625 C 8.472656 -1.984375 8.695312 -1.21875 9.0625 -0.59375 C 9.425781 0.03125 10.003906 0.34375 10.796875 0.34375 C 10.953125 0.34375 11.128906 0.328125 11.328125 0.296875 C 11.523438 0.265625 11.707031 0.21875 11.875 0.15625 L 11.875 0.75 C 11.78125 0.78125 11.65625 0.828125 11.5 0.890625 C 11.351562 0.953125 11 0.984375 10.4375 0.984375 C 9.019531 0.984375 7.929688 0.546875 7.171875 -0.328125 C 6.410156 -1.203125 5.890625 -2.28125 5.609375 -3.5625 C 5.335938 -4.851562 5.203125 -6.109375 5.203125 -7.328125 Z M 5.203125 -28.8125 "/></g></g></g><g fill="#ffffff" fill-opacity="1"><g transform="translate(97.275953, 164.57868)"><g><path d="M 1.984375 0.984375 L 1.984375 -11.4375 L 2.578125 -11.4375 L 2.578125 -9.0625 C 2.578125 -8.238281 2.753906 -7.289062 3.109375 -6.21875 C 3.472656 -5.144531 4.019531 -4.101562 4.75 -3.09375 C 5.476562 -2.082031 6.382812 -1.25 7.46875 -0.59375 C 8.5625 0.0625 9.816406 0.390625 11.234375 0.390625 C 12.617188 0.390625 13.78125 0.0859375 14.71875 -0.515625 C 15.664062 -1.128906 16.367188 -1.929688 16.828125 -2.921875 C 17.285156 -3.910156 17.515625 -4.929688 17.515625 -5.984375 C 17.515625 -7.171875 17.148438 -8.226562 16.421875 -9.15625 C 15.703125 -10.082031 14.765625 -10.941406 13.609375 -11.734375 C 12.453125 -12.523438 11.226562 -13.316406 9.9375 -14.109375 C 8.65625 -14.898438 7.4375 -15.75 6.28125 -16.65625 C 5.125 -17.5625 4.179688 -18.59375 3.453125 -19.75 C 2.734375 -20.90625 2.375 -22.257812 2.375 -23.8125 C 2.375 -25.132812 2.742188 -26.289062 3.484375 -27.28125 C 4.234375 -28.269531 5.21875 -29.039062 6.4375 -29.59375 C 7.65625 -30.15625 8.957031 -30.4375 10.34375 -30.4375 C 11.269531 -30.4375 12.0625 -30.351562 12.71875 -30.1875 C 13.382812 -30.03125 14.046875 -29.867188 14.703125 -29.703125 C 15.359375 -29.535156 16.117188 -29.453125 16.984375 -29.453125 C 17.273438 -29.453125 17.566406 -29.507812 17.859375 -29.625 C 18.160156 -29.738281 18.3125 -30.007812 18.3125 -30.4375 L 18.90625 -30.4375 L 18.90625 -20.59375 L 18.3125 -20.59375 L 18.3125 -22.96875 C 18.3125 -24.382812 18.070312 -25.535156 17.59375 -26.421875 C 17.113281 -27.316406 16.492188 -28.007812 15.734375 -28.5 C 14.984375 -29 14.171875 -29.347656 13.296875 -29.546875 C 12.421875 -29.742188 11.585938 -29.84375 10.796875 -29.84375 C 9.210938 -29.84375 7.847656 -29.347656 6.703125 -28.359375 C 5.566406 -27.367188 5 -26.066406 5 -24.453125 C 5 -23.265625 5.351562 -22.222656 6.0625 -21.328125 C 6.769531 -20.441406 7.6875 -19.625 8.8125 -18.875 C 9.9375 -18.132812 11.113281 -17.394531 12.34375 -16.65625 C 13.582031 -15.914062 14.765625 -15.128906 15.890625 -14.296875 C 17.015625 -13.472656 17.929688 -12.523438 18.640625 -11.453125 C 19.347656 -10.378906 19.703125 -9.117188 19.703125 -7.671875 C 19.703125 -6.117188 19.367188 -4.679688 18.703125 -3.359375 C 18.046875 -2.046875 17.082031 -0.992188 15.8125 -0.203125 C 14.539062 0.585938 13 0.984375 11.1875 0.984375 C 9.769531 0.984375 8.488281 0.734375 7.34375 0.234375 C 6.207031 -0.253906 5.273438 -0.742188 4.546875 -1.234375 C 3.828125 -1.734375 3.332031 -1.984375 3.0625 -1.984375 C 2.800781 -1.984375 2.644531 -1.882812 2.59375 -1.6875 C 2.550781 -1.488281 2.53125 -1.320312 2.53125 -1.1875 L 2.53125 0.984375 Z M 1.984375 0.984375 "/></g></g></g></g></g></svg>