<svg xmlns="http://www.w3.org/2000/svg" xmlns:xlink="http://www.w3.org/1999/xlink" width="600" zoomAndPan="magnify" viewBox="0 0 450 449.999984" height="600" preserveAspectRatio="xMidYMid meet" version="1.0"><defs><g/></defs><g fill="#ffffff" fill-opacity="1"><g transform="translate(40.973179, 148.874988)"><g><path d="M 1.828125 -60.15625 L 1.828125 -60.890625 L 22.828125 -60.890625 C 24.296875 -60.890625 25.898438 -60.707031 27.640625 -60.34375 C 29.390625 -59.976562 31.113281 -59.398438 32.8125 -58.609375 C 34.519531 -57.816406 36.082031 -56.75 37.5 -55.40625 C 38.925781 -54.070312 40.066406 -52.421875 40.921875 -50.453125 C 41.773438 -48.484375 42.203125 -46.175781 42.203125 -43.53125 C 42.203125 -41.0625 41.785156 -38.898438 40.953125 -37.046875 C 40.117188 -35.203125 39 -33.640625 37.59375 -32.359375 C 36.195312 -31.085938 34.644531 -30.054688 32.9375 -29.265625 C 31.238281 -28.472656 29.523438 -27.890625 27.796875 -27.515625 C 26.066406 -27.148438 24.472656 -26.96875 23.015625 -26.96875 L 12.171875 -26.96875 L 12.171875 -4.625 C 12.171875 -3.53125 12.351562 -2.695312 12.71875 -2.125 C 13.09375 -1.5625 13.519531 -1.1875 14 -1 C 14.488281 -0.820312 14.914062 -0.734375 15.28125 -0.734375 L 18.078125 -0.734375 L 18.078125 0 L 1.828125 0 L 1.828125 -0.734375 L 4.625 -0.734375 C 5.03125 -0.734375 5.46875 -0.820312 5.9375 -1 C 6.40625 -1.1875 6.820312 -1.5625 7.1875 -2.125 C 7.550781 -2.695312 7.734375 -3.53125 7.734375 -4.625 L 7.734375 -56.265625 C 7.734375 -57.398438 7.550781 -58.238281 7.1875 -58.78125 C 6.820312 -59.332031 6.40625 -59.695312 5.9375 -59.875 C 5.46875 -60.0625 5.03125 -60.15625 4.625 -60.15625 Z M 12.171875 -60.21875 L 12.171875 -27.703125 L 20.515625 -27.703125 C 26.203125 -27.703125 30.472656 -28.988281 33.328125 -31.5625 C 36.191406 -34.144531 37.625 -38.132812 37.625 -43.53125 C 37.625 -46.625 36.992188 -49.425781 35.734375 -51.9375 C 34.484375 -54.457031 32.597656 -56.476562 30.078125 -58 C 27.566406 -59.519531 24.421875 -60.28125 20.640625 -60.28125 C 19.179688 -60.28125 18.054688 -60.28125 17.265625 -60.28125 C 16.472656 -60.28125 15.71875 -60.28125 15 -60.28125 C 14.289062 -60.28125 13.347656 -60.257812 12.171875 -60.21875 Z M 12.171875 -60.21875 "/></g></g></g><g fill="#ffffff" fill-opacity="1"><g transform="translate(77.560442, 148.874988)"><g><path d="M 19.734375 1.21875 C 16.359375 1.21875 13.421875 0.507812 10.921875 -0.90625 C 8.429688 -2.332031 6.492188 -4.253906 5.109375 -6.671875 C 3.734375 -9.085938 3.046875 -11.734375 3.046875 -14.609375 C 3.046875 -16.921875 3.488281 -19.082031 4.375 -21.09375 C 5.269531 -23.101562 6.539062 -24.847656 8.1875 -26.328125 C 9.832031 -27.816406 11.789062 -28.90625 14.0625 -29.59375 C 13.332031 -30.28125 12.5625 -30.9375 11.75 -31.5625 C 10.9375 -32.195312 10.082031 -32.78125 9.1875 -33.3125 C 10.613281 -34.726562 12.28125 -35.757812 14.1875 -36.40625 C 16.09375 -37.0625 18.222656 -37.390625 20.578125 -37.390625 C 24.273438 -37.390625 27.320312 -36.71875 29.71875 -35.375 C 32.113281 -34.039062 33.910156 -32.203125 35.109375 -29.859375 C 36.304688 -27.523438 36.90625 -24.898438 36.90625 -21.984375 L 36.90625 -6.328125 C 36.90625 -4.378906 37.1875 -2.957031 37.75 -2.0625 C 38.320312 -1.175781 39.457031 -0.734375 41.15625 -0.734375 L 41.15625 0 L 36.46875 0 C 35.007812 0 34.023438 -0.492188 33.515625 -1.484375 C 33.015625 -2.484375 32.765625 -3.53125 32.765625 -4.625 L 32.765625 -4.875 C 31.378906 -3.125 29.578125 -1.671875 27.359375 -0.515625 C 25.148438 0.640625 22.609375 1.21875 19.734375 1.21875 Z M 14.984375 -28.671875 C 12.421875 -27.617188 10.410156 -25.789062 8.953125 -23.1875 C 7.492188 -20.59375 6.765625 -17.675781 6.765625 -14.4375 C 6.765625 -11.675781 7.300781 -9.164062 8.375 -6.90625 C 9.445312 -4.65625 10.957031 -2.859375 12.90625 -1.515625 C 14.851562 -0.179688 17.148438 0.484375 19.796875 0.484375 C 22.265625 0.484375 24.695312 -0.09375 27.09375 -1.25 C 29.488281 -2.40625 31.378906 -4.039062 32.765625 -6.15625 L 32.765625 -23.6875 C 32.148438 -24.582031 31.304688 -25.484375 30.234375 -26.390625 C 29.160156 -27.304688 27.769531 -28.066406 26.0625 -28.671875 C 24.351562 -29.285156 22.265625 -29.59375 19.796875 -29.59375 C 18.242188 -29.59375 16.800781 -29.347656 15.46875 -28.859375 C 16.4375 -27.890625 17.457031 -26.722656 18.53125 -25.359375 C 19.613281 -24.003906 20.519531 -22.441406 21.25 -20.671875 C 21.976562 -18.910156 22.34375 -16.890625 22.34375 -14.609375 C 22.34375 -12.460938 21.894531 -10.726562 21 -9.40625 C 20.113281 -8.082031 18.9375 -7.421875 17.46875 -7.421875 C 17.226562 -7.421875 17.046875 -7.484375 16.921875 -7.609375 C 17.285156 -7.691406 17.769531 -8.015625 18.375 -8.578125 C 18.988281 -9.148438 19.550781 -9.953125 20.0625 -10.984375 C 20.570312 -12.023438 20.828125 -13.273438 20.828125 -14.734375 C 20.828125 -17.492188 20.296875 -20.039062 19.234375 -22.375 C 18.179688 -24.707031 16.765625 -26.804688 14.984375 -28.671875 Z M 20.703125 -36.65625 C 18.109375 -36.65625 16.210938 -36.269531 15.015625 -35.5 C 13.816406 -34.726562 13.21875 -33.796875 13.21875 -32.703125 C 13.21875 -32.335938 13.285156 -31.921875 13.421875 -31.453125 C 13.566406 -30.984375 13.941406 -30.425781 14.546875 -29.78125 C 15.359375 -29.976562 16.203125 -30.140625 17.078125 -30.265625 C 17.953125 -30.390625 18.835938 -30.453125 19.734375 -30.453125 C 22.566406 -30.453125 25.066406 -29.972656 27.234375 -29.015625 C 29.410156 -28.054688 31.210938 -26.75 32.640625 -25.09375 C 32.640625 -27.039062 32.171875 -28.894531 31.234375 -30.65625 C 30.304688 -32.425781 28.957031 -33.867188 27.1875 -34.984375 C 25.414062 -36.097656 23.253906 -36.65625 20.703125 -36.65625 Z M 20.703125 -36.65625 "/></g></g></g><g fill="#ffffff" fill-opacity="1"><g transform="translate(111.895186, 148.874988)"><g><path d="M 2.4375 1.21875 L 2.4375 -14.0625 L 3.171875 -14.0625 L 3.171875 -11.140625 C 3.171875 -10.128906 3.390625 -8.960938 3.828125 -7.640625 C 4.273438 -6.316406 4.945312 -5.035156 5.84375 -3.796875 C 6.738281 -2.566406 7.851562 -1.546875 9.1875 -0.734375 C 10.53125 0.078125 12.078125 0.484375 13.828125 0.484375 C 15.523438 0.484375 16.953125 0.109375 18.109375 -0.640625 C 19.265625 -1.390625 20.128906 -2.375 20.703125 -3.59375 C 21.273438 -4.8125 21.5625 -6.070312 21.5625 -7.375 C 21.5625 -8.832031 21.113281 -10.128906 20.21875 -11.265625 C 19.320312 -12.398438 18.160156 -13.453125 16.734375 -14.421875 C 15.316406 -15.398438 13.816406 -16.375 12.234375 -17.34375 C 10.648438 -18.320312 9.148438 -19.367188 7.734375 -20.484375 C 6.316406 -21.609375 5.160156 -22.878906 4.265625 -24.296875 C 3.367188 -25.710938 2.921875 -27.375 2.921875 -29.28125 C 2.921875 -30.90625 3.375 -32.328125 4.28125 -33.546875 C 5.195312 -34.765625 6.40625 -35.71875 7.90625 -36.40625 C 9.414062 -37.101562 11.019531 -37.453125 12.71875 -37.453125 C 13.863281 -37.453125 14.835938 -37.347656 15.640625 -37.140625 C 16.453125 -36.941406 17.265625 -36.738281 18.078125 -36.53125 C 18.890625 -36.332031 19.828125 -36.234375 20.890625 -36.234375 C 21.253906 -36.234375 21.617188 -36.300781 21.984375 -36.4375 C 22.347656 -36.582031 22.53125 -36.921875 22.53125 -37.453125 L 23.265625 -37.453125 L 23.265625 -25.328125 L 22.53125 -25.328125 L 22.53125 -28.25 C 22.53125 -30 22.234375 -31.421875 21.640625 -32.515625 C 21.054688 -33.609375 20.296875 -34.457031 19.359375 -35.0625 C 18.429688 -35.675781 17.425781 -36.101562 16.34375 -36.34375 C 15.269531 -36.59375 14.25 -36.71875 13.28125 -36.71875 C 11.320312 -36.71875 9.644531 -36.109375 8.25 -34.890625 C 6.851562 -33.671875 6.15625 -32.066406 6.15625 -30.078125 C 6.15625 -28.617188 6.585938 -27.335938 7.453125 -26.234375 C 8.328125 -25.140625 9.453125 -24.132812 10.828125 -23.21875 C 12.210938 -22.3125 13.664062 -21.398438 15.1875 -20.484375 C 16.707031 -19.578125 18.15625 -18.613281 19.53125 -17.59375 C 20.914062 -16.582031 22.046875 -15.414062 22.921875 -14.09375 C 23.796875 -12.78125 24.234375 -11.226562 24.234375 -9.4375 C 24.234375 -7.53125 23.828125 -5.765625 23.015625 -4.140625 C 22.203125 -2.515625 21.015625 -1.210938 19.453125 -0.234375 C 17.890625 0.734375 15.992188 1.21875 13.765625 1.21875 C 12.015625 1.21875 10.4375 0.910156 9.03125 0.296875 C 7.632812 -0.304688 6.488281 -0.910156 5.59375 -1.515625 C 4.707031 -2.128906 4.101562 -2.4375 3.78125 -2.4375 C 3.445312 -2.4375 3.25 -2.3125 3.1875 -2.0625 C 3.132812 -1.820312 3.109375 -1.625 3.109375 -1.46875 L 3.109375 1.21875 Z M 2.4375 1.21875 "/></g></g></g><g fill="#ffffff" fill-opacity="1"><g transform="translate(131.131936, 148.874988)"><g><path d="M 6.390625 -35.4375 L 3.046875 -35.4375 L 3.046875 -36.171875 C 4.628906 -36.171875 5.851562 -36.613281 6.71875 -37.5 C 7.59375 -38.394531 8.222656 -39.507812 8.609375 -40.84375 C 8.992188 -42.1875 9.226562 -43.554688 9.3125 -44.953125 C 9.394531 -46.359375 9.4375 -47.59375 9.4375 -48.65625 L 10.171875 -48.65625 L 10.171875 -36.171875 L 15.40625 -36.171875 L 15.40625 -35.4375 L 10.171875 -35.4375 L 10.171875 -6.703125 C 10.171875 -5.722656 10.21875 -4.675781 10.3125 -3.5625 C 10.414062 -2.445312 10.691406 -1.503906 11.140625 -0.734375 C 11.585938 0.0351562 12.300781 0.421875 13.28125 0.421875 C 13.476562 0.421875 13.695312 0.398438 13.9375 0.359375 C 14.1875 0.316406 14.410156 0.257812 14.609375 0.1875 L 14.609375 0.90625 C 14.492188 0.945312 14.34375 1.007812 14.15625 1.09375 C 13.976562 1.175781 13.539062 1.21875 12.84375 1.21875 C 11.101562 1.21875 9.765625 0.679688 8.828125 -0.390625 C 7.890625 -1.472656 7.25 -2.804688 6.90625 -4.390625 C 6.5625 -5.972656 6.390625 -7.515625 6.390625 -9.015625 Z M 6.390625 -35.4375 "/></g></g></g><g fill="#ffffff" fill-opacity="1"><g transform="translate(140.93245, 148.874988)"><g><path d="M 22.34375 1.21875 C 18.488281 1.21875 15.109375 0.414062 12.203125 -1.1875 C 9.304688 -2.789062 7.054688 -5.039062 5.453125 -7.9375 C 3.847656 -10.84375 3.046875 -14.222656 3.046875 -18.078125 C 3.046875 -21.941406 3.847656 -25.320312 5.453125 -28.21875 C 7.054688 -31.125 9.304688 -33.378906 12.203125 -34.984375 C 15.109375 -36.585938 18.488281 -37.390625 22.34375 -37.390625 C 25.46875 -37.390625 28.046875 -36.929688 30.078125 -36.015625 C 32.109375 -35.097656 33.710938 -33.96875 34.890625 -32.625 C 36.066406 -31.289062 36.925781 -29.953125 37.46875 -28.609375 C 38.019531 -27.273438 38.375 -26.148438 38.53125 -25.234375 C 38.695312 -24.328125 38.78125 -23.875 38.78125 -23.875 L 6.390625 -23.875 C 6.304688 -23.34375 6.234375 -22.820312 6.171875 -22.3125 C 6.117188 -21.8125 6.09375 -21.273438 6.09375 -20.703125 C 6.09375 -17.171875 6.875 -13.972656 8.4375 -11.109375 C 10 -8.242188 12.207031 -5.957031 15.0625 -4.25 C 17.925781 -2.550781 21.285156 -1.703125 25.140625 -1.703125 C 28.273438 -1.703125 31.019531 -2.367188 33.375 -3.703125 C 35.726562 -5.046875 37.570312 -6.945312 38.90625 -9.40625 C 40.25 -11.863281 40.921875 -14.753906 40.921875 -18.078125 L 41.65625 -18.078125 C 41.65625 -14.222656 40.851562 -10.84375 39.25 -7.9375 C 37.644531 -5.039062 35.390625 -2.789062 32.484375 -1.1875 C 29.578125 0.414062 26.195312 1.21875 22.34375 1.21875 Z M 6.515625 -24.59375 L 34.640625 -24.59375 C 34.597656 -26.945312 33.9375 -29.023438 32.65625 -30.828125 C 31.382812 -32.640625 29.742188 -34.0625 27.734375 -35.09375 C 25.722656 -36.132812 23.582031 -36.65625 21.3125 -36.65625 C 18.914062 -36.65625 16.691406 -36.125 14.640625 -35.0625 C 12.585938 -34.007812 10.863281 -32.582031 9.46875 -30.78125 C 8.070312 -28.976562 7.085938 -26.914062 6.515625 -24.59375 Z M 6.515625 -24.59375 "/></g></g></g><g fill="#ffffff" fill-opacity="1"><g transform="translate(174.536638, 148.874988)"><g/></g></g><g fill="#ffffff" fill-opacity="1"><g transform="translate(188.476914, 148.874988)"><g><path d="M 19.734375 1.21875 C 16.359375 1.21875 13.421875 0.507812 10.921875 -0.90625 C 8.429688 -2.332031 6.492188 -4.253906 5.109375 -6.671875 C 3.734375 -9.085938 3.046875 -11.734375 3.046875 -14.609375 C 3.046875 -16.921875 3.488281 -19.082031 4.375 -21.09375 C 5.269531 -23.101562 6.539062 -24.847656 8.1875 -26.328125 C 9.832031 -27.816406 11.789062 -28.90625 14.0625 -29.59375 C 13.332031 -30.28125 12.5625 -30.9375 11.75 -31.5625 C 10.9375 -32.195312 10.082031 -32.78125 9.1875 -33.3125 C 10.613281 -34.726562 12.28125 -35.757812 14.1875 -36.40625 C 16.09375 -37.0625 18.222656 -37.390625 20.578125 -37.390625 C 24.273438 -37.390625 27.320312 -36.71875 29.71875 -35.375 C 32.113281 -34.039062 33.910156 -32.203125 35.109375 -29.859375 C 36.304688 -27.523438 36.90625 -24.898438 36.90625 -21.984375 L 36.90625 -6.328125 C 36.90625 -4.378906 37.1875 -2.957031 37.75 -2.0625 C 38.320312 -1.175781 39.457031 -0.734375 41.15625 -0.734375 L 41.15625 0 L 36.46875 0 C 35.007812 0 34.023438 -0.492188 33.515625 -1.484375 C 33.015625 -2.484375 32.765625 -3.53125 32.765625 -4.625 L 32.765625 -4.875 C 31.378906 -3.125 29.578125 -1.671875 27.359375 -0.515625 C 25.148438 0.640625 22.609375 1.21875 19.734375 1.21875 Z M 14.984375 -28.671875 C 12.421875 -27.617188 10.410156 -25.789062 8.953125 -23.1875 C 7.492188 -20.59375 6.765625 -17.675781 6.765625 -14.4375 C 6.765625 -11.675781 7.300781 -9.164062 8.375 -6.90625 C 9.445312 -4.65625 10.957031 -2.859375 12.90625 -1.515625 C 14.851562 -0.179688 17.148438 0.484375 19.796875 0.484375 C 22.265625 0.484375 24.695312 -0.09375 27.09375 -1.25 C 29.488281 -2.40625 31.378906 -4.039062 32.765625 -6.15625 L 32.765625 -23.6875 C 32.148438 -24.582031 31.304688 -25.484375 30.234375 -26.390625 C 29.160156 -27.304688 27.769531 -28.066406 26.0625 -28.671875 C 24.351562 -29.285156 22.265625 -29.59375 19.796875 -29.59375 C 18.242188 -29.59375 16.800781 -29.347656 15.46875 -28.859375 C 16.4375 -27.890625 17.457031 -26.722656 18.53125 -25.359375 C 19.613281 -24.003906 20.519531 -22.441406 21.25 -20.671875 C 21.976562 -18.910156 22.34375 -16.890625 22.34375 -14.609375 C 22.34375 -12.460938 21.894531 -10.726562 21 -9.40625 C 20.113281 -8.082031 18.9375 -7.421875 17.46875 -7.421875 C 17.226562 -7.421875 17.046875 -7.484375 16.921875 -7.609375 C 17.285156 -7.691406 17.769531 -8.015625 18.375 -8.578125 C 18.988281 -9.148438 19.550781 -9.953125 20.0625 -10.984375 C 20.570312 -12.023438 20.828125 -13.273438 20.828125 -14.734375 C 20.828125 -17.492188 20.296875 -20.039062 19.234375 -22.375 C 18.179688 -24.707031 16.765625 -26.804688 14.984375 -28.671875 Z M 20.703125 -36.65625 C 18.109375 -36.65625 16.210938 -36.269531 15.015625 -35.5 C 13.816406 -34.726562 13.21875 -33.796875 13.21875 -32.703125 C 13.21875 -32.335938 13.285156 -31.921875 13.421875 -31.453125 C 13.566406 -30.984375 13.941406 -30.425781 14.546875 -29.78125 C 15.359375 -29.976562 16.203125 -30.140625 17.078125 -30.265625 C 17.953125 -30.390625 18.835938 -30.453125 19.734375 -30.453125 C 22.566406 -30.453125 25.066406 -29.972656 27.234375 -29.015625 C 29.410156 -28.054688 31.210938 -26.75 32.640625 -25.09375 C 32.640625 -27.039062 32.171875 -28.894531 31.234375 -30.65625 C 30.304688 -32.425781 28.957031 -33.867188 27.1875 -34.984375 C 25.414062 -36.097656 23.253906 -36.65625 20.703125 -36.65625 Z M 20.703125 -36.65625 "/></g></g></g><g fill="#ffffff" fill-opacity="1"><g transform="translate(222.811658, 148.874988)"><g><path d="M 1.21875 0 L 1.21875 -0.734375 L 4.015625 -0.734375 C 4.421875 -0.734375 4.859375 -0.820312 5.328125 -1 C 5.796875 -1.1875 6.210938 -1.5625 6.578125 -2.125 C 6.941406 -2.695312 7.125 -3.53125 7.125 -4.625 L 7.125 -28.984375 C 7.125 -29.429688 7.082031 -29.925781 7 -30.46875 C 6.914062 -31.019531 6.660156 -31.5 6.234375 -31.90625 C 5.816406 -32.3125 5.078125 -32.515625 4.015625 -32.515625 L 4.015625 -33.25 C 6.171875 -33.25 7.796875 -33.722656 8.890625 -34.671875 C 9.984375 -35.628906 10.53125 -36.554688 10.53125 -37.453125 L 11.265625 -37.453125 L 11.265625 -28.25 C 11.910156 -29.914062 12.738281 -31.445312 13.75 -32.84375 C 14.769531 -34.25 15.957031 -35.367188 17.3125 -36.203125 C 18.675781 -37.035156 20.171875 -37.453125 21.796875 -37.453125 C 24.148438 -37.453125 26.054688 -36.820312 27.515625 -35.5625 C 28.984375 -34.300781 29.71875 -32.003906 29.71875 -28.671875 L 29.71875 -4.625 C 29.71875 -3.53125 29.898438 -2.695312 30.265625 -2.125 C 30.628906 -1.5625 31.050781 -1.1875 31.53125 -1 C 32.019531 -0.820312 32.445312 -0.734375 32.8125 -0.734375 L 35.625 -0.734375 L 35.625 0 L 19.671875 0 L 19.671875 -0.734375 L 22.46875 -0.734375 C 22.875 -0.734375 23.3125 -0.820312 23.78125 -1 C 24.25 -1.1875 24.664062 -1.5625 25.03125 -2.125 C 25.394531 -2.695312 25.578125 -3.53125 25.578125 -4.625 L 25.578125 -30.9375 C 25.578125 -32.4375 25.320312 -33.773438 24.8125 -34.953125 C 24.300781 -36.128906 23.335938 -36.71875 21.921875 -36.71875 C 20.210938 -36.71875 18.707031 -36.28125 17.40625 -35.40625 C 16.113281 -34.53125 15.019531 -33.441406 14.125 -32.140625 C 13.226562 -30.847656 12.546875 -29.53125 12.078125 -28.1875 C 11.617188 -26.851562 11.347656 -25.71875 11.265625 -24.78125 L 11.265625 -4.625 C 11.265625 -3.53125 11.445312 -2.695312 11.8125 -2.125 C 12.175781 -1.5625 12.601562 -1.1875 13.09375 -1 C 13.582031 -0.820312 14.007812 -0.734375 14.375 -0.734375 L 17.171875 -0.734375 L 17.171875 0 Z M 1.21875 0 "/></g></g></g><g fill="#ffffff" fill-opacity="1"><g transform="translate(251.60641, 148.874988)"><g><path d="M 29.046875 -35.4375 L 27.828125 -35.4375 C 27.054688 -35.4375 26.351562 -35.0625 25.71875 -34.3125 C 25.09375 -33.5625 24.535156 -32.597656 24.046875 -31.421875 C 23.566406 -30.242188 23.113281 -28.984375 22.6875 -27.640625 C 22.257812 -26.304688 21.84375 -25.03125 21.4375 -23.8125 C 21.3125 -23.445312 21.175781 -23.007812 21.03125 -22.5 C 20.894531 -21.988281 20.722656 -21.453125 20.515625 -20.890625 C 20.066406 -19.304688 19.539062 -17.488281 18.9375 -15.4375 C 18.332031 -13.382812 17.734375 -11.332031 17.140625 -9.28125 C 16.546875 -7.226562 16.007812 -5.414062 15.53125 -3.84375 C 15.363281 -3.226562 15.1875 -2.59375 15 -1.9375 C 14.820312 -1.289062 14.632812 -0.625 14.4375 0.0625 C 14.101562 1.28125 13.671875 2.875 13.140625 4.84375 C 12.617188 6.8125 11.953125 8.878906 11.140625 11.046875 C 10.328125 13.222656 9.363281 15.253906 8.25 17.140625 C 7.132812 19.023438 5.832031 20.554688 4.34375 21.734375 C 2.863281 22.910156 1.191406 23.457031 -0.671875 23.375 L -0.671875 18.140625 C 2.046875 17.859375 4.347656 16.832031 6.234375 15.0625 C 8.128906 13.300781 9.679688 11.097656 10.890625 8.453125 C 12.109375 5.816406 13.023438 3.019531 13.640625 0.0625 C 13.640625 0.0625 13.503906 -0.398438 13.234375 -1.328125 C 12.972656 -2.265625 12.617188 -3.484375 12.171875 -4.984375 C 11.734375 -6.492188 11.25 -8.148438 10.71875 -9.953125 C 10.1875 -11.765625 9.65625 -13.570312 9.125 -15.375 C 8.601562 -17.175781 8.140625 -18.816406 7.734375 -20.296875 C 7.328125 -21.785156 7.003906 -22.957031 6.765625 -23.8125 C 6.429688 -25.03125 6.050781 -26.316406 5.625 -27.671875 C 5.207031 -29.035156 4.734375 -30.304688 4.203125 -31.484375 C 3.671875 -32.660156 3.082031 -33.613281 2.4375 -34.34375 C 1.789062 -35.070312 1.0625 -35.4375 0.25 -35.4375 C -0.488281 -35.4375 -0.925781 -35.4375 -1.0625 -35.4375 C -1.207031 -35.4375 -1.226562 -35.4375 -1.125 -35.4375 C -1.019531 -35.4375 -0.96875 -35.4375 -0.96875 -35.4375 L -0.96875 -36.171875 L 13.21875 -36.171875 L 13.21875 -35.4375 C 12.925781 -35.4375 12.726562 -35.4375 12.625 -35.4375 C 12.53125 -35.4375 12.28125 -35.4375 11.875 -35.4375 C 10.851562 -35.4375 10.210938 -34.847656 9.953125 -33.671875 C 9.691406 -32.492188 9.640625 -31.113281 9.796875 -29.53125 C 9.878906 -28.632812 10.019531 -27.71875 10.21875 -26.78125 C 10.425781 -25.851562 10.65625 -24.960938 10.90625 -24.109375 C 11.226562 -23.015625 11.609375 -21.644531 12.046875 -20 C 12.492188 -18.351562 12.960938 -16.644531 13.453125 -14.875 C 13.941406 -13.113281 14.390625 -11.515625 14.796875 -10.078125 C 15.203125 -8.640625 15.503906 -7.570312 15.703125 -6.875 C 15.867188 -7.445312 16.101562 -8.28125 16.40625 -9.375 C 16.707031 -10.46875 17.0625 -11.710938 17.46875 -13.109375 C 17.875 -14.515625 18.28125 -15.945312 18.6875 -17.40625 C 19.09375 -18.875 19.476562 -20.21875 19.84375 -21.4375 C 20.007812 -21.957031 20.148438 -22.441406 20.265625 -22.890625 C 20.390625 -23.335938 20.492188 -23.742188 20.578125 -24.109375 C 20.859375 -25.285156 21.109375 -26.523438 21.328125 -27.828125 C 21.554688 -29.128906 21.691406 -30.359375 21.734375 -31.515625 C 21.773438 -32.671875 21.632812 -33.613281 21.3125 -34.34375 C 20.988281 -35.070312 20.421875 -35.4375 19.609375 -35.4375 C 19.203125 -35.4375 18.957031 -35.4375 18.875 -35.4375 C 18.789062 -35.4375 18.585938 -35.4375 18.265625 -35.4375 L 18.265625 -36.171875 L 29.046875 -36.171875 Z M 29.046875 -35.4375 "/></g></g></g><g fill="#ffffff" fill-opacity="1"><g transform="translate(271.999849, 148.874988)"><g><path d="M 6.390625 -35.4375 L 3.046875 -35.4375 L 3.046875 -36.171875 C 4.628906 -36.171875 5.851562 -36.613281 6.71875 -37.5 C 7.59375 -38.394531 8.222656 -39.507812 8.609375 -40.84375 C 8.992188 -42.1875 9.226562 -43.554688 9.3125 -44.953125 C 9.394531 -46.359375 9.4375 -47.59375 9.4375 -48.65625 L 10.171875 -48.65625 L 10.171875 -36.171875 L 15.40625 -36.171875 L 15.40625 -35.4375 L 10.171875 -35.4375 L 10.171875 -6.703125 C 10.171875 -5.722656 10.21875 -4.675781 10.3125 -3.5625 C 10.414062 -2.445312 10.691406 -1.503906 11.140625 -0.734375 C 11.585938 0.0351562 12.300781 0.421875 13.28125 0.421875 C 13.476562 0.421875 13.695312 0.398438 13.9375 0.359375 C 14.1875 0.316406 14.410156 0.257812 14.609375 0.1875 L 14.609375 0.90625 C 14.492188 0.945312 14.34375 1.007812 14.15625 1.09375 C 13.976562 1.175781 13.539062 1.21875 12.84375 1.21875 C 11.101562 1.21875 9.765625 0.679688 8.828125 -0.390625 C 7.890625 -1.472656 7.25 -2.804688 6.90625 -4.390625 C 6.5625 -5.972656 6.390625 -7.515625 6.390625 -9.015625 Z M 6.390625 -35.4375 "/></g></g></g><g fill="#ffffff" fill-opacity="1"><g transform="translate(281.800385, 148.874988)"><g><path d="M 17.171875 0 L 1.21875 0 L 1.21875 -0.734375 L 4.015625 -0.734375 C 4.421875 -0.734375 4.859375 -0.820312 5.328125 -1 C 5.796875 -1.1875 6.210938 -1.5625 6.578125 -2.125 C 6.941406 -2.695312 7.125 -3.53125 7.125 -4.625 L 7.125 -53.640625 C 7.125 -54.085938 7.082031 -54.582031 7 -55.125 C 6.914062 -55.675781 6.660156 -56.15625 6.234375 -56.5625 C 5.816406 -56.96875 5.078125 -57.171875 4.015625 -57.171875 L 4.015625 -57.90625 C 6.171875 -57.90625 7.796875 -58.378906 8.890625 -59.328125 C 9.984375 -60.285156 10.53125 -61.210938 10.53125 -62.109375 L 11.265625 -62.109375 L 11.265625 -28.625 C 12.316406 -31.5 13.828125 -33.6875 15.796875 -35.1875 C 17.765625 -36.695312 19.742188 -37.453125 21.734375 -37.453125 C 23.679688 -37.453125 25.242188 -37.046875 26.421875 -36.234375 C 27.597656 -35.421875 28.453125 -34.34375 28.984375 -33 C 29.515625 -31.664062 29.78125 -30.1875 29.78125 -28.5625 L 29.78125 -4.625 C 29.78125 -3.53125 29.960938 -2.695312 30.328125 -2.125 C 30.691406 -1.5625 31.113281 -1.1875 31.59375 -1 C 32.082031 -0.820312 32.507812 -0.734375 32.875 -0.734375 L 35.6875 -0.734375 L 35.6875 0 L 19.734375 0 L 19.734375 -0.734375 L 22.53125 -0.734375 C 22.9375 -0.734375 23.367188 -0.820312 23.828125 -1 C 24.296875 -1.1875 24.710938 -1.5625 25.078125 -2.125 C 25.453125 -2.695312 25.640625 -3.53125 25.640625 -4.625 L 25.640625 -30.265625 C 25.640625 -30.585938 25.628906 -31.09375 25.609375 -31.78125 C 25.585938 -32.46875 25.472656 -33.175781 25.265625 -33.90625 C 25.066406 -34.644531 24.671875 -35.273438 24.078125 -35.796875 C 23.492188 -36.328125 22.65625 -36.59375 21.5625 -36.59375 C 19.976562 -36.59375 18.503906 -36.125 17.140625 -35.1875 C 15.773438 -34.257812 14.597656 -33.035156 13.609375 -31.515625 C 12.617188 -29.992188 11.835938 -28.359375 11.265625 -26.609375 L 11.265625 -4.625 C 11.265625 -3.53125 11.445312 -2.695312 11.8125 -2.125 C 12.175781 -1.5625 12.601562 -1.1875 13.09375 -1 C 13.582031 -0.820312 14.007812 -0.734375 14.375 -0.734375 L 17.171875 -0.734375 Z M 17.171875 0 "/></g></g></g><g fill="#ffffff" fill-opacity="1"><g transform="translate(310.656019, 148.874988)"><g><path d="M 1.21875 -0.734375 L 4.015625 -0.734375 C 4.421875 -0.734375 4.859375 -0.820312 5.328125 -1 C 5.796875 -1.1875 6.210938 -1.5625 6.578125 -2.125 C 6.941406 -2.695312 7.125 -3.53125 7.125 -4.625 L 7.125 -28.984375 C 7.125 -29.429688 7.082031 -29.925781 7 -30.46875 C 6.914062 -31.019531 6.660156 -31.5 6.234375 -31.90625 C 5.816406 -32.3125 5.078125 -32.515625 4.015625 -32.515625 L 4.015625 -33.25 C 6.171875 -33.25 7.796875 -33.722656 8.890625 -34.671875 C 9.984375 -35.628906 10.53125 -36.554688 10.53125 -37.453125 L 11.265625 -37.453125 L 11.265625 -4.625 C 11.265625 -3.53125 11.445312 -2.695312 11.8125 -2.125 C 12.175781 -1.5625 12.601562 -1.1875 13.09375 -1 C 13.582031 -0.820312 14.007812 -0.734375 14.375 -0.734375 L 17.171875 -0.734375 L 17.171875 0 L 1.21875 0 Z M 9.1875 -39.703125 C 8.382812 -39.703125 7.6875 -39.992188 7.09375 -40.578125 C 6.5 -41.171875 6.203125 -41.875 6.203125 -42.6875 C 6.203125 -43.5 6.5 -44.195312 7.09375 -44.78125 C 7.6875 -45.375 8.382812 -45.671875 9.1875 -45.671875 C 10 -45.671875 10.695312 -45.375 11.28125 -44.78125 C 11.875 -44.195312 12.171875 -43.5 12.171875 -42.6875 C 12.171875 -41.875 11.875 -41.171875 11.28125 -40.578125 C 10.695312 -39.992188 10 -39.703125 9.1875 -39.703125 Z M 9.1875 -39.703125 "/></g></g></g><g fill="#ffffff" fill-opacity="1"><g transform="translate(321.00443, 148.874988)"><g><path d="M 1.21875 0 L 1.21875 -0.734375 L 4.015625 -0.734375 C 4.421875 -0.734375 4.859375 -0.820312 5.328125 -1 C 5.796875 -1.1875 6.210938 -1.5625 6.578125 -2.125 C 6.941406 -2.695312 7.125 -3.53125 7.125 -4.625 L 7.125 -28.984375 C 7.125 -29.429688 7.082031 -29.925781 7 -30.46875 C 6.914062 -31.019531 6.660156 -31.5 6.234375 -31.90625 C 5.816406 -32.3125 5.078125 -32.515625 4.015625 -32.515625 L 4.015625 -33.25 C 6.171875 -33.25 7.796875 -33.722656 8.890625 -34.671875 C 9.984375 -35.628906 10.53125 -36.554688 10.53125 -37.453125 L 11.265625 -37.453125 L 11.265625 -28.25 C 11.910156 -29.914062 12.738281 -31.445312 13.75 -32.84375 C 14.769531 -34.25 15.957031 -35.367188 17.3125 -36.203125 C 18.675781 -37.035156 20.171875 -37.453125 21.796875 -37.453125 C 24.148438 -37.453125 26.054688 -36.820312 27.515625 -35.5625 C 28.984375 -34.300781 29.71875 -32.003906 29.71875 -28.671875 L 29.71875 -4.625 C 29.71875 -3.53125 29.898438 -2.695312 30.265625 -2.125 C 30.628906 -1.5625 31.050781 -1.1875 31.53125 -1 C 32.019531 -0.820312 32.445312 -0.734375 32.8125 -0.734375 L 35.625 -0.734375 L 35.625 0 L 19.671875 0 L 19.671875 -0.734375 L 22.46875 -0.734375 C 22.875 -0.734375 23.3125 -0.820312 23.78125 -1 C 24.25 -1.1875 24.664062 -1.5625 25.03125 -2.125 C 25.394531 -2.695312 25.578125 -3.53125 25.578125 -4.625 L 25.578125 -30.9375 C 25.578125 -32.4375 25.320312 -33.773438 24.8125 -34.953125 C 24.300781 -36.128906 23.335938 -36.71875 21.921875 -36.71875 C 20.210938 -36.71875 18.707031 -36.28125 17.40625 -35.40625 C 16.113281 -34.53125 15.019531 -33.441406 14.125 -32.140625 C 13.226562 -30.847656 12.546875 -29.53125 12.078125 -28.1875 C 11.617188 -26.851562 11.347656 -25.71875 11.265625 -24.78125 L 11.265625 -4.625 C 11.265625 -3.53125 11.445312 -2.695312 11.8125 -2.125 C 12.175781 -1.5625 12.601562 -1.1875 13.09375 -1 C 13.582031 -0.820312 14.007812 -0.734375 14.375 -0.734375 L 17.171875 -0.734375 L 17.171875 0 Z M 1.21875 0 "/></g></g></g><g fill="#ffffff" fill-opacity="1"><g transform="translate(349.799182, 148.874988)"><g><path d="M -2.125 17.53125 C -2.125 14.769531 -1.171875 12.285156 0.734375 10.078125 C 2.640625 7.867188 5.207031 5.941406 8.4375 4.296875 C 11.664062 2.648438 15.25 1.335938 19.1875 0.359375 C 17.226562 0.316406 15.4375 0.203125 13.8125 0.015625 C 12.195312 -0.160156 10.898438 -0.53125 9.921875 -1.09375 C 8.953125 -1.664062 8.46875 -2.519531 8.46875 -3.65625 C 8.46875 -4.425781 8.84375 -5.226562 9.59375 -6.0625 C 10.34375 -6.894531 11.425781 -7.613281 12.84375 -8.21875 C 14.269531 -8.832031 15.976562 -9.140625 17.96875 -9.140625 C 14.957031 -9.378906 12.328125 -10.117188 10.078125 -11.359375 C 7.828125 -12.597656 6.082031 -14.226562 4.84375 -16.25 C 3.601562 -18.28125 2.984375 -20.617188 2.984375 -23.265625 C 2.984375 -26.097656 3.691406 -28.570312 5.109375 -30.6875 C 6.535156 -32.800781 8.535156 -34.445312 11.109375 -35.625 C 13.691406 -36.800781 16.6875 -37.390625 20.09375 -37.390625 C 22.40625 -37.390625 24.660156 -37.082031 26.859375 -36.46875 C 27.179688 -36.394531 27.472656 -36.328125 27.734375 -36.265625 C 27.992188 -36.203125 28.328125 -36.171875 28.734375 -36.171875 L 40 -36.171875 L 40 -35.4375 L 29.53125 -35.4375 C 31.96875 -34.257812 33.863281 -32.625 35.21875 -30.53125 C 36.582031 -28.445312 37.265625 -26.023438 37.265625 -23.265625 C 37.265625 -20.421875 36.550781 -17.929688 35.125 -15.796875 C 33.707031 -13.671875 31.707031 -12.019531 29.125 -10.84375 C 26.550781 -9.664062 23.539062 -9.078125 20.09375 -9.078125 C 19.601562 -9.078125 18.832031 -9.003906 17.78125 -8.859375 C 16.726562 -8.710938 15.617188 -8.488281 14.453125 -8.1875 C 13.296875 -7.882812 12.3125 -7.46875 11.5 -6.9375 C 10.695312 -6.414062 10.296875 -5.769531 10.296875 -5 C 10.296875 -4.34375 10.695312 -3.910156 11.5 -3.703125 C 12.3125 -3.503906 13.390625 -3.40625 14.734375 -3.40625 C 16.316406 -3.40625 18.148438 -3.476562 20.234375 -3.625 C 22.328125 -3.769531 24.453125 -3.84375 26.609375 -3.84375 C 28.515625 -3.84375 30.359375 -3.71875 32.140625 -3.46875 C 33.929688 -3.226562 35.535156 -2.789062 36.953125 -2.15625 C 38.378906 -1.53125 39.507812 -0.609375 40.34375 0.609375 C 41.175781 1.828125 41.59375 3.410156 41.59375 5.359375 C 41.59375 7.222656 41.101562 9.148438 40.125 11.140625 C 39.15625 13.128906 37.785156 15.054688 36.015625 16.921875 C 34.253906 18.796875 32.15625 20.472656 29.71875 21.953125 C 27.28125 23.429688 24.585938 24.609375 21.640625 25.484375 C 18.703125 26.359375 15.609375 26.796875 12.359375 26.796875 C 9.554688 26.796875 7.054688 26.398438 4.859375 25.609375 C 2.671875 24.816406 0.960938 23.71875 -0.265625 22.3125 C -1.503906 20.914062 -2.125 19.320312 -2.125 17.53125 Z M 1.953125 16.5 C 1.953125 18.207031 2.5 19.707031 3.59375 21 C 4.6875 22.300781 6.207031 23.304688 8.15625 24.015625 C 10.101562 24.734375 12.335938 25.09375 14.859375 25.09375 C 16.597656 25.09375 18.546875 24.828125 20.703125 24.296875 C 22.859375 23.765625 25.03125 22.988281 27.21875 21.96875 C 29.40625 20.957031 31.410156 19.722656 33.234375 18.265625 C 35.066406 16.804688 36.539062 15.117188 37.65625 13.203125 C 38.769531 11.296875 39.328125 9.1875 39.328125 6.875 C 39.328125 5.175781 38.8125 3.867188 37.78125 2.953125 C 36.75 2.035156 35.390625 1.394531 33.703125 1.03125 C 32.015625 0.664062 30.164062 0.460938 28.15625 0.421875 C 26.144531 0.378906 24.1875 0.359375 22.28125 0.359375 C 18.34375 1.015625 14.84375 2.0625 11.78125 3.5 C 8.71875 4.9375 6.3125 6.738281 4.5625 8.90625 C 2.820312 11.082031 1.953125 13.613281 1.953125 16.5 Z M 20.09375 -36.65625 C 17.820312 -36.65625 15.703125 -36.097656 13.734375 -34.984375 C 11.765625 -33.867188 10.171875 -32.304688 8.953125 -30.296875 C 7.734375 -28.285156 7.125 -25.941406 7.125 -23.265625 C 7.125 -20.578125 7.734375 -18.226562 8.953125 -16.21875 C 10.171875 -14.21875 11.765625 -12.644531 13.734375 -11.5 C 15.703125 -10.363281 17.820312 -9.796875 20.09375 -9.796875 C 22.363281 -9.796875 24.484375 -10.363281 26.453125 -11.5 C 28.421875 -12.644531 30.015625 -14.21875 31.234375 -16.21875 C 32.453125 -18.226562 33.0625 -20.578125 33.0625 -23.265625 C 33.0625 -25.941406 32.453125 -28.285156 31.234375 -30.296875 C 30.015625 -32.304688 28.421875 -33.867188 26.453125 -34.984375 C 24.484375 -36.097656 22.363281 -36.65625 20.09375 -36.65625 Z M 20.09375 -36.65625 "/></g></g></g><g fill="#ffffff" fill-opacity="1"><g transform="translate(382.368447, 148.874988)"><g/></g></g><g fill="#ffffff" fill-opacity="1"><g transform="translate(396.308723, 148.874988)"><g><path d="M 5.109375 0 C 4.222656 0 3.453125 -0.320312 2.796875 -0.96875 C 2.148438 -1.625 1.828125 -2.414062 1.828125 -3.34375 C 1.828125 -4.28125 2.148438 -5.0625 2.796875 -5.6875 C 3.453125 -6.320312 4.222656 -6.640625 5.109375 -6.640625 C 6.285156 -6.640625 7.15625 -6.234375 7.71875 -5.421875 C 8.289062 -4.609375 8.617188 -3.59375 8.703125 -2.375 C 8.785156 -1.15625 8.65625 0.0859375 8.3125 1.359375 C 7.96875 2.640625 7.4375 3.773438 6.71875 4.765625 C 6.007812 5.765625 5.191406 6.429688 4.265625 6.765625 L 3.953125 6.203125 C 4.609375 5.804688 5.21875 5.140625 5.78125 4.203125 C 6.351562 3.265625 6.640625 2.351562 6.640625 1.46875 C 6.640625 0.769531 6.554688 0.195312 6.390625 -0.25 C 6.191406 -0.207031 5.976562 -0.15625 5.75 -0.09375 C 5.53125 -0.03125 5.316406 0 5.109375 0 Z M 5.109375 0 "/></g></g></g><g fill="#ffffff" fill-opacity="1"><g transform="translate(399.414561, 148.874988)"><g/></g></g><g fill="#ffffff" fill-opacity="1"><g transform="translate(40.973179, 242.624981)"><g><path d="M 30.75 1.21875 C 27.414062 1.21875 24.144531 0.851562 20.9375 0.125 C 17.738281 -0.601562 14.835938 -1.71875 12.234375 -3.21875 C 9.640625 -4.726562 7.5625 -6.671875 6 -9.046875 C 4.4375 -11.421875 3.65625 -14.25 3.65625 -17.53125 C 3.65625 -20.539062 4.242188 -23.097656 5.421875 -25.203125 C 6.597656 -27.316406 8.289062 -29.15625 10.5 -30.71875 C 12.71875 -32.28125 15.347656 -33.710938 18.390625 -35.015625 C 16.441406 -37.203125 14.878906 -39.367188 13.703125 -41.515625 C 12.523438 -43.671875 11.9375 -45.804688 11.9375 -47.921875 C 11.9375 -50.765625 12.695312 -53.195312 14.21875 -55.21875 C 15.738281 -57.25 17.773438 -58.8125 20.328125 -59.90625 C 22.890625 -61.007812 25.671875 -61.5625 28.671875 -61.5625 C 31.316406 -61.5625 33.601562 -61.195312 35.53125 -60.46875 C 37.457031 -59.738281 39.050781 -58.789062 40.3125 -57.625 C 41.570312 -56.46875 42.515625 -55.207031 43.140625 -53.84375 C 43.765625 -52.488281 44.078125 -51.203125 44.078125 -49.984375 C 44.078125 -47.796875 43.617188 -45.953125 42.703125 -44.453125 C 41.796875 -42.953125 40.628906 -41.710938 39.203125 -40.734375 C 37.785156 -39.765625 36.273438 -38.992188 34.671875 -38.421875 C 33.066406 -37.847656 31.554688 -37.398438 30.140625 -37.078125 C 28.722656 -36.753906 27.585938 -36.492188 26.734375 -36.296875 C 26.203125 -36.253906 25.660156 -36.179688 25.109375 -36.078125 C 24.566406 -35.972656 24.007812 -35.84375 23.4375 -35.6875 C 24.976562 -34.175781 26.796875 -32.476562 28.890625 -30.59375 C 30.984375 -28.707031 33.328125 -26.628906 35.921875 -24.359375 L 54.5625 -46.640625 L 55.109375 -46.21875 L 42.5625 -31.171875 C 43.25 -31.492188 44.03125 -31.765625 44.90625 -31.984375 C 45.78125 -32.210938 46.847656 -32.328125 48.109375 -32.328125 C 50.335938 -32.328125 52.394531 -31.828125 54.28125 -30.828125 C 56.164062 -29.835938 57.6875 -28.429688 58.84375 -26.609375 C 60.007812 -24.785156 60.59375 -22.59375 60.59375 -20.03125 C 60.59375 -17.757812 60.0625 -15.585938 59 -13.515625 C 57.945312 -11.441406 56.523438 -9.515625 54.734375 -7.734375 C 56.765625 -5.984375 58.5625 -4.4375 60.125 -3.09375 C 61.6875 -1.757812 62.957031 -0.8125 63.9375 -0.25 C 64.75 0.238281 65.5625 0.484375 66.375 0.484375 C 67.1875 0.484375 67.976562 0.484375 68.75 0.484375 L 68.75 1.21875 C 66.4375 1.21875 64.597656 1.21875 63.234375 1.21875 C 61.867188 1.21875 60.726562 1.082031 59.8125 0.8125 C 58.90625 0.550781 57.945312 0.015625 56.9375 -0.796875 C 56.207031 -1.359375 55.40625 -2.015625 54.53125 -2.765625 C 53.65625 -3.515625 52.691406 -4.335938 51.640625 -5.234375 C 48.878906 -3.242188 45.679688 -1.671875 42.046875 -0.515625 C 38.410156 0.640625 34.644531 1.21875 30.75 1.21875 Z M 8.15625 -18.515625 C 8.15625 -15.828125 8.796875 -13.347656 10.078125 -11.078125 C 11.359375 -8.804688 13.082031 -6.816406 15.25 -5.109375 C 17.425781 -3.410156 19.882812 -2.09375 22.625 -1.15625 C 25.363281 -0.21875 28.171875 0.25 31.046875 0.25 C 34.785156 0.25 38.390625 -0.285156 41.859375 -1.359375 C 45.328125 -2.441406 48.40625 -3.914062 51.09375 -5.78125 C 48.9375 -7.644531 46.554688 -9.710938 43.953125 -11.984375 C 41.359375 -14.265625 38.679688 -16.582031 35.921875 -18.9375 C 32.921875 -21.53125 29.945312 -24.085938 27 -26.609375 C 24.0625 -29.128906 21.457031 -31.625 19.1875 -34.09375 C 17.195312 -33.207031 15.367188 -32.019531 13.703125 -30.53125 C 12.035156 -29.050781 10.691406 -27.304688 9.671875 -25.296875 C 8.660156 -23.285156 8.15625 -21.023438 8.15625 -18.515625 Z M 14.609375 -50.109375 C 14.566406 -48.816406 14.800781 -47.5 15.3125 -46.15625 C 15.820312 -44.8125 16.695312 -43.335938 17.9375 -41.734375 C 19.175781 -40.128906 20.847656 -38.273438 22.953125 -36.171875 C 23.972656 -36.328125 25.203125 -36.566406 26.640625 -36.890625 C 28.078125 -37.222656 29.546875 -37.703125 31.046875 -38.328125 C 32.554688 -38.960938 33.957031 -39.773438 35.25 -40.765625 C 36.550781 -41.765625 37.609375 -42.972656 38.421875 -44.390625 C 39.234375 -45.804688 39.640625 -47.488281 39.640625 -49.4375 C 39.640625 -50.570312 39.445312 -51.78125 39.0625 -53.0625 C 38.675781 -54.34375 38.054688 -55.5625 37.203125 -56.71875 C 36.347656 -57.875 35.207031 -58.816406 33.78125 -59.546875 C 32.363281 -60.273438 30.625 -60.640625 28.5625 -60.640625 C 25.394531 -60.640625 22.785156 -60.125 20.734375 -59.09375 C 18.679688 -58.0625 17.164062 -56.742188 16.1875 -55.140625 C 15.21875 -53.535156 14.691406 -51.859375 14.609375 -50.109375 Z M 36.46875 -23.875 C 37 -23.425781 37.546875 -22.957031 38.109375 -22.46875 C 38.679688 -21.976562 39.253906 -21.472656 39.828125 -20.953125 C 42.460938 -18.710938 44.988281 -16.492188 47.40625 -14.296875 C 49.820312 -12.109375 52.082031 -10.101562 54.1875 -8.28125 C 55.9375 -9.945312 57.304688 -11.753906 58.296875 -13.703125 C 59.296875 -15.648438 59.796875 -17.679688 59.796875 -19.796875 C 59.796875 -22.515625 59.195312 -24.742188 58 -26.484375 C 56.800781 -28.234375 55.304688 -29.523438 53.515625 -30.359375 C 51.734375 -31.191406 49.910156 -31.609375 48.046875 -31.609375 C 46.210938 -31.609375 44.675781 -31.351562 43.4375 -30.84375 C 42.207031 -30.332031 41.242188 -29.671875 40.546875 -28.859375 Z M 36.46875 -23.875 "/></g></g></g><g fill="#ffffff" fill-opacity="1"><g transform="translate(105.930045, 242.624981)"><g/></g></g><g fill="#ffffff" fill-opacity="1"><g transform="translate(119.870321, 242.624981)"><g><path d="M -1.21875 -36.171875 L 12.96875 -36.171875 L 12.96875 -35.4375 L 11.625 -35.4375 C 10.613281 -35.4375 9.972656 -35.0625 9.703125 -34.3125 C 9.441406 -33.5625 9.394531 -32.375 9.5625 -30.75 C 9.644531 -29.894531 9.785156 -28.988281 9.984375 -28.03125 C 10.191406 -27.082031 10.414062 -26.179688 10.65625 -25.328125 C 10.976562 -24.234375 11.363281 -22.820312 11.8125 -21.09375 C 12.257812 -19.375 12.722656 -17.566406 13.203125 -15.671875 C 13.691406 -13.785156 14.140625 -12.082031 14.546875 -10.5625 C 14.953125 -9.039062 15.257812 -7.9375 15.46875 -7.25 C 15.625 -7.8125 15.863281 -8.679688 16.1875 -9.859375 C 16.519531 -11.035156 16.890625 -12.382812 17.296875 -13.90625 C 17.703125 -15.4375 18.109375 -16.972656 18.515625 -18.515625 C 18.921875 -20.054688 19.285156 -21.4375 19.609375 -22.65625 C 19.765625 -23.21875 19.90625 -23.710938 20.03125 -24.140625 C 20.15625 -24.566406 20.257812 -24.960938 20.34375 -25.328125 C 20.75 -26.867188 21.070312 -28.421875 21.3125 -29.984375 C 21.550781 -31.546875 21.554688 -32.84375 21.328125 -33.875 C 21.109375 -34.914062 20.453125 -35.4375 19.359375 -35.4375 L 18.03125 -35.4375 L 18.03125 -36.171875 L 30.140625 -36.171875 L 30.140625 -35.4375 L 28.796875 -35.4375 C 27.785156 -35.4375 27.144531 -35.0625 26.875 -34.3125 C 26.613281 -33.5625 26.566406 -32.375 26.734375 -30.75 C 26.816406 -29.894531 26.957031 -28.988281 27.15625 -28.03125 C 27.363281 -27.082031 27.585938 -26.179688 27.828125 -25.328125 C 28.148438 -24.234375 28.535156 -22.820312 28.984375 -21.09375 C 29.429688 -19.375 29.894531 -17.566406 30.375 -15.671875 C 30.863281 -13.785156 31.3125 -12.082031 31.71875 -10.5625 C 32.125 -9.039062 32.429688 -7.9375 32.640625 -7.25 C 32.796875 -7.8125 33.035156 -8.679688 33.359375 -9.859375 C 33.691406 -11.035156 34.0625 -12.382812 34.46875 -13.90625 C 34.875 -15.4375 35.28125 -16.972656 35.6875 -18.515625 C 36.09375 -20.054688 36.457031 -21.4375 36.78125 -22.65625 C 36.9375 -23.21875 37.078125 -23.710938 37.203125 -24.140625 C 37.328125 -24.566406 37.429688 -24.960938 37.515625 -25.328125 C 37.921875 -26.867188 38.242188 -28.421875 38.484375 -29.984375 C 38.722656 -31.546875 38.726562 -32.84375 38.5 -33.875 C 38.28125 -34.914062 37.625 -35.4375 36.53125 -35.4375 L 35.1875 -35.4375 L 35.1875 -36.171875 L 45.96875 -36.171875 L 45.96875 -35.4375 L 44.75 -35.4375 C 43.695312 -35.4375 42.785156 -34.898438 42.015625 -33.828125 C 41.242188 -32.753906 40.5625 -31.425781 39.96875 -29.84375 C 39.382812 -28.257812 38.847656 -26.65625 38.359375 -25.03125 C 38.234375 -24.625 38.097656 -24.1875 37.953125 -23.71875 C 37.816406 -23.25 37.648438 -22.710938 37.453125 -22.109375 C 36.347656 -18.410156 35.304688 -14.519531 34.328125 -10.4375 C 33.359375 -6.363281 32.390625 -2.476562 31.421875 1.21875 L 30.6875 1.21875 C 30.6875 1.21875 30.523438 0.640625 30.203125 -0.515625 C 29.878906 -1.671875 29.453125 -3.203125 28.921875 -5.109375 C 28.390625 -7.023438 27.8125 -9.117188 27.1875 -11.390625 C 26.5625 -13.660156 25.941406 -15.929688 25.328125 -18.203125 C 24.722656 -20.472656 24.15625 -22.5625 23.625 -24.46875 C 23.09375 -26.382812 22.6875 -27.890625 22.40625 -28.984375 C 22.039062 -27.847656 21.675781 -26.703125 21.3125 -25.546875 C 20.945312 -24.390625 20.601562 -23.242188 20.28125 -22.109375 C 19.175781 -18.410156 18.132812 -14.519531 17.15625 -10.4375 C 16.1875 -6.363281 15.175781 -2.476562 14.125 1.21875 L 13.453125 1.21875 C 13.453125 1.21875 13.3125 0.703125 13.03125 -0.328125 C 12.75 -1.367188 12.382812 -2.738281 11.9375 -4.4375 C 11.488281 -6.144531 11 -7.992188 10.46875 -9.984375 C 9.945312 -11.972656 9.421875 -13.960938 8.890625 -15.953125 C 8.359375 -17.941406 7.878906 -19.738281 7.453125 -21.34375 C 7.023438 -22.945312 6.691406 -24.175781 6.453125 -25.03125 C 6.046875 -26.65625 5.535156 -28.265625 4.921875 -29.859375 C 4.316406 -31.460938 3.609375 -32.789062 2.796875 -33.84375 C 1.984375 -34.90625 1.050781 -35.4375 0 -35.4375 L -1.21875 -35.4375 Z M -1.21875 -36.171875 "/></g></g></g><g fill="#ffffff" fill-opacity="1"><g transform="translate(157.188128, 242.624981)"><g><path d="M 22.34375 1.21875 C 18.488281 1.21875 15.109375 0.414062 12.203125 -1.1875 C 9.304688 -2.789062 7.054688 -5.039062 5.453125 -7.9375 C 3.847656 -10.84375 3.046875 -14.222656 3.046875 -18.078125 C 3.046875 -21.941406 3.847656 -25.320312 5.453125 -28.21875 C 7.054688 -31.125 9.304688 -33.378906 12.203125 -34.984375 C 15.109375 -36.585938 18.488281 -37.390625 22.34375 -37.390625 C 25.46875 -37.390625 28.046875 -36.929688 30.078125 -36.015625 C 32.109375 -35.097656 33.710938 -33.96875 34.890625 -32.625 C 36.066406 -31.289062 36.925781 -29.953125 37.46875 -28.609375 C 38.019531 -27.273438 38.375 -26.148438 38.53125 -25.234375 C 38.695312 -24.328125 38.78125 -23.875 38.78125 -23.875 L 6.390625 -23.875 C 6.304688 -23.34375 6.234375 -22.820312 6.171875 -22.3125 C 6.117188 -21.8125 6.09375 -21.273438 6.09375 -20.703125 C 6.09375 -17.171875 6.875 -13.972656 8.4375 -11.109375 C 10 -8.242188 12.207031 -5.957031 15.0625 -4.25 C 17.925781 -2.550781 21.285156 -1.703125 25.140625 -1.703125 C 28.273438 -1.703125 31.019531 -2.367188 33.375 -3.703125 C 35.726562 -5.046875 37.570312 -6.945312 38.90625 -9.40625 C 40.25 -11.863281 40.921875 -14.753906 40.921875 -18.078125 L 41.65625 -18.078125 C 41.65625 -14.222656 40.851562 -10.84375 39.25 -7.9375 C 37.644531 -5.039062 35.390625 -2.789062 32.484375 -1.1875 C 29.578125 0.414062 26.195312 1.21875 22.34375 1.21875 Z M 6.515625 -24.59375 L 34.640625 -24.59375 C 34.597656 -26.945312 33.9375 -29.023438 32.65625 -30.828125 C 31.382812 -32.640625 29.742188 -34.0625 27.734375 -35.09375 C 25.722656 -36.132812 23.582031 -36.65625 21.3125 -36.65625 C 18.914062 -36.65625 16.691406 -36.125 14.640625 -35.0625 C 12.585938 -34.007812 10.863281 -32.582031 9.46875 -30.78125 C 8.070312 -28.976562 7.085938 -26.914062 6.515625 -24.59375 Z M 6.515625 -24.59375 "/></g></g></g><g fill="#ffffff" fill-opacity="1"><g transform="translate(190.792316, 242.624981)"><g><path d="M 4.4375 -56.8125 C 3.707031 -56.8125 3.085938 -57.0625 2.578125 -57.5625 C 2.078125 -58.070312 1.828125 -58.710938 1.828125 -59.484375 C 1.828125 -60.222656 2.078125 -60.84375 2.578125 -61.34375 C 3.085938 -61.851562 3.707031 -62.109375 4.4375 -62.109375 C 5.375 -62.109375 6.078125 -61.78125 6.546875 -61.125 C 7.015625 -60.476562 7.273438 -59.664062 7.328125 -58.6875 C 7.390625 -57.71875 7.28125 -56.722656 7 -55.703125 C 6.71875 -54.691406 6.300781 -53.78125 5.75 -52.96875 C 5.207031 -52.15625 4.550781 -51.628906 3.78125 -51.390625 L 3.53125 -51.8125 C 4.0625 -52.144531 4.546875 -52.6875 4.984375 -53.4375 C 5.429688 -54.1875 5.65625 -54.925781 5.65625 -55.65625 C 5.65625 -56.1875 5.597656 -56.632812 5.484375 -57 C 5.117188 -56.875 4.769531 -56.8125 4.4375 -56.8125 Z M 4.4375 -56.8125 "/></g></g></g><g fill="#ffffff" fill-opacity="1"><g transform="translate(192.556801, 242.624981)"><g><path d="M 1.21875 -0.734375 L 4.015625 -0.734375 C 4.421875 -0.734375 4.859375 -0.820312 5.328125 -1 C 5.796875 -1.1875 6.210938 -1.5625 6.578125 -2.125 C 6.941406 -2.695312 7.125 -3.53125 7.125 -4.625 L 7.125 -53.640625 C 7.125 -54.085938 7.082031 -54.582031 7 -55.125 C 6.914062 -55.675781 6.660156 -56.15625 6.234375 -56.5625 C 5.816406 -56.96875 5.078125 -57.171875 4.015625 -57.171875 L 4.015625 -57.90625 C 6.171875 -57.90625 7.796875 -58.378906 8.890625 -59.328125 C 9.984375 -60.285156 10.53125 -61.210938 10.53125 -62.109375 L 11.265625 -62.109375 L 11.265625 -4.625 C 11.265625 -3.53125 11.445312 -2.695312 11.8125 -2.125 C 12.175781 -1.5625 12.601562 -1.1875 13.09375 -1 C 13.582031 -0.820312 14.007812 -0.734375 14.375 -0.734375 L 17.171875 -0.734375 L 17.171875 0 L 1.21875 0 Z M 1.21875 -0.734375 "/></g></g></g><g fill="#ffffff" fill-opacity="1"><g transform="translate(202.905223, 242.624981)"><g><path d="M 1.21875 -0.734375 L 4.015625 -0.734375 C 4.421875 -0.734375 4.859375 -0.820312 5.328125 -1 C 5.796875 -1.1875 6.210938 -1.5625 6.578125 -2.125 C 6.941406 -2.695312 7.125 -3.53125 7.125 -4.625 L 7.125 -53.640625 C 7.125 -54.085938 7.082031 -54.582031 7 -55.125 C 6.914062 -55.675781 6.660156 -56.15625 6.234375 -56.5625 C 5.816406 -56.96875 5.078125 -57.171875 4.015625 -57.171875 L 4.015625 -57.90625 C 6.171875 -57.90625 7.796875 -58.378906 8.890625 -59.328125 C 9.984375 -60.285156 10.53125 -61.210938 10.53125 -62.109375 L 11.265625 -62.109375 L 11.265625 -4.625 C 11.265625 -3.53125 11.445312 -2.695312 11.8125 -2.125 C 12.175781 -1.5625 12.601562 -1.1875 13.09375 -1 C 13.582031 -0.820312 14.007812 -0.734375 14.375 -0.734375 L 17.171875 -0.734375 L 17.171875 0 L 1.21875 0 Z M 1.21875 -0.734375 "/></g></g></g><g fill="#ffffff" fill-opacity="1"><g transform="translate(213.253645, 242.624981)"><g/></g></g><g fill="#ffffff" fill-opacity="1"><g transform="translate(227.193921, 242.624981)"><g><path d="M 6.390625 -35.4375 L 3.046875 -35.4375 L 3.046875 -36.171875 C 4.628906 -36.171875 5.851562 -36.613281 6.71875 -37.5 C 7.59375 -38.394531 8.222656 -39.507812 8.609375 -40.84375 C 8.992188 -42.1875 9.226562 -43.554688 9.3125 -44.953125 C 9.394531 -46.359375 9.4375 -47.59375 9.4375 -48.65625 L 10.171875 -48.65625 L 10.171875 -36.171875 L 15.40625 -36.171875 L 15.40625 -35.4375 L 10.171875 -35.4375 L 10.171875 -6.703125 C 10.171875 -5.722656 10.21875 -4.675781 10.3125 -3.5625 C 10.414062 -2.445312 10.691406 -1.503906 11.140625 -0.734375 C 11.585938 0.0351562 12.300781 0.421875 13.28125 0.421875 C 13.476562 0.421875 13.695312 0.398438 13.9375 0.359375 C 14.1875 0.316406 14.410156 0.257812 14.609375 0.1875 L 14.609375 0.90625 C 14.492188 0.945312 14.34375 1.007812 14.15625 1.09375 C 13.976562 1.175781 13.539062 1.21875 12.84375 1.21875 C 11.101562 1.21875 9.765625 0.679688 8.828125 -0.390625 C 7.890625 -1.472656 7.25 -2.804688 6.90625 -4.390625 C 6.5625 -5.972656 6.390625 -7.515625 6.390625 -9.015625 Z M 6.390625 -35.4375 "/></g></g></g><g fill="#ffffff" fill-opacity="1"><g transform="translate(236.994434, 242.624981)"><g><path d="M 22.34375 1.21875 C 18.488281 1.21875 15.109375 0.414062 12.203125 -1.1875 C 9.304688 -2.789062 7.054688 -5.039062 5.453125 -7.9375 C 3.847656 -10.84375 3.046875 -14.222656 3.046875 -18.078125 C 3.046875 -21.941406 3.847656 -25.320312 5.453125 -28.21875 C 7.054688 -31.125 9.304688 -33.378906 12.203125 -34.984375 C 15.109375 -36.585938 18.488281 -37.390625 22.34375 -37.390625 C 25.46875 -37.390625 28.046875 -36.929688 30.078125 -36.015625 C 32.109375 -35.097656 33.710938 -33.96875 34.890625 -32.625 C 36.066406 -31.289062 36.925781 -29.953125 37.46875 -28.609375 C 38.019531 -27.273438 38.375 -26.148438 38.53125 -25.234375 C 38.695312 -24.328125 38.78125 -23.875 38.78125 -23.875 L 6.390625 -23.875 C 6.304688 -23.34375 6.234375 -22.820312 6.171875 -22.3125 C 6.117188 -21.8125 6.09375 -21.273438 6.09375 -20.703125 C 6.09375 -17.171875 6.875 -13.972656 8.4375 -11.109375 C 10 -8.242188 12.207031 -5.957031 15.0625 -4.25 C 17.925781 -2.550781 21.285156 -1.703125 25.140625 -1.703125 C 28.273438 -1.703125 31.019531 -2.367188 33.375 -3.703125 C 35.726562 -5.046875 37.570312 -6.945312 38.90625 -9.40625 C 40.25 -11.863281 40.921875 -14.753906 40.921875 -18.078125 L 41.65625 -18.078125 C 41.65625 -14.222656 40.851562 -10.84375 39.25 -7.9375 C 37.644531 -5.039062 35.390625 -2.789062 32.484375 -1.1875 C 29.578125 0.414062 26.195312 1.21875 22.34375 1.21875 Z M 6.515625 -24.59375 L 34.640625 -24.59375 C 34.597656 -26.945312 33.9375 -29.023438 32.65625 -30.828125 C 31.382812 -32.640625 29.742188 -34.0625 27.734375 -35.09375 C 25.722656 -36.132812 23.582031 -36.65625 21.3125 -36.65625 C 18.914062 -36.65625 16.691406 -36.125 14.640625 -35.0625 C 12.585938 -34.007812 10.863281 -32.582031 9.46875 -30.78125 C 8.070312 -28.976562 7.085938 -26.914062 6.515625 -24.59375 Z M 6.515625 -24.59375 "/></g></g></g><g fill="#ffffff" fill-opacity="1"><g transform="translate(270.598634, 242.624981)"><g><path d="M 1.21875 -0.734375 L 4.015625 -0.734375 C 4.421875 -0.734375 4.859375 -0.820312 5.328125 -1 C 5.796875 -1.1875 6.210938 -1.5625 6.578125 -2.125 C 6.941406 -2.695312 7.125 -3.53125 7.125 -4.625 L 7.125 -53.640625 C 7.125 -54.085938 7.082031 -54.582031 7 -55.125 C 6.914062 -55.675781 6.660156 -56.15625 6.234375 -56.5625 C 5.816406 -56.96875 5.078125 -57.171875 4.015625 -57.171875 L 4.015625 -57.90625 C 6.171875 -57.90625 7.796875 -58.378906 8.890625 -59.328125 C 9.984375 -60.285156 10.53125 -61.210938 10.53125 -62.109375 L 11.265625 -62.109375 L 11.265625 -4.625 C 11.265625 -3.53125 11.445312 -2.695312 11.8125 -2.125 C 12.175781 -1.5625 12.601562 -1.1875 13.09375 -1 C 13.582031 -0.820312 14.007812 -0.734375 14.375 -0.734375 L 17.171875 -0.734375 L 17.171875 0 L 1.21875 0 Z M 1.21875 -0.734375 "/></g></g></g><g fill="#ffffff" fill-opacity="1"><g transform="translate(280.947045, 242.624981)"><g><path d="M 1.21875 -0.734375 L 4.015625 -0.734375 C 4.421875 -0.734375 4.859375 -0.820312 5.328125 -1 C 5.796875 -1.1875 6.210938 -1.5625 6.578125 -2.125 C 6.941406 -2.695312 7.125 -3.53125 7.125 -4.625 L 7.125 -53.640625 C 7.125 -54.085938 7.082031 -54.582031 7 -55.125 C 6.914062 -55.675781 6.660156 -56.15625 6.234375 -56.5625 C 5.816406 -56.96875 5.078125 -57.171875 4.015625 -57.171875 L 4.015625 -57.90625 C 6.171875 -57.90625 7.796875 -58.378906 8.890625 -59.328125 C 9.984375 -60.285156 10.53125 -61.210938 10.53125 -62.109375 L 11.265625 -62.109375 L 11.265625 -4.625 C 11.265625 -3.53125 11.445312 -2.695312 11.8125 -2.125 C 12.175781 -1.5625 12.601562 -1.1875 13.09375 -1 C 13.582031 -0.820312 14.007812 -0.734375 14.375 -0.734375 L 17.171875 -0.734375 L 17.171875 0 L 1.21875 0 Z M 1.21875 -0.734375 "/></g></g></g><g fill="#ffffff" fill-opacity="1"><g transform="translate(291.295456, 242.624981)"><g/></g></g><g fill="#ffffff" fill-opacity="1"><g transform="translate(305.235732, 242.624981)"><g><path d="M 29.046875 -35.4375 L 27.828125 -35.4375 C 27.054688 -35.4375 26.351562 -35.0625 25.71875 -34.3125 C 25.09375 -33.5625 24.535156 -32.597656 24.046875 -31.421875 C 23.566406 -30.242188 23.113281 -28.984375 22.6875 -27.640625 C 22.257812 -26.304688 21.84375 -25.03125 21.4375 -23.8125 C 21.3125 -23.445312 21.175781 -23.007812 21.03125 -22.5 C 20.894531 -21.988281 20.722656 -21.453125 20.515625 -20.890625 C 20.066406 -19.304688 19.539062 -17.488281 18.9375 -15.4375 C 18.332031 -13.382812 17.734375 -11.332031 17.140625 -9.28125 C 16.546875 -7.226562 16.007812 -5.414062 15.53125 -3.84375 C 15.363281 -3.226562 15.1875 -2.59375 15 -1.9375 C 14.820312 -1.289062 14.632812 -0.625 14.4375 0.0625 C 14.101562 1.28125 13.671875 2.875 13.140625 4.84375 C 12.617188 6.8125 11.953125 8.878906 11.140625 11.046875 C 10.328125 13.222656 9.363281 15.253906 8.25 17.140625 C 7.132812 19.023438 5.832031 20.554688 4.34375 21.734375 C 2.863281 22.910156 1.191406 23.457031 -0.671875 23.375 L -0.671875 18.140625 C 2.046875 17.859375 4.347656 16.832031 6.234375 15.0625 C 8.128906 13.300781 9.679688 11.097656 10.890625 8.453125 C 12.109375 5.816406 13.023438 3.019531 13.640625 0.0625 C 13.640625 0.0625 13.503906 -0.398438 13.234375 -1.328125 C 12.972656 -2.265625 12.617188 -3.484375 12.171875 -4.984375 C 11.734375 -6.492188 11.25 -8.148438 10.71875 -9.953125 C 10.1875 -11.765625 9.65625 -13.570312 9.125 -15.375 C 8.601562 -17.175781 8.140625 -18.816406 7.734375 -20.296875 C 7.328125 -21.785156 7.003906 -22.957031 6.765625 -23.8125 C 6.429688 -25.03125 6.050781 -26.316406 5.625 -27.671875 C 5.207031 -29.035156 4.734375 -30.304688 4.203125 -31.484375 C 3.671875 -32.660156 3.082031 -33.613281 2.4375 -34.34375 C 1.789062 -35.070312 1.0625 -35.4375 0.25 -35.4375 C -0.488281 -35.4375 -0.925781 -35.4375 -1.0625 -35.4375 C -1.207031 -35.4375 -1.226562 -35.4375 -1.125 -35.4375 C -1.019531 -35.4375 -0.96875 -35.4375 -0.96875 -35.4375 L -0.96875 -36.171875 L 13.21875 -36.171875 L 13.21875 -35.4375 C 12.925781 -35.4375 12.726562 -35.4375 12.625 -35.4375 C 12.53125 -35.4375 12.28125 -35.4375 11.875 -35.4375 C 10.851562 -35.4375 10.210938 -34.847656 9.953125 -33.671875 C 9.691406 -32.492188 9.640625 -31.113281 9.796875 -29.53125 C 9.878906 -28.632812 10.019531 -27.71875 10.21875 -26.78125 C 10.425781 -25.851562 10.65625 -24.960938 10.90625 -24.109375 C 11.226562 -23.015625 11.609375 -21.644531 12.046875 -20 C 12.492188 -18.351562 12.960938 -16.644531 13.453125 -14.875 C 13.941406 -13.113281 14.390625 -11.515625 14.796875 -10.078125 C 15.203125 -8.640625 15.503906 -7.570312 15.703125 -6.875 C 15.867188 -7.445312 16.101562 -8.28125 16.40625 -9.375 C 16.707031 -10.46875 17.0625 -11.710938 17.46875 -13.109375 C 17.875 -14.515625 18.28125 -15.945312 18.6875 -17.40625 C 19.09375 -18.875 19.476562 -20.21875 19.84375 -21.4375 C 20.007812 -21.957031 20.148438 -22.441406 20.265625 -22.890625 C 20.390625 -23.335938 20.492188 -23.742188 20.578125 -24.109375 C 20.859375 -25.285156 21.109375 -26.523438 21.328125 -27.828125 C 21.554688 -29.128906 21.691406 -30.359375 21.734375 -31.515625 C 21.773438 -32.671875 21.632812 -33.613281 21.3125 -34.34375 C 20.988281 -35.070312 20.421875 -35.4375 19.609375 -35.4375 C 19.203125 -35.4375 18.957031 -35.4375 18.875 -35.4375 C 18.789062 -35.4375 18.585938 -35.4375 18.265625 -35.4375 L 18.265625 -36.171875 L 29.046875 -36.171875 Z M 29.046875 -35.4375 "/></g></g></g><g fill="#ffffff" fill-opacity="1"><g transform="translate(325.629193, 242.624981)"><g><path d="M 22.34375 1.21875 C 19.664062 1.21875 17.160156 0.722656 14.828125 -0.265625 C 12.492188 -1.265625 10.441406 -2.644531 8.671875 -4.40625 C 6.910156 -6.175781 5.53125 -8.226562 4.53125 -10.5625 C 3.539062 -12.894531 3.046875 -15.398438 3.046875 -18.078125 C 3.046875 -20.765625 3.539062 -23.273438 4.53125 -25.609375 C 5.53125 -27.941406 6.910156 -29.988281 8.671875 -31.75 C 10.441406 -33.519531 12.492188 -34.898438 14.828125 -35.890625 C 17.160156 -36.890625 19.664062 -37.390625 22.34375 -37.390625 C 25.019531 -37.390625 27.523438 -36.890625 29.859375 -35.890625 C 32.203125 -34.898438 34.253906 -33.519531 36.015625 -31.75 C 37.785156 -29.988281 39.164062 -27.941406 40.15625 -25.609375 C 41.15625 -23.273438 41.65625 -20.765625 41.65625 -18.078125 C 41.65625 -15.398438 41.15625 -12.894531 40.15625 -10.5625 C 39.164062 -8.226562 37.785156 -6.175781 36.015625 -4.40625 C 34.253906 -2.644531 32.203125 -1.265625 29.859375 -0.265625 C 27.523438 0.722656 25.019531 1.21875 22.34375 1.21875 Z M 5.65625 -22.40625 C 5.65625 -19.644531 6.125 -17.003906 7.0625 -14.484375 C 8 -11.972656 9.335938 -9.742188 11.078125 -7.796875 C 12.828125 -5.847656 14.9375 -4.304688 17.40625 -3.171875 C 19.882812 -2.035156 22.664062 -1.46875 25.75 -1.46875 C 28.476562 -1.46875 30.828125 -2.015625 32.796875 -3.109375 C 34.765625 -4.203125 36.296875 -5.671875 37.390625 -7.515625 C 38.484375 -9.367188 39.03125 -11.453125 39.03125 -13.765625 C 39.03125 -16.484375 38.539062 -19.085938 37.5625 -21.578125 C 36.59375 -24.078125 35.203125 -26.3125 33.390625 -28.28125 C 31.585938 -30.25 29.457031 -31.8125 27 -32.96875 C 24.550781 -34.125 21.863281 -34.703125 18.9375 -34.703125 C 16.257812 -34.703125 13.925781 -34.164062 11.9375 -33.09375 C 9.945312 -32.019531 8.398438 -30.546875 7.296875 -28.671875 C 6.203125 -26.804688 5.65625 -24.71875 5.65625 -22.40625 Z M 5.65625 -22.40625 "/></g></g></g><g fill="#ffffff" fill-opacity="1"><g transform="translate(362.886117, 242.624981)"><g><path d="M 3.65625 -32.515625 L 3.65625 -33.25 C 5.800781 -33.25 7.421875 -33.722656 8.515625 -34.671875 C 9.617188 -35.628906 10.171875 -36.554688 10.171875 -37.453125 L 10.90625 -37.453125 L 10.90625 -5.296875 C 10.90625 -3.796875 11.164062 -2.46875 11.6875 -1.3125 C 12.21875 -0.15625 13.171875 0.421875 14.546875 0.421875 C 16.253906 0.421875 17.753906 -0.0625 19.046875 -1.03125 C 20.347656 -2.007812 21.445312 -3.226562 22.34375 -4.6875 C 23.238281 -6.144531 23.925781 -7.601562 24.40625 -9.0625 C 24.894531 -10.53125 25.160156 -11.734375 25.203125 -12.671875 L 25.203125 -28.984375 C 25.203125 -29.429688 25.160156 -29.925781 25.078125 -30.46875 C 25.003906 -31.019531 24.753906 -31.5 24.328125 -31.90625 C 23.898438 -32.3125 23.160156 -32.515625 22.109375 -32.515625 L 22.109375 -33.25 C 24.253906 -33.25 25.875 -33.722656 26.96875 -34.671875 C 28.070312 -35.628906 28.625 -36.554688 28.625 -37.453125 L 29.34375 -37.453125 L 29.34375 -7.1875 C 29.34375 -5.519531 29.523438 -4.453125 29.890625 -3.984375 C 30.265625 -3.515625 30.734375 -3.28125 31.296875 -3.28125 L 33 -3.28125 L 33 -2.5625 C 32.4375 -2.5625 31.738281 -2.519531 30.90625 -2.4375 C 30.070312 -2.351562 29.21875 -2.046875 28.34375 -1.515625 C 27.46875 -0.992188 26.664062 -0.0820312 25.9375 1.21875 L 25.203125 1.21875 L 25.203125 -9.140625 C 24.597656 -7.390625 23.773438 -5.722656 22.734375 -4.140625 C 21.703125 -2.554688 20.503906 -1.265625 19.140625 -0.265625 C 17.785156 0.722656 16.296875 1.21875 14.671875 1.21875 C 12.316406 1.21875 10.410156 0.585938 8.953125 -0.671875 C 7.492188 -1.929688 6.765625 -4.222656 6.765625 -7.546875 L 6.765625 -28.984375 C 6.765625 -29.429688 6.722656 -29.925781 6.640625 -30.46875 C 6.554688 -31.019531 6.300781 -31.5 5.875 -31.90625 C 5.445312 -32.3125 4.707031 -32.515625 3.65625 -32.515625 Z M 3.65625 -32.515625 "/></g></g></g><g fill="#ffffff" fill-opacity="1"><g transform="translate(391.504402, 242.624981)"><g/></g></g><g fill="#ffffff" fill-opacity="1"><g transform="translate(40.973179, 336.374974)"><g><path d="M 1.21875 -0.734375 L 4.015625 -0.734375 C 4.421875 -0.734375 4.859375 -0.820312 5.328125 -1 C 5.796875 -1.1875 6.210938 -1.5625 6.578125 -2.125 C 6.941406 -2.695312 7.125 -3.53125 7.125 -4.625 L 7.125 -28.984375 C 7.125 -29.429688 7.082031 -29.925781 7 -30.46875 C 6.914062 -31.019531 6.660156 -31.5 6.234375 -31.90625 C 5.816406 -32.3125 5.078125 -32.515625 4.015625 -32.515625 L 4.015625 -33.25 C 6.171875 -33.25 7.796875 -33.722656 8.890625 -34.671875 C 9.984375 -35.628906 10.53125 -36.554688 10.53125 -37.453125 L 11.265625 -37.453125 L 11.265625 -4.625 C 11.265625 -3.53125 11.445312 -2.695312 11.8125 -2.125 C 12.175781 -1.5625 12.601562 -1.1875 13.09375 -1 C 13.582031 -0.820312 14.007812 -0.734375 14.375 -0.734375 L 17.171875 -0.734375 L 17.171875 0 L 1.21875 0 Z M 9.1875 -39.703125 C 8.382812 -39.703125 7.6875 -39.992188 7.09375 -40.578125 C 6.5 -41.171875 6.203125 -41.875 6.203125 -42.6875 C 6.203125 -43.5 6.5 -44.195312 7.09375 -44.78125 C 7.6875 -45.375 8.382812 -45.671875 9.1875 -45.671875 C 10 -45.671875 10.695312 -45.375 11.28125 -44.78125 C 11.875 -44.195312 12.171875 -43.5 12.171875 -42.6875 C 12.171875 -41.875 11.875 -41.171875 11.28125 -40.578125 C 10.695312 -39.992188 10 -39.703125 9.1875 -39.703125 Z M 9.1875 -39.703125 "/></g></g></g><g fill="#ffffff" fill-opacity="1"><g transform="translate(51.321602, 336.374974)"><g><path d="M 1.21875 -0.734375 L 4.015625 -0.734375 C 4.421875 -0.734375 4.859375 -0.820312 5.328125 -1 C 5.796875 -1.1875 6.210938 -1.5625 6.578125 -2.125 C 6.941406 -2.695312 7.125 -3.53125 7.125 -4.625 L 7.125 -35.4375 L 1.640625 -35.4375 L 1.640625 -36.171875 L 7.125 -36.171875 L 7.125 -47.4375 C 7.125 -48.9375 7.304688 -50.535156 7.671875 -52.234375 C 8.035156 -53.941406 8.671875 -55.535156 9.578125 -57.015625 C 10.492188 -58.503906 11.773438 -59.722656 13.421875 -60.671875 C 15.066406 -61.628906 17.171875 -62.109375 19.734375 -62.109375 C 21.722656 -62.109375 23.34375 -61.84375 24.59375 -61.3125 C 25.851562 -60.789062 26.878906 -60.253906 27.671875 -59.703125 C 28.460938 -59.148438 29.101562 -58.875 29.59375 -58.875 C 30.039062 -58.875 30.425781 -59.097656 30.75 -59.546875 C 31.070312 -59.992188 31.457031 -60.847656 31.90625 -62.109375 L 32.703125 -62.109375 L 24.90625 -40.4375 L 24.171875 -40.4375 L 26 -45.671875 C 27.175781 -49.078125 27.648438 -51.957031 27.421875 -54.3125 C 27.203125 -56.664062 26.421875 -58.453125 25.078125 -59.671875 C 23.742188 -60.890625 21.960938 -61.5 19.734375 -61.5 C 17.410156 -61.5 15.488281 -61.070312 13.96875 -60.21875 C 12.445312 -59.363281 11.3125 -58.273438 10.5625 -56.953125 C 9.8125 -55.640625 9.4375 -54.3125 9.4375 -52.96875 C 9.4375 -52.15625 9.523438 -51.4375 9.703125 -50.8125 C 9.890625 -50.1875 10.101562 -49.46875 10.34375 -48.65625 C 10.59375 -47.84375 10.804688 -46.796875 10.984375 -45.515625 C 11.171875 -44.234375 11.265625 -42.5625 11.265625 -40.5 L 11.265625 -36.171875 L 16.75 -36.171875 L 16.75 -35.4375 L 11.265625 -35.4375 L 11.265625 -4.625 C 11.265625 -3.53125 11.445312 -2.695312 11.8125 -2.125 C 12.175781 -1.5625 12.601562 -1.1875 13.09375 -1 C 13.582031 -0.820312 14.007812 -0.734375 14.375 -0.734375 L 17.171875 -0.734375 L 17.171875 0 L 1.21875 0 Z M 1.21875 -0.734375 "/></g></g></g><g fill="#ffffff" fill-opacity="1"><g transform="translate(76.585371, 336.374974)"><g/></g></g><g fill="#ffffff" fill-opacity="1"><g transform="translate(90.525646, 336.374974)"><g><path d="M 1.21875 -0.734375 L 4.015625 -0.734375 C 4.421875 -0.734375 4.859375 -0.820312 5.328125 -1 C 5.796875 -1.1875 6.210938 -1.5625 6.578125 -2.125 C 6.941406 -2.695312 7.125 -3.53125 7.125 -4.625 L 7.125 -28.984375 C 7.125 -29.429688 7.082031 -29.925781 7 -30.46875 C 6.914062 -31.019531 6.660156 -31.5 6.234375 -31.90625 C 5.816406 -32.3125 5.078125 -32.515625 4.015625 -32.515625 L 4.015625 -33.25 C 6.171875 -33.25 7.796875 -33.722656 8.890625 -34.671875 C 9.984375 -35.628906 10.53125 -36.554688 10.53125 -37.453125 L 11.265625 -37.453125 L 11.265625 -4.625 C 11.265625 -3.53125 11.445312 -2.695312 11.8125 -2.125 C 12.175781 -1.5625 12.601562 -1.1875 13.09375 -1 C 13.582031 -0.820312 14.007812 -0.734375 14.375 -0.734375 L 17.171875 -0.734375 L 17.171875 0 L 1.21875 0 Z M 9.1875 -39.703125 C 8.382812 -39.703125 7.6875 -39.992188 7.09375 -40.578125 C 6.5 -41.171875 6.203125 -41.875 6.203125 -42.6875 C 6.203125 -43.5 6.5 -44.195312 7.09375 -44.78125 C 7.6875 -45.375 8.382812 -45.671875 9.1875 -45.671875 C 10 -45.671875 10.695312 -45.375 11.28125 -44.78125 C 11.875 -44.195312 12.171875 -43.5 12.171875 -42.6875 C 12.171875 -41.875 11.875 -41.171875 11.28125 -40.578125 C 10.695312 -39.992188 10 -39.703125 9.1875 -39.703125 Z M 9.1875 -39.703125 "/></g></g></g><g fill="#ffffff" fill-opacity="1"><g transform="translate(100.874069, 336.374974)"><g><path d="M 6.390625 -35.4375 L 3.046875 -35.4375 L 3.046875 -36.171875 C 4.628906 -36.171875 5.851562 -36.613281 6.71875 -37.5 C 7.59375 -38.394531 8.222656 -39.507812 8.609375 -40.84375 C 8.992188 -42.1875 9.226562 -43.554688 9.3125 -44.953125 C 9.394531 -46.359375 9.4375 -47.59375 9.4375 -48.65625 L 10.171875 -48.65625 L 10.171875 -36.171875 L 15.40625 -36.171875 L 15.40625 -35.4375 L 10.171875 -35.4375 L 10.171875 -6.703125 C 10.171875 -5.722656 10.21875 -4.675781 10.3125 -3.5625 C 10.414062 -2.445312 10.691406 -1.503906 11.140625 -0.734375 C 11.585938 0.0351562 12.300781 0.421875 13.28125 0.421875 C 13.476562 0.421875 13.695312 0.398438 13.9375 0.359375 C 14.1875 0.316406 14.410156 0.257812 14.609375 0.1875 L 14.609375 0.90625 C 14.492188 0.945312 14.34375 1.007812 14.15625 1.09375 C 13.976562 1.175781 13.539062 1.21875 12.84375 1.21875 C 11.101562 1.21875 9.765625 0.679688 8.828125 -0.390625 C 7.890625 -1.472656 7.25 -2.804688 6.90625 -4.390625 C 6.5625 -5.972656 6.390625 -7.515625 6.390625 -9.015625 Z M 6.390625 -35.4375 "/></g></g></g><g fill="#ffffff" fill-opacity="1"><g transform="translate(110.674582, 336.374974)"><g/></g></g><g fill="#ffffff" fill-opacity="1"><g transform="translate(124.614858, 336.374974)"><g><path d="M 1.21875 -0.734375 L 4.015625 -0.734375 C 4.421875 -0.734375 4.859375 -0.820312 5.328125 -1 C 5.796875 -1.1875 6.210938 -1.5625 6.578125 -2.125 C 6.941406 -2.695312 7.125 -3.53125 7.125 -4.625 L 7.125 -35.4375 L 1.640625 -35.4375 L 1.640625 -36.171875 L 7.125 -36.171875 L 7.125 -47.4375 C 7.125 -48.9375 7.304688 -50.535156 7.671875 -52.234375 C 8.035156 -53.941406 8.671875 -55.535156 9.578125 -57.015625 C 10.492188 -58.503906 11.773438 -59.722656 13.421875 -60.671875 C 15.066406 -61.628906 17.171875 -62.109375 19.734375 -62.109375 C 21.722656 -62.109375 23.34375 -61.84375 24.59375 -61.3125 C 25.851562 -60.789062 26.878906 -60.253906 27.671875 -59.703125 C 28.460938 -59.148438 29.101562 -58.875 29.59375 -58.875 C 30.039062 -58.875 30.425781 -59.097656 30.75 -59.546875 C 31.070312 -59.992188 31.457031 -60.847656 31.90625 -62.109375 L 32.703125 -62.109375 L 24.90625 -40.4375 L 24.171875 -40.4375 L 26 -45.671875 C 27.175781 -49.078125 27.648438 -51.957031 27.421875 -54.3125 C 27.203125 -56.664062 26.421875 -58.453125 25.078125 -59.671875 C 23.742188 -60.890625 21.960938 -61.5 19.734375 -61.5 C 17.410156 -61.5 15.488281 -61.070312 13.96875 -60.21875 C 12.445312 -59.363281 11.3125 -58.273438 10.5625 -56.953125 C 9.8125 -55.640625 9.4375 -54.3125 9.4375 -52.96875 C 9.4375 -52.15625 9.523438 -51.4375 9.703125 -50.8125 C 9.890625 -50.1875 10.101562 -49.46875 10.34375 -48.65625 C 10.59375 -47.84375 10.804688 -46.796875 10.984375 -45.515625 C 11.171875 -44.234375 11.265625 -42.5625 11.265625 -40.5 L 11.265625 -36.171875 L 16.75 -36.171875 L 16.75 -35.4375 L 11.265625 -35.4375 L 11.265625 -4.625 C 11.265625 -3.53125 11.445312 -2.695312 11.8125 -2.125 C 12.175781 -1.5625 12.601562 -1.1875 13.09375 -1 C 13.582031 -0.820312 14.007812 -0.734375 14.375 -0.734375 L 17.171875 -0.734375 L 17.171875 0 L 1.21875 0 Z M 1.21875 -0.734375 "/></g></g></g><g fill="#ffffff" fill-opacity="1"><g transform="translate(149.878627, 336.374974)"><g><path d="M 1.21875 -0.734375 L 4.015625 -0.734375 C 4.421875 -0.734375 4.859375 -0.820312 5.328125 -1 C 5.796875 -1.1875 6.210938 -1.5625 6.578125 -2.125 C 6.941406 -2.695312 7.125 -3.53125 7.125 -4.625 L 7.125 -28.984375 C 7.125 -29.429688 7.082031 -29.925781 7 -30.46875 C 6.914062 -31.019531 6.660156 -31.5 6.234375 -31.90625 C 5.816406 -32.3125 5.078125 -32.515625 4.015625 -32.515625 L 4.015625 -33.25 C 6.171875 -33.25 7.796875 -33.722656 8.890625 -34.671875 C 9.984375 -35.628906 10.53125 -36.554688 10.53125 -37.453125 L 11.265625 -37.453125 L 11.265625 -4.625 C 11.265625 -3.53125 11.445312 -2.695312 11.8125 -2.125 C 12.175781 -1.5625 12.601562 -1.1875 13.09375 -1 C 13.582031 -0.820312 14.007812 -0.734375 14.375 -0.734375 L 17.171875 -0.734375 L 17.171875 0 L 1.21875 0 Z M 9.1875 -39.703125 C 8.382812 -39.703125 7.6875 -39.992188 7.09375 -40.578125 C 6.5 -41.171875 6.203125 -41.875 6.203125 -42.6875 C 6.203125 -43.5 6.5 -44.195312 7.09375 -44.78125 C 7.6875 -45.375 8.382812 -45.671875 9.1875 -45.671875 C 10 -45.671875 10.695312 -45.375 11.28125 -44.78125 C 11.875 -44.195312 12.171875 -43.5 12.171875 -42.6875 C 12.171875 -41.875 11.875 -41.171875 11.28125 -40.578125 C 10.695312 -39.992188 10 -39.703125 9.1875 -39.703125 Z M 9.1875 -39.703125 "/></g></g></g><g fill="#ffffff" fill-opacity="1"><g transform="translate(160.227049, 336.374974)"><g><path d="M 6.390625 -35.4375 L 3.046875 -35.4375 L 3.046875 -36.171875 C 4.628906 -36.171875 5.851562 -36.613281 6.71875 -37.5 C 7.59375 -38.394531 8.222656 -39.507812 8.609375 -40.84375 C 8.992188 -42.1875 9.226562 -43.554688 9.3125 -44.953125 C 9.394531 -46.359375 9.4375 -47.59375 9.4375 -48.65625 L 10.171875 -48.65625 L 10.171875 -36.171875 L 15.40625 -36.171875 L 15.40625 -35.4375 L 10.171875 -35.4375 L 10.171875 -6.703125 C 10.171875 -5.722656 10.21875 -4.675781 10.3125 -3.5625 C 10.414062 -2.445312 10.691406 -1.503906 11.140625 -0.734375 C 11.585938 0.0351562 12.300781 0.421875 13.28125 0.421875 C 13.476562 0.421875 13.695312 0.398438 13.9375 0.359375 C 14.1875 0.316406 14.410156 0.257812 14.609375 0.1875 L 14.609375 0.90625 C 14.492188 0.945312 14.34375 1.007812 14.15625 1.09375 C 13.976562 1.175781 13.539062 1.21875 12.84375 1.21875 C 11.101562 1.21875 9.765625 0.679688 8.828125 -0.390625 C 7.890625 -1.472656 7.25 -2.804688 6.90625 -4.390625 C 6.5625 -5.972656 6.390625 -7.515625 6.390625 -9.015625 Z M 6.390625 -35.4375 "/></g></g></g><g fill="#ffffff" fill-opacity="1"><g transform="translate(170.027563, 336.374974)"><g><path d="M 2.4375 1.21875 L 2.4375 -14.0625 L 3.171875 -14.0625 L 3.171875 -11.140625 C 3.171875 -10.128906 3.390625 -8.960938 3.828125 -7.640625 C 4.273438 -6.316406 4.945312 -5.035156 5.84375 -3.796875 C 6.738281 -2.566406 7.851562 -1.546875 9.1875 -0.734375 C 10.53125 0.078125 12.078125 0.484375 13.828125 0.484375 C 15.523438 0.484375 16.953125 0.109375 18.109375 -0.640625 C 19.265625 -1.390625 20.128906 -2.375 20.703125 -3.59375 C 21.273438 -4.8125 21.5625 -6.070312 21.5625 -7.375 C 21.5625 -8.832031 21.113281 -10.128906 20.21875 -11.265625 C 19.320312 -12.398438 18.160156 -13.453125 16.734375 -14.421875 C 15.316406 -15.398438 13.816406 -16.375 12.234375 -17.34375 C 10.648438 -18.320312 9.148438 -19.367188 7.734375 -20.484375 C 6.316406 -21.609375 5.160156 -22.878906 4.265625 -24.296875 C 3.367188 -25.710938 2.921875 -27.375 2.921875 -29.28125 C 2.921875 -30.90625 3.375 -32.328125 4.28125 -33.546875 C 5.195312 -34.765625 6.40625 -35.71875 7.90625 -36.40625 C 9.414062 -37.101562 11.019531 -37.453125 12.71875 -37.453125 C 13.863281 -37.453125 14.835938 -37.347656 15.640625 -37.140625 C 16.453125 -36.941406 17.265625 -36.738281 18.078125 -36.53125 C 18.890625 -36.332031 19.828125 -36.234375 20.890625 -36.234375 C 21.253906 -36.234375 21.617188 -36.300781 21.984375 -36.4375 C 22.347656 -36.582031 22.53125 -36.921875 22.53125 -37.453125 L 23.265625 -37.453125 L 23.265625 -25.328125 L 22.53125 -25.328125 L 22.53125 -28.25 C 22.53125 -30 22.234375 -31.421875 21.640625 -32.515625 C 21.054688 -33.609375 20.296875 -34.457031 19.359375 -35.0625 C 18.429688 -35.675781 17.425781 -36.101562 16.34375 -36.34375 C 15.269531 -36.59375 14.25 -36.71875 13.28125 -36.71875 C 11.320312 -36.71875 9.644531 -36.109375 8.25 -34.890625 C 6.851562 -33.671875 6.15625 -32.066406 6.15625 -30.078125 C 6.15625 -28.617188 6.585938 -27.335938 7.453125 -26.234375 C 8.328125 -25.140625 9.453125 -24.132812 10.828125 -23.21875 C 12.210938 -22.3125 13.664062 -21.398438 15.1875 -20.484375 C 16.707031 -19.578125 18.15625 -18.613281 19.53125 -17.59375 C 20.914062 -16.582031 22.046875 -15.414062 22.921875 -14.09375 C 23.796875 -12.78125 24.234375 -11.226562 24.234375 -9.4375 C 24.234375 -7.53125 23.828125 -5.765625 23.015625 -4.140625 C 22.203125 -2.515625 21.015625 -1.210938 19.453125 -0.234375 C 17.890625 0.734375 15.992188 1.21875 13.765625 1.21875 C 12.015625 1.21875 10.4375 0.910156 9.03125 0.296875 C 7.632812 -0.304688 6.488281 -0.910156 5.59375 -1.515625 C 4.707031 -2.128906 4.101562 -2.4375 3.78125 -2.4375 C 3.445312 -2.4375 3.25 -2.3125 3.1875 -2.0625 C 3.132812 -1.820312 3.109375 -1.625 3.109375 -1.46875 L 3.109375 1.21875 Z M 2.4375 1.21875 "/></g></g></g><g fill="#ffffff" fill-opacity="1"><g transform="translate(189.264313, 336.374974)"><g/></g></g><g fill="#ffffff" fill-opacity="1"><g transform="translate(203.204589, 336.374974)"><g><path d="M 1.828125 -3.40625 C 1.828125 -4.34375 2.148438 -5.132812 2.796875 -5.78125 C 3.453125 -6.4375 4.242188 -6.765625 5.171875 -6.765625 C 6.109375 -6.765625 6.890625 -6.4375 7.515625 -5.78125 C 8.148438 -5.132812 8.46875 -4.34375 8.46875 -3.40625 C 8.46875 -2.4375 8.148438 -1.625 7.515625 -0.96875 C 6.890625 -0.320312 6.109375 0 5.171875 0 C 4.242188 0 3.453125 -0.320312 2.796875 -0.96875 C 2.148438 -1.625 1.828125 -2.4375 1.828125 -3.40625 Z M 1.828125 -3.40625 "/></g></g></g><g fill="#ffffff" fill-opacity="1"><g transform="translate(206.06489, 336.374974)"><g/></g></g><g fill="#ffffff" fill-opacity="1"><g transform="translate(220.005166, 336.374974)"><g><path d="M 1.828125 -3.40625 C 1.828125 -4.34375 2.148438 -5.132812 2.796875 -5.78125 C 3.453125 -6.4375 4.242188 -6.765625 5.171875 -6.765625 C 6.109375 -6.765625 6.890625 -6.4375 7.515625 -5.78125 C 8.148438 -5.132812 8.46875 -4.34375 8.46875 -3.40625 C 8.46875 -2.4375 8.148438 -1.625 7.515625 -0.96875 C 6.890625 -0.320312 6.109375 0 5.171875 0 C 4.242188 0 3.453125 -0.320312 2.796875 -0.96875 C 2.148438 -1.625 1.828125 -2.4375 1.828125 -3.40625 Z M 1.828125 -3.40625 "/></g></g></g><g fill="#ffffff" fill-opacity="1"><g transform="translate(222.865468, 336.374974)"><g/></g></g><g fill="#ffffff" fill-opacity="1"><g transform="translate(236.805744, 336.374974)"><g><path d="M 1.828125 -3.40625 C 1.828125 -4.34375 2.148438 -5.132812 2.796875 -5.78125 C 3.453125 -6.4375 4.242188 -6.765625 5.171875 -6.765625 C 6.109375 -6.765625 6.890625 -6.4375 7.515625 -5.78125 C 8.148438 -5.132812 8.46875 -4.34375 8.46875 -3.40625 C 8.46875 -2.4375 8.148438 -1.625 7.515625 -0.96875 C 6.890625 -0.320312 6.109375 0 5.171875 0 C 4.242188 0 3.453125 -0.320312 2.796875 -0.96875 C 2.148438 -1.625 1.828125 -2.4375 1.828125 -3.40625 Z M 1.828125 -3.40625 "/></g></g></g></svg>