<svg xmlns="http://www.w3.org/2000/svg" xmlns:xlink="http://www.w3.org/1999/xlink" zoomAndPan="magnify" viewBox="80 167 323 100" preserveAspectRatio="xMidYMid meet" version="1.0"><defs><g/></defs><g fill="#7a3a3a" fill-opacity="1"><g transform="translate(85.888283, 227.785705)"><g><path d="M 13.953125 0 L 0.984375 0 L 0.984375 -0.59375 L 3.265625 -0.59375 C 3.597656 -0.59375 3.953125 -0.664062 4.328125 -0.8125 C 4.710938 -0.96875 5.050781 -1.273438 5.34375 -1.734375 C 5.644531 -2.191406 5.796875 -2.867188 5.796875 -3.765625 L 5.796875 -23.5625 C 5.796875 -23.925781 5.757812 -24.328125 5.6875 -24.765625 C 5.625 -25.210938 5.414062 -25.601562 5.0625 -25.9375 C 4.71875 -26.269531 4.117188 -26.4375 3.265625 -26.4375 L 3.265625 -27.03125 C 5.015625 -27.03125 6.332031 -27.414062 7.21875 -28.1875 C 8.113281 -28.96875 8.5625 -29.71875 8.5625 -30.4375 L 9.15625 -30.4375 L 9.15625 -22.96875 C 9.6875 -24.320312 10.363281 -25.566406 11.1875 -26.703125 C 12.007812 -27.835938 12.972656 -28.742188 14.078125 -29.421875 C 15.179688 -30.097656 16.394531 -30.4375 17.71875 -30.4375 C 19.632812 -30.4375 21.1875 -29.925781 22.375 -28.90625 C 23.5625 -27.882812 24.15625 -26.019531 24.15625 -23.3125 L 24.15625 -22.96875 C 24.6875 -24.320312 25.363281 -25.566406 26.1875 -26.703125 C 27.007812 -27.835938 27.972656 -28.742188 29.078125 -29.421875 C 30.179688 -30.097656 31.394531 -30.4375 32.71875 -30.4375 C 34.632812 -30.4375 36.1875 -29.925781 37.375 -28.90625 C 38.5625 -27.882812 39.15625 -26.019531 39.15625 -23.3125 L 39.15625 -3.765625 C 39.15625 -2.867188 39.300781 -2.191406 39.59375 -1.734375 C 39.894531 -1.273438 40.242188 -0.96875 40.640625 -0.8125 C 41.035156 -0.664062 41.378906 -0.59375 41.671875 -0.59375 L 43.953125 -0.59375 L 43.953125 0 L 30.984375 0 L 30.984375 -0.59375 L 33.265625 -0.59375 C 33.597656 -0.59375 33.953125 -0.664062 34.328125 -0.8125 C 34.703125 -0.96875 35.035156 -1.273438 35.328125 -1.734375 C 35.628906 -2.191406 35.78125 -2.867188 35.78125 -3.765625 L 35.78125 -25.140625 C 35.78125 -26.367188 35.570312 -27.457031 35.15625 -28.40625 C 34.75 -29.363281 33.96875 -29.84375 32.8125 -29.84375 C 31.425781 -29.84375 30.207031 -29.488281 29.15625 -28.78125 C 28.101562 -28.070312 27.210938 -27.1875 26.484375 -26.125 C 25.753906 -25.070312 25.195312 -24 24.8125 -22.90625 C 24.4375 -21.820312 24.21875 -20.898438 24.15625 -20.140625 L 24.15625 -3.765625 C 24.15625 -2.867188 24.300781 -2.191406 24.59375 -1.734375 C 24.894531 -1.273438 25.242188 -0.96875 25.640625 -0.8125 C 26.035156 -0.664062 26.382812 -0.59375 26.6875 -0.59375 L 28.953125 -0.59375 L 28.953125 0 L 15.984375 0 L 15.984375 -0.59375 L 18.265625 -0.59375 C 18.597656 -0.59375 18.953125 -0.664062 19.328125 -0.8125 C 19.710938 -0.96875 20.050781 -1.273438 20.34375 -1.734375 C 20.644531 -2.191406 20.796875 -2.867188 20.796875 -3.765625 L 20.796875 -25.140625 C 20.796875 -26.367188 20.585938 -27.457031 20.171875 -28.40625 C 19.753906 -29.363281 18.96875 -29.84375 17.8125 -29.84375 C 16.425781 -29.84375 15.207031 -29.488281 14.15625 -28.78125 C 13.101562 -28.070312 12.210938 -27.1875 11.484375 -26.125 C 10.753906 -25.070312 10.195312 -24 9.8125 -22.90625 C 9.4375 -21.820312 9.21875 -20.898438 9.15625 -20.140625 L 9.15625 -3.765625 C 9.15625 -2.867188 9.300781 -2.191406 9.59375 -1.734375 C 9.894531 -1.273438 10.242188 -0.96875 10.640625 -0.8125 C 11.035156 -0.664062 11.382812 -0.59375 11.6875 -0.59375 L 13.953125 -0.59375 Z M 13.953125 0 "/></g></g></g><g fill="#7a3a3a" fill-opacity="1"><g transform="translate(123.110464, 227.785705)"><g><path d="M 16.03125 0.984375 C 13.289062 0.984375 10.90625 0.410156 8.875 -0.734375 C 6.851562 -1.890625 5.28125 -3.445312 4.15625 -5.40625 C 3.03125 -7.375 2.46875 -9.53125 2.46875 -11.875 C 2.46875 -13.757812 2.832031 -15.519531 3.5625 -17.15625 C 4.289062 -18.789062 5.320312 -20.207031 6.65625 -21.40625 C 7.988281 -22.613281 9.582031 -23.5 11.4375 -24.0625 C 10.84375 -24.625 10.210938 -25.160156 9.546875 -25.671875 C 8.890625 -26.179688 8.195312 -26.648438 7.46875 -27.078125 C 8.625 -28.234375 9.976562 -29.070312 11.53125 -29.59375 C 13.082031 -30.125 14.816406 -30.390625 16.734375 -30.390625 C 19.734375 -30.390625 22.207031 -29.84375 24.15625 -28.75 C 26.101562 -27.664062 27.5625 -26.175781 28.53125 -24.28125 C 29.507812 -22.382812 30 -20.25 30 -17.875 L 30 -5.140625 C 30 -3.554688 30.226562 -2.398438 30.6875 -1.671875 C 31.15625 -0.953125 32.082031 -0.59375 33.46875 -0.59375 L 33.46875 0 L 29.65625 0 C 28.46875 0 27.664062 -0.398438 27.25 -1.203125 C 26.832031 -2.015625 26.625 -2.867188 26.625 -3.765625 L 26.625 -3.953125 C 25.507812 -2.535156 24.050781 -1.359375 22.25 -0.421875 C 20.445312 0.515625 18.375 0.984375 16.03125 0.984375 Z M 12.171875 -23.3125 C 10.097656 -22.457031 8.46875 -20.972656 7.28125 -18.859375 C 6.09375 -16.742188 5.5 -14.367188 5.5 -11.734375 C 5.5 -9.484375 5.9375 -7.441406 6.8125 -5.609375 C 7.6875 -3.785156 8.914062 -2.328125 10.5 -1.234375 C 12.082031 -0.148438 13.945312 0.390625 16.09375 0.390625 C 18.101562 0.390625 20.082031 -0.078125 22.03125 -1.015625 C 23.976562 -1.953125 25.507812 -3.28125 26.625 -5 L 26.625 -19.25 C 26.132812 -19.976562 25.453125 -20.710938 24.578125 -21.453125 C 23.703125 -22.203125 22.570312 -22.820312 21.1875 -23.3125 C 19.800781 -23.8125 18.101562 -24.0625 16.09375 -24.0625 C 14.832031 -24.0625 13.660156 -23.863281 12.578125 -23.46875 C 13.367188 -22.675781 14.203125 -21.722656 15.078125 -20.609375 C 15.953125 -19.503906 16.6875 -18.234375 17.28125 -16.796875 C 17.875 -15.367188 18.171875 -13.726562 18.171875 -11.875 C 18.171875 -10.125 17.804688 -8.710938 17.078125 -7.640625 C 16.347656 -6.566406 15.390625 -6.03125 14.203125 -6.03125 C 14.003906 -6.03125 13.859375 -6.082031 13.765625 -6.1875 C 14.054688 -6.25 14.445312 -6.507812 14.9375 -6.96875 C 15.4375 -7.4375 15.890625 -8.09375 16.296875 -8.9375 C 16.710938 -9.78125 16.921875 -10.796875 16.921875 -11.984375 C 16.921875 -14.222656 16.492188 -16.289062 15.640625 -18.1875 C 14.785156 -20.082031 13.628906 -21.789062 12.171875 -23.3125 Z M 16.828125 -29.796875 C 14.710938 -29.796875 13.164062 -29.484375 12.1875 -28.859375 C 11.21875 -28.234375 10.734375 -27.472656 10.734375 -26.578125 C 10.734375 -26.285156 10.789062 -25.945312 10.90625 -25.5625 C 11.03125 -25.1875 11.335938 -24.734375 11.828125 -24.203125 C 12.492188 -24.367188 13.179688 -24.5 13.890625 -24.59375 C 14.597656 -24.695312 15.3125 -24.75 16.03125 -24.75 C 18.34375 -24.75 20.378906 -24.359375 22.140625 -23.578125 C 23.910156 -22.804688 25.375 -21.742188 26.53125 -20.390625 C 26.53125 -21.972656 26.148438 -23.484375 25.390625 -24.921875 C 24.628906 -26.359375 23.53125 -27.53125 22.09375 -28.4375 C 20.664062 -29.34375 18.910156 -29.796875 16.828125 -29.796875 Z M 16.828125 -29.796875 "/></g></g></g><g fill="#7a3a3a" fill-opacity="1"><g transform="translate(149.838641, 227.785705)"><g><path d="M 23.609375 -28.8125 L 22.625 -28.8125 C 22 -28.8125 21.425781 -28.503906 20.90625 -27.890625 C 20.394531 -27.285156 19.941406 -26.503906 19.546875 -25.546875 C 19.148438 -24.585938 18.78125 -23.5625 18.4375 -22.46875 C 18.09375 -21.382812 17.753906 -20.347656 17.421875 -19.359375 C 17.328125 -19.054688 17.21875 -18.695312 17.09375 -18.28125 C 16.976562 -17.875 16.84375 -17.441406 16.6875 -16.984375 C 16.320312 -15.691406 15.890625 -14.210938 15.390625 -12.546875 C 14.898438 -10.878906 14.414062 -9.210938 13.9375 -7.546875 C 13.457031 -5.878906 13.019531 -4.40625 12.625 -3.125 C 12.488281 -2.625 12.347656 -2.109375 12.203125 -1.578125 C 12.054688 -1.054688 11.898438 -0.515625 11.734375 0.046875 C 11.460938 1.035156 11.113281 2.332031 10.6875 3.9375 C 10.257812 5.539062 9.710938 7.222656 9.046875 8.984375 C 8.390625 10.742188 7.609375 12.390625 6.703125 13.921875 C 5.796875 15.460938 4.738281 16.710938 3.53125 17.671875 C 2.332031 18.628906 0.972656 19.078125 -0.546875 19.015625 L -0.546875 14.75 C 1.660156 14.519531 3.53125 13.6875 5.0625 12.25 C 6.601562 10.8125 7.867188 9.019531 8.859375 6.875 C 9.847656 4.726562 10.59375 2.453125 11.09375 0.046875 C 11.09375 0.046875 10.984375 -0.332031 10.765625 -1.09375 C 10.546875 -1.851562 10.253906 -2.84375 9.890625 -4.0625 C 9.535156 -5.28125 9.140625 -6.625 8.703125 -8.09375 C 8.273438 -9.5625 7.847656 -11.03125 7.421875 -12.5 C 6.992188 -13.96875 6.613281 -15.300781 6.28125 -16.5 C 5.957031 -17.707031 5.695312 -18.660156 5.5 -19.359375 C 5.226562 -20.347656 4.921875 -21.394531 4.578125 -22.5 C 4.234375 -23.601562 3.84375 -24.632812 3.40625 -25.59375 C 2.976562 -26.550781 2.5 -27.328125 1.96875 -27.921875 C 1.445312 -28.515625 0.859375 -28.8125 0.203125 -28.8125 C -0.390625 -28.8125 -0.742188 -28.8125 -0.859375 -28.8125 C -0.984375 -28.8125 -1.003906 -28.8125 -0.921875 -28.8125 C -0.835938 -28.8125 -0.796875 -28.8125 -0.796875 -28.8125 L -0.796875 -29.40625 L 10.734375 -29.40625 L 10.734375 -28.8125 C 10.503906 -28.8125 10.347656 -28.8125 10.265625 -28.8125 C 10.179688 -28.8125 9.976562 -28.8125 9.65625 -28.8125 C 8.832031 -28.8125 8.3125 -28.332031 8.09375 -27.375 C 7.875 -26.414062 7.832031 -25.289062 7.96875 -24 C 8.03125 -23.28125 8.144531 -22.539062 8.3125 -21.78125 C 8.476562 -21.019531 8.660156 -20.296875 8.859375 -19.609375 C 9.117188 -18.710938 9.429688 -17.59375 9.796875 -16.25 C 10.160156 -14.914062 10.539062 -13.53125 10.9375 -12.09375 C 11.332031 -10.664062 11.695312 -9.363281 12.03125 -8.1875 C 12.363281 -7.019531 12.609375 -6.15625 12.765625 -5.59375 C 12.898438 -6.050781 13.09375 -6.722656 13.34375 -7.609375 C 13.59375 -8.503906 13.878906 -9.519531 14.203125 -10.65625 C 14.535156 -11.800781 14.863281 -12.96875 15.1875 -14.15625 C 15.519531 -15.34375 15.835938 -16.429688 16.140625 -17.421875 C 16.265625 -17.847656 16.375 -18.242188 16.46875 -18.609375 C 16.570312 -18.972656 16.660156 -19.304688 16.734375 -19.609375 C 16.960938 -20.554688 17.164062 -21.554688 17.34375 -22.609375 C 17.53125 -23.671875 17.640625 -24.671875 17.671875 -25.609375 C 17.703125 -26.554688 17.582031 -27.328125 17.3125 -27.921875 C 17.050781 -28.515625 16.59375 -28.8125 15.9375 -28.8125 C 15.601562 -28.8125 15.40625 -28.8125 15.34375 -28.8125 C 15.28125 -28.8125 15.113281 -28.8125 14.84375 -28.8125 L 14.84375 -29.40625 L 23.609375 -29.40625 Z M 23.609375 -28.8125 "/></g></g></g><g fill="#7a3a3a" fill-opacity="1"><g transform="translate(165.231321, 227.785705)"><g/></g></g><g fill="#7a3a3a" fill-opacity="1"><g transform="translate(175.377012, 227.785705)"><g><path d="M 0.984375 0 L 0.984375 -0.59375 L 3.265625 -0.59375 C 3.597656 -0.59375 3.953125 -0.664062 4.328125 -0.8125 C 4.710938 -0.96875 5.050781 -1.273438 5.34375 -1.734375 C 5.644531 -2.191406 5.796875 -2.867188 5.796875 -3.765625 L 5.796875 -23.5625 C 5.796875 -23.925781 5.757812 -24.328125 5.6875 -24.765625 C 5.625 -25.210938 5.414062 -25.601562 5.0625 -25.9375 C 4.71875 -26.269531 4.117188 -26.4375 3.265625 -26.4375 L 3.265625 -27.03125 C 5.015625 -27.03125 6.332031 -27.414062 7.21875 -28.1875 C 8.113281 -28.96875 8.5625 -29.71875 8.5625 -30.4375 L 9.15625 -30.4375 L 9.15625 -22.96875 C 9.6875 -24.320312 10.363281 -25.566406 11.1875 -26.703125 C 12.007812 -27.835938 12.972656 -28.742188 14.078125 -29.421875 C 15.179688 -30.097656 16.394531 -30.4375 17.71875 -30.4375 C 19.632812 -30.4375 21.1875 -29.925781 22.375 -28.90625 C 23.5625 -27.882812 24.15625 -26.019531 24.15625 -23.3125 L 24.15625 -3.765625 C 24.15625 -2.867188 24.300781 -2.191406 24.59375 -1.734375 C 24.894531 -1.273438 25.242188 -0.96875 25.640625 -0.8125 C 26.035156 -0.664062 26.382812 -0.59375 26.6875 -0.59375 L 28.953125 -0.59375 L 28.953125 0 L 15.984375 0 L 15.984375 -0.59375 L 18.265625 -0.59375 C 18.597656 -0.59375 18.953125 -0.664062 19.328125 -0.8125 C 19.710938 -0.96875 20.050781 -1.273438 20.34375 -1.734375 C 20.644531 -2.191406 20.796875 -2.867188 20.796875 -3.765625 L 20.796875 -25.140625 C 20.796875 -26.367188 20.585938 -27.457031 20.171875 -28.40625 C 19.753906 -29.363281 18.96875 -29.84375 17.8125 -29.84375 C 16.425781 -29.84375 15.207031 -29.488281 14.15625 -28.78125 C 13.101562 -28.070312 12.210938 -27.1875 11.484375 -26.125 C 10.753906 -25.070312 10.195312 -24 9.8125 -22.90625 C 9.4375 -21.820312 9.21875 -20.898438 9.15625 -20.140625 L 9.15625 -3.765625 C 9.15625 -2.867188 9.300781 -2.191406 9.59375 -1.734375 C 9.894531 -1.273438 10.242188 -0.96875 10.640625 -0.8125 C 11.035156 -0.664062 11.382812 -0.59375 11.6875 -0.59375 L 13.953125 -0.59375 L 13.953125 0 Z M 0.984375 0 "/></g></g></g><g fill="#7a3a3a" fill-opacity="1"><g transform="translate(197.600693, 227.785705)"><g><path d="M 18.171875 0.984375 C 15.992188 0.984375 13.953125 0.582031 12.046875 -0.21875 C 10.148438 -1.03125 8.484375 -2.148438 7.046875 -3.578125 C 5.617188 -5.015625 4.5 -6.679688 3.6875 -8.578125 C 2.875 -10.484375 2.46875 -12.523438 2.46875 -14.703125 C 2.46875 -16.878906 2.875 -18.914062 3.6875 -20.8125 C 4.5 -22.707031 5.617188 -24.375 7.046875 -25.8125 C 8.484375 -27.25 10.148438 -28.367188 12.046875 -29.171875 C 13.953125 -29.984375 15.992188 -30.390625 18.171875 -30.390625 C 20.347656 -30.390625 22.382812 -29.984375 24.28125 -29.171875 C 26.175781 -28.367188 27.84375 -27.25 29.28125 -25.8125 C 30.71875 -24.375 31.835938 -22.707031 32.640625 -20.8125 C 33.453125 -18.914062 33.859375 -16.878906 33.859375 -14.703125 C 33.859375 -12.523438 33.453125 -10.484375 32.640625 -8.578125 C 31.835938 -6.679688 30.71875 -5.015625 29.28125 -3.578125 C 27.84375 -2.148438 26.175781 -1.03125 24.28125 -0.21875 C 22.382812 0.582031 20.347656 0.984375 18.171875 0.984375 Z M 4.609375 -18.21875 C 4.609375 -15.96875 4.984375 -13.820312 5.734375 -11.78125 C 6.492188 -9.738281 7.582031 -7.921875 9 -6.328125 C 10.425781 -4.742188 12.144531 -3.488281 14.15625 -2.5625 C 16.164062 -1.644531 18.425781 -1.1875 20.9375 -1.1875 C 23.144531 -1.1875 25.050781 -1.628906 26.65625 -2.515625 C 28.257812 -3.410156 29.503906 -4.609375 30.390625 -6.109375 C 31.285156 -7.609375 31.734375 -9.300781 31.734375 -11.1875 C 31.734375 -13.394531 31.335938 -15.515625 30.546875 -17.546875 C 29.753906 -19.578125 28.625 -21.390625 27.15625 -22.984375 C 25.6875 -24.585938 23.953125 -25.859375 21.953125 -26.796875 C 19.953125 -27.742188 17.765625 -28.21875 15.390625 -28.21875 C 13.210938 -28.21875 11.316406 -27.78125 9.703125 -26.90625 C 8.085938 -26.03125 6.832031 -24.832031 5.9375 -23.3125 C 5.050781 -21.789062 4.609375 -20.09375 4.609375 -18.21875 Z M 4.609375 -18.21875 "/></g></g></g><g fill="#7a3a3a" fill-opacity="1"><g transform="translate(226.70487, 227.785705)"><g><path d="M 5.203125 -28.8125 L 2.46875 -28.8125 L 2.46875 -29.40625 C 3.757812 -29.40625 4.757812 -29.765625 5.46875 -30.484375 C 6.175781 -31.210938 6.6875 -32.117188 7 -33.203125 C 7.3125 -34.296875 7.5 -35.410156 7.5625 -36.546875 C 7.632812 -37.691406 7.671875 -38.691406 7.671875 -39.546875 L 8.265625 -39.546875 L 8.265625 -29.40625 L 12.53125 -29.40625 L 12.53125 -28.8125 L 8.265625 -28.8125 L 8.265625 -5.4375 C 8.265625 -4.644531 8.304688 -3.796875 8.390625 -2.890625 C 8.472656 -1.984375 8.695312 -1.21875 9.0625 -0.59375 C 9.425781 0.03125 10.003906 0.34375 10.796875 0.34375 C 10.953125 0.34375 11.128906 0.328125 11.328125 0.296875 C 11.523438 0.265625 11.707031 0.21875 11.875 0.15625 L 11.875 0.75 C 11.78125 0.78125 11.65625 0.828125 11.5 0.890625 C 11.351562 0.953125 11 0.984375 10.4375 0.984375 C 9.019531 0.984375 7.929688 0.546875 7.171875 -0.328125 C 6.410156 -1.203125 5.890625 -2.28125 5.609375 -3.5625 C 5.335938 -4.851562 5.203125 -6.109375 5.203125 -7.328125 Z M 5.203125 -28.8125 "/></g></g></g><g fill="#7a3a3a" fill-opacity="1"><g transform="translate(233.484555, 227.785705)"><g/></g></g><g fill="#7a3a3a" fill-opacity="1"><g transform="translate(243.630246, 227.785705)"><g><path d="M 0.984375 -0.59375 L 3.265625 -0.59375 C 3.597656 -0.59375 3.953125 -0.664062 4.328125 -0.8125 C 4.710938 -0.96875 5.050781 -1.273438 5.34375 -1.734375 C 5.644531 -2.191406 5.796875 -2.867188 5.796875 -3.765625 L 5.796875 -28.8125 L 1.34375 -28.8125 L 1.34375 -29.40625 L 5.796875 -29.40625 L 5.796875 -38.5625 C 5.796875 -39.78125 5.941406 -41.082031 6.234375 -42.46875 C 6.535156 -43.851562 7.054688 -45.144531 7.796875 -46.34375 C 8.535156 -47.550781 9.570312 -48.539062 10.90625 -49.3125 C 12.25 -50.09375 13.957031 -50.484375 16.03125 -50.484375 C 17.65625 -50.484375 18.976562 -50.269531 20 -49.84375 C 21.019531 -49.414062 21.851562 -48.976562 22.5 -48.53125 C 23.144531 -48.082031 23.664062 -47.859375 24.0625 -47.859375 C 24.414062 -47.859375 24.722656 -48.039062 24.984375 -48.40625 C 25.253906 -48.769531 25.570312 -49.460938 25.9375 -50.484375 L 26.578125 -50.484375 L 20.25 -32.875 L 19.65625 -32.875 L 21.140625 -37.125 C 22.097656 -39.894531 22.484375 -42.238281 22.296875 -44.15625 C 22.117188 -46.070312 21.484375 -47.523438 20.390625 -48.515625 C 19.304688 -49.503906 17.851562 -50 16.03125 -50 C 14.15625 -50 12.597656 -49.648438 11.359375 -48.953125 C 10.117188 -48.265625 9.191406 -47.382812 8.578125 -46.3125 C 7.972656 -45.238281 7.671875 -44.15625 7.671875 -43.0625 C 7.671875 -42.40625 7.742188 -41.820312 7.890625 -41.3125 C 8.046875 -40.800781 8.222656 -40.210938 8.421875 -39.546875 C 8.617188 -38.890625 8.789062 -38.039062 8.9375 -37 C 9.082031 -35.957031 9.15625 -34.597656 9.15625 -32.921875 L 9.15625 -29.40625 L 13.609375 -29.40625 L 13.609375 -28.8125 L 9.15625 -28.8125 L 9.15625 -3.765625 C 9.15625 -2.867188 9.300781 -2.191406 9.59375 -1.734375 C 9.894531 -1.273438 10.242188 -0.96875 10.640625 -0.8125 C 11.035156 -0.664062 11.382812 -0.59375 11.6875 -0.59375 L 13.953125 -0.59375 L 13.953125 0 L 0.984375 0 Z M 0.984375 -0.59375 "/></g></g></g><g fill="#7a3a3a" fill-opacity="1"><g transform="translate(262.982925, 227.785705)"><g><path d="M 0.984375 -0.59375 L 3.265625 -0.59375 C 3.597656 -0.59375 3.953125 -0.664062 4.328125 -0.8125 C 4.710938 -0.96875 5.050781 -1.273438 5.34375 -1.734375 C 5.644531 -2.191406 5.796875 -2.867188 5.796875 -3.765625 L 5.796875 -23.5625 C 5.796875 -23.925781 5.757812 -24.328125 5.6875 -24.765625 C 5.625 -25.210938 5.414062 -25.601562 5.0625 -25.9375 C 4.71875 -26.269531 4.117188 -26.4375 3.265625 -26.4375 L 3.265625 -27.03125 C 5.015625 -27.03125 6.332031 -27.414062 7.21875 -28.1875 C 8.113281 -28.96875 8.5625 -29.71875 8.5625 -30.4375 L 9.15625 -30.4375 L 9.15625 -3.765625 C 9.15625 -2.867188 9.300781 -2.191406 9.59375 -1.734375 C 9.894531 -1.273438 10.242188 -0.96875 10.640625 -0.8125 C 11.035156 -0.664062 11.382812 -0.59375 11.6875 -0.59375 L 13.953125 -0.59375 L 13.953125 0 L 0.984375 0 Z M 7.46875 -32.28125 C 6.8125 -32.28125 6.242188 -32.515625 5.765625 -32.984375 C 5.285156 -33.460938 5.046875 -34.035156 5.046875 -34.703125 C 5.046875 -35.359375 5.285156 -35.925781 5.765625 -36.40625 C 6.242188 -36.882812 6.8125 -37.125 7.46875 -37.125 C 8.132812 -37.125 8.707031 -36.882812 9.1875 -36.40625 C 9.664062 -35.925781 9.90625 -35.359375 9.90625 -34.703125 C 9.90625 -34.035156 9.664062 -33.460938 9.1875 -32.984375 C 8.707031 -32.515625 8.132812 -32.28125 7.46875 -32.28125 Z M 7.46875 -32.28125 "/></g></g></g><g fill="#7a3a3a" fill-opacity="1"><g transform="translate(270.208117, 227.785705)"><g><path d="M 5.203125 -28.8125 L 2.46875 -28.8125 L 2.46875 -29.40625 C 3.757812 -29.40625 4.757812 -29.765625 5.46875 -30.484375 C 6.175781 -31.210938 6.6875 -32.117188 7 -33.203125 C 7.3125 -34.296875 7.5 -35.410156 7.5625 -36.546875 C 7.632812 -37.691406 7.671875 -38.691406 7.671875 -39.546875 L 8.265625 -39.546875 L 8.265625 -29.40625 L 12.53125 -29.40625 L 12.53125 -28.8125 L 8.265625 -28.8125 L 8.265625 -5.4375 C 8.265625 -4.644531 8.304688 -3.796875 8.390625 -2.890625 C 8.472656 -1.984375 8.695312 -1.21875 9.0625 -0.59375 C 9.425781 0.03125 10.003906 0.34375 10.796875 0.34375 C 10.953125 0.34375 11.128906 0.328125 11.328125 0.296875 C 11.523438 0.265625 11.707031 0.21875 11.875 0.15625 L 11.875 0.75 C 11.78125 0.78125 11.65625 0.828125 11.5 0.890625 C 11.351562 0.953125 11 0.984375 10.4375 0.984375 C 9.019531 0.984375 7.929688 0.546875 7.171875 -0.328125 C 6.410156 -1.203125 5.890625 -2.28125 5.609375 -3.5625 C 5.335938 -4.851562 5.203125 -6.109375 5.203125 -7.328125 Z M 5.203125 -28.8125 "/></g></g></g><g fill="#7a3a3a" fill-opacity="1"><g transform="translate(276.987803, 227.785705)"><g/></g></g><g fill="#7a3a3a" fill-opacity="1"><g transform="translate(287.133493, 227.785705)"><g><path d="M -0.984375 -29.40625 L 10.546875 -29.40625 L 10.546875 -28.8125 L 9.453125 -28.8125 C 8.628906 -28.8125 8.109375 -28.503906 7.890625 -27.890625 C 7.679688 -27.285156 7.640625 -26.320312 7.765625 -25 C 7.835938 -24.300781 7.953125 -23.5625 8.109375 -22.78125 C 8.273438 -22.007812 8.457031 -21.28125 8.65625 -20.59375 C 8.925781 -19.695312 9.238281 -18.546875 9.59375 -17.140625 C 9.957031 -15.742188 10.335938 -14.273438 10.734375 -12.734375 C 11.128906 -11.203125 11.492188 -9.816406 11.828125 -8.578125 C 12.160156 -7.347656 12.410156 -6.453125 12.578125 -5.890625 C 12.703125 -6.347656 12.894531 -7.054688 13.15625 -8.015625 C 13.425781 -8.972656 13.722656 -10.070312 14.046875 -11.3125 C 14.378906 -12.550781 14.710938 -13.796875 15.046875 -15.046875 C 15.378906 -16.296875 15.675781 -17.414062 15.9375 -18.40625 C 16.070312 -18.875 16.1875 -19.28125 16.28125 -19.625 C 16.382812 -19.96875 16.46875 -20.289062 16.53125 -20.59375 C 16.863281 -21.84375 17.128906 -23.101562 17.328125 -24.375 C 17.523438 -25.644531 17.53125 -26.703125 17.34375 -27.546875 C 17.164062 -28.390625 16.628906 -28.8125 15.734375 -28.8125 L 14.65625 -28.8125 L 14.65625 -29.40625 L 24.5 -29.40625 L 24.5 -28.8125 L 23.40625 -28.8125 C 22.582031 -28.8125 22.0625 -28.503906 21.84375 -27.890625 C 21.632812 -27.285156 21.597656 -26.320312 21.734375 -25 C 21.796875 -24.300781 21.910156 -23.5625 22.078125 -22.78125 C 22.242188 -22.007812 22.425781 -21.28125 22.625 -20.59375 C 22.882812 -19.695312 23.195312 -18.546875 23.5625 -17.140625 C 23.925781 -15.742188 24.304688 -14.273438 24.703125 -12.734375 C 25.097656 -11.203125 25.457031 -9.816406 25.78125 -8.578125 C 26.113281 -7.347656 26.363281 -6.453125 26.53125 -5.890625 C 26.664062 -6.347656 26.863281 -7.054688 27.125 -8.015625 C 27.382812 -8.972656 27.679688 -10.070312 28.015625 -11.3125 C 28.347656 -12.550781 28.675781 -13.796875 29 -15.046875 C 29.332031 -16.296875 29.628906 -17.414062 29.890625 -18.40625 C 30.023438 -18.875 30.140625 -19.28125 30.234375 -19.625 C 30.335938 -19.96875 30.421875 -20.289062 30.484375 -20.59375 C 30.816406 -21.84375 31.082031 -23.101562 31.28125 -24.375 C 31.476562 -25.644531 31.484375 -26.703125 31.296875 -27.546875 C 31.117188 -28.390625 30.585938 -28.8125 29.703125 -28.8125 L 28.609375 -28.8125 L 28.609375 -29.40625 L 37.375 -29.40625 L 37.375 -28.8125 L 36.375 -28.8125 C 35.519531 -28.8125 34.78125 -28.375 34.15625 -27.5 C 33.53125 -26.625 32.976562 -25.539062 32.5 -24.25 C 32.019531 -22.96875 31.582031 -21.664062 31.1875 -20.34375 C 31.082031 -20.007812 30.972656 -19.65625 30.859375 -19.28125 C 30.742188 -18.90625 30.601562 -18.46875 30.4375 -17.96875 C 29.550781 -14.96875 28.710938 -11.804688 27.921875 -8.484375 C 27.128906 -5.171875 26.335938 -2.015625 25.546875 0.984375 L 24.953125 0.984375 C 24.953125 0.984375 24.816406 0.515625 24.546875 -0.421875 C 24.285156 -1.359375 23.941406 -2.601562 23.515625 -4.15625 C 23.085938 -5.707031 22.613281 -7.40625 22.09375 -9.25 C 21.582031 -11.101562 21.078125 -12.953125 20.578125 -14.796875 C 20.085938 -16.648438 19.628906 -18.347656 19.203125 -19.890625 C 18.773438 -21.441406 18.445312 -22.664062 18.21875 -23.5625 C 17.914062 -22.632812 17.613281 -21.703125 17.3125 -20.765625 C 17.019531 -19.828125 16.742188 -18.894531 16.484375 -17.96875 C 15.585938 -14.96875 14.742188 -11.804688 13.953125 -8.484375 C 13.160156 -5.171875 12.335938 -2.015625 11.484375 0.984375 L 10.9375 0.984375 C 10.9375 0.984375 10.820312 0.566406 10.59375 -0.265625 C 10.363281 -1.109375 10.066406 -2.222656 9.703125 -3.609375 C 9.335938 -4.992188 8.941406 -6.492188 8.515625 -8.109375 C 8.085938 -9.734375 7.65625 -11.351562 7.21875 -12.96875 C 6.789062 -14.582031 6.40625 -16.039062 6.0625 -17.34375 C 5.71875 -18.65625 5.445312 -19.65625 5.25 -20.34375 C 4.914062 -21.664062 4.5 -22.976562 4 -24.28125 C 3.507812 -25.582031 2.929688 -26.660156 2.265625 -27.515625 C 1.609375 -28.378906 0.851562 -28.8125 0 -28.8125 L -0.984375 -28.8125 Z M -0.984375 -29.40625 "/></g></g></g><g fill="#7a3a3a" fill-opacity="1"><g transform="translate(316.287177, 227.785705)"><g><path d="M 18.171875 0.984375 C 15.035156 0.984375 12.285156 0.332031 9.921875 -0.96875 C 7.566406 -2.269531 5.734375 -4.097656 4.421875 -6.453125 C 3.117188 -8.816406 2.46875 -11.566406 2.46875 -14.703125 C 2.46875 -17.835938 3.117188 -20.582031 4.421875 -22.9375 C 5.734375 -25.300781 7.566406 -27.132812 9.921875 -28.4375 C 12.285156 -29.738281 15.035156 -30.390625 18.171875 -30.390625 C 20.710938 -30.390625 22.804688 -30.019531 24.453125 -29.28125 C 26.097656 -28.539062 27.398438 -27.625 28.359375 -26.53125 C 29.316406 -25.445312 30.019531 -24.359375 30.46875 -23.265625 C 30.914062 -22.171875 31.203125 -21.253906 31.328125 -20.515625 C 31.460938 -19.773438 31.53125 -19.40625 31.53125 -19.40625 L 5.203125 -19.40625 C 5.128906 -18.976562 5.066406 -18.554688 5.015625 -18.140625 C 4.972656 -17.722656 4.953125 -17.285156 4.953125 -16.828125 C 4.953125 -13.960938 5.585938 -11.363281 6.859375 -9.03125 C 8.128906 -6.707031 9.925781 -4.851562 12.25 -3.46875 C 14.570312 -2.082031 17.300781 -1.390625 20.4375 -1.390625 C 22.976562 -1.390625 25.207031 -1.929688 27.125 -3.015625 C 29.039062 -4.109375 30.539062 -5.648438 31.625 -7.640625 C 32.71875 -9.640625 33.265625 -11.992188 33.265625 -14.703125 L 33.859375 -14.703125 C 33.859375 -11.566406 33.207031 -8.816406 31.90625 -6.453125 C 30.601562 -4.097656 28.769531 -2.269531 26.40625 -0.96875 C 24.050781 0.332031 21.304688 0.984375 18.171875 0.984375 Z M 5.296875 -20 L 28.171875 -20 C 28.128906 -21.914062 27.585938 -23.609375 26.546875 -25.078125 C 25.515625 -26.546875 24.179688 -27.695312 22.546875 -28.53125 C 20.910156 -29.375 19.171875 -29.796875 17.328125 -29.796875 C 15.378906 -29.796875 13.570312 -29.363281 11.90625 -28.5 C 10.238281 -27.644531 8.832031 -26.484375 7.6875 -25.015625 C 6.550781 -23.546875 5.753906 -21.875 5.296875 -20 Z M 5.296875 -20 "/></g></g></g><g fill="#7a3a3a" fill-opacity="1"><g transform="translate(342.421361, 227.785705)"><g><path d="M 0.984375 -0.59375 L 3.265625 -0.59375 C 3.597656 -0.59375 3.953125 -0.664062 4.328125 -0.8125 C 4.710938 -0.96875 5.050781 -1.273438 5.34375 -1.734375 C 5.644531 -2.191406 5.796875 -2.867188 5.796875 -3.765625 L 5.796875 -43.609375 C 5.796875 -43.972656 5.757812 -44.375 5.6875 -44.8125 C 5.625 -45.257812 5.414062 -45.648438 5.0625 -45.984375 C 4.71875 -46.316406 4.117188 -46.484375 3.265625 -46.484375 L 3.265625 -47.078125 C 5.015625 -47.078125 6.332031 -47.460938 7.21875 -48.234375 C 8.113281 -49.015625 8.5625 -49.765625 8.5625 -50.484375 L 9.15625 -50.484375 L 9.15625 -3.765625 C 9.15625 -2.867188 9.300781 -2.191406 9.59375 -1.734375 C 9.894531 -1.273438 10.242188 -0.96875 10.640625 -0.8125 C 11.035156 -0.664062 11.382812 -0.59375 11.6875 -0.59375 L 13.953125 -0.59375 L 13.953125 0 L 0.984375 0 Z M 0.984375 -0.59375 "/></g></g></g><g fill="#7a3a3a" fill-opacity="1"><g transform="translate(349.646565, 227.785705)"><g><path d="M 0.984375 -0.59375 L 3.265625 -0.59375 C 3.597656 -0.59375 3.953125 -0.664062 4.328125 -0.8125 C 4.710938 -0.96875 5.050781 -1.273438 5.34375 -1.734375 C 5.644531 -2.191406 5.796875 -2.867188 5.796875 -3.765625 L 5.796875 -43.609375 C 5.796875 -43.972656 5.757812 -44.375 5.6875 -44.8125 C 5.625 -45.257812 5.414062 -45.648438 5.0625 -45.984375 C 4.71875 -46.316406 4.117188 -46.484375 3.265625 -46.484375 L 3.265625 -47.078125 C 5.015625 -47.078125 6.332031 -47.460938 7.21875 -48.234375 C 8.113281 -49.015625 8.5625 -49.765625 8.5625 -50.484375 L 9.15625 -50.484375 L 9.15625 -3.765625 C 9.15625 -2.867188 9.300781 -2.191406 9.59375 -1.734375 C 9.894531 -1.273438 10.242188 -0.96875 10.640625 -0.8125 C 11.035156 -0.664062 11.382812 -0.59375 11.6875 -0.59375 L 13.953125 -0.59375 L 13.953125 0 L 0.984375 0 Z M 0.984375 -0.59375 "/></g></g></g></svg>