<svg xmlns="http://www.w3.org/2000/svg" xmlns:xlink="http://www.w3.org/1999/xlink" width="600" zoomAndPan="magnify" viewBox="0 0 450 449.999984" height="600" preserveAspectRatio="xMidYMid meet" version="1.0"><defs><g/></defs><g fill="#ffffff" fill-opacity="1"><g transform="translate(54.985449, 250.422228)"><g><path d="M 3.25 -106.828125 L 3.25 -108.125 L 40.546875 -108.125 C 43.140625 -108.125 45.984375 -107.796875 49.078125 -107.140625 C 52.179688 -106.492188 55.25 -105.46875 58.28125 -104.0625 C 61.3125 -102.664062 64.085938 -100.773438 66.609375 -98.390625 C 69.128906 -96.015625 71.144531 -93.078125 72.65625 -89.578125 C 74.175781 -86.085938 74.9375 -82 74.9375 -77.3125 C 74.9375 -72.914062 74.195312 -69.078125 72.71875 -65.796875 C 71.238281 -62.515625 69.253906 -59.738281 66.765625 -57.46875 C 64.273438 -55.195312 61.515625 -53.359375 58.484375 -51.953125 C 55.460938 -50.546875 52.421875 -49.519531 49.359375 -48.875 C 46.296875 -48.226562 43.46875 -47.90625 40.875 -47.90625 L 21.625 -47.90625 L 21.625 -8.21875 C 21.625 -6.269531 21.945312 -4.789062 22.59375 -3.78125 C 23.25 -2.769531 24.007812 -2.101562 24.875 -1.78125 C 25.738281 -1.457031 26.492188 -1.296875 27.140625 -1.296875 L 32.109375 -1.296875 L 32.109375 0 L 3.25 0 L 3.25 -1.296875 L 8.21875 -1.296875 C 8.9375 -1.296875 9.707031 -1.457031 10.53125 -1.78125 C 11.363281 -2.101562 12.101562 -2.769531 12.75 -3.78125 C 13.40625 -4.789062 13.734375 -6.269531 13.734375 -8.21875 L 13.734375 -99.90625 C 13.734375 -101.925781 13.40625 -103.421875 12.75 -104.390625 C 12.101562 -105.367188 11.363281 -106.019531 10.53125 -106.34375 C 9.707031 -106.664062 8.9375 -106.828125 8.21875 -106.828125 Z M 21.625 -106.9375 L 21.625 -49.203125 L 36.4375 -49.203125 C 46.53125 -49.203125 54.117188 -51.488281 59.203125 -56.0625 C 64.285156 -60.632812 66.828125 -67.71875 66.828125 -77.3125 C 66.828125 -82.789062 65.707031 -87.765625 63.46875 -92.234375 C 61.238281 -96.703125 57.882812 -100.285156 53.40625 -102.984375 C 48.9375 -105.691406 43.351562 -107.046875 36.65625 -107.046875 C 34.0625 -107.046875 32.0625 -107.046875 30.65625 -107.046875 C 29.25 -107.046875 27.914062 -107.046875 26.65625 -107.046875 C 25.394531 -107.046875 23.71875 -107.007812 21.625 -106.9375 Z M 21.625 -106.9375 "/></g></g></g><g fill="#ffffff" fill-opacity="1"><g transform="translate(119.963063, 250.422228)"><g><path d="M 2.15625 0 L 2.15625 -1.296875 L 7.140625 -1.296875 C 7.859375 -1.296875 8.628906 -1.457031 9.453125 -1.78125 C 10.285156 -2.101562 11.023438 -2.769531 11.671875 -3.78125 C 12.328125 -4.789062 12.65625 -6.269531 12.65625 -8.21875 L 12.65625 -51.46875 C 12.65625 -52.257812 12.582031 -53.140625 12.4375 -54.109375 C 12.289062 -55.085938 11.835938 -55.9375 11.078125 -56.65625 C 10.328125 -57.375 9.015625 -57.734375 7.140625 -57.734375 L 7.140625 -59.03125 C 10.953125 -59.03125 13.832031 -59.878906 15.78125 -61.578125 C 17.726562 -63.273438 18.703125 -64.914062 18.703125 -66.5 L 20 -66.5 L 20 -50.5 C 21.007812 -53.375 22.289062 -56.019531 23.84375 -58.4375 C 25.394531 -60.851562 27.25 -62.78125 29.40625 -64.21875 C 31.570312 -65.664062 34.0625 -66.390625 36.875 -66.390625 C 38.957031 -66.390625 40.554688 -66.207031 41.671875 -65.84375 C 42.796875 -65.488281 43.953125 -65.128906 45.140625 -64.765625 C 46.328125 -64.398438 48.078125 -64.21875 50.390625 -64.21875 C 52.472656 -64.21875 53.726562 -64.578125 54.15625 -65.296875 C 54.59375 -66.023438 54.8125 -66.390625 54.8125 -66.390625 L 56.109375 -66.390625 L 39.796875 -20.96875 L 38.5 -20.96875 L 46.5 -43.25 C 47.9375 -47.21875 48.472656 -50.859375 48.109375 -54.171875 C 47.753906 -57.484375 46.617188 -60.128906 44.703125 -62.109375 C 42.796875 -64.097656 40.1875 -65.09375 36.875 -65.09375 C 34.132812 -65.09375 31.734375 -64.332031 29.671875 -62.8125 C 27.617188 -61.300781 25.890625 -59.390625 24.484375 -57.078125 C 23.078125 -54.773438 22.015625 -52.4375 21.296875 -50.0625 C 20.578125 -47.6875 20.144531 -45.664062 20 -44 L 20 -8.21875 C 20 -6.269531 20.320312 -4.789062 20.96875 -3.78125 C 21.625 -2.769531 22.382812 -2.101562 23.25 -1.78125 C 24.113281 -1.457031 24.867188 -1.296875 25.515625 -1.296875 L 30.484375 -1.296875 L 30.484375 0 Z M 2.15625 0 "/></g></g></g><g fill="#ffffff" fill-opacity="1"><g transform="translate(162.884778, 250.422228)"><g><path d="M 39.6875 2.15625 C 34.925781 2.15625 30.472656 1.273438 26.328125 -0.484375 C 22.179688 -2.253906 18.539062 -4.707031 15.40625 -7.84375 C 12.269531 -10.976562 9.816406 -14.617188 8.046875 -18.765625 C 6.285156 -22.910156 5.40625 -27.359375 5.40625 -32.109375 C 5.40625 -36.867188 6.285156 -41.320312 8.046875 -45.46875 C 9.816406 -49.613281 12.269531 -53.253906 15.40625 -56.390625 C 18.539062 -59.523438 22.179688 -61.972656 26.328125 -63.734375 C 30.472656 -65.503906 34.925781 -66.390625 39.6875 -66.390625 C 44.4375 -66.390625 48.882812 -65.503906 53.03125 -63.734375 C 57.175781 -61.972656 60.816406 -59.523438 63.953125 -56.390625 C 67.085938 -53.253906 69.535156 -49.613281 71.296875 -45.46875 C 73.066406 -41.320312 73.953125 -36.867188 73.953125 -32.109375 C 73.953125 -27.359375 73.066406 -22.910156 71.296875 -18.765625 C 69.535156 -14.617188 67.085938 -10.976562 63.953125 -7.84375 C 60.816406 -4.707031 57.175781 -2.253906 53.03125 -0.484375 C 48.882812 1.273438 44.4375 2.15625 39.6875 2.15625 Z M 10.0625 -39.796875 C 10.0625 -34.890625 10.890625 -30.203125 12.546875 -25.734375 C 14.203125 -21.265625 16.578125 -17.300781 19.671875 -13.84375 C 22.773438 -10.382812 26.523438 -7.644531 30.921875 -5.625 C 35.316406 -3.601562 40.253906 -2.59375 45.734375 -2.59375 C 50.566406 -2.59375 54.726562 -3.566406 58.21875 -5.515625 C 61.71875 -7.460938 64.441406 -10.070312 66.390625 -13.34375 C 68.335938 -16.625 69.3125 -20.320312 69.3125 -24.4375 C 69.3125 -29.269531 68.445312 -33.898438 66.71875 -38.328125 C 64.988281 -42.765625 62.519531 -46.726562 59.3125 -50.21875 C 56.101562 -53.71875 52.316406 -56.492188 47.953125 -58.546875 C 43.585938 -60.597656 38.8125 -61.625 33.625 -61.625 C 28.863281 -61.625 24.71875 -60.671875 21.1875 -58.765625 C 17.65625 -56.859375 14.914062 -54.242188 12.96875 -50.921875 C 11.03125 -47.609375 10.0625 -43.898438 10.0625 -39.796875 Z M 10.0625 -39.796875 "/></g></g></g><g fill="#ffffff" fill-opacity="1"><g transform="translate(229.051685, 250.422228)"><g><path d="M 2.15625 -1.296875 L 7.140625 -1.296875 C 7.859375 -1.296875 8.628906 -1.457031 9.453125 -1.78125 C 10.285156 -2.101562 11.023438 -2.769531 11.671875 -3.78125 C 12.328125 -4.789062 12.65625 -6.269531 12.65625 -8.21875 L 12.65625 -62.921875 L 2.921875 -62.921875 L 2.921875 -64.21875 L 12.65625 -64.21875 L 12.65625 -84.234375 C 12.65625 -86.898438 12.976562 -89.742188 13.625 -92.765625 C 14.269531 -95.796875 15.40625 -98.625 17.03125 -101.25 C 18.65625 -103.882812 20.925781 -106.046875 23.84375 -107.734375 C 26.757812 -109.429688 30.488281 -110.28125 35.03125 -110.28125 C 38.5625 -110.28125 41.441406 -109.8125 43.671875 -108.875 C 45.910156 -107.9375 47.734375 -106.984375 49.140625 -106.015625 C 50.546875 -105.046875 51.679688 -104.5625 52.546875 -104.5625 C 53.335938 -104.5625 54.019531 -104.957031 54.59375 -105.75 C 55.175781 -106.539062 55.863281 -108.050781 56.65625 -110.28125 L 58.0625 -110.28125 L 44.21875 -71.796875 L 42.921875 -71.796875 L 46.171875 -81.09375 C 48.265625 -87.144531 49.109375 -92.257812 48.703125 -96.4375 C 48.304688 -100.625 46.921875 -103.796875 44.546875 -105.953125 C 42.171875 -108.117188 39 -109.203125 35.03125 -109.203125 C 30.925781 -109.203125 27.519531 -108.445312 24.8125 -106.9375 C 22.113281 -105.425781 20.097656 -103.5 18.765625 -101.15625 C 17.429688 -98.8125 16.765625 -96.445312 16.765625 -94.0625 C 16.765625 -92.625 16.925781 -91.34375 17.25 -90.21875 C 17.570312 -89.101562 17.945312 -87.828125 18.375 -86.390625 C 18.8125 -84.953125 19.191406 -83.097656 19.515625 -80.828125 C 19.835938 -78.554688 20 -75.582031 20 -71.90625 L 20 -64.21875 L 29.734375 -64.21875 L 29.734375 -62.921875 L 20 -62.921875 L 20 -8.21875 C 20 -6.269531 20.320312 -4.789062 20.96875 -3.78125 C 21.625 -2.769531 22.382812 -2.101562 23.25 -1.78125 C 24.113281 -1.457031 24.867188 -1.296875 25.515625 -1.296875 L 30.484375 -1.296875 L 30.484375 0 L 2.15625 0 Z M 2.15625 -1.296875 "/></g></g></g><g fill="#ffffff" fill-opacity="1"><g transform="translate(273.919513, 250.422228)"><g><path d="M 2.15625 -1.296875 L 7.140625 -1.296875 C 7.859375 -1.296875 8.628906 -1.457031 9.453125 -1.78125 C 10.285156 -2.101562 11.023438 -2.769531 11.671875 -3.78125 C 12.328125 -4.789062 12.65625 -6.269531 12.65625 -8.21875 L 12.65625 -51.46875 C 12.65625 -52.257812 12.582031 -53.140625 12.4375 -54.109375 C 12.289062 -55.085938 11.835938 -55.9375 11.078125 -56.65625 C 10.328125 -57.375 9.015625 -57.734375 7.140625 -57.734375 L 7.140625 -59.03125 C 10.953125 -59.03125 13.832031 -59.878906 15.78125 -61.578125 C 17.726562 -63.273438 18.703125 -64.914062 18.703125 -66.5 L 20 -66.5 L 20 -8.21875 C 20 -6.269531 20.320312 -4.789062 20.96875 -3.78125 C 21.625 -2.769531 22.382812 -2.101562 23.25 -1.78125 C 24.113281 -1.457031 24.867188 -1.296875 25.515625 -1.296875 L 30.484375 -1.296875 L 30.484375 0 L 2.15625 0 Z M 16.328125 -70.5 C 14.890625 -70.5 13.644531 -71.019531 12.59375 -72.0625 C 11.550781 -73.113281 11.03125 -74.359375 11.03125 -75.796875 C 11.03125 -77.234375 11.550781 -78.472656 12.59375 -79.515625 C 13.644531 -80.566406 14.890625 -81.09375 16.328125 -81.09375 C 17.765625 -81.09375 19.003906 -80.566406 20.046875 -79.515625 C 21.097656 -78.472656 21.625 -77.234375 21.625 -75.796875 C 21.625 -74.359375 21.097656 -73.113281 20.046875 -72.0625 C 19.003906 -71.019531 17.765625 -70.5 16.328125 -70.5 Z M 16.328125 -70.5 "/></g></g></g><g fill="#ffffff" fill-opacity="1"><g transform="translate(292.298632, 250.422228)"><g><path d="M 2.15625 -1.296875 L 7.140625 -1.296875 C 7.859375 -1.296875 8.628906 -1.457031 9.453125 -1.78125 C 10.285156 -2.101562 11.023438 -2.769531 11.671875 -3.78125 C 12.328125 -4.789062 12.65625 -6.269531 12.65625 -8.21875 L 12.65625 -95.265625 C 12.65625 -96.054688 12.582031 -96.9375 12.4375 -97.90625 C 12.289062 -98.875 11.835938 -99.71875 11.078125 -100.4375 C 10.328125 -101.164062 9.015625 -101.53125 7.140625 -101.53125 L 7.140625 -102.828125 C 10.953125 -102.828125 13.832031 -103.671875 15.78125 -105.359375 C 17.726562 -107.054688 18.703125 -108.695312 18.703125 -110.28125 L 20 -110.28125 L 20 -8.21875 C 20 -6.269531 20.320312 -4.789062 20.96875 -3.78125 C 21.625 -2.769531 22.382812 -2.101562 23.25 -1.78125 C 24.113281 -1.457031 24.867188 -1.296875 25.515625 -1.296875 L 30.484375 -1.296875 L 30.484375 0 L 2.15625 0 Z M 2.15625 -1.296875 "/></g></g></g><g fill="#ffffff" fill-opacity="1"><g transform="translate(310.67775, 250.422228)"><g><path d="M 39.6875 2.15625 C 32.832031 2.15625 26.828125 0.734375 21.671875 -2.109375 C 16.523438 -4.953125 12.523438 -8.953125 9.671875 -14.109375 C 6.828125 -19.265625 5.40625 -25.265625 5.40625 -32.109375 C 5.40625 -38.960938 6.828125 -44.960938 9.671875 -50.109375 C 12.523438 -55.265625 16.523438 -59.265625 21.671875 -62.109375 C 26.828125 -64.960938 32.832031 -66.390625 39.6875 -66.390625 C 45.226562 -66.390625 49.800781 -65.578125 53.40625 -63.953125 C 57.007812 -62.328125 59.859375 -60.328125 61.953125 -57.953125 C 64.046875 -55.578125 65.578125 -53.195312 66.546875 -50.8125 C 67.523438 -48.4375 68.15625 -46.4375 68.4375 -44.8125 C 68.726562 -43.195312 68.875 -42.390625 68.875 -42.390625 L 11.359375 -42.390625 C 11.210938 -41.453125 11.082031 -40.53125 10.96875 -39.625 C 10.863281 -38.726562 10.8125 -37.773438 10.8125 -36.765625 C 10.8125 -30.492188 12.195312 -24.816406 14.96875 -19.734375 C 17.75 -14.648438 21.679688 -10.59375 26.765625 -7.5625 C 31.847656 -4.539062 37.8125 -3.03125 44.65625 -3.03125 C 50.207031 -3.03125 55.070312 -4.21875 59.25 -6.59375 C 63.4375 -8.96875 66.71875 -12.335938 69.09375 -16.703125 C 71.46875 -21.066406 72.65625 -26.203125 72.65625 -32.109375 L 73.953125 -32.109375 C 73.953125 -25.265625 72.53125 -19.265625 69.6875 -14.109375 C 66.84375 -8.953125 62.84375 -4.953125 57.6875 -2.109375 C 52.53125 0.734375 46.53125 2.15625 39.6875 2.15625 Z M 11.5625 -43.6875 L 61.515625 -43.6875 C 61.453125 -47.863281 60.285156 -51.554688 58.015625 -54.765625 C 55.742188 -57.972656 52.820312 -60.492188 49.25 -62.328125 C 45.6875 -64.171875 41.882812 -65.09375 37.84375 -65.09375 C 33.59375 -65.09375 29.644531 -64.15625 26 -62.28125 C 22.363281 -60.40625 19.300781 -57.863281 16.8125 -54.65625 C 14.320312 -51.445312 12.570312 -47.789062 11.5625 -43.6875 Z M 11.5625 -43.6875 "/></g></g></g></svg>