<svg xmlns="http://www.w3.org/2000/svg" version="1.0" viewBox="45 125 310 135"><path fill="#fff" d="M58.235 143.594v-1.297h37.297q3.891 0 8.532.985a42.5 42.5 0 0 1 9.203 3.078q4.544 2.097 8.328 5.672 3.78 3.562 6.047 8.812 2.28 5.236 2.28 12.266-.001 6.595-2.218 11.515-2.22 4.924-5.953 8.328a32.5 32.5 0 0 1-8.281 5.516q-4.534 2.11-9.125 3.078c-3.063.649-5.89.969-8.485.969H76.61v39.687c0 1.95.32 3.43.97 4.438q.981 1.519 2.28 2 1.295.485 2.266.484h4.969v1.297h-28.86v-1.297h4.97q1.076.001 2.312-.484 1.247-.481 2.218-2 .985-1.513.985-4.438v-91.687q0-3.031-.985-4.484-.971-1.467-2.218-1.954c-.825-.32-1.594-.484-2.313-.484Zm18.375-.11v57.735h14.813q15.139.001 22.766-6.86c5.082-4.57 7.625-11.656 7.625-21.25q-.002-8.216-3.36-14.921-3.347-6.702-10.062-10.75-6.706-4.062-16.75-4.063h-10c-1.262 0-2.938.04-5.032.11m45.51 106.937v-1.297h4.984q1.077.001 2.312-.484 1.247-.481 2.219-2 .984-1.513.984-4.438v-43.25q-.001-1.185-.218-2.64-.223-1.467-1.36-2.547-1.125-1.078-3.937-1.078v-1.297q5.717 0 8.64-2.547 2.92-2.543 2.922-4.922h1.297v16q1.513-4.312 3.844-7.937 2.327-3.623 5.562-5.782c2.164-1.445 4.657-2.171 7.47-2.171q3.121 0 4.796.546 1.687.533 3.469 1.079c1.187.367 2.937.546 5.25.546q3.122 0 3.765-1.078.657-1.091.657-1.093h1.296l-16.312 45.421h-1.297l8-22.28q2.156-5.954 1.61-10.923-.535-4.968-3.407-7.937-2.859-2.984-7.828-2.985c-2.742 0-5.14.762-7.203 2.282-2.055 1.511-3.781 3.422-5.188 5.734-1.406 2.305-2.468 4.64-3.187 7.016q-1.079 3.564-1.297 6.062v35.781c0 1.95.32 3.43.969 4.438q.982 1.519 2.281 2 1.293.485 2.266.484h4.968v1.297Zm80.452 2.156q-7.142-.002-13.36-2.64-6.222-2.655-10.921-7.36-4.705-4.698-7.36-10.921-2.64-6.218-2.64-13.344 0-7.137 2.64-13.36 2.655-6.217 7.36-10.921 4.699-4.7 10.922-7.344 6.217-2.655 13.36-2.656c4.75 0 9.195.886 13.343 2.656q6.217 2.643 10.922 7.344 4.7 4.704 7.344 10.921 2.655 6.223 2.656 13.36-.001 7.126-2.656 13.344-2.644 6.222-7.344 10.921-4.705 4.705-10.922 7.36-6.22 2.638-13.344 2.64m-29.625-41.953q0 7.36 2.485 14.063 2.483 6.704 7.125 11.89 4.652 5.19 11.25 8.22c4.394 2.023 9.332 3.03 14.812 3.03q7.247.001 12.485-2.921 5.249-2.918 8.171-7.829 2.92-4.919 2.922-11.093-.002-7.247-2.593-13.89a37.6 37.6 0 0 0-7.407-11.892c-3.21-3.5-6.996-6.273-11.36-8.328q-6.548-3.076-14.327-3.078-7.142 0-12.438 2.86-5.298 2.861-8.218 7.843c-1.938 3.313-2.907 7.024-2.907 11.125m0 0"/><path fill="#fff" d="M231.208 249.125h4.984q1.079.001 2.313-.484 1.247-.481 2.219-2 .984-1.513.984-4.438V187.5h-9.734v-1.297h9.734v-20.015c0-2.664.32-5.508.969-8.531a26.5 26.5 0 0 1 3.406-8.485q2.436-3.952 6.812-6.484c2.914-1.695 6.645-2.547 11.188-2.547q5.296 0 8.64 1.406 3.359 1.406 5.47 2.86c1.406.968 2.538 1.453 3.406 1.453q1.184 0 2.046-1.188.873-1.184 2.063-4.531h1.406l-13.844 38.484h-1.296l3.25-9.297q3.14-9.075 2.53-15.343c-.398-4.188-1.78-7.36-4.155-9.516-2.375-2.164-5.547-3.25-9.516-3.25-4.106 0-7.512.758-10.219 2.266q-4.049 2.266-6.047 5.781c-1.336 2.344-2 4.71-2 7.094q-.001 2.155.485 3.843c.32 1.118.695 2.391 1.125 3.829q.655 2.157 1.14 5.562c.32 2.274.485 5.246.485 8.922v7.687h9.734v1.297h-9.734v54.703q-.002 2.925.968 4.438c.657 1.012 1.414 1.68 2.282 2q1.294.485 2.265.484h4.97v1.297h-28.33Zm44.868 0h4.984q1.077.001 2.313-.484 1.247-.481 2.218-2 .985-1.513.985-4.438v-43.25q0-1.185-.219-2.64-.222-1.467-1.36-2.547-1.125-1.078-3.937-1.078v-1.297q5.719 0 8.64-2.547 2.921-2.543 2.923-4.922h1.297v58.281q-.002 2.925.968 4.438c.657 1.012 1.414 1.68 2.282 2q1.294.485 2.265.484h4.969v1.297h-28.328Zm14.172-69.203q-2.158 0-3.735-1.562-1.563-1.577-1.562-3.735 0-2.155 1.562-3.718 1.577-1.578 3.735-1.579 2.155.001 3.718 1.579 1.578 1.563 1.579 3.718-.001 2.158-1.579 3.735-1.563 1.563-3.718 1.562m0 0"/><path fill="#fff" d="M294.455 249.125h4.984q1.078.001 2.313-.484 1.247-.481 2.219-2 .984-1.513.984-4.438v-87.046q0-1.186-.219-2.641-.222-1.454-1.36-2.531-1.125-1.092-3.937-1.094v-1.297q5.719 0 8.64-2.531 2.921-2.543 2.923-4.922h1.297v102.062q-.002 2.925.968 4.438c.657 1.012 1.414 1.68 2.282 2q1.294.485 2.265.484h4.969v1.297h-28.328Zm0 0"/><path fill="#fff" d="M350.365 252.578q-10.283 0-18.015-4.265-7.724-4.266-12-12-4.266-7.734-4.266-18 0-10.278 4.266-18 4.276-7.734 12-12 7.733-4.28 18.015-4.281 8.31 0 13.719 2.437 5.404 2.437 8.547 6c2.094 2.375 3.625 4.758 4.594 7.14.976 2.376 1.609 4.376 1.89 6 .29 1.618.438 2.423.438 2.423h-57.516q-.221 1.406-.39 2.765a25 25 0 0 0-.157 2.86q-.002 9.409 4.156 17.03c2.782 5.087 6.711 9.141 11.797 12.173q7.624 4.533 17.891 4.531 8.325 0 14.594-3.563 6.281-3.56 9.844-10.109 3.562-6.546 3.562-15.406h1.297q0 10.266-4.266 18t-12 12q-7.734 4.265-18 4.265m-28.125-45.843h49.953q-.094-6.263-3.5-11.078-3.41-4.81-8.765-7.563-5.346-2.766-11.406-2.766-6.377 0-11.844 2.813a27.35 27.35 0 0 0-9.188 7.625q-3.738 4.816-5.25 10.969m0 0"/></svg>