<svg xmlns="http://www.w3.org/2000/svg" xmlns:xlink="http://www.w3.org/1999/xlink" zoomAndPan="magnify" viewBox="54 130 326 169" preserveAspectRatio="xMidYMid meet" version="1.0"><defs><g/><clipPath id="d64ebd1846"><rect x="0" width="326" y="0" height="169"/></clipPath></defs><g transform="matrix(1, 0, 0, 1, 54, 130)"><g clip-path="url(#d64ebd1846)"><g fill="#ffffff" fill-opacity="1"><g transform="translate(0.985448, 116.112727)"><g><path d="M 2.15625 46.25 L 7.140625 46.25 C 7.859375 46.25 8.628906 46.085938 9.453125 45.765625 C 10.285156 45.441406 11.023438 44.773438 11.671875 43.765625 C 12.316406 42.765625 12.640625 41.289062 12.640625 39.34375 L 12.640625 -51.4375 C 12.640625 -52.238281 12.566406 -53.125 12.421875 -54.09375 C 12.285156 -55.0625 11.835938 -55.90625 11.078125 -56.625 C 10.316406 -57.351562 9.003906 -57.71875 7.140625 -57.71875 L 7.140625 -59.015625 C 10.953125 -59.015625 13.832031 -59.859375 15.78125 -61.546875 C 17.726562 -63.242188 18.703125 -64.882812 18.703125 -66.46875 L 20 -66.46875 L 20 -55.546875 C 21.21875 -57.273438 22.867188 -58.96875 24.953125 -60.625 C 27.046875 -62.289062 29.734375 -63.679688 33.015625 -64.796875 C 36.296875 -65.910156 40.3125 -66.46875 45.0625 -66.46875 C 52.34375 -66.46875 58.484375 -64.9375 63.484375 -61.875 C 68.492188 -58.8125 72.3125 -54.703125 74.9375 -49.546875 C 77.570312 -44.398438 78.890625 -38.691406 78.890625 -32.421875 C 78.890625 -27.734375 78.132812 -23.316406 76.625 -19.171875 C 75.113281 -15.035156 72.929688 -11.363281 70.078125 -8.15625 C 67.234375 -4.945312 63.847656 -2.425781 59.921875 -0.59375 C 56.003906 1.238281 51.59375 2.15625 46.6875 2.15625 C 41.351562 2.15625 36.921875 1.5625 33.390625 0.375 C 29.859375 -0.8125 27.03125 -2.285156 24.90625 -4.046875 C 22.78125 -5.816406 21.144531 -7.566406 20 -9.296875 L 20 39.34375 C 20 41.289062 20.320312 42.765625 20.96875 43.765625 C 21.613281 44.773438 22.367188 45.441406 23.234375 45.765625 C 24.097656 46.085938 24.851562 46.25 25.5 46.25 L 30.484375 46.25 L 30.484375 47.546875 L 2.15625 47.546875 Z M 20 -11.5625 C 21.507812 -8.894531 23.34375 -6.785156 25.5 -5.234375 C 27.664062 -3.691406 29.863281 -2.539062 32.09375 -1.78125 C 34.332031 -1.03125 36.367188 -0.546875 38.203125 -0.328125 C 40.046875 -0.109375 41.429688 0 42.359375 0 C 46.328125 0 50.054688 -0.828125 53.546875 -2.484375 C 57.046875 -4.140625 60.144531 -6.441406 62.84375 -9.390625 C 65.550781 -12.347656 67.660156 -15.789062 69.171875 -19.71875 C 70.679688 -23.644531 71.4375 -27.84375 71.4375 -32.3125 C 71.4375 -36.78125 70.679688 -40.957031 69.171875 -44.84375 C 67.660156 -48.738281 65.550781 -52.144531 62.84375 -55.0625 C 60.144531 -57.976562 57.046875 -60.25 53.546875 -61.875 C 50.054688 -63.5 46.328125 -64.3125 42.359375 -64.3125 C 41.429688 -64.3125 40.046875 -64.21875 38.203125 -64.03125 C 36.367188 -63.851562 34.332031 -63.421875 32.09375 -62.734375 C 29.863281 -62.054688 27.664062 -60.957031 25.5 -59.4375 C 23.34375 -57.925781 21.507812 -55.835938 20 -53.171875 Z M 16.640625 -23.453125 C 16.640625 -23.234375 16.675781 -23.050781 16.75 -22.90625 Z M 16.640625 -23.453125 "/></g></g></g><g fill="#ffffff" fill-opacity="1"><g transform="translate(69.488602, 116.112727)"><g><path d="M 2.15625 0 L 2.15625 -1.296875 L 7.140625 -1.296875 C 7.859375 -1.296875 8.628906 -1.457031 9.453125 -1.78125 C 10.285156 -2.101562 11.023438 -2.769531 11.671875 -3.78125 C 12.316406 -4.789062 12.640625 -6.269531 12.640625 -8.21875 L 12.640625 -51.4375 C 12.640625 -52.238281 12.566406 -53.125 12.421875 -54.09375 C 12.285156 -55.0625 11.835938 -55.90625 11.078125 -56.625 C 10.316406 -57.351562 9.003906 -57.71875 7.140625 -57.71875 L 7.140625 -59.015625 C 10.953125 -59.015625 13.832031 -59.859375 15.78125 -61.546875 C 17.726562 -63.242188 18.703125 -64.882812 18.703125 -66.46875 L 20 -66.46875 L 20 -50.46875 C 21 -53.351562 22.273438 -56 23.828125 -58.40625 C 25.378906 -60.820312 27.234375 -62.75 29.390625 -64.1875 C 31.554688 -65.632812 34.046875 -66.359375 36.859375 -66.359375 C 38.941406 -66.359375 40.539062 -66.175781 41.65625 -65.8125 C 42.78125 -65.457031 43.9375 -65.097656 45.125 -64.734375 C 46.3125 -64.378906 48.054688 -64.203125 50.359375 -64.203125 C 52.453125 -64.203125 53.710938 -64.5625 54.140625 -65.28125 C 54.578125 -66 54.796875 -66.359375 54.796875 -66.359375 L 56.09375 -66.359375 L 39.765625 -20.96875 L 38.46875 -20.96875 L 46.46875 -43.234375 C 47.914062 -47.191406 48.457031 -50.828125 48.09375 -54.140625 C 47.726562 -57.460938 46.59375 -60.113281 44.6875 -62.09375 C 42.78125 -64.070312 40.171875 -65.0625 36.859375 -65.0625 C 34.117188 -65.0625 31.722656 -64.304688 29.671875 -62.796875 C 27.617188 -61.285156 25.890625 -59.375 24.484375 -57.0625 C 23.078125 -54.757812 22.007812 -52.414062 21.28125 -50.03125 C 20.5625 -47.65625 20.132812 -45.640625 20 -43.984375 L 20 -8.21875 C 20 -6.269531 20.320312 -4.789062 20.96875 -3.78125 C 21.613281 -2.769531 22.367188 -2.101562 23.234375 -1.78125 C 24.097656 -1.457031 24.851562 -1.296875 25.5 -1.296875 L 30.484375 -1.296875 L 30.484375 0 Z M 2.15625 0 "/></g></g></g><g fill="#ffffff" fill-opacity="1"><g transform="translate(109.787352, 116.112727)"><g><path d="M 39.671875 2.15625 C 34.910156 2.15625 30.457031 1.273438 26.3125 -0.484375 C 22.175781 -2.253906 18.539062 -4.703125 15.40625 -7.828125 C 12.269531 -10.960938 9.816406 -14.601562 8.046875 -18.75 C 6.285156 -22.894531 5.40625 -27.34375 5.40625 -32.09375 C 5.40625 -36.851562 6.285156 -41.300781 8.046875 -45.4375 C 9.816406 -49.582031 12.269531 -53.222656 15.40625 -56.359375 C 18.539062 -59.492188 22.175781 -61.941406 26.3125 -63.703125 C 30.457031 -65.472656 34.910156 -66.359375 39.671875 -66.359375 C 44.421875 -66.359375 48.867188 -65.472656 53.015625 -63.703125 C 57.160156 -61.941406 60.796875 -59.492188 63.921875 -56.359375 C 67.054688 -53.222656 69.503906 -49.582031 71.265625 -45.4375 C 73.035156 -41.300781 73.921875 -36.851562 73.921875 -32.09375 C 73.921875 -27.34375 73.035156 -22.894531 71.265625 -18.75 C 69.503906 -14.601562 67.054688 -10.960938 63.921875 -7.828125 C 60.796875 -4.703125 57.160156 -2.253906 53.015625 -0.484375 C 48.867188 1.273438 44.421875 2.15625 39.671875 2.15625 Z M 10.046875 -39.765625 C 10.046875 -34.867188 10.875 -30.1875 12.53125 -25.71875 C 14.1875 -21.25 16.5625 -17.285156 19.65625 -13.828125 C 22.757812 -10.367188 26.507812 -7.628906 30.90625 -5.609375 C 35.300781 -3.597656 40.238281 -2.59375 45.71875 -2.59375 C 50.539062 -2.59375 54.695312 -3.566406 58.1875 -5.515625 C 61.6875 -7.460938 64.410156 -10.070312 66.359375 -13.34375 C 68.304688 -16.625 69.28125 -20.316406 69.28125 -24.421875 C 69.28125 -29.253906 68.414062 -33.882812 66.6875 -38.3125 C 64.957031 -42.738281 62.488281 -46.695312 59.28125 -50.1875 C 56.070312 -53.6875 52.285156 -56.460938 47.921875 -58.515625 C 43.566406 -60.578125 38.796875 -61.609375 33.609375 -61.609375 C 28.859375 -61.609375 24.71875 -60.648438 21.1875 -58.734375 C 17.65625 -56.828125 14.914062 -54.21875 12.96875 -50.90625 C 11.019531 -47.59375 10.046875 -43.878906 10.046875 -39.765625 Z M 10.046875 -39.765625 "/></g></g></g><g fill="#ffffff" fill-opacity="1"><g transform="translate(173.319627, 116.112727)"><g><path d="M 2.15625 -1.296875 L 7.140625 -1.296875 C 7.859375 -1.296875 8.628906 -1.457031 9.453125 -1.78125 C 10.285156 -2.101562 11.023438 -2.769531 11.671875 -3.78125 C 12.316406 -4.789062 12.640625 -6.269531 12.640625 -8.21875 L 12.640625 -62.90625 L 2.921875 -62.90625 L 2.921875 -64.203125 L 12.640625 -64.203125 L 12.640625 -84.1875 C 12.640625 -86.851562 12.960938 -89.695312 13.609375 -92.71875 C 14.265625 -95.75 15.398438 -98.578125 17.015625 -101.203125 C 18.640625 -103.835938 20.910156 -106 23.828125 -107.6875 C 26.742188 -109.382812 30.472656 -110.234375 35.015625 -110.234375 C 38.546875 -110.234375 41.425781 -109.765625 43.65625 -108.828125 C 45.894531 -107.898438 47.71875 -106.945312 49.125 -105.96875 C 50.53125 -105 51.664062 -104.515625 52.53125 -104.515625 C 53.320312 -104.515625 54.003906 -104.910156 54.578125 -105.703125 C 55.148438 -106.492188 55.835938 -108.003906 56.640625 -110.234375 L 58.03125 -110.234375 L 44.203125 -71.765625 L 42.90625 -71.765625 L 46.15625 -81.0625 C 48.238281 -87.113281 49.082031 -92.226562 48.6875 -96.40625 C 48.289062 -100.582031 46.90625 -103.75 44.53125 -105.90625 C 42.15625 -108.070312 38.984375 -109.15625 35.015625 -109.15625 C 30.910156 -109.15625 27.503906 -108.398438 24.796875 -106.890625 C 22.097656 -105.378906 20.082031 -103.453125 18.75 -101.109375 C 17.414062 -98.765625 16.75 -96.40625 16.75 -94.03125 C 16.75 -92.582031 16.910156 -91.300781 17.234375 -90.1875 C 17.554688 -89.070312 17.929688 -87.789062 18.359375 -86.34375 C 18.796875 -84.90625 19.175781 -83.050781 19.5 -80.78125 C 19.832031 -78.519531 20 -75.550781 20 -71.875 L 20 -64.203125 L 29.71875 -64.203125 L 29.71875 -62.90625 L 20 -62.90625 L 20 -8.21875 C 20 -6.269531 20.320312 -4.789062 20.96875 -3.78125 C 21.613281 -2.769531 22.367188 -2.101562 23.234375 -1.78125 C 24.097656 -1.457031 24.851562 -1.296875 25.5 -1.296875 L 30.484375 -1.296875 L 30.484375 0 L 2.15625 0 Z M 2.15625 -1.296875 "/></g></g></g><g fill="#ffffff" fill-opacity="1"><g transform="translate(215.563438, 116.112727)"><g><path d="M 2.15625 -1.296875 L 7.140625 -1.296875 C 7.859375 -1.296875 8.628906 -1.457031 9.453125 -1.78125 C 10.285156 -2.101562 11.023438 -2.769531 11.671875 -3.78125 C 12.316406 -4.789062 12.640625 -6.269531 12.640625 -8.21875 L 12.640625 -51.4375 C 12.640625 -52.238281 12.566406 -53.125 12.421875 -54.09375 C 12.285156 -55.0625 11.835938 -55.90625 11.078125 -56.625 C 10.316406 -57.351562 9.003906 -57.71875 7.140625 -57.71875 L 7.140625 -59.015625 C 10.953125 -59.015625 13.832031 -59.859375 15.78125 -61.546875 C 17.726562 -63.242188 18.703125 -64.882812 18.703125 -66.46875 L 20 -66.46875 L 20 -8.21875 C 20 -6.269531 20.320312 -4.789062 20.96875 -3.78125 C 21.613281 -2.769531 22.367188 -2.101562 23.234375 -1.78125 C 24.097656 -1.457031 24.851562 -1.296875 25.5 -1.296875 L 30.484375 -1.296875 L 30.484375 0 L 2.15625 0 Z M 16.3125 -70.46875 C 14.875 -70.46875 13.632812 -70.988281 12.59375 -72.03125 C 11.550781 -73.070312 11.03125 -74.316406 11.03125 -75.765625 C 11.03125 -77.203125 11.550781 -78.441406 12.59375 -79.484375 C 13.632812 -80.535156 14.875 -81.0625 16.3125 -81.0625 C 17.757812 -81.0625 19.003906 -80.535156 20.046875 -79.484375 C 21.085938 -78.441406 21.609375 -77.203125 21.609375 -75.765625 C 21.609375 -74.316406 21.085938 -73.070312 20.046875 -72.03125 C 19.003906 -70.988281 17.757812 -70.46875 16.3125 -70.46875 Z M 16.3125 -70.46875 "/></g></g></g><g fill="#ffffff" fill-opacity="1"><g transform="translate(231.331895, 116.112727)"><g><path d="M 2.15625 -1.296875 L 7.140625 -1.296875 C 7.859375 -1.296875 8.628906 -1.457031 9.453125 -1.78125 C 10.285156 -2.101562 11.023438 -2.769531 11.671875 -3.78125 C 12.316406 -4.789062 12.640625 -6.269531 12.640625 -8.21875 L 12.640625 -95.21875 C 12.640625 -96.007812 12.566406 -96.890625 12.421875 -97.859375 C 12.285156 -98.835938 11.835938 -99.6875 11.078125 -100.40625 C 10.316406 -101.125 9.003906 -101.484375 7.140625 -101.484375 L 7.140625 -102.78125 C 10.953125 -102.78125 13.832031 -103.625 15.78125 -105.3125 C 17.726562 -107.007812 18.703125 -108.648438 18.703125 -110.234375 L 20 -110.234375 L 20 -8.21875 C 20 -6.269531 20.320312 -4.789062 20.96875 -3.78125 C 21.613281 -2.769531 22.367188 -2.101562 23.234375 -1.78125 C 24.097656 -1.457031 24.851562 -1.296875 25.5 -1.296875 L 30.484375 -1.296875 L 30.484375 0 L 2.15625 0 Z M 2.15625 -1.296875 "/></g></g></g><g fill="#ffffff" fill-opacity="1"><g transform="translate(247.100352, 116.112727)"><g><path d="M 39.671875 2.15625 C 32.816406 2.15625 26.8125 0.734375 21.65625 -2.109375 C 16.507812 -4.953125 12.515625 -8.945312 9.671875 -14.09375 C 6.828125 -19.25 5.40625 -25.25 5.40625 -32.09375 C 5.40625 -38.9375 6.828125 -44.9375 9.671875 -50.09375 C 12.515625 -55.25 16.507812 -59.25 21.65625 -62.09375 C 26.8125 -64.9375 32.816406 -66.359375 39.671875 -66.359375 C 45.210938 -66.359375 49.785156 -65.546875 53.390625 -63.921875 C 56.992188 -62.304688 59.835938 -60.304688 61.921875 -57.921875 C 64.015625 -55.546875 65.546875 -53.171875 66.515625 -50.796875 C 67.492188 -48.421875 68.125 -46.421875 68.40625 -44.796875 C 68.695312 -43.171875 68.84375 -42.359375 68.84375 -42.359375 L 11.34375 -42.359375 C 11.195312 -41.429688 11.070312 -40.515625 10.96875 -39.609375 C 10.863281 -38.710938 10.8125 -37.757812 10.8125 -36.75 C 10.8125 -30.476562 12.195312 -24.800781 14.96875 -19.71875 C 17.738281 -14.644531 21.664062 -10.59375 26.75 -7.5625 C 31.832031 -4.539062 37.796875 -3.03125 44.640625 -3.03125 C 50.179688 -3.03125 55.039062 -4.21875 59.21875 -6.59375 C 63.40625 -8.96875 66.6875 -12.332031 69.0625 -16.6875 C 71.4375 -21.050781 72.625 -26.1875 72.625 -32.09375 L 73.921875 -32.09375 C 73.921875 -25.25 72.5 -19.25 69.65625 -14.09375 C 66.8125 -8.945312 62.8125 -4.953125 57.65625 -2.109375 C 52.507812 0.734375 46.515625 2.15625 39.671875 2.15625 Z M 11.5625 -43.65625 L 61.5 -43.65625 C 61.425781 -47.84375 60.253906 -51.535156 57.984375 -54.734375 C 55.710938 -57.941406 52.789062 -60.460938 49.21875 -62.296875 C 45.65625 -64.140625 41.859375 -65.0625 37.828125 -65.0625 C 33.578125 -65.0625 29.628906 -64.125 25.984375 -62.25 C 22.347656 -60.375 19.285156 -57.832031 16.796875 -54.625 C 14.316406 -51.425781 12.570312 -47.769531 11.5625 -43.65625 Z M 11.5625 -43.65625 "/></g></g></g></g></g></svg>