<svg xmlns="http://www.w3.org/2000/svg" xmlns:xlink="http://www.w3.org/1999/xlink" zoomAndPan="magnify" viewBox="63 166 351 100" preserveAspectRatio="xMidYMid meet" version="1.0"><defs><g/></defs><g fill="#8a5a3a" fill-opacity="1"><g transform="translate(68.427347, 226.689064)"><g><path d="M 1.984375 0.984375 L 1.984375 -11.4375 L 2.578125 -11.4375 L 2.578125 -9.0625 C 2.578125 -8.238281 2.753906 -7.289062 3.109375 -6.21875 C 3.472656 -5.144531 4.019531 -4.101562 4.75 -3.09375 C 5.476562 -2.082031 6.382812 -1.25 7.46875 -0.59375 C 8.5625 0.0625 9.816406 0.390625 11.234375 0.390625 C 12.617188 0.390625 13.78125 0.0859375 14.71875 -0.515625 C 15.664062 -1.128906 16.367188 -1.929688 16.828125 -2.921875 C 17.285156 -3.910156 17.515625 -4.929688 17.515625 -5.984375 C 17.515625 -7.171875 17.148438 -8.226562 16.421875 -9.15625 C 15.703125 -10.082031 14.765625 -10.941406 13.609375 -11.734375 C 12.453125 -12.523438 11.226562 -13.316406 9.9375 -14.109375 C 8.65625 -14.898438 7.4375 -15.75 6.28125 -16.65625 C 5.125 -17.5625 4.179688 -18.59375 3.453125 -19.75 C 2.734375 -20.90625 2.375 -22.257812 2.375 -23.8125 C 2.375 -25.132812 2.742188 -26.289062 3.484375 -27.28125 C 4.234375 -28.269531 5.21875 -29.039062 6.4375 -29.59375 C 7.65625 -30.15625 8.957031 -30.4375 10.34375 -30.4375 C 11.269531 -30.4375 12.0625 -30.351562 12.71875 -30.1875 C 13.382812 -30.03125 14.046875 -29.867188 14.703125 -29.703125 C 15.359375 -29.535156 16.117188 -29.453125 16.984375 -29.453125 C 17.273438 -29.453125 17.566406 -29.507812 17.859375 -29.625 C 18.160156 -29.738281 18.3125 -30.007812 18.3125 -30.4375 L 18.90625 -30.4375 L 18.90625 -20.59375 L 18.3125 -20.59375 L 18.3125 -22.96875 C 18.3125 -24.382812 18.070312 -25.535156 17.59375 -26.421875 C 17.113281 -27.316406 16.492188 -28.007812 15.734375 -28.5 C 14.984375 -29 14.171875 -29.347656 13.296875 -29.546875 C 12.421875 -29.742188 11.585938 -29.84375 10.796875 -29.84375 C 9.210938 -29.84375 7.847656 -29.347656 6.703125 -28.359375 C 5.566406 -27.367188 5 -26.066406 5 -24.453125 C 5 -23.265625 5.351562 -22.222656 6.0625 -21.328125 C 6.769531 -20.441406 7.6875 -19.625 8.8125 -18.875 C 9.9375 -18.132812 11.113281 -17.394531 12.34375 -16.65625 C 13.582031 -15.914062 14.765625 -15.128906 15.890625 -14.296875 C 17.015625 -13.472656 17.929688 -12.523438 18.640625 -11.453125 C 19.347656 -10.378906 19.703125 -9.117188 19.703125 -7.671875 C 19.703125 -6.117188 19.367188 -4.679688 18.703125 -3.359375 C 18.046875 -2.046875 17.082031 -0.992188 15.8125 -0.203125 C 14.539062 0.585938 13 0.984375 11.1875 0.984375 C 9.769531 0.984375 8.488281 0.734375 7.34375 0.234375 C 6.207031 -0.253906 5.273438 -0.742188 4.546875 -1.234375 C 3.828125 -1.734375 3.332031 -1.984375 3.0625 -1.984375 C 2.800781 -1.984375 2.644531 -1.882812 2.59375 -1.6875 C 2.550781 -1.488281 2.53125 -1.320312 2.53125 -1.1875 L 2.53125 0.984375 Z M 1.984375 0.984375 "/></g></g></g><g fill="#8a5a3a" fill-opacity="1"><g transform="translate(82.879529, 226.689064)"><g><path d="M 18.171875 0.984375 C 15.992188 0.984375 13.953125 0.582031 12.046875 -0.21875 C 10.148438 -1.03125 8.484375 -2.148438 7.046875 -3.578125 C 5.617188 -5.015625 4.5 -6.679688 3.6875 -8.578125 C 2.875 -10.484375 2.46875 -12.523438 2.46875 -14.703125 C 2.46875 -16.878906 2.875 -18.914062 3.6875 -20.8125 C 4.5 -22.707031 5.617188 -24.375 7.046875 -25.8125 C 8.484375 -27.25 10.148438 -28.367188 12.046875 -29.171875 C 13.953125 -29.984375 15.992188 -30.390625 18.171875 -30.390625 C 20.347656 -30.390625 22.382812 -29.984375 24.28125 -29.171875 C 26.175781 -28.367188 27.84375 -27.25 29.28125 -25.8125 C 30.71875 -24.375 31.835938 -22.707031 32.640625 -20.8125 C 33.453125 -18.914062 33.859375 -16.878906 33.859375 -14.703125 C 33.859375 -12.523438 33.453125 -10.484375 32.640625 -8.578125 C 31.835938 -6.679688 30.71875 -5.015625 29.28125 -3.578125 C 27.84375 -2.148438 26.175781 -1.03125 24.28125 -0.21875 C 22.382812 0.582031 20.347656 0.984375 18.171875 0.984375 Z M 4.609375 -18.21875 C 4.609375 -15.96875 4.984375 -13.820312 5.734375 -11.78125 C 6.492188 -9.738281 7.582031 -7.921875 9 -6.328125 C 10.425781 -4.742188 12.144531 -3.488281 14.15625 -2.5625 C 16.164062 -1.644531 18.425781 -1.1875 20.9375 -1.1875 C 23.144531 -1.1875 25.050781 -1.628906 26.65625 -2.515625 C 28.257812 -3.410156 29.503906 -4.609375 30.390625 -6.109375 C 31.285156 -7.609375 31.734375 -9.300781 31.734375 -11.1875 C 31.734375 -13.394531 31.335938 -15.515625 30.546875 -17.546875 C 29.753906 -19.578125 28.625 -21.390625 27.15625 -22.984375 C 25.6875 -24.585938 23.953125 -25.859375 21.953125 -26.796875 C 19.953125 -27.742188 17.765625 -28.21875 15.390625 -28.21875 C 13.210938 -28.21875 11.316406 -27.78125 9.703125 -26.90625 C 8.085938 -26.03125 6.832031 -24.832031 5.9375 -23.3125 C 5.050781 -21.789062 4.609375 -20.09375 4.609375 -18.21875 Z M 4.609375 -18.21875 "/></g></g></g><g fill="#8a5a3a" fill-opacity="1"><g transform="translate(111.983706, 226.689064)"><g><path d="M 13.953125 0 L 0.984375 0 L 0.984375 -0.59375 L 3.265625 -0.59375 C 3.597656 -0.59375 3.953125 -0.664062 4.328125 -0.8125 C 4.710938 -0.96875 5.050781 -1.273438 5.34375 -1.734375 C 5.644531 -2.191406 5.796875 -2.867188 5.796875 -3.765625 L 5.796875 -23.5625 C 5.796875 -23.925781 5.757812 -24.328125 5.6875 -24.765625 C 5.625 -25.210938 5.414062 -25.601562 5.0625 -25.9375 C 4.71875 -26.269531 4.117188 -26.4375 3.265625 -26.4375 L 3.265625 -27.03125 C 5.015625 -27.03125 6.332031 -27.414062 7.21875 -28.1875 C 8.113281 -28.96875 8.5625 -29.71875 8.5625 -30.4375 L 9.15625 -30.4375 L 9.15625 -22.96875 C 9.6875 -24.320312 10.363281 -25.566406 11.1875 -26.703125 C 12.007812 -27.835938 12.972656 -28.742188 14.078125 -29.421875 C 15.179688 -30.097656 16.394531 -30.4375 17.71875 -30.4375 C 19.632812 -30.4375 21.1875 -29.925781 22.375 -28.90625 C 23.5625 -27.882812 24.15625 -26.019531 24.15625 -23.3125 L 24.15625 -22.96875 C 24.6875 -24.320312 25.363281 -25.566406 26.1875 -26.703125 C 27.007812 -27.835938 27.972656 -28.742188 29.078125 -29.421875 C 30.179688 -30.097656 31.394531 -30.4375 32.71875 -30.4375 C 34.632812 -30.4375 36.1875 -29.925781 37.375 -28.90625 C 38.5625 -27.882812 39.15625 -26.019531 39.15625 -23.3125 L 39.15625 -3.765625 C 39.15625 -2.867188 39.300781 -2.191406 39.59375 -1.734375 C 39.894531 -1.273438 40.242188 -0.96875 40.640625 -0.8125 C 41.035156 -0.664062 41.378906 -0.59375 41.671875 -0.59375 L 43.953125 -0.59375 L 43.953125 0 L 30.984375 0 L 30.984375 -0.59375 L 33.265625 -0.59375 C 33.597656 -0.59375 33.953125 -0.664062 34.328125 -0.8125 C 34.703125 -0.96875 35.035156 -1.273438 35.328125 -1.734375 C 35.628906 -2.191406 35.78125 -2.867188 35.78125 -3.765625 L 35.78125 -25.140625 C 35.78125 -26.367188 35.570312 -27.457031 35.15625 -28.40625 C 34.75 -29.363281 33.96875 -29.84375 32.8125 -29.84375 C 31.425781 -29.84375 30.207031 -29.488281 29.15625 -28.78125 C 28.101562 -28.070312 27.210938 -27.1875 26.484375 -26.125 C 25.753906 -25.070312 25.195312 -24 24.8125 -22.90625 C 24.4375 -21.820312 24.21875 -20.898438 24.15625 -20.140625 L 24.15625 -3.765625 C 24.15625 -2.867188 24.300781 -2.191406 24.59375 -1.734375 C 24.894531 -1.273438 25.242188 -0.96875 25.640625 -0.8125 C 26.035156 -0.664062 26.382812 -0.59375 26.6875 -0.59375 L 28.953125 -0.59375 L 28.953125 0 L 15.984375 0 L 15.984375 -0.59375 L 18.265625 -0.59375 C 18.597656 -0.59375 18.953125 -0.664062 19.328125 -0.8125 C 19.710938 -0.96875 20.050781 -1.273438 20.34375 -1.734375 C 20.644531 -2.191406 20.796875 -2.867188 20.796875 -3.765625 L 20.796875 -25.140625 C 20.796875 -26.367188 20.585938 -27.457031 20.171875 -28.40625 C 19.753906 -29.363281 18.96875 -29.84375 17.8125 -29.84375 C 16.425781 -29.84375 15.207031 -29.488281 14.15625 -28.78125 C 13.101562 -28.070312 12.210938 -27.1875 11.484375 -26.125 C 10.753906 -25.070312 10.195312 -24 9.8125 -22.90625 C 9.4375 -21.820312 9.21875 -20.898438 9.15625 -20.140625 L 9.15625 -3.765625 C 9.15625 -2.867188 9.300781 -2.191406 9.59375 -1.734375 C 9.894531 -1.273438 10.242188 -0.96875 10.640625 -0.8125 C 11.035156 -0.664062 11.382812 -0.59375 11.6875 -0.59375 L 13.953125 -0.59375 Z M 13.953125 0 "/></g></g></g><g fill="#8a5a3a" fill-opacity="1"><g transform="translate(149.205887, 226.689064)"><g><path d="M 18.171875 0.984375 C 15.035156 0.984375 12.285156 0.332031 9.921875 -0.96875 C 7.566406 -2.269531 5.734375 -4.097656 4.421875 -6.453125 C 3.117188 -8.816406 2.46875 -11.566406 2.46875 -14.703125 C 2.46875 -17.835938 3.117188 -20.582031 4.421875 -22.9375 C 5.734375 -25.300781 7.566406 -27.132812 9.921875 -28.4375 C 12.285156 -29.738281 15.035156 -30.390625 18.171875 -30.390625 C 20.710938 -30.390625 22.804688 -30.019531 24.453125 -29.28125 C 26.097656 -28.539062 27.398438 -27.625 28.359375 -26.53125 C 29.316406 -25.445312 30.019531 -24.359375 30.46875 -23.265625 C 30.914062 -22.171875 31.203125 -21.253906 31.328125 -20.515625 C 31.460938 -19.773438 31.53125 -19.40625 31.53125 -19.40625 L 5.203125 -19.40625 C 5.128906 -18.976562 5.066406 -18.554688 5.015625 -18.140625 C 4.972656 -17.722656 4.953125 -17.285156 4.953125 -16.828125 C 4.953125 -13.960938 5.585938 -11.363281 6.859375 -9.03125 C 8.128906 -6.707031 9.925781 -4.851562 12.25 -3.46875 C 14.570312 -2.082031 17.300781 -1.390625 20.4375 -1.390625 C 22.976562 -1.390625 25.207031 -1.929688 27.125 -3.015625 C 29.039062 -4.109375 30.539062 -5.648438 31.625 -7.640625 C 32.71875 -9.640625 33.265625 -11.992188 33.265625 -14.703125 L 33.859375 -14.703125 C 33.859375 -11.566406 33.207031 -8.816406 31.90625 -6.453125 C 30.601562 -4.097656 28.769531 -2.269531 26.40625 -0.96875 C 24.050781 0.332031 21.304688 0.984375 18.171875 0.984375 Z M 5.296875 -20 L 28.171875 -20 C 28.128906 -21.914062 27.585938 -23.609375 26.546875 -25.078125 C 25.515625 -26.546875 24.179688 -27.695312 22.546875 -28.53125 C 20.910156 -29.375 19.171875 -29.796875 17.328125 -29.796875 C 15.378906 -29.796875 13.570312 -29.363281 11.90625 -28.5 C 10.238281 -27.644531 8.832031 -26.484375 7.6875 -25.015625 C 6.550781 -23.546875 5.753906 -21.875 5.296875 -20 Z M 5.296875 -20 "/></g></g></g><g fill="#8a5a3a" fill-opacity="1"><g transform="translate(175.34007, 226.689064)"><g/></g></g><g fill="#8a5a3a" fill-opacity="1"><g transform="translate(185.48576, 226.689064)"><g><path d="M 2.46875 -14.703125 C 2.46875 -17.835938 3.117188 -20.582031 4.421875 -22.9375 C 5.734375 -25.300781 7.566406 -27.132812 9.921875 -28.4375 C 12.285156 -29.738281 15.035156 -30.390625 18.171875 -30.390625 C 19.984375 -30.390625 21.441406 -30.304688 22.546875 -30.140625 C 23.648438 -29.972656 24.625 -29.804688 25.46875 -29.640625 C 26.3125 -29.484375 27.257812 -29.40625 28.3125 -29.40625 C 29.269531 -29.40625 29.992188 -29.566406 30.484375 -29.890625 C 30.984375 -30.222656 31.234375 -30.390625 31.234375 -30.390625 L 31.828125 -30.390625 L 24.359375 -9.546875 L 23.765625 -9.546875 L 27.875 -20.984375 C 28.195312 -21.910156 28.304688 -22.882812 28.203125 -23.90625 C 28.109375 -24.925781 27.710938 -25.878906 27.015625 -26.765625 C 26.328125 -27.660156 25.273438 -28.390625 23.859375 -28.953125 C 22.441406 -29.515625 20.578125 -29.796875 18.265625 -29.796875 C 16.453125 -29.796875 14.734375 -29.457031 13.109375 -28.78125 C 11.492188 -28.101562 10.078125 -27.171875 8.859375 -25.984375 C 7.640625 -24.796875 6.679688 -23.414062 5.984375 -21.84375 C 5.296875 -20.28125 4.953125 -18.609375 4.953125 -16.828125 C 4.953125 -13.960938 5.585938 -11.363281 6.859375 -9.03125 C 8.128906 -6.707031 9.925781 -4.851562 12.25 -3.46875 C 14.570312 -2.082031 17.300781 -1.390625 20.4375 -1.390625 C 22.976562 -1.390625 25.207031 -1.929688 27.125 -3.015625 C 29.039062 -4.109375 30.539062 -5.648438 31.625 -7.640625 C 32.71875 -9.640625 33.265625 -11.992188 33.265625 -14.703125 L 33.859375 -14.703125 C 33.859375 -11.566406 33.207031 -8.816406 31.90625 -6.453125 C 30.601562 -4.097656 28.769531 -2.269531 26.40625 -0.96875 C 24.050781 0.332031 21.304688 0.984375 18.171875 0.984375 C 15.035156 0.984375 12.285156 0.332031 9.921875 -0.96875 C 7.566406 -2.269531 5.734375 -4.097656 4.421875 -6.453125 C 3.117188 -8.816406 2.46875 -11.566406 2.46875 -14.703125 Z M 2.46875 -14.703125 "/></g></g></g><g fill="#8a5a3a" fill-opacity="1"><g transform="translate(213.599943, 226.689064)"><g><path d="M 18.171875 0.984375 C 15.992188 0.984375 13.953125 0.582031 12.046875 -0.21875 C 10.148438 -1.03125 8.484375 -2.148438 7.046875 -3.578125 C 5.617188 -5.015625 4.5 -6.679688 3.6875 -8.578125 C 2.875 -10.484375 2.46875 -12.523438 2.46875 -14.703125 C 2.46875 -16.878906 2.875 -18.914062 3.6875 -20.8125 C 4.5 -22.707031 5.617188 -24.375 7.046875 -25.8125 C 8.484375 -27.25 10.148438 -28.367188 12.046875 -29.171875 C 13.953125 -29.984375 15.992188 -30.390625 18.171875 -30.390625 C 20.347656 -30.390625 22.382812 -29.984375 24.28125 -29.171875 C 26.175781 -28.367188 27.84375 -27.25 29.28125 -25.8125 C 30.71875 -24.375 31.835938 -22.707031 32.640625 -20.8125 C 33.453125 -18.914062 33.859375 -16.878906 33.859375 -14.703125 C 33.859375 -12.523438 33.453125 -10.484375 32.640625 -8.578125 C 31.835938 -6.679688 30.71875 -5.015625 29.28125 -3.578125 C 27.84375 -2.148438 26.175781 -1.03125 24.28125 -0.21875 C 22.382812 0.582031 20.347656 0.984375 18.171875 0.984375 Z M 4.609375 -18.21875 C 4.609375 -15.96875 4.984375 -13.820312 5.734375 -11.78125 C 6.492188 -9.738281 7.582031 -7.921875 9 -6.328125 C 10.425781 -4.742188 12.144531 -3.488281 14.15625 -2.5625 C 16.164062 -1.644531 18.425781 -1.1875 20.9375 -1.1875 C 23.144531 -1.1875 25.050781 -1.628906 26.65625 -2.515625 C 28.257812 -3.410156 29.503906 -4.609375 30.390625 -6.109375 C 31.285156 -7.609375 31.734375 -9.300781 31.734375 -11.1875 C 31.734375 -13.394531 31.335938 -15.515625 30.546875 -17.546875 C 29.753906 -19.578125 28.625 -21.390625 27.15625 -22.984375 C 25.6875 -24.585938 23.953125 -25.859375 21.953125 -26.796875 C 19.953125 -27.742188 17.765625 -28.21875 15.390625 -28.21875 C 13.210938 -28.21875 11.316406 -27.78125 9.703125 -26.90625 C 8.085938 -26.03125 6.832031 -24.832031 5.9375 -23.3125 C 5.050781 -21.789062 4.609375 -20.09375 4.609375 -18.21875 Z M 4.609375 -18.21875 "/></g></g></g><g fill="#8a5a3a" fill-opacity="1"><g transform="translate(242.704121, 226.689064)"><g><path d="M 0.984375 0 L 0.984375 -0.59375 L 3.265625 -0.59375 C 3.597656 -0.59375 3.953125 -0.664062 4.328125 -0.8125 C 4.710938 -0.96875 5.050781 -1.273438 5.34375 -1.734375 C 5.644531 -2.191406 5.796875 -2.867188 5.796875 -3.765625 L 5.796875 -23.5625 C 5.796875 -23.925781 5.757812 -24.328125 5.6875 -24.765625 C 5.625 -25.210938 5.414062 -25.601562 5.0625 -25.9375 C 4.71875 -26.269531 4.117188 -26.4375 3.265625 -26.4375 L 3.265625 -27.03125 C 5.015625 -27.03125 6.332031 -27.414062 7.21875 -28.1875 C 8.113281 -28.96875 8.5625 -29.71875 8.5625 -30.4375 L 9.15625 -30.4375 L 9.15625 -22.96875 C 9.6875 -24.320312 10.363281 -25.566406 11.1875 -26.703125 C 12.007812 -27.835938 12.972656 -28.742188 14.078125 -29.421875 C 15.179688 -30.097656 16.394531 -30.4375 17.71875 -30.4375 C 19.632812 -30.4375 21.1875 -29.925781 22.375 -28.90625 C 23.5625 -27.882812 24.15625 -26.019531 24.15625 -23.3125 L 24.15625 -3.765625 C 24.15625 -2.867188 24.300781 -2.191406 24.59375 -1.734375 C 24.894531 -1.273438 25.242188 -0.96875 25.640625 -0.8125 C 26.035156 -0.664062 26.382812 -0.59375 26.6875 -0.59375 L 28.953125 -0.59375 L 28.953125 0 L 15.984375 0 L 15.984375 -0.59375 L 18.265625 -0.59375 C 18.597656 -0.59375 18.953125 -0.664062 19.328125 -0.8125 C 19.710938 -0.96875 20.050781 -1.273438 20.34375 -1.734375 C 20.644531 -2.191406 20.796875 -2.867188 20.796875 -3.765625 L 20.796875 -25.140625 C 20.796875 -26.367188 20.585938 -27.457031 20.171875 -28.40625 C 19.753906 -29.363281 18.96875 -29.84375 17.8125 -29.84375 C 16.425781 -29.84375 15.207031 -29.488281 14.15625 -28.78125 C 13.101562 -28.070312 12.210938 -27.1875 11.484375 -26.125 C 10.753906 -25.070312 10.195312 -24 9.8125 -22.90625 C 9.4375 -21.820312 9.21875 -20.898438 9.15625 -20.140625 L 9.15625 -3.765625 C 9.15625 -2.867188 9.300781 -2.191406 9.59375 -1.734375 C 9.894531 -1.273438 10.242188 -0.96875 10.640625 -0.8125 C 11.035156 -0.664062 11.382812 -0.59375 11.6875 -0.59375 L 13.953125 -0.59375 L 13.953125 0 Z M 0.984375 0 "/></g></g></g><g fill="#8a5a3a" fill-opacity="1"><g transform="translate(264.92779, 226.689064)"><g><path d="M 2.46875 -14.703125 C 2.46875 -17.835938 3.117188 -20.582031 4.421875 -22.9375 C 5.734375 -25.300781 7.566406 -27.132812 9.921875 -28.4375 C 12.285156 -29.738281 15.035156 -30.390625 18.171875 -30.390625 C 19.984375 -30.390625 21.441406 -30.304688 22.546875 -30.140625 C 23.648438 -29.972656 24.625 -29.804688 25.46875 -29.640625 C 26.3125 -29.484375 27.257812 -29.40625 28.3125 -29.40625 C 29.269531 -29.40625 29.992188 -29.566406 30.484375 -29.890625 C 30.984375 -30.222656 31.234375 -30.390625 31.234375 -30.390625 L 31.828125 -30.390625 L 24.359375 -9.546875 L 23.765625 -9.546875 L 27.875 -20.984375 C 28.195312 -21.910156 28.304688 -22.882812 28.203125 -23.90625 C 28.109375 -24.925781 27.710938 -25.878906 27.015625 -26.765625 C 26.328125 -27.660156 25.273438 -28.390625 23.859375 -28.953125 C 22.441406 -29.515625 20.578125 -29.796875 18.265625 -29.796875 C 16.453125 -29.796875 14.734375 -29.457031 13.109375 -28.78125 C 11.492188 -28.101562 10.078125 -27.171875 8.859375 -25.984375 C 7.640625 -24.796875 6.679688 -23.414062 5.984375 -21.84375 C 5.296875 -20.28125 4.953125 -18.609375 4.953125 -16.828125 C 4.953125 -13.960938 5.585938 -11.363281 6.859375 -9.03125 C 8.128906 -6.707031 9.925781 -4.851562 12.25 -3.46875 C 14.570312 -2.082031 17.300781 -1.390625 20.4375 -1.390625 C 22.976562 -1.390625 25.207031 -1.929688 27.125 -3.015625 C 29.039062 -4.109375 30.539062 -5.648438 31.625 -7.640625 C 32.71875 -9.640625 33.265625 -11.992188 33.265625 -14.703125 L 33.859375 -14.703125 C 33.859375 -11.566406 33.207031 -8.816406 31.90625 -6.453125 C 30.601562 -4.097656 28.769531 -2.269531 26.40625 -0.96875 C 24.050781 0.332031 21.304688 0.984375 18.171875 0.984375 C 15.035156 0.984375 12.285156 0.332031 9.921875 -0.96875 C 7.566406 -2.269531 5.734375 -4.097656 4.421875 -6.453125 C 3.117188 -8.816406 2.46875 -11.566406 2.46875 -14.703125 Z M 2.46875 -14.703125 "/></g></g></g><g fill="#8a5a3a" fill-opacity="1"><g transform="translate(293.041985, 226.689064)"><g><path d="M 18.171875 0.984375 C 15.035156 0.984375 12.285156 0.332031 9.921875 -0.96875 C 7.566406 -2.269531 5.734375 -4.097656 4.421875 -6.453125 C 3.117188 -8.816406 2.46875 -11.566406 2.46875 -14.703125 C 2.46875 -17.835938 3.117188 -20.582031 4.421875 -22.9375 C 5.734375 -25.300781 7.566406 -27.132812 9.921875 -28.4375 C 12.285156 -29.738281 15.035156 -30.390625 18.171875 -30.390625 C 20.710938 -30.390625 22.804688 -30.019531 24.453125 -29.28125 C 26.097656 -28.539062 27.398438 -27.625 28.359375 -26.53125 C 29.316406 -25.445312 30.019531 -24.359375 30.46875 -23.265625 C 30.914062 -22.171875 31.203125 -21.253906 31.328125 -20.515625 C 31.460938 -19.773438 31.53125 -19.40625 31.53125 -19.40625 L 5.203125 -19.40625 C 5.128906 -18.976562 5.066406 -18.554688 5.015625 -18.140625 C 4.972656 -17.722656 4.953125 -17.285156 4.953125 -16.828125 C 4.953125 -13.960938 5.585938 -11.363281 6.859375 -9.03125 C 8.128906 -6.707031 9.925781 -4.851562 12.25 -3.46875 C 14.570312 -2.082031 17.300781 -1.390625 20.4375 -1.390625 C 22.976562 -1.390625 25.207031 -1.929688 27.125 -3.015625 C 29.039062 -4.109375 30.539062 -5.648438 31.625 -7.640625 C 32.71875 -9.640625 33.265625 -11.992188 33.265625 -14.703125 L 33.859375 -14.703125 C 33.859375 -11.566406 33.207031 -8.816406 31.90625 -6.453125 C 30.601562 -4.097656 28.769531 -2.269531 26.40625 -0.96875 C 24.050781 0.332031 21.304688 0.984375 18.171875 0.984375 Z M 5.296875 -20 L 28.171875 -20 C 28.128906 -21.914062 27.585938 -23.609375 26.546875 -25.078125 C 25.515625 -26.546875 24.179688 -27.695312 22.546875 -28.53125 C 20.910156 -29.375 19.171875 -29.796875 17.328125 -29.796875 C 15.378906 -29.796875 13.570312 -29.363281 11.90625 -28.5 C 10.238281 -27.644531 8.832031 -26.484375 7.6875 -25.015625 C 6.550781 -23.546875 5.753906 -21.875 5.296875 -20 Z M 5.296875 -20 "/></g></g></g><g fill="#8a5a3a" fill-opacity="1"><g transform="translate(319.176168, 226.689064)"><g><path d="M 0.984375 0 L 0.984375 -0.59375 L 3.265625 -0.59375 C 3.597656 -0.59375 3.953125 -0.664062 4.328125 -0.8125 C 4.710938 -0.96875 5.050781 -1.273438 5.34375 -1.734375 C 5.644531 -2.191406 5.796875 -2.867188 5.796875 -3.765625 L 5.796875 -23.5625 C 5.796875 -23.925781 5.757812 -24.328125 5.6875 -24.765625 C 5.625 -25.210938 5.414062 -25.601562 5.0625 -25.9375 C 4.71875 -26.269531 4.117188 -26.4375 3.265625 -26.4375 L 3.265625 -27.03125 C 5.015625 -27.03125 6.332031 -27.414062 7.21875 -28.1875 C 8.113281 -28.96875 8.5625 -29.71875 8.5625 -30.4375 L 9.15625 -30.4375 L 9.15625 -23.109375 C 9.613281 -24.429688 10.195312 -25.644531 10.90625 -26.75 C 11.625 -27.851562 12.476562 -28.734375 13.46875 -29.390625 C 14.457031 -30.054688 15.59375 -30.390625 16.875 -30.390625 C 17.832031 -30.390625 18.566406 -30.304688 19.078125 -30.140625 C 19.585938 -29.972656 20.113281 -29.804688 20.65625 -29.640625 C 21.207031 -29.484375 22.007812 -29.40625 23.0625 -29.40625 C 24.019531 -29.40625 24.597656 -29.566406 24.796875 -29.890625 C 24.992188 -30.222656 25.09375 -30.390625 25.09375 -30.390625 L 25.6875 -30.390625 L 18.21875 -9.609375 L 17.625 -9.609375 L 21.28125 -19.796875 C 21.945312 -21.609375 22.195312 -23.273438 22.03125 -24.796875 C 21.863281 -26.316406 21.34375 -27.53125 20.46875 -28.4375 C 19.59375 -29.34375 18.394531 -29.796875 16.875 -29.796875 C 15.625 -29.796875 14.523438 -29.445312 13.578125 -28.75 C 12.640625 -28.0625 11.847656 -27.1875 11.203125 -26.125 C 10.566406 -25.070312 10.082031 -24 9.75 -22.90625 C 9.414062 -21.820312 9.21875 -20.898438 9.15625 -20.140625 L 9.15625 -3.765625 C 9.15625 -2.867188 9.300781 -2.191406 9.59375 -1.734375 C 9.894531 -1.273438 10.242188 -0.96875 10.640625 -0.8125 C 11.035156 -0.664062 11.382812 -0.59375 11.6875 -0.59375 L 13.953125 -0.59375 L 13.953125 0 Z M 0.984375 0 "/></g></g></g><g fill="#8a5a3a" fill-opacity="1"><g transform="translate(337.637868, 226.689064)"><g><path d="M 0.984375 0 L 0.984375 -0.59375 L 3.265625 -0.59375 C 3.597656 -0.59375 3.953125 -0.664062 4.328125 -0.8125 C 4.710938 -0.96875 5.050781 -1.273438 5.34375 -1.734375 C 5.644531 -2.191406 5.796875 -2.867188 5.796875 -3.765625 L 5.796875 -23.5625 C 5.796875 -23.925781 5.757812 -24.328125 5.6875 -24.765625 C 5.625 -25.210938 5.414062 -25.601562 5.0625 -25.9375 C 4.71875 -26.269531 4.117188 -26.4375 3.265625 -26.4375 L 3.265625 -27.03125 C 5.015625 -27.03125 6.332031 -27.414062 7.21875 -28.1875 C 8.113281 -28.96875 8.5625 -29.71875 8.5625 -30.4375 L 9.15625 -30.4375 L 9.15625 -22.96875 C 9.6875 -24.320312 10.363281 -25.566406 11.1875 -26.703125 C 12.007812 -27.835938 12.972656 -28.742188 14.078125 -29.421875 C 15.179688 -30.097656 16.394531 -30.4375 17.71875 -30.4375 C 19.632812 -30.4375 21.1875 -29.925781 22.375 -28.90625 C 23.5625 -27.882812 24.15625 -26.019531 24.15625 -23.3125 L 24.15625 -3.765625 C 24.15625 -2.867188 24.300781 -2.191406 24.59375 -1.734375 C 24.894531 -1.273438 25.242188 -0.96875 25.640625 -0.8125 C 26.035156 -0.664062 26.382812 -0.59375 26.6875 -0.59375 L 28.953125 -0.59375 L 28.953125 0 L 15.984375 0 L 15.984375 -0.59375 L 18.265625 -0.59375 C 18.597656 -0.59375 18.953125 -0.664062 19.328125 -0.8125 C 19.710938 -0.96875 20.050781 -1.273438 20.34375 -1.734375 C 20.644531 -2.191406 20.796875 -2.867188 20.796875 -3.765625 L 20.796875 -25.140625 C 20.796875 -26.367188 20.585938 -27.457031 20.171875 -28.40625 C 19.753906 -29.363281 18.96875 -29.84375 17.8125 -29.84375 C 16.425781 -29.84375 15.207031 -29.488281 14.15625 -28.78125 C 13.101562 -28.070312 12.210938 -27.1875 11.484375 -26.125 C 10.753906 -25.070312 10.195312 -24 9.8125 -22.90625 C 9.4375 -21.820312 9.21875 -20.898438 9.15625 -20.140625 L 9.15625 -3.765625 C 9.15625 -2.867188 9.300781 -2.191406 9.59375 -1.734375 C 9.894531 -1.273438 10.242188 -0.96875 10.640625 -0.8125 C 11.035156 -0.664062 11.382812 -0.59375 11.6875 -0.59375 L 13.953125 -0.59375 L 13.953125 0 Z M 0.984375 0 "/></g></g></g><g fill="#8a5a3a" fill-opacity="1"><g transform="translate(359.861537, 226.689064)"><g><path d="M 1.984375 0.984375 L 1.984375 -11.4375 L 2.578125 -11.4375 L 2.578125 -9.0625 C 2.578125 -8.238281 2.753906 -7.289062 3.109375 -6.21875 C 3.472656 -5.144531 4.019531 -4.101562 4.75 -3.09375 C 5.476562 -2.082031 6.382812 -1.25 7.46875 -0.59375 C 8.5625 0.0625 9.816406 0.390625 11.234375 0.390625 C 12.617188 0.390625 13.78125 0.0859375 14.71875 -0.515625 C 15.664062 -1.128906 16.367188 -1.929688 16.828125 -2.921875 C 17.285156 -3.910156 17.515625 -4.929688 17.515625 -5.984375 C 17.515625 -7.171875 17.148438 -8.226562 16.421875 -9.15625 C 15.703125 -10.082031 14.765625 -10.941406 13.609375 -11.734375 C 12.453125 -12.523438 11.226562 -13.316406 9.9375 -14.109375 C 8.65625 -14.898438 7.4375 -15.75 6.28125 -16.65625 C 5.125 -17.5625 4.179688 -18.59375 3.453125 -19.75 C 2.734375 -20.90625 2.375 -22.257812 2.375 -23.8125 C 2.375 -25.132812 2.742188 -26.289062 3.484375 -27.28125 C 4.234375 -28.269531 5.21875 -29.039062 6.4375 -29.59375 C 7.65625 -30.15625 8.957031 -30.4375 10.34375 -30.4375 C 11.269531 -30.4375 12.0625 -30.351562 12.71875 -30.1875 C 13.382812 -30.03125 14.046875 -29.867188 14.703125 -29.703125 C 15.359375 -29.535156 16.117188 -29.453125 16.984375 -29.453125 C 17.273438 -29.453125 17.566406 -29.507812 17.859375 -29.625 C 18.160156 -29.738281 18.3125 -30.007812 18.3125 -30.4375 L 18.90625 -30.4375 L 18.90625 -20.59375 L 18.3125 -20.59375 L 18.3125 -22.96875 C 18.3125 -24.382812 18.070312 -25.535156 17.59375 -26.421875 C 17.113281 -27.316406 16.492188 -28.007812 15.734375 -28.5 C 14.984375 -29 14.171875 -29.347656 13.296875 -29.546875 C 12.421875 -29.742188 11.585938 -29.84375 10.796875 -29.84375 C 9.210938 -29.84375 7.847656 -29.347656 6.703125 -28.359375 C 5.566406 -27.367188 5 -26.066406 5 -24.453125 C 5 -23.265625 5.351562 -22.222656 6.0625 -21.328125 C 6.769531 -20.441406 7.6875 -19.625 8.8125 -18.875 C 9.9375 -18.132812 11.113281 -17.394531 12.34375 -16.65625 C 13.582031 -15.914062 14.765625 -15.128906 15.890625 -14.296875 C 17.015625 -13.472656 17.929688 -12.523438 18.640625 -11.453125 C 19.347656 -10.378906 19.703125 -9.117188 19.703125 -7.671875 C 19.703125 -6.117188 19.367188 -4.679688 18.703125 -3.359375 C 18.046875 -2.046875 17.082031 -0.992188 15.8125 -0.203125 C 14.539062 0.585938 13 0.984375 11.1875 0.984375 C 9.769531 0.984375 8.488281 0.734375 7.34375 0.234375 C 6.207031 -0.253906 5.273438 -0.742188 4.546875 -1.234375 C 3.828125 -1.734375 3.332031 -1.984375 3.0625 -1.984375 C 2.800781 -1.984375 2.644531 -1.882812 2.59375 -1.6875 C 2.550781 -1.488281 2.53125 -1.320312 2.53125 -1.1875 L 2.53125 0.984375 Z M 1.984375 0.984375 "/></g></g></g></svg>