<svg xmlns="http://www.w3.org/2000/svg" version="1.0" viewBox="0 0 450 450"><path fill="#fff" d="M55.612 222.79q-3.315 0-6.515-.734-3.19-.716-5.782-2.218c-1.718-1-3.101-2.286-4.14-3.86-1.031-1.57-1.547-3.453-1.547-5.64q0-2.982 1.172-5.079 1.172-2.11 3.375-3.656c1.469-1.039 3.21-1.992 5.234-2.86q-1.938-2.184-3.11-4.327-1.17-2.138-1.171-4.235-.001-2.827 1.516-4.843 1.512-2.03 4.062-3.11c1.695-.726 3.54-1.094 5.531-1.094q2.625 0 4.547.735 1.92.72 3.172 1.875 1.248 1.141 1.875 2.5c.414.898.625 1.75.625 2.562 0 1.461-.305 2.688-.906 3.688a7.9 7.9 0 0 1-2.328 2.453 12.7 12.7 0 0 1-3 1.531q-1.596.563-3.016.89c-.937.22-1.695.4-2.266.532q-.516.035-1.062.14a9 9 0 0 0-1.11.266q1.53 1.488 3.61 3.375a344 344 0 0 0 4.672 4.14l12.36-14.796.359.281-8.313 9.985a8.5 8.5 0 0 1 1.547-.547q.872-.218 2.125-.219c1.477 0 2.844.336 4.094 1a7.8 7.8 0 0 1 3.031 2.797q1.156 1.816 1.156 4.36a9.5 9.5 0 0 1-1.047 4.327q-1.047 2.063-2.828 3.844c1.344 1.156 2.531 2.18 3.563 3.063q1.559 1.33 2.531 1.906c.539.32 1.078.484 1.61.484h1.593v.485H77.16q-1.347-.001-2.25-.266-.908-.27-1.922-1.078a36 36 0 0 1-1.609-1.313c-.574-.5-1.211-1.039-1.906-1.625q-2.754 1.97-6.375 3.125a24.4 24.4 0 0 1-7.485 1.157m-14.984-13.093c0 1.781.422 3.43 1.266 4.937q1.265 2.251 3.421 3.954a16.9 16.9 0 0 0 4.891 2.625c1.82.617 3.692.921 5.61.921a24.2 24.2 0 0 0 7.171-1.062c2.301-.719 4.344-1.695 6.125-2.938q-2.144-1.858-4.734-4.109a505 505 0 0 0-5.328-4.61q-3-2.59-5.938-5.093-2.923-2.496-5.172-4.969a14 14 0 0 0-3.64 2.375 11.6 11.6 0 0 0-2.672 3.469q-1.001 2.004-1 4.5m4.281-20.969c-.031.856.117 1.73.453 2.625q.516 1.33 1.735 2.922c.82 1.063 1.937 2.297 3.343 3.703a33 33 0 0 0 2.438-.484 18 18 0 0 0 2.937-.953q1.499-.623 2.782-1.61a8 8 0 0 0 2.093-2.406q.812-1.418.813-3.36c0-.75-.133-1.546-.39-2.39a7.9 7.9 0 0 0-1.22-2.437c-.562-.77-1.32-1.395-2.265-1.875q-1.407-.734-3.469-.735-3.158 0-5.203 1.031-2.032 1.033-3 2.641-.971 1.594-1.047 3.328m14.5 17.406q.53.458 1.094.938.562.485 1.125 1a217 217 0 0 1 5.031 4.422q2.405 2.173 4.516 3.984 1.734-1.652 2.719-3.594a8.8 8.8 0 0 0 .984-4.03q-.001-2.72-1.188-4.454-1.187-1.732-2.968-2.562-1.783-.828-3.64-.829-1.817 0-3.048.516-1.236.502-1.922 1.297Zm51.599 16.655q-4.736 0-8.594-1.64-3.862-1.64-6.64-4.531a20.3 20.3 0 0 1-4.282-6.688q-1.5-3.797-1.5-8.156 0-4.36 1.5-8.156 1.499-3.795 4.282-6.688 2.778-2.89 6.64-4.531c2.57-1.094 5.438-1.64 8.594-1.64q4.717 0 8.578 1.64 3.856 1.641 6.64 4.531a20.2 20.2 0 0 1 4.298 6.688q1.5 3.797 1.5 8.156 0 4.36-1.5 8.156a20.2 20.2 0 0 1-4.297 6.688c-1.856 1.93-4.07 3.437-6.64 4.531q-3.862 1.64-8.579 1.64m-18.062-21.015q-.001 4.284 1.28 8 1.295 3.72 3.704 6.531a17.5 17.5 0 0 0 5.719 4.407q3.31 1.593 7.359 1.593 4.03 0 7.328-1.593a17.3 17.3 0 0 0 5.672-4.407c1.594-1.875 2.82-4.05 3.688-6.531q1.295-3.716 1.296-8 0-4.247-1.296-7.984c-.868-2.489-2.094-4.664-3.688-6.532a17.1 17.1 0 0 0-5.672-4.406c-2.2-1.07-4.64-1.61-7.328-1.61-2.7 0-5.152.54-7.36 1.61a17.3 17.3 0 0 0-5.718 4.406q-2.409 2.8-3.703 6.532-1.283 3.737-1.281 7.984m0 0"/><path fill="#fff" d="M130.606 194.103V180.76h.485a.75.75 0 0 0 .281.579q.28.234.813.234h20.406q.561 0 .812-.234a.77.77 0 0 0 .266-.579h.484v13.344h-.484v-5.5c0-1.562-.274-2.805-.813-3.734q-.796-1.39-2.015-2-1.206-.61-2.422-.61h-4.563v36.64q-.002 1.097.36 1.672.374.563.86.75.48.174.843.172h1.86v.484H136.98v-.484h1.86q.405.002.875-.172.467-.187.828-.75.359-.576.36-1.672v-36.64h-4.563c-.781 0-1.586.203-2.406.609q-1.238.61-2.047 2-.798 1.393-.797 3.734v5.5Zm0 0"/><path fill="#fff" d="M151.54 221.494h1.86q.387.002.859-.172.467-.187.828-.75.358-.576.36-1.672v-34.25q-.002-1.137-.36-1.687-.361-.544-.828-.72a2.4 2.4 0 0 0-.86-.187h-1.859v-.484h10.781v.484h-1.859q-.363 0-.844.188-.486.174-.86.719-.36.551-.359 1.687v11.219h17.547V184.65q0-1.137-.375-1.687c-.242-.364-.515-.602-.828-.72a2.4 2.4 0 0 0-.86-.187h-1.859v-.484h10.782v.484h-1.86q-.363 0-.843.188-.486.174-.86.719-.361.551-.36 1.687v34.25c0 .73.118 1.29.36 1.672q.374.563.86.75.48.174.843.172h1.86v.484h-10.782v-.484h1.86q.389.002.86-.172.466-.188.827-.75.375-.576.375-1.672v-22.5H158.4v22.5c0 .73.118 1.29.36 1.672q.374.563.86.75.48.174.843.172h1.86v.484H151.54Zm0 0"/><path fill="#fff" d="M180.309 181.572h23.312q1.203 0 2.047-.094.856-.107 1.297-.719h.406l-7.547 20.97h-.578l3.64-10.095q.937-2.871.688-4.734-.235-1.857-1.25-2.906c-.68-.696-1.515-1.192-2.515-1.485q-1.487-.452-3.11-.453h-9.53v13.907h3.187q1.779 0 2.562-.579a2.55 2.55 0 0 0 1-1.578q.201-.997.203-2.172h.485v17.094h-.407v-6.031q-.001-2.779-1.343-4.531-1.33-1.765-4.266-1.766h-1.422v25.047h10.344c1.219 0 2.336-.102 3.36-.313q1.529-.327 2.624-1.312 1.09-.997 1.688-2.938c.406-1.289.61-3 .61-5.125v-10.03h.484v21.015h-.485c-.324-.406-.808-.649-1.453-.719q-.971-.094-2.547-.094H180.31v-.484h1.86q.387.002.859-.172.467-.187.828-.75.359-.562.36-1.656v-34.266q-.001-1.123-.36-1.672-.361-.546-.828-.734a2.4 2.4 0 0 0-.86-.188h-1.86Zm0 0"/><path fill="#fff" d="M204.875 221.978v-.484h1.86c.257 0 .547-.055.859-.172.313-.125.586-.375.828-.75q.359-.576.36-1.672v-34.25q-.001-1.137-.36-1.687c-.242-.364-.515-.602-.828-.72a2.4 2.4 0 0 0-.86-.187h-1.859v-.484h13.938q1.81 0 3.703.562 1.904.563 3.484 1.782 1.576 1.218 2.547 3.14c.645 1.274.969 2.813.969 4.625 0 1.532-.305 2.914-.906 4.14a10.1 10.1 0 0 1-2.407 3.142 11.4 11.4 0 0 1-3.296 2.03q-1.798.705-3.579.782a412 412 0 0 1 3.625 5.938 393 393 0 0 0 3.172 5.234q1.576 2.564 3.516 5.562.921 1.456 2.187 2.22 1.279.765 3.266.765v.484h-4.812q-.692.001-1.22-.203-.514-.201-1.077-1.047l-3.078-4.953a230 230 0 0 1-2.625-4.297q-1.253-2.108-2.641-4.422c-.93-1.55-2-3.312-3.219-5.281h-4.687V218.9c0 .73.117 1.29.359 1.672q.374.563.86.75.48.174.843.172h1.86v.484Zm6.86-39.969v19.282h4.968q3.406.002 5.563-1.297 2.156-1.296 3.187-3.469 1.032-2.184 1.032-4.844 0-1.699-.563-3.422a9.2 9.2 0 0 0-1.765-3.125q-1.19-1.419-3.032-2.28-1.829-.875-4.343-.876H214q-.44.002-.922.016-.487.016-1.343.015m51.485 30.313q-.001-2.39-1.093-4.078-1.096-1.701-2.89-2.969a30.5 30.5 0 0 0-3.938-2.36 192 192 0 0 1-4.312-2.265 25 25 0 0 1-3.954-2.64 11.7 11.7 0 0 1-2.89-3.516q-1.094-2.045-1.094-4.922c0-1.938.5-3.555 1.5-4.86q1.5-1.968 3.938-2.953c1.625-.664 3.41-1 5.359-1q1.934.001 3.312.266c.914.18 1.704.375 2.36.594q.984.314 1.828.578c.57.18 1.156.266 1.75.266q.638 0 1.328-.282.687-.28 1.25-1.422h.406l-7.343 20.579q1.935 1.125 3.53 2.578a10.8 10.8 0 0 1 2.532 3.484q.951 2.017.953 4.844 0 2.83-1.265 5.234c-.844 1.606-2.118 2.89-3.813 3.86q-2.548 1.453-6.39 1.453c-1.919 0-3.547-.149-4.891-.438q-2.017-.422-3.547-.422c-.524 0-.969.063-1.344.188q-.563.187-.969.625h-.484v-21.016h.484v10.031q0 3.188.86 5.25.873 2.064 2.39 3.22 1.512 1.14 3.454 1.609 1.95.468 4.046.468 2.468.001 4.485-1.093 2.016-1.092 3.234-3.313 1.22-2.215 1.219-5.578m-9.374-31.078q-2.548 0-4.188.781c-1.093.512-1.945 1.14-2.546 1.89q-.908 1.126-1.282 2.344-.362 1.22-.36 2.141c0 1.836.392 3.375 1.173 4.625q1.171 1.875 3.094 3.234a32 32 0 0 0 4.156 2.485c1.5.75 2.976 1.547 4.437 2.39q.685-1.95 1.516-4.171a63 63 0 0 0 1.469-4.438q.637-2.217.765-4.234.123-2.03-.562-3.625-.69-1.593-2.516-2.5-1.816-.921-5.156-.922m0 0"/><path fill="#fff" d="M264.671 194.103V180.76h.485a.75.75 0 0 0 .28.579q.281.234.813.234h20.407q.561 0 .812-.234a.77.77 0 0 0 .266-.579h.484v13.344h-.484v-5.5c0-1.562-.274-2.805-.813-3.734q-.797-1.39-2.015-2-1.206-.61-2.422-.61h-4.563v36.64c0 .73.117 1.29.36 1.672q.374.563.859.75.48.174.844.172h1.859v.484h-10.797v-.484h1.86q.405.002.875-.172c.312-.125.585-.375.828-.75q.358-.576.359-1.672v-36.64h-4.562q-1.174 0-2.407.609-1.237.61-2.047 2-.796 1.393-.796 3.734v5.5Zm0 0"/><path fill="#fff" d="M307.824 222.79q-4.737 0-8.594-1.64c-2.574-1.094-4.79-2.602-6.64-4.531a20.3 20.3 0 0 1-4.282-6.688q-1.5-3.797-1.5-8.156 0-4.36 1.5-8.156 1.5-3.795 4.281-6.688 2.78-2.89 6.64-4.531 3.858-1.64 8.595-1.64 4.716 0 8.578 1.64 3.856 1.641 6.64 4.531a20.2 20.2 0 0 1 4.297 6.688q1.5 3.797 1.5 8.156 0 4.36-1.5 8.156a20.2 20.2 0 0 1-4.297 6.688c-1.855 1.93-4.07 3.437-6.64 4.531q-3.862 1.64-8.578 1.64m-18.063-21.015q0 4.284 1.281 8 1.296 3.72 3.703 6.531a17.5 17.5 0 0 0 5.72 4.407q3.31 1.593 7.359 1.593 4.03 0 7.328-1.593a17.3 17.3 0 0 0 5.672-4.407q2.388-2.811 3.687-6.531 1.296-3.716 1.297-8-.001-4.247-1.297-7.984-1.299-3.732-3.687-6.532a17.1 17.1 0 0 0-5.672-4.406c-2.2-1.07-4.64-1.61-7.328-1.61-2.7 0-5.153.54-7.36 1.61a17.3 17.3 0 0 0-5.719 4.406q-2.408 2.8-3.703 6.532-1.281 3.737-1.28 7.984m0 0"/><path fill="#fff" d="M327.546 221.978v-.484h1.86q.387.002.859-.172.467-.187.828-.75.358-.576.36-1.672v-34.25q-.001-1.137-.36-1.687-.362-.544-.828-.72a2.4 2.4 0 0 0-.86-.187h-1.859v-.484h13.937q1.812 0 3.704.562 1.904.563 3.484 1.782 1.574 1.218 2.547 3.14c.644 1.274.969 2.813.969 4.625 0 1.532-.305 2.914-.907 4.14a10.1 10.1 0 0 1-2.406 3.142 11.4 11.4 0 0 1-3.297 2.03q-1.797.705-3.578.782a412 412 0 0 1 3.625 5.938 393 393 0 0 0 3.172 5.234q1.576 2.564 3.516 5.562.92 1.456 2.187 2.22 1.279.765 3.266.765v.484h-4.813q-.69.001-1.219-.203-.515-.201-1.078-1.047l-3.078-4.953a230 230 0 0 1-2.625-4.297q-1.253-2.108-2.64-4.422c-.93-1.55-2-3.312-3.22-5.281h-4.687V218.9q-.002 1.097.36 1.672.374.563.86.75.48.174.843.172h1.86v.484Zm6.86-39.969v19.282h4.968q3.406.002 5.563-1.297 2.156-1.296 3.187-3.469 1.031-2.184 1.031-4.844 0-1.699-.562-3.422a9.2 9.2 0 0 0-1.766-3.125q-1.19-1.419-3.031-2.28-1.83-.875-4.344-.876h-2.781q-.44.002-.922.016-.487.016-1.344.015m0 0"/><path fill="#fff" d="M355.264 221.978v-.484h1.86q.388.002.859-.172.466-.187.828-.75.359-.576.36-1.672v-34.25q-.001-1.137-.36-1.687-.362-.544-.828-.72a2.4 2.4 0 0 0-.86-.187h-1.859v-.484h10.781v.484h-1.859q-.363 0-.844.188-.486.174-.86.719-.36.551-.358 1.687v34.25c0 .73.117 1.29.359 1.672q.374.563.86.75.48.174.843.172h1.86v.484Zm0 0"/><path fill="#fff" d="M363.547 181.572h23.312q1.203 0 2.047-.094.856-.107 1.297-.719h.406l-7.546 20.97h-.579l3.641-10.095q.936-2.871.688-4.734-.236-1.857-1.25-2.906c-.68-.696-1.516-1.192-2.516-1.485q-1.487-.452-3.11-.453h-9.53v13.907h3.187q1.779 0 2.562-.579a2.55 2.55 0 0 0 1-1.578q.201-.997.203-2.172h.485v17.094h-.406v-6.031q-.001-2.779-1.344-4.531-1.33-1.765-4.266-1.766h-1.422v25.047h10.344c1.219 0 2.336-.102 3.36-.313q1.529-.327 2.624-1.312 1.09-.997 1.688-2.938c.406-1.289.61-3 .61-5.125v-10.03h.484v21.015h-.485c-.324-.406-.808-.649-1.453-.719q-.971-.094-2.547-.094h-21.484v-.484h1.86c.257 0 .546-.055.859-.172q.467-.187.828-.75.358-.562.36-1.656v-34.266q-.001-1.123-.36-1.672-.362-.546-.828-.734a2.4 2.4 0 0 0-.86-.188h-1.86Zm0 0"/><path fill="#fff" d="M409.488 212.322c0-1.594-.367-2.953-1.093-4.078q-1.097-1.701-2.891-2.969a30.5 30.5 0 0 0-3.938-2.36 192 192 0 0 1-4.312-2.265 25 25 0 0 1-3.953-2.64 11.7 11.7 0 0 1-2.89-3.516q-1.096-2.045-1.095-4.922c0-1.938.5-3.555 1.5-4.86q1.5-1.968 3.938-2.953c1.625-.664 3.41-1 5.36-1q1.933.001 3.312.266c.914.18 1.703.375 2.36.594q.983.314 1.827.578c.57.18 1.157.266 1.75.266q.639 0 1.328-.282.686-.28 1.25-1.422h.407l-7.344 20.579a20.6 20.6 0 0 1 3.531 2.578 10.8 10.8 0 0 1 2.531 3.484c.633 1.344.954 2.96.954 4.844q0 2.83-1.266 5.234-1.267 2.407-3.813 3.86-2.548 1.453-6.39 1.453c-1.918 0-3.547-.149-4.89-.438q-2.018-.422-3.548-.422c-.523 0-.968.063-1.343.188q-.564.187-.97.625h-.484v-21.016h.485v10.031q-.001 3.188.86 5.25.872 2.064 2.39 3.22 1.513 1.14 3.453 1.609 1.95.468 4.047.468 2.467.001 4.484-1.093 2.016-1.092 3.235-3.313 1.218-2.215 1.218-5.578m-9.375-31.078q-2.547 0-4.187.781-1.642.767-2.547 1.89-.908 1.126-1.281 2.344-.362 1.22-.36 2.141c0 1.836.391 3.375 1.172 4.625q1.172 1.875 3.094 3.234a32 32 0 0 0 4.156 2.485q2.248 1.125 4.438 2.39.684-1.95 1.515-4.171a63 63 0 0 0 1.47-4.438q.637-2.217.765-4.234.123-2.03-.563-3.625-.689-1.593-2.515-2.5-1.817-.921-5.157-.922m0 0"/></svg>