<svg xmlns="http://www.w3.org/2000/svg" xmlns:xlink="http://www.w3.org/1999/xlink" width="600" zoomAndPan="magnify" viewBox="0 0 450 449.999984" height="600" preserveAspectRatio="xMidYMid meet" version="1.0"><defs><g/></defs><g fill="#ffffff" fill-opacity="1"><g transform="translate(35.206095, 221.978128)"><g><path d="M 20.40625 0.8125 C 18.195312 0.8125 16.023438 0.566406 13.890625 0.078125 C 11.765625 -0.398438 9.835938 -1.140625 8.109375 -2.140625 C 6.390625 -3.140625 5.007812 -4.425781 3.96875 -6 C 2.9375 -7.570312 2.421875 -9.453125 2.421875 -11.640625 C 2.421875 -13.628906 2.8125 -15.320312 3.59375 -16.71875 C 4.375 -18.125 5.5 -19.34375 6.96875 -20.375 C 8.4375 -21.414062 10.179688 -22.367188 12.203125 -23.234375 C 10.910156 -24.691406 9.875 -26.132812 9.09375 -27.5625 C 8.3125 -28.988281 7.921875 -30.398438 7.921875 -31.796875 C 7.921875 -33.679688 8.425781 -35.296875 9.4375 -36.640625 C 10.445312 -37.992188 11.800781 -39.03125 13.5 -39.75 C 15.195312 -40.476562 17.039062 -40.84375 19.03125 -40.84375 C 20.78125 -40.84375 22.296875 -40.597656 23.578125 -40.109375 C 24.859375 -39.628906 25.914062 -39.003906 26.75 -38.234375 C 27.582031 -37.472656 28.207031 -36.640625 28.625 -35.734375 C 29.039062 -34.835938 29.25 -33.984375 29.25 -33.171875 C 29.25 -31.710938 28.945312 -30.484375 28.34375 -29.484375 C 27.738281 -28.492188 26.960938 -27.675781 26.015625 -27.03125 C 25.078125 -26.382812 24.078125 -25.875 23.015625 -25.5 C 21.953125 -25.125 20.945312 -24.828125 20 -24.609375 C 19.0625 -24.390625 18.304688 -24.210938 17.734375 -24.078125 C 17.390625 -24.054688 17.035156 -24.007812 16.671875 -23.9375 C 16.304688 -23.875 15.9375 -23.785156 15.5625 -23.671875 C 16.582031 -22.679688 17.785156 -21.554688 19.171875 -20.296875 C 20.554688 -19.046875 22.113281 -17.664062 23.84375 -16.15625 L 36.203125 -30.953125 L 36.5625 -30.671875 L 28.25 -20.6875 C 28.707031 -20.90625 29.222656 -21.085938 29.796875 -21.234375 C 30.378906 -21.378906 31.085938 -21.453125 31.921875 -21.453125 C 33.398438 -21.453125 34.765625 -21.117188 36.015625 -20.453125 C 37.273438 -19.796875 38.285156 -18.863281 39.046875 -17.65625 C 39.816406 -16.445312 40.203125 -14.992188 40.203125 -13.296875 C 40.203125 -11.785156 39.851562 -10.34375 39.15625 -8.96875 C 38.457031 -7.59375 37.515625 -6.3125 36.328125 -5.125 C 37.671875 -3.96875 38.859375 -2.945312 39.890625 -2.0625 C 40.929688 -1.175781 41.773438 -0.539062 42.421875 -0.15625 C 42.960938 0.164062 43.5 0.328125 44.03125 0.328125 C 44.570312 0.328125 45.101562 0.328125 45.625 0.328125 L 45.625 0.8125 C 44.082031 0.8125 42.859375 0.8125 41.953125 0.8125 C 41.054688 0.8125 40.304688 0.722656 39.703125 0.546875 C 39.097656 0.367188 38.457031 0.0078125 37.78125 -0.53125 C 37.289062 -0.90625 36.753906 -1.34375 36.171875 -1.84375 C 35.597656 -2.34375 34.960938 -2.882812 34.265625 -3.46875 C 32.429688 -2.15625 30.304688 -1.113281 27.890625 -0.34375 C 25.484375 0.425781 22.988281 0.8125 20.40625 0.8125 Z M 5.421875 -12.28125 C 5.421875 -10.5 5.84375 -8.851562 6.6875 -7.34375 C 7.53125 -5.84375 8.671875 -4.523438 10.109375 -3.390625 C 11.554688 -2.265625 13.1875 -1.390625 15 -0.765625 C 16.820312 -0.148438 18.691406 0.15625 20.609375 0.15625 C 23.085938 0.15625 25.476562 -0.195312 27.78125 -0.90625 C 30.082031 -1.625 32.125 -2.601562 33.90625 -3.84375 C 32.476562 -5.082031 30.898438 -6.453125 29.171875 -7.953125 C 27.453125 -9.460938 25.675781 -11 23.84375 -12.5625 C 21.84375 -14.289062 19.863281 -15.988281 17.90625 -17.65625 C 15.957031 -19.320312 14.234375 -20.976562 12.734375 -22.625 C 11.410156 -22.03125 10.195312 -21.238281 9.09375 -20.25 C 7.988281 -19.269531 7.097656 -18.113281 6.421875 -16.78125 C 5.753906 -15.445312 5.421875 -13.945312 5.421875 -12.28125 Z M 9.703125 -33.25 C 9.671875 -32.394531 9.820312 -31.519531 10.15625 -30.625 C 10.5 -29.738281 11.078125 -28.765625 11.890625 -27.703125 C 12.710938 -26.640625 13.828125 -25.40625 15.234375 -24 C 15.910156 -24.101562 16.722656 -24.265625 17.671875 -24.484375 C 18.628906 -24.703125 19.609375 -25.019531 20.609375 -25.4375 C 21.609375 -25.851562 22.535156 -26.390625 23.390625 -27.046875 C 24.253906 -27.710938 24.953125 -28.515625 25.484375 -29.453125 C 26.023438 -30.398438 26.296875 -31.519531 26.296875 -32.8125 C 26.296875 -33.5625 26.164062 -34.359375 25.90625 -35.203125 C 25.65625 -36.054688 25.25 -36.867188 24.6875 -37.640625 C 24.125 -38.410156 23.367188 -39.035156 22.421875 -39.515625 C 21.484375 -40.003906 20.328125 -40.25 18.953125 -40.25 C 16.847656 -40.25 15.113281 -39.90625 13.75 -39.21875 C 12.394531 -38.53125 11.394531 -37.648438 10.75 -36.578125 C 10.101562 -35.515625 9.753906 -34.40625 9.703125 -33.25 Z M 24.203125 -15.84375 C 24.554688 -15.539062 24.921875 -15.226562 25.296875 -14.90625 C 25.671875 -14.582031 26.046875 -14.25 26.421875 -13.90625 C 28.171875 -12.414062 29.847656 -10.941406 31.453125 -9.484375 C 33.054688 -8.035156 34.5625 -6.707031 35.96875 -5.5 C 37.125 -6.601562 38.03125 -7.800781 38.6875 -9.09375 C 39.34375 -10.382812 39.671875 -11.726562 39.671875 -13.125 C 39.671875 -14.9375 39.273438 -16.421875 38.484375 -17.578125 C 37.691406 -18.734375 36.703125 -19.585938 35.515625 -20.140625 C 34.328125 -20.691406 33.113281 -20.96875 31.875 -20.96875 C 30.664062 -20.96875 29.648438 -20.796875 28.828125 -20.453125 C 28.003906 -20.117188 27.363281 -19.6875 26.90625 -19.15625 Z M 24.203125 -15.84375 "/></g></g></g><g fill="#ffffff" fill-opacity="1"><g transform="translate(78.319018, 221.978128)"><g/></g></g><g fill="#ffffff" fill-opacity="1"><g transform="translate(87.57152, 221.978128)"><g><path d="M 23.4375 0.8125 C 20.28125 0.8125 17.414062 0.265625 14.84375 -0.828125 C 12.269531 -1.921875 10.054688 -3.429688 8.203125 -5.359375 C 6.347656 -7.285156 4.921875 -9.515625 3.921875 -12.046875 C 2.921875 -14.578125 2.421875 -17.296875 2.421875 -20.203125 C 2.421875 -23.109375 2.921875 -25.828125 3.921875 -28.359375 C 4.921875 -30.890625 6.347656 -33.117188 8.203125 -35.046875 C 10.054688 -36.972656 12.269531 -38.484375 14.84375 -39.578125 C 17.414062 -40.671875 20.28125 -41.21875 23.4375 -41.21875 C 26.582031 -41.21875 29.441406 -40.671875 32.015625 -39.578125 C 34.585938 -38.484375 36.800781 -36.972656 38.65625 -35.046875 C 40.519531 -33.117188 41.953125 -30.890625 42.953125 -28.359375 C 43.953125 -25.828125 44.453125 -23.109375 44.453125 -20.203125 C 44.453125 -17.296875 43.953125 -14.578125 42.953125 -12.046875 C 41.953125 -9.515625 40.519531 -7.285156 38.65625 -5.359375 C 36.800781 -3.429688 34.585938 -1.921875 32.015625 -0.828125 C 29.441406 0.265625 26.582031 0.8125 23.4375 0.8125 Z M 5.375 -20.203125 C 5.375 -17.347656 5.800781 -14.679688 6.65625 -12.203125 C 7.519531 -9.722656 8.753906 -7.546875 10.359375 -5.671875 C 11.960938 -3.804688 13.867188 -2.335938 16.078125 -1.265625 C 18.285156 -0.203125 20.738281 0.328125 23.4375 0.328125 C 26.125 0.328125 28.566406 -0.203125 30.765625 -1.265625 C 32.960938 -2.335938 34.851562 -3.804688 36.4375 -5.671875 C 38.03125 -7.546875 39.257812 -9.722656 40.125 -12.203125 C 40.988281 -14.679688 41.421875 -17.347656 41.421875 -20.203125 C 41.421875 -23.035156 40.988281 -25.695312 40.125 -28.1875 C 39.257812 -30.675781 38.03125 -32.851562 36.4375 -34.71875 C 34.851562 -36.59375 32.960938 -38.0625 30.765625 -39.125 C 28.566406 -40.195312 26.125 -40.734375 23.4375 -40.734375 C 20.738281 -40.734375 18.285156 -40.195312 16.078125 -39.125 C 13.867188 -38.0625 11.960938 -36.59375 10.359375 -34.71875 C 8.753906 -32.851562 7.519531 -30.675781 6.65625 -28.1875 C 5.800781 -25.695312 5.375 -23.035156 5.375 -20.203125 Z M 5.375 -20.203125 "/></g></g></g><g fill="#ffffff" fill-opacity="1"><g transform="translate(129.512659, 221.978128)"><g><path d="M 1.09375 -27.875 L 1.09375 -41.21875 L 1.578125 -41.21875 C 1.578125 -41 1.671875 -40.804688 1.859375 -40.640625 C 2.046875 -40.484375 2.316406 -40.40625 2.671875 -40.40625 L 23.078125 -40.40625 C 23.453125 -40.40625 23.722656 -40.484375 23.890625 -40.640625 C 24.066406 -40.804688 24.15625 -41 24.15625 -41.21875 L 24.640625 -41.21875 L 24.640625 -27.875 L 24.15625 -27.875 L 24.15625 -33.375 C 24.15625 -34.9375 23.882812 -36.179688 23.34375 -37.109375 C 22.8125 -38.035156 22.140625 -38.703125 21.328125 -39.109375 C 20.523438 -39.515625 19.71875 -39.71875 18.90625 -39.71875 L 14.34375 -39.71875 L 14.34375 -3.078125 C 14.34375 -2.347656 14.460938 -1.789062 14.703125 -1.40625 C 14.953125 -1.03125 15.238281 -0.78125 15.5625 -0.65625 C 15.882812 -0.539062 16.164062 -0.484375 16.40625 -0.484375 L 18.265625 -0.484375 L 18.265625 0 L 7.46875 0 L 7.46875 -0.484375 L 9.328125 -0.484375 C 9.597656 -0.484375 9.890625 -0.539062 10.203125 -0.65625 C 10.515625 -0.78125 10.789062 -1.03125 11.03125 -1.40625 C 11.269531 -1.789062 11.390625 -2.347656 11.390625 -3.078125 L 11.390625 -39.71875 L 6.828125 -39.71875 C 6.046875 -39.71875 5.242188 -39.515625 4.421875 -39.109375 C 3.597656 -38.703125 2.914062 -38.035156 2.375 -37.109375 C 1.84375 -36.179688 1.578125 -34.9375 1.578125 -33.375 L 1.578125 -27.875 Z M 1.09375 -27.875 "/></g></g></g><g fill="#ffffff" fill-opacity="1"><g transform="translate(150.321347, 221.978128)"><g><path d="M 1.21875 -0.484375 L 3.078125 -0.484375 C 3.335938 -0.484375 3.625 -0.539062 3.9375 -0.65625 C 4.25 -0.78125 4.523438 -1.03125 4.765625 -1.40625 C 5.003906 -1.789062 5.125 -2.347656 5.125 -3.078125 L 5.125 -37.328125 C 5.125 -38.085938 5.003906 -38.648438 4.765625 -39.015625 C 4.523438 -39.378906 4.25 -39.617188 3.9375 -39.734375 C 3.625 -39.859375 3.335938 -39.921875 3.078125 -39.921875 L 1.21875 -39.921875 L 1.21875 -40.40625 L 12 -40.40625 L 12 -39.921875 L 10.140625 -39.921875 C 9.898438 -39.921875 9.617188 -39.859375 9.296875 -39.734375 C 8.972656 -39.617188 8.6875 -39.378906 8.4375 -39.015625 C 8.195312 -38.648438 8.078125 -38.085938 8.078125 -37.328125 L 8.078125 -26.109375 L 25.625 -26.109375 L 25.625 -37.328125 C 25.625 -38.085938 25.5 -38.648438 25.25 -39.015625 C 25.007812 -39.378906 24.734375 -39.617188 24.421875 -39.734375 C 24.109375 -39.859375 23.820312 -39.921875 23.5625 -39.921875 L 21.703125 -39.921875 L 21.703125 -40.40625 L 32.484375 -40.40625 L 32.484375 -39.921875 L 30.625 -39.921875 C 30.382812 -39.921875 30.101562 -39.859375 29.78125 -39.734375 C 29.457031 -39.617188 29.171875 -39.378906 28.921875 -39.015625 C 28.679688 -38.648438 28.5625 -38.085938 28.5625 -37.328125 L 28.5625 -3.078125 C 28.5625 -2.347656 28.679688 -1.789062 28.921875 -1.40625 C 29.171875 -1.03125 29.457031 -0.78125 29.78125 -0.65625 C 30.101562 -0.539062 30.382812 -0.484375 30.625 -0.484375 L 32.484375 -0.484375 L 32.484375 0 L 21.703125 0 L 21.703125 -0.484375 L 23.5625 -0.484375 C 23.820312 -0.484375 24.109375 -0.539062 24.421875 -0.65625 C 24.734375 -0.78125 25.007812 -1.03125 25.25 -1.40625 C 25.5 -1.789062 25.625 -2.347656 25.625 -3.078125 L 25.625 -25.578125 L 8.078125 -25.578125 L 8.078125 -3.078125 C 8.078125 -2.347656 8.195312 -1.789062 8.4375 -1.40625 C 8.6875 -1.03125 8.972656 -0.78125 9.296875 -0.65625 C 9.617188 -0.539062 9.898438 -0.484375 10.140625 -0.484375 L 12 -0.484375 L 12 0 L 1.21875 0 Z M 1.21875 -0.484375 "/></g></g></g><g fill="#ffffff" fill-opacity="1"><g transform="translate(179.090064, 221.978128)"><g><path d="M 1.21875 -40.40625 L 24.53125 -40.40625 C 25.332031 -40.40625 26.015625 -40.4375 26.578125 -40.5 C 27.148438 -40.570312 27.582031 -40.8125 27.875 -41.21875 L 28.28125 -41.21875 L 20.734375 -20.25 L 20.15625 -20.25 L 23.796875 -30.34375 C 24.421875 -32.257812 24.648438 -33.835938 24.484375 -35.078125 C 24.328125 -36.316406 23.910156 -37.285156 23.234375 -37.984375 C 22.554688 -38.679688 21.71875 -39.175781 20.71875 -39.46875 C 19.726562 -39.769531 18.691406 -39.921875 17.609375 -39.921875 L 8.078125 -39.921875 L 8.078125 -26.015625 L 11.265625 -26.015625 C 12.453125 -26.015625 13.304688 -26.207031 13.828125 -26.59375 C 14.359375 -26.988281 14.691406 -27.515625 14.828125 -28.171875 C 14.960938 -28.835938 15.03125 -29.5625 15.03125 -30.34375 L 15.515625 -30.34375 L 15.515625 -13.25 L 15.109375 -13.25 L 15.109375 -19.28125 C 15.109375 -21.132812 14.660156 -22.644531 13.765625 -23.8125 C 12.878906 -24.988281 11.457031 -25.578125 9.5 -25.578125 L 8.078125 -25.578125 L 8.078125 -0.53125 L 18.421875 -0.53125 C 19.640625 -0.53125 20.757812 -0.632812 21.78125 -0.84375 C 22.800781 -1.0625 23.675781 -1.5 24.40625 -2.15625 C 25.132812 -2.820312 25.695312 -3.800781 26.09375 -5.09375 C 26.5 -6.382812 26.703125 -8.09375 26.703125 -10.21875 L 26.703125 -20.25 L 27.1875 -20.25 L 27.1875 0.765625 L 26.703125 0.765625 C 26.378906 0.359375 25.894531 0.117188 25.25 0.046875 C 24.601562 -0.015625 23.753906 -0.046875 22.703125 -0.046875 L 1.21875 -0.046875 L 1.21875 -0.53125 L 3.078125 -0.53125 C 3.335938 -0.53125 3.625 -0.585938 3.9375 -0.703125 C 4.25 -0.828125 4.523438 -1.078125 4.765625 -1.453125 C 5.003906 -1.828125 5.125 -2.378906 5.125 -3.109375 L 5.125 -37.375 C 5.125 -38.125 5.003906 -38.679688 4.765625 -39.046875 C 4.523438 -39.410156 4.25 -39.65625 3.9375 -39.78125 C 3.625 -39.90625 3.335938 -39.96875 3.078125 -39.96875 L 1.21875 -39.96875 Z M 1.21875 -40.40625 "/></g></g></g><g fill="#ffffff" fill-opacity="1"><g transform="translate(203.656533, 221.978128)"><g><path d="M 1.21875 0 L 1.21875 -0.484375 L 3.078125 -0.484375 C 3.335938 -0.484375 3.625 -0.539062 3.9375 -0.65625 C 4.25 -0.78125 4.523438 -1.03125 4.765625 -1.40625 C 5.003906 -1.789062 5.125 -2.347656 5.125 -3.078125 L 5.125 -37.328125 C 5.125 -38.085938 5.003906 -38.648438 4.765625 -39.015625 C 4.523438 -39.378906 4.25 -39.617188 3.9375 -39.734375 C 3.625 -39.859375 3.335938 -39.921875 3.078125 -39.921875 L 1.21875 -39.921875 L 1.21875 -40.40625 L 15.15625 -40.40625 C 16.363281 -40.40625 17.597656 -40.21875 18.859375 -39.84375 C 20.128906 -39.46875 21.289062 -38.875 22.34375 -38.0625 C 23.394531 -37.25 24.242188 -36.203125 24.890625 -34.921875 C 25.535156 -33.648438 25.859375 -32.109375 25.859375 -30.296875 C 25.859375 -28.765625 25.554688 -27.382812 24.953125 -26.15625 C 24.347656 -24.9375 23.546875 -23.890625 22.546875 -23.015625 C 21.546875 -22.140625 20.445312 -21.460938 19.25 -20.984375 C 18.050781 -20.515625 16.859375 -20.253906 15.671875 -20.203125 C 17.023438 -18.023438 18.234375 -16.046875 19.296875 -14.265625 C 20.359375 -12.484375 21.414062 -10.738281 22.46875 -9.03125 C 23.519531 -7.320312 24.691406 -5.46875 25.984375 -3.46875 C 26.597656 -2.5 27.328125 -1.757812 28.171875 -1.25 C 29.023438 -0.738281 30.113281 -0.484375 31.4375 -0.484375 L 31.4375 0 C 31.0625 0 30.566406 0 29.953125 0 C 29.347656 0 28.742188 0 28.140625 0 C 27.535156 0 27.03125 0 26.625 0 C 26.164062 0 25.757812 -0.0664062 25.40625 -0.203125 C 25.0625 -0.335938 24.703125 -0.6875 24.328125 -1.25 C 23.191406 -3.082031 22.164062 -4.734375 21.25 -6.203125 C 20.332031 -7.671875 19.457031 -9.101562 18.625 -10.5 C 17.789062 -11.90625 16.910156 -13.378906 15.984375 -14.921875 C 15.054688 -16.472656 13.984375 -18.234375 12.765625 -20.203125 L 8.078125 -20.203125 L 8.078125 -3.078125 C 8.078125 -2.347656 8.195312 -1.789062 8.4375 -1.40625 C 8.6875 -1.03125 8.972656 -0.78125 9.296875 -0.65625 C 9.617188 -0.539062 9.898438 -0.484375 10.140625 -0.484375 L 12 -0.484375 L 12 0 Z M 8.078125 -39.96875 L 8.078125 -20.6875 L 13.046875 -20.6875 C 15.316406 -20.6875 17.171875 -21.117188 18.609375 -21.984375 C 20.046875 -22.847656 21.109375 -24.003906 21.796875 -25.453125 C 22.484375 -26.910156 22.828125 -28.523438 22.828125 -30.296875 C 22.828125 -31.429688 22.640625 -32.570312 22.265625 -33.71875 C 21.890625 -34.863281 21.300781 -35.90625 20.5 -36.84375 C 19.707031 -37.789062 18.695312 -38.550781 17.46875 -39.125 C 16.25 -39.707031 14.800781 -40 13.125 -40 C 12.40625 -40 11.832031 -40 11.40625 -40 C 10.988281 -40 10.632812 -40 10.34375 -40 C 10.050781 -40 9.742188 -39.992188 9.421875 -39.984375 C 9.097656 -39.972656 8.648438 -39.96875 8.078125 -39.96875 Z M 8.078125 -39.96875 "/></g></g></g><g fill="#ffffff" fill-opacity="1"><g transform="translate(231.374682, 221.978128)"><g/></g></g><g fill="#ffffff" fill-opacity="1"><g transform="translate(240.627184, 221.978128)"><g><path d="M 22.59375 -9.65625 C 22.59375 -11.25 22.226562 -12.609375 21.5 -13.734375 C 20.769531 -14.867188 19.804688 -15.859375 18.609375 -16.703125 C 17.410156 -17.554688 16.097656 -18.34375 14.671875 -19.0625 C 13.242188 -19.789062 11.804688 -20.546875 10.359375 -21.328125 C 8.921875 -22.109375 7.601562 -22.988281 6.40625 -23.96875 C 5.207031 -24.957031 4.242188 -26.128906 3.515625 -27.484375 C 2.785156 -28.847656 2.421875 -30.488281 2.421875 -32.40625 C 2.421875 -34.34375 2.921875 -35.960938 3.921875 -37.265625 C 4.921875 -38.578125 6.234375 -39.5625 7.859375 -40.21875 C 9.484375 -40.882812 11.269531 -41.21875 13.21875 -41.21875 C 14.507812 -41.21875 15.613281 -41.128906 16.53125 -40.953125 C 17.445312 -40.773438 18.234375 -40.578125 18.890625 -40.359375 C 19.546875 -40.148438 20.15625 -39.957031 20.71875 -39.78125 C 21.289062 -39.601562 21.875 -39.515625 22.46875 -39.515625 C 22.894531 -39.515625 23.335938 -39.609375 23.796875 -39.796875 C 24.253906 -39.984375 24.671875 -40.457031 25.046875 -41.21875 L 25.453125 -41.21875 L 18.109375 -20.640625 C 19.398438 -19.890625 20.578125 -19.03125 21.640625 -18.0625 C 22.703125 -17.09375 23.546875 -15.929688 24.171875 -14.578125 C 24.804688 -13.234375 25.125 -11.617188 25.125 -9.734375 C 25.125 -7.847656 24.703125 -6.101562 23.859375 -4.5 C 23.015625 -2.894531 21.742188 -1.609375 20.046875 -0.640625 C 18.347656 0.328125 16.21875 0.8125 13.65625 0.8125 C 11.738281 0.8125 10.109375 0.664062 8.765625 0.375 C 7.421875 0.09375 6.238281 -0.046875 5.21875 -0.046875 C 4.695312 -0.046875 4.25 0.015625 3.875 0.140625 C 3.5 0.265625 3.175781 0.472656 2.90625 0.765625 L 2.421875 0.765625 L 2.421875 -20.25 L 2.90625 -20.25 L 2.90625 -10.21875 C 2.90625 -8.09375 3.191406 -6.34375 3.765625 -4.96875 C 4.347656 -3.59375 5.144531 -2.519531 6.15625 -1.75 C 7.164062 -0.988281 8.316406 -0.453125 9.609375 -0.140625 C 10.910156 0.171875 12.257812 0.328125 13.65625 0.328125 C 15.300781 0.328125 16.796875 -0.0351562 18.140625 -0.765625 C 19.484375 -1.492188 20.5625 -2.597656 21.375 -4.078125 C 22.1875 -5.554688 22.59375 -7.414062 22.59375 -9.65625 Z M 13.21875 -40.734375 C 11.519531 -40.734375 10.125 -40.472656 9.03125 -39.953125 C 7.9375 -39.441406 7.085938 -38.8125 6.484375 -38.0625 C 5.878906 -37.3125 5.453125 -36.53125 5.203125 -35.71875 C 4.960938 -34.90625 4.84375 -34.191406 4.84375 -33.578125 C 4.84375 -31.742188 5.234375 -30.203125 6.015625 -28.953125 C 6.796875 -27.703125 7.828125 -26.625 9.109375 -25.71875 C 10.390625 -24.8125 11.773438 -23.984375 13.265625 -23.234375 C 14.765625 -22.484375 16.242188 -21.6875 17.703125 -20.84375 C 18.160156 -22.144531 18.664062 -23.535156 19.21875 -25.015625 C 19.769531 -26.492188 20.257812 -27.972656 20.6875 -29.453125 C 21.113281 -30.929688 21.367188 -32.34375 21.453125 -33.6875 C 21.535156 -35.039062 21.347656 -36.25 20.890625 -37.3125 C 20.429688 -38.375 19.59375 -39.207031 18.375 -39.8125 C 17.164062 -40.425781 15.445312 -40.734375 13.21875 -40.734375 Z M 13.21875 -40.734375 "/></g></g></g><g fill="#ffffff" fill-opacity="1"><g transform="translate(263.577415, 221.978128)"><g><path d="M 1.09375 -27.875 L 1.09375 -41.21875 L 1.578125 -41.21875 C 1.578125 -41 1.671875 -40.804688 1.859375 -40.640625 C 2.046875 -40.484375 2.316406 -40.40625 2.671875 -40.40625 L 23.078125 -40.40625 C 23.453125 -40.40625 23.722656 -40.484375 23.890625 -40.640625 C 24.066406 -40.804688 24.15625 -41 24.15625 -41.21875 L 24.640625 -41.21875 L 24.640625 -27.875 L 24.15625 -27.875 L 24.15625 -33.375 C 24.15625 -34.9375 23.882812 -36.179688 23.34375 -37.109375 C 22.8125 -38.035156 22.140625 -38.703125 21.328125 -39.109375 C 20.523438 -39.515625 19.71875 -39.71875 18.90625 -39.71875 L 14.34375 -39.71875 L 14.34375 -3.078125 C 14.34375 -2.347656 14.460938 -1.789062 14.703125 -1.40625 C 14.953125 -1.03125 15.238281 -0.78125 15.5625 -0.65625 C 15.882812 -0.539062 16.164062 -0.484375 16.40625 -0.484375 L 18.265625 -0.484375 L 18.265625 0 L 7.46875 0 L 7.46875 -0.484375 L 9.328125 -0.484375 C 9.597656 -0.484375 9.890625 -0.539062 10.203125 -0.65625 C 10.515625 -0.78125 10.789062 -1.03125 11.03125 -1.40625 C 11.269531 -1.789062 11.390625 -2.347656 11.390625 -3.078125 L 11.390625 -39.71875 L 6.828125 -39.71875 C 6.046875 -39.71875 5.242188 -39.515625 4.421875 -39.109375 C 3.597656 -38.703125 2.914062 -38.035156 2.375 -37.109375 C 1.84375 -36.179688 1.578125 -34.9375 1.578125 -33.375 L 1.578125 -27.875 Z M 1.09375 -27.875 "/></g></g></g><g fill="#ffffff" fill-opacity="1"><g transform="translate(284.386092, 221.978128)"><g><path d="M 23.4375 0.8125 C 20.28125 0.8125 17.414062 0.265625 14.84375 -0.828125 C 12.269531 -1.921875 10.054688 -3.429688 8.203125 -5.359375 C 6.347656 -7.285156 4.921875 -9.515625 3.921875 -12.046875 C 2.921875 -14.578125 2.421875 -17.296875 2.421875 -20.203125 C 2.421875 -23.109375 2.921875 -25.828125 3.921875 -28.359375 C 4.921875 -30.890625 6.347656 -33.117188 8.203125 -35.046875 C 10.054688 -36.972656 12.269531 -38.484375 14.84375 -39.578125 C 17.414062 -40.671875 20.28125 -41.21875 23.4375 -41.21875 C 26.582031 -41.21875 29.441406 -40.671875 32.015625 -39.578125 C 34.585938 -38.484375 36.800781 -36.972656 38.65625 -35.046875 C 40.519531 -33.117188 41.953125 -30.890625 42.953125 -28.359375 C 43.953125 -25.828125 44.453125 -23.109375 44.453125 -20.203125 C 44.453125 -17.296875 43.953125 -14.578125 42.953125 -12.046875 C 41.953125 -9.515625 40.519531 -7.285156 38.65625 -5.359375 C 36.800781 -3.429688 34.585938 -1.921875 32.015625 -0.828125 C 29.441406 0.265625 26.582031 0.8125 23.4375 0.8125 Z M 5.375 -20.203125 C 5.375 -17.347656 5.800781 -14.679688 6.65625 -12.203125 C 7.519531 -9.722656 8.753906 -7.546875 10.359375 -5.671875 C 11.960938 -3.804688 13.867188 -2.335938 16.078125 -1.265625 C 18.285156 -0.203125 20.738281 0.328125 23.4375 0.328125 C 26.125 0.328125 28.566406 -0.203125 30.765625 -1.265625 C 32.960938 -2.335938 34.851562 -3.804688 36.4375 -5.671875 C 38.03125 -7.546875 39.257812 -9.722656 40.125 -12.203125 C 40.988281 -14.679688 41.421875 -17.347656 41.421875 -20.203125 C 41.421875 -23.035156 40.988281 -25.695312 40.125 -28.1875 C 39.257812 -30.675781 38.03125 -32.851562 36.4375 -34.71875 C 34.851562 -36.59375 32.960938 -38.0625 30.765625 -39.125 C 28.566406 -40.195312 26.125 -40.734375 23.4375 -40.734375 C 20.738281 -40.734375 18.285156 -40.195312 16.078125 -39.125 C 13.867188 -38.0625 11.960938 -36.59375 10.359375 -34.71875 C 8.753906 -32.851562 7.519531 -30.675781 6.65625 -28.1875 C 5.800781 -25.695312 5.375 -23.035156 5.375 -20.203125 Z M 5.375 -20.203125 "/></g></g></g><g fill="#ffffff" fill-opacity="1"><g transform="translate(326.327243, 221.978128)"><g><path d="M 1.21875 0 L 1.21875 -0.484375 L 3.078125 -0.484375 C 3.335938 -0.484375 3.625 -0.539062 3.9375 -0.65625 C 4.25 -0.78125 4.523438 -1.03125 4.765625 -1.40625 C 5.003906 -1.789062 5.125 -2.347656 5.125 -3.078125 L 5.125 -37.328125 C 5.125 -38.085938 5.003906 -38.648438 4.765625 -39.015625 C 4.523438 -39.378906 4.25 -39.617188 3.9375 -39.734375 C 3.625 -39.859375 3.335938 -39.921875 3.078125 -39.921875 L 1.21875 -39.921875 L 1.21875 -40.40625 L 15.15625 -40.40625 C 16.363281 -40.40625 17.597656 -40.21875 18.859375 -39.84375 C 20.128906 -39.46875 21.289062 -38.875 22.34375 -38.0625 C 23.394531 -37.25 24.242188 -36.203125 24.890625 -34.921875 C 25.535156 -33.648438 25.859375 -32.109375 25.859375 -30.296875 C 25.859375 -28.765625 25.554688 -27.382812 24.953125 -26.15625 C 24.347656 -24.9375 23.546875 -23.890625 22.546875 -23.015625 C 21.546875 -22.140625 20.445312 -21.460938 19.25 -20.984375 C 18.050781 -20.515625 16.859375 -20.253906 15.671875 -20.203125 C 17.023438 -18.023438 18.234375 -16.046875 19.296875 -14.265625 C 20.359375 -12.484375 21.414062 -10.738281 22.46875 -9.03125 C 23.519531 -7.320312 24.691406 -5.46875 25.984375 -3.46875 C 26.597656 -2.5 27.328125 -1.757812 28.171875 -1.25 C 29.023438 -0.738281 30.113281 -0.484375 31.4375 -0.484375 L 31.4375 0 C 31.0625 0 30.566406 0 29.953125 0 C 29.347656 0 28.742188 0 28.140625 0 C 27.535156 0 27.03125 0 26.625 0 C 26.164062 0 25.757812 -0.0664062 25.40625 -0.203125 C 25.0625 -0.335938 24.703125 -0.6875 24.328125 -1.25 C 23.191406 -3.082031 22.164062 -4.734375 21.25 -6.203125 C 20.332031 -7.671875 19.457031 -9.101562 18.625 -10.5 C 17.789062 -11.90625 16.910156 -13.378906 15.984375 -14.921875 C 15.054688 -16.472656 13.984375 -18.234375 12.765625 -20.203125 L 8.078125 -20.203125 L 8.078125 -3.078125 C 8.078125 -2.347656 8.195312 -1.789062 8.4375 -1.40625 C 8.6875 -1.03125 8.972656 -0.78125 9.296875 -0.65625 C 9.617188 -0.539062 9.898438 -0.484375 10.140625 -0.484375 L 12 -0.484375 L 12 0 Z M 8.078125 -39.96875 L 8.078125 -20.6875 L 13.046875 -20.6875 C 15.316406 -20.6875 17.171875 -21.117188 18.609375 -21.984375 C 20.046875 -22.847656 21.109375 -24.003906 21.796875 -25.453125 C 22.484375 -26.910156 22.828125 -28.523438 22.828125 -30.296875 C 22.828125 -31.429688 22.640625 -32.570312 22.265625 -33.71875 C 21.890625 -34.863281 21.300781 -35.90625 20.5 -36.84375 C 19.707031 -37.789062 18.695312 -38.550781 17.46875 -39.125 C 16.25 -39.707031 14.800781 -40 13.125 -40 C 12.40625 -40 11.832031 -40 11.40625 -40 C 10.988281 -40 10.632812 -40 10.34375 -40 C 10.050781 -40 9.742188 -39.992188 9.421875 -39.984375 C 9.097656 -39.972656 8.648438 -39.96875 8.078125 -39.96875 Z M 8.078125 -39.96875 "/></g></g></g><g fill="#ffffff" fill-opacity="1"><g transform="translate(354.045381, 221.978128)"><g><path d="M 1.21875 0 L 1.21875 -0.484375 L 3.078125 -0.484375 C 3.335938 -0.484375 3.625 -0.539062 3.9375 -0.65625 C 4.25 -0.78125 4.523438 -1.03125 4.765625 -1.40625 C 5.003906 -1.789062 5.125 -2.347656 5.125 -3.078125 L 5.125 -37.328125 C 5.125 -38.085938 5.003906 -38.648438 4.765625 -39.015625 C 4.523438 -39.378906 4.25 -39.617188 3.9375 -39.734375 C 3.625 -39.859375 3.335938 -39.921875 3.078125 -39.921875 L 1.21875 -39.921875 L 1.21875 -40.40625 L 12 -40.40625 L 12 -39.921875 L 10.140625 -39.921875 C 9.898438 -39.921875 9.617188 -39.859375 9.296875 -39.734375 C 8.972656 -39.617188 8.6875 -39.378906 8.4375 -39.015625 C 8.195312 -38.648438 8.078125 -38.085938 8.078125 -37.328125 L 8.078125 -3.078125 C 8.078125 -2.347656 8.195312 -1.789062 8.4375 -1.40625 C 8.6875 -1.03125 8.972656 -0.78125 9.296875 -0.65625 C 9.617188 -0.539062 9.898438 -0.484375 10.140625 -0.484375 L 12 -0.484375 L 12 0 Z M 1.21875 0 "/></g></g></g><g fill="#ffffff" fill-opacity="1"><g transform="translate(362.328133, 221.978128)"><g><path d="M 1.21875 -40.40625 L 24.53125 -40.40625 C 25.332031 -40.40625 26.015625 -40.4375 26.578125 -40.5 C 27.148438 -40.570312 27.582031 -40.8125 27.875 -41.21875 L 28.28125 -41.21875 L 20.734375 -20.25 L 20.15625 -20.25 L 23.796875 -30.34375 C 24.421875 -32.257812 24.648438 -33.835938 24.484375 -35.078125 C 24.328125 -36.316406 23.910156 -37.285156 23.234375 -37.984375 C 22.554688 -38.679688 21.71875 -39.175781 20.71875 -39.46875 C 19.726562 -39.769531 18.691406 -39.921875 17.609375 -39.921875 L 8.078125 -39.921875 L 8.078125 -26.015625 L 11.265625 -26.015625 C 12.453125 -26.015625 13.304688 -26.207031 13.828125 -26.59375 C 14.359375 -26.988281 14.691406 -27.515625 14.828125 -28.171875 C 14.960938 -28.835938 15.03125 -29.5625 15.03125 -30.34375 L 15.515625 -30.34375 L 15.515625 -13.25 L 15.109375 -13.25 L 15.109375 -19.28125 C 15.109375 -21.132812 14.660156 -22.644531 13.765625 -23.8125 C 12.878906 -24.988281 11.457031 -25.578125 9.5 -25.578125 L 8.078125 -25.578125 L 8.078125 -0.53125 L 18.421875 -0.53125 C 19.640625 -0.53125 20.757812 -0.632812 21.78125 -0.84375 C 22.800781 -1.0625 23.675781 -1.5 24.40625 -2.15625 C 25.132812 -2.820312 25.695312 -3.800781 26.09375 -5.09375 C 26.5 -6.382812 26.703125 -8.09375 26.703125 -10.21875 L 26.703125 -20.25 L 27.1875 -20.25 L 27.1875 0.765625 L 26.703125 0.765625 C 26.378906 0.359375 25.894531 0.117188 25.25 0.046875 C 24.601562 -0.015625 23.753906 -0.046875 22.703125 -0.046875 L 1.21875 -0.046875 L 1.21875 -0.53125 L 3.078125 -0.53125 C 3.335938 -0.53125 3.625 -0.585938 3.9375 -0.703125 C 4.25 -0.828125 4.523438 -1.078125 4.765625 -1.453125 C 5.003906 -1.828125 5.125 -2.378906 5.125 -3.109375 L 5.125 -37.375 C 5.125 -38.125 5.003906 -38.679688 4.765625 -39.046875 C 4.523438 -39.410156 4.25 -39.65625 3.9375 -39.78125 C 3.625 -39.90625 3.335938 -39.96875 3.078125 -39.96875 L 1.21875 -39.96875 Z M 1.21875 -40.40625 "/></g></g></g><g fill="#ffffff" fill-opacity="1"><g transform="translate(386.894591, 221.978128)"><g><path d="M 22.59375 -9.65625 C 22.59375 -11.25 22.226562 -12.609375 21.5 -13.734375 C 20.769531 -14.867188 19.804688 -15.859375 18.609375 -16.703125 C 17.410156 -17.554688 16.097656 -18.34375 14.671875 -19.0625 C 13.242188 -19.789062 11.804688 -20.546875 10.359375 -21.328125 C 8.921875 -22.109375 7.601562 -22.988281 6.40625 -23.96875 C 5.207031 -24.957031 4.242188 -26.128906 3.515625 -27.484375 C 2.785156 -28.847656 2.421875 -30.488281 2.421875 -32.40625 C 2.421875 -34.34375 2.921875 -35.960938 3.921875 -37.265625 C 4.921875 -38.578125 6.234375 -39.5625 7.859375 -40.21875 C 9.484375 -40.882812 11.269531 -41.21875 13.21875 -41.21875 C 14.507812 -41.21875 15.613281 -41.128906 16.53125 -40.953125 C 17.445312 -40.773438 18.234375 -40.578125 18.890625 -40.359375 C 19.546875 -40.148438 20.15625 -39.957031 20.71875 -39.78125 C 21.289062 -39.601562 21.875 -39.515625 22.46875 -39.515625 C 22.894531 -39.515625 23.335938 -39.609375 23.796875 -39.796875 C 24.253906 -39.984375 24.671875 -40.457031 25.046875 -41.21875 L 25.453125 -41.21875 L 18.109375 -20.640625 C 19.398438 -19.890625 20.578125 -19.03125 21.640625 -18.0625 C 22.703125 -17.09375 23.546875 -15.929688 24.171875 -14.578125 C 24.804688 -13.234375 25.125 -11.617188 25.125 -9.734375 C 25.125 -7.847656 24.703125 -6.101562 23.859375 -4.5 C 23.015625 -2.894531 21.742188 -1.609375 20.046875 -0.640625 C 18.347656 0.328125 16.21875 0.8125 13.65625 0.8125 C 11.738281 0.8125 10.109375 0.664062 8.765625 0.375 C 7.421875 0.09375 6.238281 -0.046875 5.21875 -0.046875 C 4.695312 -0.046875 4.25 0.015625 3.875 0.140625 C 3.5 0.265625 3.175781 0.472656 2.90625 0.765625 L 2.421875 0.765625 L 2.421875 -20.25 L 2.90625 -20.25 L 2.90625 -10.21875 C 2.90625 -8.09375 3.191406 -6.34375 3.765625 -4.96875 C 4.347656 -3.59375 5.144531 -2.519531 6.15625 -1.75 C 7.164062 -0.988281 8.316406 -0.453125 9.609375 -0.140625 C 10.910156 0.171875 12.257812 0.328125 13.65625 0.328125 C 15.300781 0.328125 16.796875 -0.0351562 18.140625 -0.765625 C 19.484375 -1.492188 20.5625 -2.597656 21.375 -4.078125 C 22.1875 -5.554688 22.59375 -7.414062 22.59375 -9.65625 Z M 13.21875 -40.734375 C 11.519531 -40.734375 10.125 -40.472656 9.03125 -39.953125 C 7.9375 -39.441406 7.085938 -38.8125 6.484375 -38.0625 C 5.878906 -37.3125 5.453125 -36.53125 5.203125 -35.71875 C 4.960938 -34.90625 4.84375 -34.191406 4.84375 -33.578125 C 4.84375 -31.742188 5.234375 -30.203125 6.015625 -28.953125 C 6.796875 -27.703125 7.828125 -26.625 9.109375 -25.71875 C 10.390625 -24.8125 11.773438 -23.984375 13.265625 -23.234375 C 14.765625 -22.484375 16.242188 -21.6875 17.703125 -20.84375 C 18.160156 -22.144531 18.664062 -23.535156 19.21875 -25.015625 C 19.769531 -26.492188 20.257812 -27.972656 20.6875 -29.453125 C 21.113281 -30.929688 21.367188 -32.34375 21.453125 -33.6875 C 21.535156 -35.039062 21.347656 -36.25 20.890625 -37.3125 C 20.429688 -38.375 19.59375 -39.207031 18.375 -39.8125 C 17.164062 -40.425781 15.445312 -40.734375 13.21875 -40.734375 Z M 13.21875 -40.734375 "/></g></g></g></svg>