<svg xmlns="http://www.w3.org/2000/svg" version="1.0" viewBox="0 0 450 450"><path fill="#fff" d="M193.831 209.978q0-3.842 1.594-6.734a11.3 11.3 0 0 1 4.484-4.485q2.89-1.593 6.735-1.593 2.216.002 3.578.203c.906.136 1.695.273 2.375.406.687.137 1.46.203 2.328.203q1.172.002 1.781-.406l.61-.406h.484l-6.11 17.015h-.484l3.36-9.328q.404-1.137.28-2.39-.126-1.25-.968-2.344-.846-1.09-2.594-1.781c-1.156-.458-2.68-.688-4.562-.688q-2.222 0-4.203.828a11.2 11.2 0 0 0-3.47 2.281 10.6 10.6 0 0 0-2.343 3.375 10.1 10.1 0 0 0-.844 4.11q0 3.517 1.547 6.36 1.56 2.847 4.406 4.546 2.843 1.704 6.688 1.703 3.107.001 5.453-1.328 2.343-1.343 3.672-3.781 1.343-2.45 1.344-5.766h.484q0 3.845-1.594 6.735a11.3 11.3 0 0 1-4.484 4.484c-1.93 1.062-4.172 1.594-6.734 1.594q-3.845 0-6.735-1.594a11.4 11.4 0 0 1-4.484-4.484q-1.594-2.89-1.594-6.735m0 0"/><path fill="#fff" d="M230.564 222.79q-2.674 0-5-.984a13.1 13.1 0 0 1-4.079-2.75 13.1 13.1 0 0 1-2.75-4.078q-.984-2.327-.984-5 0-2.67.984-4.984a12.88 12.88 0 0 1 6.829-6.828c1.55-.664 3.218-1 5-1 1.78 0 3.441.336 4.984 1q2.326.985 4.078 2.75a12.6 12.6 0 0 1 2.75 4.078c.664 1.543 1 3.203 1 4.984s-.336 3.45-1 5a12.88 12.88 0 0 1-6.828 6.828q-2.314.985-4.984.985m-11.079-15.687q-.002 2.753.922 5.266a13.9 13.9 0 0 0 2.672 4.437 12.9 12.9 0 0 0 4.203 3.078q2.466 1.125 5.547 1.125 2.7.001 4.656-1.093 1.968-1.092 3.063-2.922c.726-1.227 1.094-2.61 1.094-4.14q0-2.72-.985-5.204a14.1 14.1 0 0 0-2.765-4.437 13.3 13.3 0 0 0-4.25-3.11q-2.438-1.156-5.344-1.156-2.66 0-4.64 1.078-1.988 1.065-3.079 2.922-1.095 1.861-1.094 4.156m0 0"/><path fill="#fff" d="M242.073 222.79v-10.14h.484v1.938q0 1.002.438 2.328.452 1.314 1.344 2.547a7.6 7.6 0 0 0 2.218 2.03q1.343.812 3.078.813 1.7 0 2.844-.75a4.63 4.63 0 0 0 1.719-1.953 5.9 5.9 0 0 0 .562-2.515q0-1.454-.89-2.579-.88-1.136-2.297-2.109a72 72 0 0 0-2.984-1.937 31 31 0 0 1-3-2.079 10 10 0 0 1-2.297-2.515q-.891-1.419-.891-3.328-.001-1.605.906-2.813.905-1.216 2.407-1.906a7.6 7.6 0 0 1 3.187-.688q1.139.001 1.938.204.81.189 1.625.39.81.204 1.859.203.356 0 .719-.14.375-.141.375-.657h.484v8.032h-.484v-1.938q-.001-1.734-.594-2.828-.579-1.091-1.516-1.687a5.9 5.9 0 0 0-2-.844 9 9 0 0 0-2.031-.25q-1.938 0-3.344 1.219c-.93.804-1.39 1.867-1.39 3.187q-.001 1.455.859 2.547.873 1.08 2.25 2 1.372.908 2.89 1.812a37 37 0 0 1 2.891 1.922q1.372 1.001 2.235 2.313.874 1.312.875 3.094a7.8 7.8 0 0 1-.813 3.53 6.25 6.25 0 0 1-2.36 2.579q-1.547.968-3.78.969-1.737 0-3.125-.61c-.93-.406-1.688-.804-2.282-1.203q-.89-.61-1.218-.61c-.211 0-.336.087-.375.25a1.5 1.5 0 0 0-.063.391v1.782Zm0 0"/></svg>