<svg xmlns="http://www.w3.org/2000/svg" xmlns:xlink="http://www.w3.org/1999/xlink" width="600" zoomAndPan="magnify" viewBox="0 0 450 449.999984" height="600" preserveAspectRatio="xMidYMid meet" version="1.0"><defs><g/></defs><g fill="#ffffff" fill-opacity="1"><g transform="translate(191.815458, 221.978128)"><g><path d="M 2.015625 -12 C 2.015625 -14.5625 2.546875 -16.804688 3.609375 -18.734375 C 4.679688 -20.660156 6.175781 -22.15625 8.09375 -23.21875 C 10.019531 -24.28125 12.265625 -24.8125 14.828125 -24.8125 C 16.304688 -24.8125 17.5 -24.742188 18.40625 -24.609375 C 19.3125 -24.472656 20.101562 -24.335938 20.78125 -24.203125 C 21.46875 -24.066406 22.242188 -24 23.109375 -24 C 23.890625 -24 24.484375 -24.132812 24.890625 -24.40625 C 25.296875 -24.675781 25.5 -24.8125 25.5 -24.8125 L 25.984375 -24.8125 L 19.875 -7.796875 L 19.390625 -7.796875 L 22.75 -17.125 C 23.019531 -17.882812 23.113281 -18.679688 23.03125 -19.515625 C 22.945312 -20.347656 22.625 -21.128906 22.0625 -21.859375 C 21.5 -22.585938 20.632812 -23.179688 19.46875 -23.640625 C 18.3125 -24.097656 16.789062 -24.328125 14.90625 -24.328125 C 13.425781 -24.328125 12.023438 -24.050781 10.703125 -23.5 C 9.390625 -22.945312 8.234375 -22.1875 7.234375 -21.21875 C 6.234375 -20.25 5.453125 -19.125 4.890625 -17.84375 C 4.328125 -16.5625 4.046875 -15.191406 4.046875 -13.734375 C 4.046875 -11.390625 4.5625 -9.269531 5.59375 -7.375 C 6.632812 -5.476562 8.101562 -3.960938 10 -2.828125 C 11.894531 -1.691406 14.125 -1.125 16.6875 -1.125 C 18.757812 -1.125 20.578125 -1.566406 22.140625 -2.453125 C 23.703125 -3.347656 24.925781 -4.609375 25.8125 -6.234375 C 26.707031 -7.867188 27.15625 -9.789062 27.15625 -12 L 27.640625 -12 C 27.640625 -9.4375 27.109375 -7.191406 26.046875 -5.265625 C 24.984375 -3.347656 23.488281 -1.851562 21.5625 -0.78125 C 19.632812 0.28125 17.390625 0.8125 14.828125 0.8125 C 12.265625 0.8125 10.019531 0.28125 8.09375 -0.78125 C 6.175781 -1.851562 4.679688 -3.347656 3.609375 -5.265625 C 2.546875 -7.191406 2.015625 -9.4375 2.015625 -12 Z M 2.015625 -12 "/></g></g></g><g fill="#ffffff" fill-opacity="1"><g transform="translate(215.735427, 221.978128)"><g><path d="M 14.828125 0.8125 C 13.046875 0.8125 11.378906 0.484375 9.828125 -0.171875 C 8.285156 -0.835938 6.925781 -1.753906 5.75 -2.921875 C 4.582031 -4.097656 3.664062 -5.457031 3 -7 C 2.34375 -8.550781 2.015625 -10.21875 2.015625 -12 C 2.015625 -13.78125 2.34375 -15.441406 3 -16.984375 C 3.664062 -18.535156 4.582031 -19.894531 5.75 -21.0625 C 6.925781 -22.238281 8.285156 -23.15625 9.828125 -23.8125 C 11.378906 -24.476562 13.046875 -24.8125 14.828125 -24.8125 C 16.609375 -24.8125 18.269531 -24.476562 19.8125 -23.8125 C 21.363281 -23.15625 22.722656 -22.238281 23.890625 -21.0625 C 25.066406 -19.894531 25.984375 -18.535156 26.640625 -16.984375 C 27.304688 -15.441406 27.640625 -13.78125 27.640625 -12 C 27.640625 -10.21875 27.304688 -8.550781 26.640625 -7 C 25.984375 -5.457031 25.066406 -4.097656 23.890625 -2.921875 C 22.722656 -1.753906 21.363281 -0.835938 19.8125 -0.171875 C 18.269531 0.484375 16.609375 0.8125 14.828125 0.8125 Z M 3.75 -14.875 C 3.75 -13.039062 4.054688 -11.285156 4.671875 -9.609375 C 5.296875 -7.941406 6.1875 -6.460938 7.34375 -5.171875 C 8.507812 -3.878906 9.910156 -2.851562 11.546875 -2.09375 C 13.191406 -1.34375 15.039062 -0.96875 17.09375 -0.96875 C 18.894531 -0.96875 20.445312 -1.332031 21.75 -2.0625 C 23.0625 -2.789062 24.082031 -3.765625 24.8125 -4.984375 C 25.539062 -6.210938 25.90625 -7.59375 25.90625 -9.125 C 25.90625 -10.9375 25.578125 -12.671875 24.921875 -14.328125 C 24.273438 -15.984375 23.351562 -17.460938 22.15625 -18.765625 C 20.957031 -20.078125 19.539062 -21.113281 17.90625 -21.875 C 16.28125 -22.644531 14.5 -23.03125 12.5625 -23.03125 C 10.789062 -23.03125 9.242188 -22.671875 7.921875 -21.953125 C 6.597656 -21.242188 5.570312 -20.269531 4.84375 -19.03125 C 4.113281 -17.789062 3.75 -16.40625 3.75 -14.875 Z M 3.75 -14.875 "/></g></g></g><g fill="#ffffff" fill-opacity="1"><g transform="translate(240.463521, 221.978128)"><g><path d="M 1.609375 0.8125 L 1.609375 -9.328125 L 2.09375 -9.328125 L 2.09375 -7.390625 C 2.09375 -6.722656 2.238281 -5.945312 2.53125 -5.0625 C 2.832031 -4.1875 3.28125 -3.335938 3.875 -2.515625 C 4.46875 -1.703125 5.207031 -1.023438 6.09375 -0.484375 C 6.988281 0.0546875 8.015625 0.328125 9.171875 0.328125 C 10.304688 0.328125 11.253906 0.078125 12.015625 -0.421875 C 12.785156 -0.921875 13.359375 -1.570312 13.734375 -2.375 C 14.109375 -3.1875 14.296875 -4.023438 14.296875 -4.890625 C 14.296875 -5.859375 14 -6.71875 13.40625 -7.46875 C 12.820312 -8.226562 12.054688 -8.929688 11.109375 -9.578125 C 10.171875 -10.222656 9.175781 -10.867188 8.125 -11.515625 C 7.070312 -12.160156 6.070312 -12.851562 5.125 -13.59375 C 4.1875 -14.332031 3.421875 -15.171875 2.828125 -16.109375 C 2.234375 -17.054688 1.9375 -18.164062 1.9375 -19.4375 C 1.9375 -20.507812 2.238281 -21.445312 2.84375 -22.25 C 3.445312 -23.0625 4.25 -23.695312 5.25 -24.15625 C 6.25 -24.613281 7.3125 -24.84375 8.4375 -24.84375 C 9.195312 -24.84375 9.84375 -24.773438 10.375 -24.640625 C 10.914062 -24.515625 11.457031 -24.382812 12 -24.25 C 12.539062 -24.113281 13.160156 -24.046875 13.859375 -24.046875 C 14.097656 -24.046875 14.335938 -24.09375 14.578125 -24.1875 C 14.828125 -24.28125 14.953125 -24.5 14.953125 -24.84375 L 15.4375 -24.84375 L 15.4375 -16.8125 L 14.953125 -16.8125 L 14.953125 -18.75 C 14.953125 -19.90625 14.753906 -20.847656 14.359375 -21.578125 C 13.972656 -22.304688 13.46875 -22.867188 12.84375 -23.265625 C 12.226562 -23.671875 11.5625 -23.953125 10.84375 -24.109375 C 10.132812 -24.273438 9.457031 -24.359375 8.8125 -24.359375 C 7.519531 -24.359375 6.40625 -23.953125 5.46875 -23.140625 C 4.539062 -22.335938 4.078125 -21.273438 4.078125 -19.953125 C 4.078125 -18.984375 4.363281 -18.132812 4.9375 -17.40625 C 5.519531 -16.6875 6.269531 -16.019531 7.1875 -15.40625 C 8.101562 -14.800781 9.066406 -14.195312 10.078125 -13.59375 C 11.085938 -12.988281 12.050781 -12.347656 12.96875 -11.671875 C 13.882812 -11.003906 14.628906 -10.234375 15.203125 -9.359375 C 15.785156 -8.484375 16.078125 -7.453125 16.078125 -6.265625 C 16.078125 -4.992188 15.804688 -3.816406 15.265625 -2.734375 C 14.734375 -1.660156 13.945312 -0.800781 12.90625 -0.15625 C 11.875 0.488281 10.613281 0.8125 9.125 0.8125 C 7.96875 0.8125 6.925781 0.609375 6 0.203125 C 5.070312 -0.203125 4.3125 -0.601562 3.71875 -1 C 3.125 -1.40625 2.71875 -1.609375 2.5 -1.609375 C 2.289062 -1.609375 2.164062 -1.523438 2.125 -1.359375 C 2.082031 -1.203125 2.0625 -1.070312 2.0625 -0.96875 L 2.0625 0.8125 Z M 1.609375 0.8125 "/></g></g></g></svg>