<svg xmlns="http://www.w3.org/2000/svg" version="1.0" viewBox="0 0 450 450"><defs><clipPath id="b"><path d="M82 .48h22V43H82Zm0 0"/></clipPath><clipPath id="c"><path d="M171 .48h24V43h-24Zm0 0"/></clipPath><clipPath id="a"><path d="M0 0h332v61H0z"/></clipPath></defs><g clip-path="url(#a)" transform="translate(58 180)"><path fill="#fff" d="M2.167 41.708h1.89q1.576 0 2.641-1.656 1.078-1.654 1.828-4.47.75-2.812 1.328-6.327.593-3.516 1.157-7.266.434-2.749.921-5.61c.32-1.913.641-3.726.954-5.437q.468-2.56.75-4.547.28-1.98.28-3-.002-.562-.53-.843a2.4 2.4 0 0 0-1.172-.282h-3.11v-.484h7.516q.045.128.062.25l.063.234c.812 2.961 1.547 5.64 2.203 8.047q.984 3.597 1.875 6.766.891 3.175 1.734 6.281.855 3.112 1.829 6.547a826 826 0 0 1 2.093 7.594c.707-2.72 1.368-5.211 1.985-7.485.625-2.281 1.218-4.46 1.781-6.547q.842-3.14 1.703-6.328a918 918 0 0 0 1.828-6.812 576 576 0 0 0 2.047-8.063q.03-.123.047-.234.029-.122.062-.25h7.079v.484h-3.75q-1.094 0-1.094.969-.001.767.297 2.734c.195 1.305.441 2.844.734 4.625q.45 2.66.984 5.641.528 2.971.922 5.75.576 3.75 1.157 7.266.59 3.515 1.328 6.328c.5 1.875 1.101 3.367 1.812 4.469q1.077 1.657 2.656 1.656h1.907v.484H34.198v-.437h1.781q2.421 0 3.688-1.125c.851-.758 1.281-1.735 1.281-2.922 0-.75-.117-1.992-.344-3.735q-.343-2.606-.906-6.156a747 747 0 0 0-1.25-7.625q-.691-4.06-1.406-8.125-.703-4.06-1.266-7.656a5153 5153 0 0 0-5.156 19.406 1346 1346 0 0 1-5.188 19.188h-.484a557 557 0 0 1-2.062-7.766q-.926-3.638-1.782-7.094-.843-3.452-1.78-6.968a247 247 0 0 0-2.063-7.344 219 219 0 0 0-2.61-8.25 12 12 0 0 1-.172-.547q-.08-.265-.156-.547a580 580 0 0 0-1.484 9.281 667 667 0 0 0-1.297 9.078 222 222 0 0 0-.922 7.891q-.344 3.533-.344 5.719 0 1.487.297 2.687.31 1.19 1.14 1.907.826.703 2.454.703h1.765v.437H2.167Zm0 0"/><path fill="#fff" d="M58.36 43.005q-3.361 0-5.844-1.407-2.486-1.418-3.86-3.828-1.375-2.403-1.374-5.281c0-1.531.297-2.96.89-4.297a10.2 10.2 0 0 1 2.532-3.469q1.64-1.48 3.89-2.171-.721-.686-1.53-1.313-.814-.622-1.704-1.156a8.56 8.56 0 0 1 3.312-2.047q1.906-.657 4.25-.656c2.446 0 4.47.449 6.063 1.343q2.39 1.33 3.578 3.657 1.187 2.313 1.188 5.218V37.99q0 1.938.562 2.828.576.89 2.266.89v.485h-3.11q-1.453 0-1.968-.984a4.6 4.6 0 0 1-.5-2.094v-.156q-1.376 1.734-3.579 2.89t-5.062 1.157M55.204 23.16q-2.549 1.05-4 3.64-1.454 2.58-1.453 5.813c0 1.836.351 3.5 1.062 5q1.078 2.237 3.016 3.578 1.935 1.33 4.562 1.328 2.466.002 4.844-1.156 2.39-1.154 3.766-3.25v-11.64q-.61-.89-1.688-1.797-1.066-.905-2.766-1.516-1.688-.61-4.156-.61a8.3 8.3 0 0 0-2.86.485q.967.97 2.032 2.328 1.077 1.36 1.797 3.125.733 1.751.734 4 0 2.145-.89 3.469-.89 1.312-2.344 1.312-.235.002-.36-.125.359-.076.97-.64.607-.576 1.109-1.61.499-1.03.5-2.484c0-1.832-.352-3.52-1.047-5.063a14.9 14.9 0 0 0-2.828-4.187M59 17.864q-2.58.002-3.782.766-1.188.767-1.187 1.859 0 .375.14.844.141.456.75 1.094.81-.186 1.672-.313a13 13 0 0 1 1.766-.125q2.827.002 4.984.953 2.17.956 3.578 2.61 0-1.952-.937-3.704-.925-1.762-2.688-2.875-1.753-1.108-4.296-1.109m0 0"/><path fill="#fff" d="M67.894 42.192v-.484h1.859q.404.002.86-.172.466-.187.827-.75.375-.576.375-1.672V22.958q0-.434-.093-.985a1.64 1.64 0 0 0-.5-.953q-.425-.405-1.469-.406v-.484q2.14 0 3.219-.938 1.091-.951 1.093-1.844h.485v5.97q.575-1.607 1.437-2.954.873-1.358 2.078-2.172 1.218-.81 2.797-.812 1.172.002 1.797.203c.414.136.844.273 1.281.406q.668.204 1.97.203 1.171.002 1.405-.406l.25-.406h.485l-6.094 16.968h-.484l2.984-8.312q.809-2.231.61-4.094-.205-1.856-1.282-2.969-1.064-1.108-2.922-1.109c-1.023 0-1.918.29-2.687.86a7.4 7.4 0 0 0-1.953 2.14q-.785 1.283-1.188 2.625-.391 1.33-.484 2.25v13.375c0 .73.117 1.29.36 1.672q.373.563.859.75.48.174.843.172h1.86v.484Zm0 0"/><g clip-path="url(#b)"><path fill="#fff" d="M93.54 42.192H82.962v-.484h1.859q.404.002.86-.172c.312-.125.585-.375.828-.75q.375-.576.375-1.672V6.598q0-.449-.094-1a1.57 1.57 0 0 0-.5-.937c-.281-.27-.774-.406-1.469-.406V3.77q2.14.001 3.219-.953c.726-.633 1.094-1.25 1.094-1.844h.484v25.782l5.781-4.516q1.904-1.466 2.063-2.516.152-1.044-.61-1.046h-1.125v-.485h7.594v.485h-.922q-.94 0-2.219.687a21 21 0 0 0-2.687 1.781q-1.406 1.094-2.86 2.313-1.453 1.206-2.75 2.25a158 158 0 0 0 2.938 5.11 354 354 0 0 1 2.516 4.265q1.575 2.626 2.578 4.078 1.014 1.455 1.781 2 .78.549 1.578.547h.656v.484h-8.734v-.484h1.094q1.015 0 1.015-.813c0-.531-.68-1.926-2.03-4.187q-2.018-3.404-5.657-9.953v12.359c0 .73.117 1.29.36 1.672q.373.563.859.75.48.174.843.172h1.86Zm0 0"/></g><path fill="#fff" d="M100.039 43.005V32.864h.484v1.938q-.001 1.002.437 2.328.452 1.314 1.344 2.547a7.6 7.6 0 0 0 2.219 2.03q1.343.811 3.078.813 1.7 0 2.844-.75a4.63 4.63 0 0 0 1.719-1.953 5.9 5.9 0 0 0 .562-2.515q0-1.454-.89-2.579-.88-1.136-2.297-2.109a72 72 0 0 0-2.985-1.937 31 31 0 0 1-3-2.079 10 10 0 0 1-2.297-2.515q-.89-1.419-.89-3.328-.001-1.605.906-2.813c.601-.812 1.406-1.445 2.406-1.906a7.6 7.6 0 0 1 3.188-.688c.757 0 1.406.07 1.937.204q.81.189 1.625.39.81.204 1.86.203.356 0 .718-.14.375-.141.375-.657h.485v8.032h-.485v-1.938q-.001-1.733-.593-2.828-.58-1.09-1.516-1.687a5.9 5.9 0 0 0-2-.844 9 9 0 0 0-2.031-.25q-1.939 0-3.344 1.219c-.93.804-1.39 1.867-1.39 3.187q-.002 1.455.859 2.547.873 1.08 2.25 2 1.372.908 2.89 1.812a37 37 0 0 1 2.89 1.922q1.373 1.001 2.235 2.313.874 1.312.875 3.094-.002 1.909-.812 3.53a6.25 6.25 0 0 1-2.36 2.579c-1.03.644-2.293.969-3.78.969q-1.736 0-3.126-.61c-.93-.406-1.687-.804-2.281-1.203q-.89-.61-1.219-.61c-.21 0-.336.087-.375.25a1.5 1.5 0 0 0-.062.391v1.782Zm38.873 0q-3.317 0-6.516-.735c-2.125-.476-4.055-1.218-5.781-2.218-1.719-1-3.102-2.286-4.14-3.86-1.032-1.57-1.548-3.453-1.548-5.64q0-2.982 1.172-5.079 1.172-2.11 3.375-3.656c1.469-1.039 3.211-1.992 5.235-2.86q-1.939-2.184-3.11-4.327-1.172-2.138-1.172-4.235c0-1.883.504-3.5 1.516-4.843q1.513-2.03 4.062-3.11c1.696-.726 3.54-1.094 5.532-1.094q2.624 0 4.547.735 1.92.72 3.171 1.875 1.248 1.141 1.875 2.5.624 1.345.625 2.562-.002 2.19-.906 3.688a7.9 7.9 0 0 1-2.328 2.453 12.7 12.7 0 0 1-3 1.531q-1.595.563-3.016.89c-.937.22-1.695.4-2.265.532q-.517.035-1.063.14a9 9 0 0 0-1.109.266q1.53 1.488 3.61 3.375a344 344 0 0 0 4.671 4.14l12.36-14.796.359.281-8.313 9.985a8.5 8.5 0 0 1 1.547-.547q.873-.218 2.125-.219 2.217.002 4.094 1a7.8 7.8 0 0 1 3.031 2.797q1.156 1.816 1.157 4.36a9.5 9.5 0 0 1-1.047 4.327q-1.048 2.063-2.828 3.844c1.343 1.156 2.53 2.18 3.562 3.063q1.56 1.33 2.531 1.906c.54.32 1.078.484 1.61.484h1.593v.485h-3.671q-1.349-.001-2.25-.266-.91-.27-1.922-1.078a36 36 0 0 1-1.61-1.313q-.862-.748-1.906-1.625-2.753 1.97-6.375 3.125a24.4 24.4 0 0 1-7.484 1.157M123.927 29.91c0 1.781.422 3.43 1.266 4.937q1.265 2.252 3.422 3.954c1.445 1.125 3.078 2 4.89 2.625 1.82.617 3.692.921 5.61.921 2.476 0 4.867-.351 7.172-1.062 2.3-.719 4.343-1.695 6.125-2.938q-2.145-1.858-4.735-4.109a505 505 0 0 0-5.328-4.61q-3-2.59-5.937-5.093-2.923-2.496-5.172-4.969a14 14 0 0 0-3.64 2.375 11.6 11.6 0 0 0-2.673 3.469q-1.001 2.004-1 4.5m4.282-20.969q-.05 1.283.453 2.625.515 1.33 1.734 2.922c.82 1.063 1.938 2.297 3.344 3.703a33 33 0 0 0 2.437-.484 18 18 0 0 0 2.938-.953q1.5-.623 2.781-1.61a8 8 0 0 0 2.094-2.406q.81-1.418.812-3.36-.002-1.125-.39-2.39a7.9 7.9 0 0 0-1.219-2.437q-.846-1.155-2.266-1.875-1.406-.734-3.468-.735-3.159 0-5.204 1.031-2.032 1.033-3 2.641-.971 1.594-1.046 3.328m14.5 17.406c.351.305.718.618 1.093.938q.563.485 1.125 1a217 217 0 0 1 5.032 4.422 230 230 0 0 0 4.515 3.984q1.734-1.652 2.719-3.594a8.8 8.8 0 0 0 .984-4.03q-.002-2.72-1.187-4.454-1.188-1.732-2.969-2.562-1.782-.828-3.64-.829-1.817 0-3.047.516-1.237.502-1.922 1.297Zm0 0"/><g clip-path="url(#c)"><path fill="#fff" d="M191.516 32.536q-.002-2.39-1.093-4.078-1.097-1.701-2.891-2.969a30.5 30.5 0 0 0-3.938-2.36 192 192 0 0 1-4.312-2.265 25 25 0 0 1-3.953-2.64 11.7 11.7 0 0 1-2.89-3.516q-1.096-2.046-1.095-4.922c0-1.938.5-3.555 1.5-4.86q1.5-1.968 3.938-2.953 2.436-.998 5.36-1 1.933.001 3.312.266c.914.18 1.703.375 2.36.594q.983.314 1.827.578c.57.18 1.157.266 1.75.266q.638 0 1.328-.282.687-.28 1.25-1.422h.407l-7.344 20.579q1.936 1.125 3.531 2.578a10.8 10.8 0 0 1 2.531 3.484c.633 1.344.954 2.961.954 4.844q0 2.83-1.266 5.234c-.844 1.606-2.117 2.89-3.813 3.86q-2.548 1.453-6.39 1.453c-1.918 0-3.547-.149-4.89-.438q-2.018-.422-3.548-.422c-.523 0-.968.063-1.343.188q-.564.187-.97.625h-.484V21.942h.485v10.031q-.001 3.188.86 5.25.872 2.064 2.39 3.22 1.513 1.14 3.453 1.609 1.95.468 4.047.468 2.467.001 4.484-1.093 2.016-1.092 3.235-3.313 1.218-2.215 1.218-5.578m-9.375-31.078q-2.547 0-4.187.781-1.642.766-2.547 1.89-.907 1.126-1.281 2.344-.362 1.22-.36 2.141c0 1.836.391 3.375 1.172 4.625q1.172 1.875 3.094 3.234a32 32 0 0 0 4.156 2.485q2.248 1.125 4.438 2.39.684-1.95 1.515-4.171a63 63 0 0 0 1.47-4.438q.637-2.217.765-4.234.123-2.03-.563-3.625-.689-1.594-2.515-2.5-1.817-.921-5.157-.922m0 0"/></g><path fill="#fff" d="M191.712 59.489h1.859q.404 0 .86-.187c.312-.118.585-.368.828-.75q.375-.564.375-1.657V22.958q0-.434-.094-.985a1.64 1.64 0 0 0-.5-.953c-.281-.27-.774-.406-1.469-.406v-.484q2.14 0 3.219-.938c.726-.633 1.094-1.25 1.094-1.844h.484v4.079q.686-.966 1.86-1.891 1.17-.937 3.015-1.563 1.839-.623 4.5-.625 4.09.001 6.89 1.72 2.812 1.704 4.282 4.593c.988 1.93 1.484 4.062 1.484 6.406q-.002 2.626-.86 4.953a12.6 12.6 0 0 1-2.437 4.125 11.6 11.6 0 0 1-3.797 2.828q-2.203 1.032-4.953 1.032c-1.992 0-3.648-.227-4.968-.672q-1.988-.67-3.172-1.656c-.793-.657-1.407-1.305-1.844-1.954v18.172c0 .727.117 1.282.36 1.657q.373.573.859.75.48.187.843.187h1.86v.484h-10.578Zm6.656-21.625q.856 1.501 2.062 2.375c.813.574 1.633 1 2.47 1.281q1.248.424 2.28.547 1.03.127 1.563.125a9.6 9.6 0 0 0 4.172-.922 11.2 11.2 0 0 0 3.484-2.593 12 12 0 0 0 2.36-3.86q.843-2.202.843-4.703 0-2.514-.843-4.687a11.8 11.8 0 0 0-2.36-3.813 11 11 0 0 0-3.484-2.547 9.7 9.7 0 0 0-4.172-.922c-.356 0-.875.04-1.563.11q-1.032.095-2.28.484c-.837.25-1.657.664-2.47 1.234q-1.206.844-2.062 2.344Zm-1.25-4.437q0 .127.047.203Zm0 0"/><path fill="#fff" d="M231.34 43.005q-3.845 0-6.735-1.594a11.4 11.4 0 0 1-4.484-4.484q-1.594-2.89-1.594-6.735 0-3.842 1.594-6.734a11.3 11.3 0 0 1 4.484-4.485q2.89-1.593 6.735-1.593c2.07 0 3.781.308 5.125.922 1.351.605 2.422 1.351 3.203 2.234q1.17 1.33 1.719 2.672.544 1.33.703 2.234c.101.606.156.906.156.906h-21.484q-.096.533-.157 1.047-.046.502-.046 1.063 0 3.517 1.546 6.36 1.56 2.847 4.407 4.546 2.843 1.704 6.687 1.703 3.107.001 5.453-1.328 2.344-1.343 3.672-3.781 1.343-2.45 1.344-5.766h.484q0 3.845-1.593 6.735a11.3 11.3 0 0 1-4.485 4.484q-2.893 1.594-6.734 1.594m-10.5-17.141h18.656q-.034-2.342-1.312-4.14a9 9 0 0 0-3.266-2.829 9.2 9.2 0 0 0-4.266-1.031 9.46 9.46 0 0 0-4.422 1.063 10.1 10.1 0 0 0-3.437 2.843c-.93 1.2-1.578 2.563-1.953 4.094m0 0"/><path fill="#fff" d="M238.654 42.192v-.484h1.86c.27 0 .554-.055.86-.172q.466-.187.827-.75.375-.576.375-1.672V22.958q0-.434-.093-.985a1.64 1.64 0 0 0-.5-.953q-.425-.405-1.47-.406v-.484q2.14 0 3.22-.938 1.091-.951 1.093-1.844h.485v6.094a14 14 0 0 1 1.656-3.047q1.012-1.388 2.36-2.218a5.63 5.63 0 0 1 2.984-.829q2.343.001 3.797 1.25 1.453 1.253 1.453 4.563v15.953c0 .73.117 1.29.359 1.672q.374.563.86.75.48.174.843.172h1.86v.484h-10.594v-.484h1.86q.405.002.874-.172c.313-.125.586-.375.828-.75q.36-.576.36-1.672V21.661q0-1.483-.516-2.656-.502-1.172-1.906-1.172-1.706.001-3 .875a8.1 8.1 0 0 0-2.172 2.156 11 11 0 0 0-1.36 2.625q-.454 1.33-.546 2.25v13.375c0 .73.117 1.29.359 1.672q.374.563.86.75.48.174.843.172h1.86v.484Zm0 0"/><path fill="#fff" d="M257.996 30.192q0-3.842 1.594-6.734a11.3 11.3 0 0 1 4.484-4.485q2.89-1.593 6.734-1.593 2.217.002 3.579.203c.906.136 1.695.273 2.375.406.687.137 1.46.203 2.328.203q1.172.002 1.781-.406l.61-.406h.484l-6.11 17.015h-.484l3.36-9.328q.404-1.137.28-2.39-.126-1.25-.968-2.344-.846-1.09-2.594-1.781c-1.156-.458-2.68-.688-4.562-.688q-2.221 0-4.204.828a11.2 11.2 0 0 0-3.468 2.281 10.6 10.6 0 0 0-2.344 3.375 10.1 10.1 0 0 0-.844 4.11q0 3.517 1.547 6.36 1.56 2.847 4.406 4.546 2.843 1.704 6.688 1.703 3.107.001 5.453-1.328 2.342-1.343 3.672-3.781 1.343-2.45 1.344-5.766h.484q0 3.845-1.594 6.735a11.3 11.3 0 0 1-4.484 4.484c-1.93 1.062-4.172 1.594-6.735 1.594q-3.844 0-6.734-1.594a11.4 11.4 0 0 1-4.484-4.484q-1.594-2.89-1.594-6.735m0 0"/><path fill="#fff" d="M293.755 43.005q-3.845 0-6.735-1.594a11.4 11.4 0 0 1-4.484-4.484q-1.594-2.89-1.594-6.735 0-3.842 1.594-6.734a11.3 11.3 0 0 1 4.484-4.485q2.89-1.593 6.735-1.593 3.106 0 5.125.922 2.028.909 3.203 2.234 1.17 1.33 1.718 2.672.546 1.33.704 2.234c.101.606.156.906.156.906h-21.485a18 18 0 0 0-.156 1.047q-.047.502-.047 1.063 0 3.517 1.547 6.36 1.56 2.847 4.406 4.546 2.843 1.704 6.688 1.703 3.107.001 5.453-1.328 2.343-1.343 3.672-3.781 1.343-2.45 1.344-5.766h.484q0 3.845-1.594 6.735a11.3 11.3 0 0 1-4.484 4.484q-2.893 1.593-6.734 1.594m-10.5-17.141h18.656q-.036-2.342-1.313-4.14a9 9 0 0 0-3.265-2.829 9.2 9.2 0 0 0-4.266-1.031 9.46 9.46 0 0 0-4.422 1.063 10.1 10.1 0 0 0-3.437 2.843c-.93 1.2-1.578 2.563-1.953 4.094m0 0"/><path fill="#fff" d="M301.07 42.192v-.484h1.859q.402.002.859-.172.466-.187.828-.75.375-.576.375-1.672V22.958q0-.434-.094-.985a1.64 1.64 0 0 0-.5-.953c-.281-.27-.773-.406-1.468-.406v-.484q2.14 0 3.218-.938 1.092-.951 1.094-1.844h.484v5.97q.576-1.607 1.438-2.954.872-1.358 2.078-2.172c.813-.539 1.742-.812 2.797-.812q1.17.002 1.797.203c.414.136.844.273 1.281.406q.668.204 1.969.203 1.172.002 1.406-.406c.164-.27.25-.406.25-.406h.484l-6.093 16.968h-.485l2.985-8.312q.808-2.231.609-4.094-.204-1.856-1.281-2.969-1.066-1.108-2.922-1.109c-1.024 0-1.918.29-2.688.86a7.4 7.4 0 0 0-1.953 2.14q-.784 1.283-1.187 2.625-.392 1.33-.485 2.25v13.375c0 .73.118 1.29.36 1.672q.374.563.86.75.48.174.843.172h1.86v.484Zm0 0"/><path fill="#fff" d="M316.934 43.005V32.864h.484v1.938q0 1.002.438 2.328.451 1.314 1.344 2.547a7.6 7.6 0 0 0 2.218 2.03q1.343.811 3.079.813 1.7 0 2.843-.75a4.63 4.63 0 0 0 1.719-1.953 5.9 5.9 0 0 0 .563-2.515q0-1.454-.891-2.579-.88-1.136-2.297-2.109a72 72 0 0 0-2.984-1.937 31 31 0 0 1-3-2.079 10 10 0 0 1-2.297-2.515q-.89-1.419-.89-3.328-.001-1.605.905-2.813c.602-.812 1.407-1.445 2.407-1.906a7.6 7.6 0 0 1 3.187-.688q1.139.002 1.938.204.81.189 1.625.39.81.204 1.859.203.357 0 .719-.14.375-.141.375-.657h.484v8.032h-.484v-1.938q-.002-1.733-.594-2.828-.579-1.09-1.516-1.687a5.9 5.9 0 0 0-2-.844 9 9 0 0 0-2.03-.25q-1.94 0-3.345 1.219c-.93.804-1.39 1.867-1.39 3.187q-.001 1.455.86 2.547.872 1.08 2.25 2 1.37.908 2.89 1.812a37 37 0 0 1 2.89 1.922q1.372 1.001 2.235 2.313.874 1.312.875 3.094a7.8 7.8 0 0 1-.813 3.53 6.25 6.25 0 0 1-2.36 2.579q-1.546.968-3.78.969-1.736 0-3.125-.61c-.93-.406-1.688-.804-2.282-1.203q-.89-.61-1.218-.61c-.211 0-.336.087-.375.25a1.5 1.5 0 0 0-.063.391v1.782Zm0 0"/></g></svg>