<svg xmlns="http://www.w3.org/2000/svg" xmlns:xlink="http://www.w3.org/1999/xlink" width="600" zoomAndPan="magnify" viewBox="0 0 450 449.999984" height="600" preserveAspectRatio="xMidYMid meet" version="1.0"><defs><g/><clipPath id="db53caeb69"><path d="M 82 0.480469 L 104 0.480469 L 104 43 L 82 43 Z M 82 0.480469 " clip-rule="nonzero"/></clipPath><clipPath id="83556ee28d"><path d="M 171 0.480469 L 195 0.480469 L 195 43 L 171 43 Z M 171 0.480469 " clip-rule="nonzero"/></clipPath><clipPath id="2bdf962d16"><rect x="0" width="332" y="0" height="61"/></clipPath></defs><g transform="matrix(1, 0, 0, 1, 58, 180)"><g clip-path="url(#2bdf962d16)"><g fill="#ffffff" fill-opacity="1"><g transform="translate(0.948086, 42.192141)"><g><path d="M 1.21875 -0.484375 L 3.109375 -0.484375 C 4.160156 -0.484375 5.039062 -1.035156 5.75 -2.140625 C 6.46875 -3.242188 7.078125 -4.734375 7.578125 -6.609375 C 8.078125 -8.484375 8.519531 -10.59375 8.90625 -12.9375 C 9.300781 -15.28125 9.6875 -17.703125 10.0625 -20.203125 C 10.351562 -22.035156 10.660156 -23.90625 10.984375 -25.8125 C 11.304688 -27.726562 11.625 -29.539062 11.9375 -31.25 C 12.25 -32.957031 12.5 -34.472656 12.6875 -35.796875 C 12.875 -37.117188 12.96875 -38.117188 12.96875 -38.796875 C 12.96875 -39.171875 12.789062 -39.453125 12.4375 -39.640625 C 12.09375 -39.828125 11.703125 -39.921875 11.265625 -39.921875 L 8.15625 -39.921875 L 8.15625 -40.40625 L 15.671875 -40.40625 C 15.703125 -40.320312 15.722656 -40.238281 15.734375 -40.15625 C 15.753906 -40.082031 15.773438 -40.003906 15.796875 -39.921875 C 16.609375 -36.960938 17.34375 -34.28125 18 -31.875 C 18.65625 -29.476562 19.28125 -27.222656 19.875 -25.109375 C 20.46875 -22.992188 21.046875 -20.898438 21.609375 -18.828125 C 22.179688 -16.753906 22.789062 -14.570312 23.4375 -12.28125 C 24.082031 -9.988281 24.78125 -7.457031 25.53125 -4.6875 C 26.238281 -7.40625 26.898438 -9.898438 27.515625 -12.171875 C 28.140625 -14.453125 28.734375 -16.632812 29.296875 -18.71875 C 29.859375 -20.8125 30.425781 -22.921875 31 -25.046875 C 31.582031 -27.179688 32.191406 -29.453125 32.828125 -31.859375 C 33.460938 -34.273438 34.144531 -36.960938 34.875 -39.921875 C 34.894531 -40.003906 34.910156 -40.082031 34.921875 -40.15625 C 34.941406 -40.238281 34.960938 -40.320312 34.984375 -40.40625 L 42.0625 -40.40625 L 42.0625 -39.921875 L 38.3125 -39.921875 C 37.582031 -39.921875 37.21875 -39.597656 37.21875 -38.953125 C 37.21875 -38.441406 37.316406 -37.53125 37.515625 -36.21875 C 37.710938 -34.914062 37.957031 -33.375 38.25 -31.59375 C 38.550781 -29.820312 38.878906 -27.941406 39.234375 -25.953125 C 39.585938 -23.972656 39.894531 -22.054688 40.15625 -20.203125 C 40.539062 -17.703125 40.925781 -15.28125 41.3125 -12.9375 C 41.707031 -10.59375 42.148438 -8.484375 42.640625 -6.609375 C 43.140625 -4.734375 43.742188 -3.242188 44.453125 -2.140625 C 45.171875 -1.035156 46.054688 -0.484375 47.109375 -0.484375 L 49.015625 -0.484375 L 49.015625 0 L 33.25 0 L 33.25 -0.4375 L 35.03125 -0.4375 C 36.644531 -0.4375 37.875 -0.8125 38.71875 -1.5625 C 39.570312 -2.320312 40 -3.296875 40 -4.484375 C 40 -5.234375 39.882812 -6.476562 39.65625 -8.21875 C 39.425781 -9.957031 39.125 -12.007812 38.75 -14.375 C 38.375 -16.75 37.957031 -19.289062 37.5 -22 C 37.039062 -24.707031 36.570312 -27.414062 36.09375 -30.125 C 35.625 -32.832031 35.203125 -35.382812 34.828125 -37.78125 C 33.109375 -31.363281 31.390625 -24.894531 29.671875 -18.375 C 27.960938 -11.863281 26.234375 -5.46875 24.484375 0.8125 L 24 0.8125 C 23.25 -1.9375 22.5625 -4.523438 21.9375 -6.953125 C 21.320312 -9.378906 20.726562 -11.742188 20.15625 -14.046875 C 19.59375 -16.347656 19 -18.671875 18.375 -21.015625 C 17.757812 -23.359375 17.070312 -25.804688 16.3125 -28.359375 C 15.5625 -30.921875 14.691406 -33.671875 13.703125 -36.609375 C 13.640625 -36.796875 13.582031 -36.976562 13.53125 -37.15625 C 13.476562 -37.332031 13.425781 -37.515625 13.375 -37.703125 C 12.863281 -34.660156 12.367188 -31.566406 11.890625 -28.421875 C 11.421875 -25.285156 10.988281 -22.257812 10.59375 -19.34375 C 10.207031 -16.4375 9.898438 -13.804688 9.671875 -11.453125 C 9.441406 -9.097656 9.328125 -7.191406 9.328125 -5.734375 C 9.328125 -4.742188 9.425781 -3.847656 9.625 -3.046875 C 9.832031 -2.253906 10.210938 -1.617188 10.765625 -1.140625 C 11.316406 -0.671875 12.132812 -0.4375 13.21875 -0.4375 L 14.984375 -0.4375 L 14.984375 0 L 1.21875 0 Z M 1.21875 -0.484375 "/></g></g></g><g fill="#ffffff" fill-opacity="1"><g transform="translate(45.266183, 42.192141)"><g><path d="M 13.09375 0.8125 C 10.851562 0.8125 8.90625 0.34375 7.25 -0.59375 C 5.59375 -1.539062 4.304688 -2.816406 3.390625 -4.421875 C 2.472656 -6.023438 2.015625 -7.785156 2.015625 -9.703125 C 2.015625 -11.234375 2.3125 -12.664062 2.90625 -14 C 3.5 -15.332031 4.34375 -16.488281 5.4375 -17.46875 C 6.53125 -18.457031 7.828125 -19.179688 9.328125 -19.640625 C 8.847656 -20.097656 8.335938 -20.535156 7.796875 -20.953125 C 7.253906 -21.367188 6.6875 -21.753906 6.09375 -22.109375 C 7.039062 -23.046875 8.144531 -23.726562 9.40625 -24.15625 C 10.675781 -24.59375 12.09375 -24.8125 13.65625 -24.8125 C 16.101562 -24.8125 18.125 -24.363281 19.71875 -23.46875 C 21.3125 -22.582031 22.503906 -21.363281 23.296875 -19.8125 C 24.085938 -18.269531 24.484375 -16.53125 24.484375 -14.59375 L 24.484375 -4.203125 C 24.484375 -2.910156 24.671875 -1.96875 25.046875 -1.375 C 25.429688 -0.78125 26.1875 -0.484375 27.3125 -0.484375 L 27.3125 0 L 24.203125 0 C 23.234375 0 22.578125 -0.328125 22.234375 -0.984375 C 21.898438 -1.648438 21.734375 -2.347656 21.734375 -3.078125 L 21.734375 -3.234375 C 20.816406 -2.078125 19.625 -1.113281 18.15625 -0.34375 C 16.6875 0.425781 15 0.8125 13.09375 0.8125 Z M 9.9375 -19.03125 C 8.238281 -18.332031 6.90625 -17.117188 5.9375 -15.390625 C 4.96875 -13.671875 4.484375 -11.734375 4.484375 -9.578125 C 4.484375 -7.742188 4.835938 -6.078125 5.546875 -4.578125 C 6.265625 -3.085938 7.269531 -1.894531 8.5625 -1 C 9.851562 -0.113281 11.375 0.328125 13.125 0.328125 C 14.769531 0.328125 16.382812 -0.0546875 17.96875 -0.828125 C 19.5625 -1.597656 20.816406 -2.679688 21.734375 -4.078125 L 21.734375 -15.71875 C 21.328125 -16.3125 20.765625 -16.910156 20.046875 -17.515625 C 19.335938 -18.117188 18.414062 -18.625 17.28125 -19.03125 C 16.15625 -19.4375 14.769531 -19.640625 13.125 -19.640625 C 12.101562 -19.640625 11.148438 -19.476562 10.265625 -19.15625 C 10.910156 -18.507812 11.585938 -17.734375 12.296875 -16.828125 C 13.015625 -15.921875 13.613281 -14.878906 14.09375 -13.703125 C 14.582031 -12.535156 14.828125 -11.203125 14.828125 -9.703125 C 14.828125 -8.273438 14.53125 -7.117188 13.9375 -6.234375 C 13.34375 -5.359375 12.5625 -4.921875 11.59375 -4.921875 C 11.4375 -4.921875 11.316406 -4.960938 11.234375 -5.046875 C 11.472656 -5.097656 11.796875 -5.3125 12.203125 -5.6875 C 12.609375 -6.070312 12.976562 -6.609375 13.3125 -7.296875 C 13.644531 -7.984375 13.8125 -8.8125 13.8125 -9.78125 C 13.8125 -11.613281 13.460938 -13.300781 12.765625 -14.84375 C 12.066406 -16.394531 11.125 -17.789062 9.9375 -19.03125 Z M 13.734375 -24.328125 C 12.015625 -24.328125 10.753906 -24.070312 9.953125 -23.5625 C 9.160156 -23.050781 8.765625 -22.429688 8.765625 -21.703125 C 8.765625 -21.453125 8.8125 -21.171875 8.90625 -20.859375 C 9 -20.554688 9.25 -20.191406 9.65625 -19.765625 C 10.195312 -19.890625 10.753906 -19.992188 11.328125 -20.078125 C 11.910156 -20.160156 12.5 -20.203125 13.09375 -20.203125 C 14.976562 -20.203125 16.640625 -19.882812 18.078125 -19.25 C 19.523438 -18.613281 20.71875 -17.742188 21.65625 -16.640625 C 21.65625 -17.941406 21.34375 -19.175781 20.71875 -20.34375 C 20.101562 -21.519531 19.207031 -22.476562 18.03125 -23.21875 C 16.863281 -23.957031 15.429688 -24.328125 13.734375 -24.328125 Z M 13.734375 -24.328125 "/></g></g></g><g fill="#ffffff" fill-opacity="1"><g transform="translate(67.081117, 42.192141)"><g><path d="M 0.8125 0 L 0.8125 -0.484375 L 2.671875 -0.484375 C 2.941406 -0.484375 3.226562 -0.539062 3.53125 -0.65625 C 3.84375 -0.78125 4.117188 -1.03125 4.359375 -1.40625 C 4.609375 -1.789062 4.734375 -2.347656 4.734375 -3.078125 L 4.734375 -19.234375 C 4.734375 -19.523438 4.703125 -19.851562 4.640625 -20.21875 C 4.585938 -20.582031 4.421875 -20.898438 4.140625 -21.171875 C 3.859375 -21.441406 3.367188 -21.578125 2.671875 -21.578125 L 2.671875 -22.0625 C 4.097656 -22.0625 5.171875 -22.375 5.890625 -23 C 6.617188 -23.632812 6.984375 -24.25 6.984375 -24.84375 L 7.46875 -24.84375 L 7.46875 -18.875 C 7.851562 -19.945312 8.332031 -20.929688 8.90625 -21.828125 C 9.488281 -22.734375 10.179688 -23.457031 10.984375 -24 C 11.796875 -24.539062 12.726562 -24.8125 13.78125 -24.8125 C 14.5625 -24.8125 15.160156 -24.742188 15.578125 -24.609375 C 15.992188 -24.472656 16.421875 -24.335938 16.859375 -24.203125 C 17.304688 -24.066406 17.960938 -24 18.828125 -24 C 19.609375 -24 20.078125 -24.132812 20.234375 -24.40625 C 20.398438 -24.675781 20.484375 -24.8125 20.484375 -24.8125 L 20.96875 -24.8125 L 14.875 -7.84375 L 14.390625 -7.84375 L 17.375 -16.15625 C 17.914062 -17.644531 18.117188 -19.007812 17.984375 -20.25 C 17.847656 -21.488281 17.421875 -22.476562 16.703125 -23.21875 C 15.992188 -23.957031 15.019531 -24.328125 13.78125 -24.328125 C 12.757812 -24.328125 11.863281 -24.039062 11.09375 -23.46875 C 10.320312 -22.90625 9.671875 -22.191406 9.140625 -21.328125 C 8.617188 -20.472656 8.222656 -19.597656 7.953125 -18.703125 C 7.691406 -17.816406 7.53125 -17.066406 7.46875 -16.453125 L 7.46875 -3.078125 C 7.46875 -2.347656 7.585938 -1.789062 7.828125 -1.40625 C 8.078125 -1.03125 8.363281 -0.78125 8.6875 -0.65625 C 9.007812 -0.539062 9.289062 -0.484375 9.53125 -0.484375 L 11.390625 -0.484375 L 11.390625 0 Z M 0.8125 0 "/></g></g></g><g clip-path="url(#db53caeb69)"><g fill="#ffffff" fill-opacity="1"><g transform="translate(82.149141, 42.192141)"><g><path d="M 11.390625 0 L 0.8125 0 L 0.8125 -0.484375 L 2.671875 -0.484375 C 2.941406 -0.484375 3.226562 -0.539062 3.53125 -0.65625 C 3.84375 -0.78125 4.117188 -1.03125 4.359375 -1.40625 C 4.609375 -1.789062 4.734375 -2.347656 4.734375 -3.078125 L 4.734375 -35.59375 C 4.734375 -35.894531 4.703125 -36.226562 4.640625 -36.59375 C 4.585938 -36.957031 4.421875 -37.269531 4.140625 -37.53125 C 3.859375 -37.800781 3.367188 -37.9375 2.671875 -37.9375 L 2.671875 -38.421875 C 4.097656 -38.421875 5.171875 -38.738281 5.890625 -39.375 C 6.617188 -40.007812 6.984375 -40.625 6.984375 -41.21875 L 7.46875 -41.21875 L 7.46875 -15.4375 L 13.25 -19.953125 C 14.519531 -20.929688 15.207031 -21.769531 15.3125 -22.46875 C 15.414062 -23.164062 15.210938 -23.515625 14.703125 -23.515625 L 13.578125 -23.515625 L 13.578125 -24 L 21.171875 -24 L 21.171875 -23.515625 L 20.25 -23.515625 C 19.625 -23.515625 18.882812 -23.285156 18.03125 -22.828125 C 17.1875 -22.367188 16.289062 -21.773438 15.34375 -21.046875 C 14.40625 -20.316406 13.453125 -19.546875 12.484375 -18.734375 C 11.515625 -17.929688 10.597656 -17.179688 9.734375 -16.484375 C 10.679688 -14.765625 11.660156 -13.0625 12.671875 -11.375 C 13.679688 -9.6875 14.519531 -8.265625 15.1875 -7.109375 C 16.238281 -5.359375 17.097656 -4 17.765625 -3.03125 C 18.441406 -2.0625 19.035156 -1.394531 19.546875 -1.03125 C 20.066406 -0.664062 20.59375 -0.484375 21.125 -0.484375 L 21.78125 -0.484375 L 21.78125 0 L 13.046875 0 L 13.046875 -0.484375 L 14.140625 -0.484375 C 14.816406 -0.484375 15.15625 -0.753906 15.15625 -1.296875 C 15.15625 -1.828125 14.476562 -3.222656 13.125 -5.484375 C 11.78125 -7.753906 9.894531 -11.070312 7.46875 -15.4375 L 7.46875 -3.078125 C 7.46875 -2.347656 7.585938 -1.789062 7.828125 -1.40625 C 8.078125 -1.03125 8.363281 -0.78125 8.6875 -0.65625 C 9.007812 -0.539062 9.289062 -0.484375 9.53125 -0.484375 L 11.390625 -0.484375 Z M 11.390625 0 "/></g></g></g></g><g fill="#ffffff" fill-opacity="1"><g transform="translate(98.429179, 42.192141)"><g><path d="M 1.609375 0.8125 L 1.609375 -9.328125 L 2.09375 -9.328125 L 2.09375 -7.390625 C 2.09375 -6.722656 2.238281 -5.945312 2.53125 -5.0625 C 2.832031 -4.1875 3.28125 -3.335938 3.875 -2.515625 C 4.46875 -1.703125 5.207031 -1.023438 6.09375 -0.484375 C 6.988281 0.0546875 8.015625 0.328125 9.171875 0.328125 C 10.304688 0.328125 11.253906 0.078125 12.015625 -0.421875 C 12.785156 -0.921875 13.359375 -1.570312 13.734375 -2.375 C 14.109375 -3.1875 14.296875 -4.023438 14.296875 -4.890625 C 14.296875 -5.859375 14 -6.71875 13.40625 -7.46875 C 12.820312 -8.226562 12.054688 -8.929688 11.109375 -9.578125 C 10.171875 -10.222656 9.175781 -10.867188 8.125 -11.515625 C 7.070312 -12.160156 6.070312 -12.851562 5.125 -13.59375 C 4.1875 -14.332031 3.421875 -15.171875 2.828125 -16.109375 C 2.234375 -17.054688 1.9375 -18.164062 1.9375 -19.4375 C 1.9375 -20.507812 2.238281 -21.445312 2.84375 -22.25 C 3.445312 -23.0625 4.25 -23.695312 5.25 -24.15625 C 6.25 -24.613281 7.3125 -24.84375 8.4375 -24.84375 C 9.195312 -24.84375 9.84375 -24.773438 10.375 -24.640625 C 10.914062 -24.515625 11.457031 -24.382812 12 -24.25 C 12.539062 -24.113281 13.160156 -24.046875 13.859375 -24.046875 C 14.097656 -24.046875 14.335938 -24.09375 14.578125 -24.1875 C 14.828125 -24.28125 14.953125 -24.5 14.953125 -24.84375 L 15.4375 -24.84375 L 15.4375 -16.8125 L 14.953125 -16.8125 L 14.953125 -18.75 C 14.953125 -19.90625 14.753906 -20.847656 14.359375 -21.578125 C 13.972656 -22.304688 13.46875 -22.867188 12.84375 -23.265625 C 12.226562 -23.671875 11.5625 -23.953125 10.84375 -24.109375 C 10.132812 -24.273438 9.457031 -24.359375 8.8125 -24.359375 C 7.519531 -24.359375 6.40625 -23.953125 5.46875 -23.140625 C 4.539062 -22.335938 4.078125 -21.273438 4.078125 -19.953125 C 4.078125 -18.984375 4.363281 -18.132812 4.9375 -17.40625 C 5.519531 -16.6875 6.269531 -16.019531 7.1875 -15.40625 C 8.101562 -14.800781 9.066406 -14.195312 10.078125 -13.59375 C 11.085938 -12.988281 12.050781 -12.347656 12.96875 -11.671875 C 13.882812 -11.003906 14.628906 -10.234375 15.203125 -9.359375 C 15.785156 -8.484375 16.078125 -7.453125 16.078125 -6.265625 C 16.078125 -4.992188 15.804688 -3.816406 15.265625 -2.734375 C 14.734375 -1.660156 13.945312 -0.800781 12.90625 -0.15625 C 11.875 0.488281 10.613281 0.8125 9.125 0.8125 C 7.96875 0.8125 6.925781 0.609375 6 0.203125 C 5.070312 -0.203125 4.3125 -0.601562 3.71875 -1 C 3.125 -1.40625 2.71875 -1.609375 2.5 -1.609375 C 2.289062 -1.609375 2.164062 -1.523438 2.125 -1.359375 C 2.082031 -1.203125 2.0625 -1.070312 2.0625 -0.96875 L 2.0625 0.8125 Z M 1.609375 0.8125 "/></g></g></g><g fill="#ffffff" fill-opacity="1"><g transform="translate(110.224747, 42.192141)"><g/></g></g><g fill="#ffffff" fill-opacity="1"><g transform="translate(118.505456, 42.192141)"><g><path d="M 20.40625 0.8125 C 18.195312 0.8125 16.023438 0.566406 13.890625 0.078125 C 11.765625 -0.398438 9.835938 -1.140625 8.109375 -2.140625 C 6.390625 -3.140625 5.007812 -4.425781 3.96875 -6 C 2.9375 -7.570312 2.421875 -9.453125 2.421875 -11.640625 C 2.421875 -13.628906 2.8125 -15.320312 3.59375 -16.71875 C 4.375 -18.125 5.5 -19.34375 6.96875 -20.375 C 8.4375 -21.414062 10.179688 -22.367188 12.203125 -23.234375 C 10.910156 -24.691406 9.875 -26.132812 9.09375 -27.5625 C 8.3125 -28.988281 7.921875 -30.398438 7.921875 -31.796875 C 7.921875 -33.679688 8.425781 -35.296875 9.4375 -36.640625 C 10.445312 -37.992188 11.800781 -39.03125 13.5 -39.75 C 15.195312 -40.476562 17.039062 -40.84375 19.03125 -40.84375 C 20.78125 -40.84375 22.296875 -40.597656 23.578125 -40.109375 C 24.859375 -39.628906 25.914062 -39.003906 26.75 -38.234375 C 27.582031 -37.472656 28.207031 -36.640625 28.625 -35.734375 C 29.039062 -34.835938 29.25 -33.984375 29.25 -33.171875 C 29.25 -31.710938 28.945312 -30.484375 28.34375 -29.484375 C 27.738281 -28.492188 26.960938 -27.675781 26.015625 -27.03125 C 25.078125 -26.382812 24.078125 -25.875 23.015625 -25.5 C 21.953125 -25.125 20.945312 -24.828125 20 -24.609375 C 19.0625 -24.390625 18.304688 -24.210938 17.734375 -24.078125 C 17.390625 -24.054688 17.035156 -24.007812 16.671875 -23.9375 C 16.304688 -23.875 15.9375 -23.785156 15.5625 -23.671875 C 16.582031 -22.679688 17.785156 -21.554688 19.171875 -20.296875 C 20.554688 -19.046875 22.113281 -17.664062 23.84375 -16.15625 L 36.203125 -30.953125 L 36.5625 -30.671875 L 28.25 -20.6875 C 28.707031 -20.90625 29.222656 -21.085938 29.796875 -21.234375 C 30.378906 -21.378906 31.085938 -21.453125 31.921875 -21.453125 C 33.398438 -21.453125 34.765625 -21.117188 36.015625 -20.453125 C 37.273438 -19.796875 38.285156 -18.863281 39.046875 -17.65625 C 39.816406 -16.445312 40.203125 -14.992188 40.203125 -13.296875 C 40.203125 -11.785156 39.851562 -10.34375 39.15625 -8.96875 C 38.457031 -7.59375 37.515625 -6.3125 36.328125 -5.125 C 37.671875 -3.96875 38.859375 -2.945312 39.890625 -2.0625 C 40.929688 -1.175781 41.773438 -0.539062 42.421875 -0.15625 C 42.960938 0.164062 43.5 0.328125 44.03125 0.328125 C 44.570312 0.328125 45.101562 0.328125 45.625 0.328125 L 45.625 0.8125 C 44.082031 0.8125 42.859375 0.8125 41.953125 0.8125 C 41.054688 0.8125 40.304688 0.722656 39.703125 0.546875 C 39.097656 0.367188 38.457031 0.0078125 37.78125 -0.53125 C 37.289062 -0.90625 36.753906 -1.34375 36.171875 -1.84375 C 35.597656 -2.34375 34.960938 -2.882812 34.265625 -3.46875 C 32.429688 -2.15625 30.304688 -1.113281 27.890625 -0.34375 C 25.484375 0.425781 22.988281 0.8125 20.40625 0.8125 Z M 5.421875 -12.28125 C 5.421875 -10.5 5.84375 -8.851562 6.6875 -7.34375 C 7.53125 -5.84375 8.671875 -4.523438 10.109375 -3.390625 C 11.554688 -2.265625 13.1875 -1.390625 15 -0.765625 C 16.820312 -0.148438 18.691406 0.15625 20.609375 0.15625 C 23.085938 0.15625 25.476562 -0.195312 27.78125 -0.90625 C 30.082031 -1.625 32.125 -2.601562 33.90625 -3.84375 C 32.476562 -5.082031 30.898438 -6.453125 29.171875 -7.953125 C 27.453125 -9.460938 25.675781 -11 23.84375 -12.5625 C 21.84375 -14.289062 19.863281 -15.988281 17.90625 -17.65625 C 15.957031 -19.320312 14.234375 -20.976562 12.734375 -22.625 C 11.410156 -22.03125 10.195312 -21.238281 9.09375 -20.25 C 7.988281 -19.269531 7.097656 -18.113281 6.421875 -16.78125 C 5.753906 -15.445312 5.421875 -13.945312 5.421875 -12.28125 Z M 9.703125 -33.25 C 9.671875 -32.394531 9.820312 -31.519531 10.15625 -30.625 C 10.5 -29.738281 11.078125 -28.765625 11.890625 -27.703125 C 12.710938 -26.640625 13.828125 -25.40625 15.234375 -24 C 15.910156 -24.101562 16.722656 -24.265625 17.671875 -24.484375 C 18.628906 -24.703125 19.609375 -25.019531 20.609375 -25.4375 C 21.609375 -25.851562 22.535156 -26.390625 23.390625 -27.046875 C 24.253906 -27.710938 24.953125 -28.515625 25.484375 -29.453125 C 26.023438 -30.398438 26.296875 -31.519531 26.296875 -32.8125 C 26.296875 -33.5625 26.164062 -34.359375 25.90625 -35.203125 C 25.65625 -36.054688 25.25 -36.867188 24.6875 -37.640625 C 24.125 -38.410156 23.367188 -39.035156 22.421875 -39.515625 C 21.484375 -40.003906 20.328125 -40.25 18.953125 -40.25 C 16.847656 -40.25 15.113281 -39.90625 13.75 -39.21875 C 12.394531 -38.53125 11.394531 -37.648438 10.75 -36.578125 C 10.101562 -35.515625 9.753906 -34.40625 9.703125 -33.25 Z M 24.203125 -15.84375 C 24.554688 -15.539062 24.921875 -15.226562 25.296875 -14.90625 C 25.671875 -14.582031 26.046875 -14.25 26.421875 -13.90625 C 28.171875 -12.414062 29.847656 -10.941406 31.453125 -9.484375 C 33.054688 -8.035156 34.5625 -6.707031 35.96875 -5.5 C 37.125 -6.601562 38.03125 -7.800781 38.6875 -9.09375 C 39.34375 -10.382812 39.671875 -11.726562 39.671875 -13.125 C 39.671875 -14.9375 39.273438 -16.421875 38.484375 -17.578125 C 37.691406 -18.734375 36.703125 -19.585938 35.515625 -20.140625 C 34.328125 -20.691406 33.113281 -20.96875 31.875 -20.96875 C 30.664062 -20.96875 29.648438 -20.796875 28.828125 -20.453125 C 28.003906 -20.117188 27.363281 -19.6875 26.90625 -19.15625 Z M 24.203125 -15.84375 "/></g></g></g><g fill="#ffffff" fill-opacity="1"><g transform="translate(160.641915, 42.192141)"><g/></g></g><g clip-path="url(#83556ee28d)"><g fill="#ffffff" fill-opacity="1"><g transform="translate(168.922624, 42.192141)"><g><path d="M 22.59375 -9.65625 C 22.59375 -11.25 22.226562 -12.609375 21.5 -13.734375 C 20.769531 -14.867188 19.804688 -15.859375 18.609375 -16.703125 C 17.410156 -17.554688 16.097656 -18.34375 14.671875 -19.0625 C 13.242188 -19.789062 11.804688 -20.546875 10.359375 -21.328125 C 8.921875 -22.109375 7.601562 -22.988281 6.40625 -23.96875 C 5.207031 -24.957031 4.242188 -26.128906 3.515625 -27.484375 C 2.785156 -28.847656 2.421875 -30.488281 2.421875 -32.40625 C 2.421875 -34.34375 2.921875 -35.960938 3.921875 -37.265625 C 4.921875 -38.578125 6.234375 -39.5625 7.859375 -40.21875 C 9.484375 -40.882812 11.269531 -41.21875 13.21875 -41.21875 C 14.507812 -41.21875 15.613281 -41.128906 16.53125 -40.953125 C 17.445312 -40.773438 18.234375 -40.578125 18.890625 -40.359375 C 19.546875 -40.148438 20.15625 -39.957031 20.71875 -39.78125 C 21.289062 -39.601562 21.875 -39.515625 22.46875 -39.515625 C 22.894531 -39.515625 23.335938 -39.609375 23.796875 -39.796875 C 24.253906 -39.984375 24.671875 -40.457031 25.046875 -41.21875 L 25.453125 -41.21875 L 18.109375 -20.640625 C 19.398438 -19.890625 20.578125 -19.03125 21.640625 -18.0625 C 22.703125 -17.09375 23.546875 -15.929688 24.171875 -14.578125 C 24.804688 -13.234375 25.125 -11.617188 25.125 -9.734375 C 25.125 -7.847656 24.703125 -6.101562 23.859375 -4.5 C 23.015625 -2.894531 21.742188 -1.609375 20.046875 -0.640625 C 18.347656 0.328125 16.21875 0.8125 13.65625 0.8125 C 11.738281 0.8125 10.109375 0.664062 8.765625 0.375 C 7.421875 0.09375 6.238281 -0.046875 5.21875 -0.046875 C 4.695312 -0.046875 4.25 0.015625 3.875 0.140625 C 3.5 0.265625 3.175781 0.472656 2.90625 0.765625 L 2.421875 0.765625 L 2.421875 -20.25 L 2.90625 -20.25 L 2.90625 -10.21875 C 2.90625 -8.09375 3.191406 -6.34375 3.765625 -4.96875 C 4.347656 -3.59375 5.144531 -2.519531 6.15625 -1.75 C 7.164062 -0.988281 8.316406 -0.453125 9.609375 -0.140625 C 10.910156 0.171875 12.257812 0.328125 13.65625 0.328125 C 15.300781 0.328125 16.796875 -0.0351562 18.140625 -0.765625 C 19.484375 -1.492188 20.5625 -2.597656 21.375 -4.078125 C 22.1875 -5.554688 22.59375 -7.414062 22.59375 -9.65625 Z M 13.21875 -40.734375 C 11.519531 -40.734375 10.125 -40.472656 9.03125 -39.953125 C 7.9375 -39.441406 7.085938 -38.8125 6.484375 -38.0625 C 5.878906 -37.3125 5.453125 -36.53125 5.203125 -35.71875 C 4.960938 -34.90625 4.84375 -34.191406 4.84375 -33.578125 C 4.84375 -31.742188 5.234375 -30.203125 6.015625 -28.953125 C 6.796875 -27.703125 7.828125 -26.625 9.109375 -25.71875 C 10.390625 -24.8125 11.773438 -23.984375 13.265625 -23.234375 C 14.765625 -22.484375 16.242188 -21.6875 17.703125 -20.84375 C 18.160156 -22.144531 18.664062 -23.535156 19.21875 -25.015625 C 19.769531 -26.492188 20.257812 -27.972656 20.6875 -29.453125 C 21.113281 -30.929688 21.367188 -32.34375 21.453125 -33.6875 C 21.535156 -35.039062 21.347656 -36.25 20.890625 -37.3125 C 20.429688 -38.375 19.59375 -39.207031 18.375 -39.8125 C 17.164062 -40.425781 15.445312 -40.734375 13.21875 -40.734375 Z M 13.21875 -40.734375 "/></g></g></g></g><g fill="#ffffff" fill-opacity="1"><g transform="translate(190.899159, 42.192141)"><g><path d="M 0.8125 17.296875 L 2.671875 17.296875 C 2.941406 17.296875 3.226562 17.234375 3.53125 17.109375 C 3.84375 16.992188 4.117188 16.742188 4.359375 16.359375 C 4.609375 15.984375 4.734375 15.429688 4.734375 14.703125 L 4.734375 -19.234375 C 4.734375 -19.523438 4.703125 -19.851562 4.640625 -20.21875 C 4.585938 -20.582031 4.421875 -20.898438 4.140625 -21.171875 C 3.859375 -21.441406 3.367188 -21.578125 2.671875 -21.578125 L 2.671875 -22.0625 C 4.097656 -22.0625 5.171875 -22.375 5.890625 -23 C 6.617188 -23.632812 6.984375 -24.25 6.984375 -24.84375 L 7.46875 -24.84375 L 7.46875 -20.765625 C 7.925781 -21.410156 8.546875 -22.039062 9.328125 -22.65625 C 10.109375 -23.28125 11.113281 -23.800781 12.34375 -24.21875 C 13.570312 -24.632812 15.070312 -24.84375 16.84375 -24.84375 C 19.570312 -24.84375 21.867188 -24.269531 23.734375 -23.125 C 25.609375 -21.988281 27.035156 -20.457031 28.015625 -18.53125 C 29.003906 -16.601562 29.5 -14.46875 29.5 -12.125 C 29.5 -10.375 29.210938 -8.722656 28.640625 -7.171875 C 28.078125 -5.617188 27.265625 -4.242188 26.203125 -3.046875 C 25.140625 -1.847656 23.875 -0.90625 22.40625 -0.21875 C 20.9375 0.46875 19.285156 0.8125 17.453125 0.8125 C 15.460938 0.8125 13.804688 0.585938 12.484375 0.140625 C 11.160156 -0.304688 10.101562 -0.859375 9.3125 -1.515625 C 8.519531 -2.171875 7.90625 -2.820312 7.46875 -3.46875 L 7.46875 14.703125 C 7.46875 15.429688 7.585938 15.984375 7.828125 16.359375 C 8.078125 16.742188 8.363281 16.992188 8.6875 17.109375 C 9.007812 17.234375 9.289062 17.296875 9.53125 17.296875 L 11.390625 17.296875 L 11.390625 17.78125 L 0.8125 17.78125 Z M 7.46875 -4.328125 C 8.039062 -3.328125 8.726562 -2.535156 9.53125 -1.953125 C 10.34375 -1.378906 11.164062 -0.953125 12 -0.671875 C 12.832031 -0.390625 13.59375 -0.207031 14.28125 -0.125 C 14.96875 -0.0390625 15.488281 0 15.84375 0 C 17.320312 0 18.710938 -0.304688 20.015625 -0.921875 C 21.328125 -1.546875 22.488281 -2.410156 23.5 -3.515625 C 24.507812 -4.617188 25.296875 -5.90625 25.859375 -7.375 C 26.421875 -8.84375 26.703125 -10.410156 26.703125 -12.078125 C 26.703125 -13.753906 26.421875 -15.316406 25.859375 -16.765625 C 25.296875 -18.222656 24.507812 -19.492188 23.5 -20.578125 C 22.488281 -21.671875 21.328125 -22.519531 20.015625 -23.125 C 18.710938 -23.738281 17.320312 -24.046875 15.84375 -24.046875 C 15.488281 -24.046875 14.96875 -24.007812 14.28125 -23.9375 C 13.59375 -23.875 12.832031 -23.710938 12 -23.453125 C 11.164062 -23.203125 10.34375 -22.789062 9.53125 -22.21875 C 8.726562 -21.65625 8.039062 -20.875 7.46875 -19.875 Z M 6.21875 -8.765625 C 6.21875 -8.679688 6.234375 -8.613281 6.265625 -8.5625 Z M 6.21875 -8.765625 "/></g></g></g><g fill="#ffffff" fill-opacity="1"><g transform="translate(216.511748, 42.192141)"><g><path d="M 14.828125 0.8125 C 12.265625 0.8125 10.019531 0.28125 8.09375 -0.78125 C 6.175781 -1.851562 4.679688 -3.347656 3.609375 -5.265625 C 2.546875 -7.191406 2.015625 -9.4375 2.015625 -12 C 2.015625 -14.5625 2.546875 -16.804688 3.609375 -18.734375 C 4.679688 -20.660156 6.175781 -22.15625 8.09375 -23.21875 C 10.019531 -24.28125 12.265625 -24.8125 14.828125 -24.8125 C 16.898438 -24.8125 18.609375 -24.503906 19.953125 -23.890625 C 21.304688 -23.285156 22.375 -22.539062 23.15625 -21.65625 C 23.9375 -20.769531 24.507812 -19.878906 24.875 -18.984375 C 25.238281 -18.097656 25.472656 -17.351562 25.578125 -16.75 C 25.679688 -16.144531 25.734375 -15.84375 25.734375 -15.84375 L 4.25 -15.84375 C 4.1875 -15.488281 4.132812 -15.140625 4.09375 -14.796875 C 4.0625 -14.460938 4.046875 -14.109375 4.046875 -13.734375 C 4.046875 -11.390625 4.5625 -9.269531 5.59375 -7.375 C 6.632812 -5.476562 8.101562 -3.960938 10 -2.828125 C 11.894531 -1.691406 14.125 -1.125 16.6875 -1.125 C 18.757812 -1.125 20.578125 -1.566406 22.140625 -2.453125 C 23.703125 -3.347656 24.925781 -4.609375 25.8125 -6.234375 C 26.707031 -7.867188 27.15625 -9.789062 27.15625 -12 L 27.640625 -12 C 27.640625 -9.4375 27.109375 -7.191406 26.046875 -5.265625 C 24.984375 -3.347656 23.488281 -1.851562 21.5625 -0.78125 C 19.632812 0.28125 17.390625 0.8125 14.828125 0.8125 Z M 4.328125 -16.328125 L 22.984375 -16.328125 C 22.960938 -17.890625 22.523438 -19.269531 21.671875 -20.46875 C 20.828125 -21.664062 19.738281 -22.609375 18.40625 -23.296875 C 17.070312 -23.984375 15.648438 -24.328125 14.140625 -24.328125 C 12.554688 -24.328125 11.082031 -23.972656 9.71875 -23.265625 C 8.351562 -22.566406 7.207031 -21.617188 6.28125 -20.421875 C 5.351562 -19.222656 4.703125 -17.859375 4.328125 -16.328125 Z M 4.328125 -16.328125 "/></g></g></g><g fill="#ffffff" fill-opacity="1"><g transform="translate(237.841876, 42.192141)"><g><path d="M 0.8125 0 L 0.8125 -0.484375 L 2.671875 -0.484375 C 2.941406 -0.484375 3.226562 -0.539062 3.53125 -0.65625 C 3.84375 -0.78125 4.117188 -1.03125 4.359375 -1.40625 C 4.609375 -1.789062 4.734375 -2.347656 4.734375 -3.078125 L 4.734375 -19.234375 C 4.734375 -19.523438 4.703125 -19.851562 4.640625 -20.21875 C 4.585938 -20.582031 4.421875 -20.898438 4.140625 -21.171875 C 3.859375 -21.441406 3.367188 -21.578125 2.671875 -21.578125 L 2.671875 -22.0625 C 4.097656 -22.0625 5.171875 -22.375 5.890625 -23 C 6.617188 -23.632812 6.984375 -24.25 6.984375 -24.84375 L 7.46875 -24.84375 L 7.46875 -18.75 C 7.90625 -19.851562 8.457031 -20.867188 9.125 -21.796875 C 9.800781 -22.722656 10.585938 -23.460938 11.484375 -24.015625 C 12.390625 -24.566406 13.382812 -24.84375 14.46875 -24.84375 C 16.03125 -24.84375 17.296875 -24.425781 18.265625 -23.59375 C 19.234375 -22.757812 19.71875 -21.238281 19.71875 -19.03125 L 19.71875 -3.078125 C 19.71875 -2.347656 19.835938 -1.789062 20.078125 -1.40625 C 20.328125 -1.03125 20.613281 -0.78125 20.9375 -0.65625 C 21.257812 -0.539062 21.539062 -0.484375 21.78125 -0.484375 L 23.640625 -0.484375 L 23.640625 0 L 13.046875 0 L 13.046875 -0.484375 L 14.90625 -0.484375 C 15.175781 -0.484375 15.46875 -0.539062 15.78125 -0.65625 C 16.09375 -0.78125 16.367188 -1.03125 16.609375 -1.40625 C 16.847656 -1.789062 16.96875 -2.347656 16.96875 -3.078125 L 16.96875 -20.53125 C 16.96875 -21.519531 16.796875 -22.40625 16.453125 -23.1875 C 16.117188 -23.96875 15.484375 -24.359375 14.546875 -24.359375 C 13.410156 -24.359375 12.410156 -24.066406 11.546875 -23.484375 C 10.691406 -22.910156 9.96875 -22.191406 9.375 -21.328125 C 8.78125 -20.472656 8.328125 -19.597656 8.015625 -18.703125 C 7.710938 -17.816406 7.53125 -17.066406 7.46875 -16.453125 L 7.46875 -3.078125 C 7.46875 -2.347656 7.585938 -1.789062 7.828125 -1.40625 C 8.078125 -1.03125 8.363281 -0.78125 8.6875 -0.65625 C 9.007812 -0.539062 9.289062 -0.484375 9.53125 -0.484375 L 11.390625 -0.484375 L 11.390625 0 Z M 0.8125 0 "/></g></g></g><g fill="#ffffff" fill-opacity="1"><g transform="translate(255.980363, 42.192141)"><g><path d="M 2.015625 -12 C 2.015625 -14.5625 2.546875 -16.804688 3.609375 -18.734375 C 4.679688 -20.660156 6.175781 -22.15625 8.09375 -23.21875 C 10.019531 -24.28125 12.265625 -24.8125 14.828125 -24.8125 C 16.304688 -24.8125 17.5 -24.742188 18.40625 -24.609375 C 19.3125 -24.472656 20.101562 -24.335938 20.78125 -24.203125 C 21.46875 -24.066406 22.242188 -24 23.109375 -24 C 23.890625 -24 24.484375 -24.132812 24.890625 -24.40625 C 25.296875 -24.675781 25.5 -24.8125 25.5 -24.8125 L 25.984375 -24.8125 L 19.875 -7.796875 L 19.390625 -7.796875 L 22.75 -17.125 C 23.019531 -17.882812 23.113281 -18.679688 23.03125 -19.515625 C 22.945312 -20.347656 22.625 -21.128906 22.0625 -21.859375 C 21.5 -22.585938 20.632812 -23.179688 19.46875 -23.640625 C 18.3125 -24.097656 16.789062 -24.328125 14.90625 -24.328125 C 13.425781 -24.328125 12.023438 -24.050781 10.703125 -23.5 C 9.390625 -22.945312 8.234375 -22.1875 7.234375 -21.21875 C 6.234375 -20.25 5.453125 -19.125 4.890625 -17.84375 C 4.328125 -16.5625 4.046875 -15.191406 4.046875 -13.734375 C 4.046875 -11.390625 4.5625 -9.269531 5.59375 -7.375 C 6.632812 -5.476562 8.101562 -3.960938 10 -2.828125 C 11.894531 -1.691406 14.125 -1.125 16.6875 -1.125 C 18.757812 -1.125 20.578125 -1.566406 22.140625 -2.453125 C 23.703125 -3.347656 24.925781 -4.609375 25.8125 -6.234375 C 26.707031 -7.867188 27.15625 -9.789062 27.15625 -12 L 27.640625 -12 C 27.640625 -9.4375 27.109375 -7.191406 26.046875 -5.265625 C 24.984375 -3.347656 23.488281 -1.851562 21.5625 -0.78125 C 19.632812 0.28125 17.390625 0.8125 14.828125 0.8125 C 12.265625 0.8125 10.019531 0.28125 8.09375 -0.78125 C 6.175781 -1.851562 4.679688 -3.347656 3.609375 -5.265625 C 2.546875 -7.191406 2.015625 -9.4375 2.015625 -12 Z M 2.015625 -12 "/></g></g></g><g fill="#ffffff" fill-opacity="1"><g transform="translate(278.926479, 42.192141)"><g><path d="M 14.828125 0.8125 C 12.265625 0.8125 10.019531 0.28125 8.09375 -0.78125 C 6.175781 -1.851562 4.679688 -3.347656 3.609375 -5.265625 C 2.546875 -7.191406 2.015625 -9.4375 2.015625 -12 C 2.015625 -14.5625 2.546875 -16.804688 3.609375 -18.734375 C 4.679688 -20.660156 6.175781 -22.15625 8.09375 -23.21875 C 10.019531 -24.28125 12.265625 -24.8125 14.828125 -24.8125 C 16.898438 -24.8125 18.609375 -24.503906 19.953125 -23.890625 C 21.304688 -23.285156 22.375 -22.539062 23.15625 -21.65625 C 23.9375 -20.769531 24.507812 -19.878906 24.875 -18.984375 C 25.238281 -18.097656 25.472656 -17.351562 25.578125 -16.75 C 25.679688 -16.144531 25.734375 -15.84375 25.734375 -15.84375 L 4.25 -15.84375 C 4.1875 -15.488281 4.132812 -15.140625 4.09375 -14.796875 C 4.0625 -14.460938 4.046875 -14.109375 4.046875 -13.734375 C 4.046875 -11.390625 4.5625 -9.269531 5.59375 -7.375 C 6.632812 -5.476562 8.101562 -3.960938 10 -2.828125 C 11.894531 -1.691406 14.125 -1.125 16.6875 -1.125 C 18.757812 -1.125 20.578125 -1.566406 22.140625 -2.453125 C 23.703125 -3.347656 24.925781 -4.609375 25.8125 -6.234375 C 26.707031 -7.867188 27.15625 -9.789062 27.15625 -12 L 27.640625 -12 C 27.640625 -9.4375 27.109375 -7.191406 26.046875 -5.265625 C 24.984375 -3.347656 23.488281 -1.851562 21.5625 -0.78125 C 19.632812 0.28125 17.390625 0.8125 14.828125 0.8125 Z M 4.328125 -16.328125 L 22.984375 -16.328125 C 22.960938 -17.890625 22.523438 -19.269531 21.671875 -20.46875 C 20.828125 -21.664062 19.738281 -22.609375 18.40625 -23.296875 C 17.070312 -23.984375 15.648438 -24.328125 14.140625 -24.328125 C 12.554688 -24.328125 11.082031 -23.972656 9.71875 -23.265625 C 8.351562 -22.566406 7.207031 -21.617188 6.28125 -20.421875 C 5.351562 -19.222656 4.703125 -17.859375 4.328125 -16.328125 Z M 4.328125 -16.328125 "/></g></g></g><g fill="#ffffff" fill-opacity="1"><g transform="translate(300.256636, 42.192141)"><g><path d="M 0.8125 0 L 0.8125 -0.484375 L 2.671875 -0.484375 C 2.941406 -0.484375 3.226562 -0.539062 3.53125 -0.65625 C 3.84375 -0.78125 4.117188 -1.03125 4.359375 -1.40625 C 4.609375 -1.789062 4.734375 -2.347656 4.734375 -3.078125 L 4.734375 -19.234375 C 4.734375 -19.523438 4.703125 -19.851562 4.640625 -20.21875 C 4.585938 -20.582031 4.421875 -20.898438 4.140625 -21.171875 C 3.859375 -21.441406 3.367188 -21.578125 2.671875 -21.578125 L 2.671875 -22.0625 C 4.097656 -22.0625 5.171875 -22.375 5.890625 -23 C 6.617188 -23.632812 6.984375 -24.25 6.984375 -24.84375 L 7.46875 -24.84375 L 7.46875 -18.875 C 7.851562 -19.945312 8.332031 -20.929688 8.90625 -21.828125 C 9.488281 -22.734375 10.179688 -23.457031 10.984375 -24 C 11.796875 -24.539062 12.726562 -24.8125 13.78125 -24.8125 C 14.5625 -24.8125 15.160156 -24.742188 15.578125 -24.609375 C 15.992188 -24.472656 16.421875 -24.335938 16.859375 -24.203125 C 17.304688 -24.066406 17.960938 -24 18.828125 -24 C 19.609375 -24 20.078125 -24.132812 20.234375 -24.40625 C 20.398438 -24.675781 20.484375 -24.8125 20.484375 -24.8125 L 20.96875 -24.8125 L 14.875 -7.84375 L 14.390625 -7.84375 L 17.375 -16.15625 C 17.914062 -17.644531 18.117188 -19.007812 17.984375 -20.25 C 17.847656 -21.488281 17.421875 -22.476562 16.703125 -23.21875 C 15.992188 -23.957031 15.019531 -24.328125 13.78125 -24.328125 C 12.757812 -24.328125 11.863281 -24.039062 11.09375 -23.46875 C 10.320312 -22.90625 9.671875 -22.191406 9.140625 -21.328125 C 8.617188 -20.472656 8.222656 -19.597656 7.953125 -18.703125 C 7.691406 -17.816406 7.53125 -17.066406 7.46875 -16.453125 L 7.46875 -3.078125 C 7.46875 -2.347656 7.585938 -1.789062 7.828125 -1.40625 C 8.078125 -1.03125 8.363281 -0.78125 8.6875 -0.65625 C 9.007812 -0.539062 9.289062 -0.484375 9.53125 -0.484375 L 11.390625 -0.484375 L 11.390625 0 Z M 0.8125 0 "/></g></g></g><g fill="#ffffff" fill-opacity="1"><g transform="translate(315.324646, 42.192141)"><g><path d="M 1.609375 0.8125 L 1.609375 -9.328125 L 2.09375 -9.328125 L 2.09375 -7.390625 C 2.09375 -6.722656 2.238281 -5.945312 2.53125 -5.0625 C 2.832031 -4.1875 3.28125 -3.335938 3.875 -2.515625 C 4.46875 -1.703125 5.207031 -1.023438 6.09375 -0.484375 C 6.988281 0.0546875 8.015625 0.328125 9.171875 0.328125 C 10.304688 0.328125 11.253906 0.078125 12.015625 -0.421875 C 12.785156 -0.921875 13.359375 -1.570312 13.734375 -2.375 C 14.109375 -3.1875 14.296875 -4.023438 14.296875 -4.890625 C 14.296875 -5.859375 14 -6.71875 13.40625 -7.46875 C 12.820312 -8.226562 12.054688 -8.929688 11.109375 -9.578125 C 10.171875 -10.222656 9.175781 -10.867188 8.125 -11.515625 C 7.070312 -12.160156 6.070312 -12.851562 5.125 -13.59375 C 4.1875 -14.332031 3.421875 -15.171875 2.828125 -16.109375 C 2.234375 -17.054688 1.9375 -18.164062 1.9375 -19.4375 C 1.9375 -20.507812 2.238281 -21.445312 2.84375 -22.25 C 3.445312 -23.0625 4.25 -23.695312 5.25 -24.15625 C 6.25 -24.613281 7.3125 -24.84375 8.4375 -24.84375 C 9.195312 -24.84375 9.84375 -24.773438 10.375 -24.640625 C 10.914062 -24.515625 11.457031 -24.382812 12 -24.25 C 12.539062 -24.113281 13.160156 -24.046875 13.859375 -24.046875 C 14.097656 -24.046875 14.335938 -24.09375 14.578125 -24.1875 C 14.828125 -24.28125 14.953125 -24.5 14.953125 -24.84375 L 15.4375 -24.84375 L 15.4375 -16.8125 L 14.953125 -16.8125 L 14.953125 -18.75 C 14.953125 -19.90625 14.753906 -20.847656 14.359375 -21.578125 C 13.972656 -22.304688 13.46875 -22.867188 12.84375 -23.265625 C 12.226562 -23.671875 11.5625 -23.953125 10.84375 -24.109375 C 10.132812 -24.273438 9.457031 -24.359375 8.8125 -24.359375 C 7.519531 -24.359375 6.40625 -23.953125 5.46875 -23.140625 C 4.539062 -22.335938 4.078125 -21.273438 4.078125 -19.953125 C 4.078125 -18.984375 4.363281 -18.132812 4.9375 -17.40625 C 5.519531 -16.6875 6.269531 -16.019531 7.1875 -15.40625 C 8.101562 -14.800781 9.066406 -14.195312 10.078125 -13.59375 C 11.085938 -12.988281 12.050781 -12.347656 12.96875 -11.671875 C 13.882812 -11.003906 14.628906 -10.234375 15.203125 -9.359375 C 15.785156 -8.484375 16.078125 -7.453125 16.078125 -6.265625 C 16.078125 -4.992188 15.804688 -3.816406 15.265625 -2.734375 C 14.734375 -1.660156 13.945312 -0.800781 12.90625 -0.15625 C 11.875 0.488281 10.613281 0.8125 9.125 0.8125 C 7.96875 0.8125 6.925781 0.609375 6 0.203125 C 5.070312 -0.203125 4.3125 -0.601562 3.71875 -1 C 3.125 -1.40625 2.71875 -1.609375 2.5 -1.609375 C 2.289062 -1.609375 2.164062 -1.523438 2.125 -1.359375 C 2.082031 -1.203125 2.0625 -1.070312 2.0625 -0.96875 L 2.0625 0.8125 Z M 1.609375 0.8125 "/></g></g></g></g></g></svg>