<svg xmlns="http://www.w3.org/2000/svg" xmlns:xlink="http://www.w3.org/1999/xlink" width="600" zoomAndPan="magnify" viewBox="0 0 450 449.999984" height="600" preserveAspectRatio="xMidYMid meet" version="1.0"><defs><g/></defs><g fill="#ffffff" fill-opacity="1"><g transform="translate(106.249352, 251.869581)"><g><path d="M 3.578125 0 L 44.109375 -69.5625 L 27.484375 -69.5625 C 21.671875 -69.5625 17.226562 -68.84375 14.15625 -67.40625 C 11.09375 -65.976562 9.019531 -63.96875 7.9375 -61.375 C 6.863281 -58.789062 6.328125 -55.820312 6.328125 -52.46875 L 6.328125 -49.71875 L 4.90625 -49.71875 L 4.90625 -73.390625 L 6.328125 -73.390625 C 6.328125 -72.191406 7.125 -71.492188 8.71875 -71.296875 C 10.3125 -71.097656 11.75 -71 13.03125 -71 L 54.03125 -71 L 13.140625 -1.3125 L 30.359375 -1.3125 C 34.984375 -1.3125 38.671875 -1.988281 41.421875 -3.34375 C 44.171875 -4.695312 46.257812 -6.445312 47.6875 -8.59375 C 49.125 -10.75 50.082031 -13.003906 50.5625 -15.359375 C 51.039062 -17.710938 51.28125 -19.882812 51.28125 -21.875 L 51.28125 -27.609375 L 52.71875 -27.609375 L 52.71875 2.390625 L 51.390625 2.390625 C 51.390625 0.953125 50.648438 0.191406 49.171875 0.109375 C 47.703125 0.0351562 46.289062 0 44.9375 0 Z M 3.578125 0 "/></g></g></g><g fill="#ffffff" fill-opacity="1"><g transform="translate(146.884779, 251.869581)"><g><path d="M 38.734375 2.390625 C 32.117188 2.390625 26.359375 1 21.453125 -1.78125 C 16.554688 -4.570312 12.75 -8.335938 10.03125 -13.078125 C 7.320312 -17.828125 5.96875 -23.03125 5.96875 -28.6875 C 5.96875 -33.226562 6.84375 -37.46875 8.59375 -41.40625 C 10.351562 -45.351562 12.847656 -48.78125 16.078125 -51.6875 C 19.304688 -54.601562 23.148438 -56.738281 27.609375 -58.09375 C 26.171875 -59.445312 24.65625 -60.738281 23.0625 -61.96875 C 21.46875 -63.207031 19.796875 -64.347656 18.046875 -65.390625 C 20.835938 -68.171875 24.101562 -70.195312 27.84375 -71.46875 C 31.59375 -72.75 35.78125 -73.390625 40.40625 -73.390625 C 47.65625 -73.390625 53.628906 -72.070312 58.328125 -69.4375 C 63.035156 -66.8125 66.5625 -63.207031 68.90625 -58.625 C 71.257812 -54.039062 72.4375 -48.882812 72.4375 -43.15625 L 72.4375 -12.4375 C 72.4375 -8.601562 72.992188 -5.8125 74.109375 -4.0625 C 75.222656 -2.3125 77.453125 -1.4375 80.796875 -1.4375 L 80.796875 0 L 71.59375 0 C 68.726562 0 66.796875 -0.972656 65.796875 -2.921875 C 64.804688 -4.878906 64.3125 -6.929688 64.3125 -9.078125 L 64.3125 -9.5625 C 61.601562 -6.132812 58.078125 -3.285156 53.734375 -1.015625 C 49.390625 1.253906 44.390625 2.390625 38.734375 2.390625 Z M 29.40625 -56.296875 C 24.382812 -54.222656 20.4375 -50.632812 17.5625 -45.53125 C 14.695312 -40.4375 13.265625 -34.703125 13.265625 -28.328125 C 13.265625 -22.910156 14.320312 -17.988281 16.4375 -13.5625 C 18.550781 -9.144531 21.519531 -5.617188 25.34375 -2.984375 C 29.164062 -0.359375 33.664062 0.953125 38.84375 0.953125 C 43.707031 0.953125 48.488281 -0.179688 53.1875 -2.453125 C 57.894531 -4.722656 61.601562 -7.929688 64.3125 -12.078125 L 64.3125 -46.5 C 63.113281 -48.25 61.457031 -50.019531 59.34375 -51.8125 C 57.226562 -53.601562 54.5 -55.097656 51.15625 -56.296875 C 47.8125 -57.492188 43.707031 -58.09375 38.84375 -58.09375 C 35.820312 -58.09375 32.992188 -57.613281 30.359375 -56.65625 C 32.273438 -54.738281 34.285156 -52.445312 36.390625 -49.78125 C 38.503906 -47.113281 40.28125 -44.046875 41.71875 -40.578125 C 43.15625 -37.109375 43.875 -33.144531 43.875 -28.6875 C 43.875 -24.46875 42.992188 -21.0625 41.234375 -18.46875 C 39.484375 -15.875 37.175781 -14.578125 34.3125 -14.578125 C 33.832031 -14.578125 33.472656 -14.695312 33.234375 -14.9375 C 33.953125 -15.101562 34.90625 -15.742188 36.09375 -16.859375 C 37.289062 -17.972656 38.382812 -19.546875 39.375 -21.578125 C 40.375 -23.609375 40.875 -26.054688 40.875 -28.921875 C 40.875 -34.335938 39.835938 -39.335938 37.765625 -43.921875 C 35.691406 -48.503906 32.90625 -52.628906 29.40625 -56.296875 Z M 40.640625 -71.953125 C 35.535156 -71.953125 31.804688 -71.195312 29.453125 -69.6875 C 27.109375 -68.175781 25.9375 -66.34375 25.9375 -64.1875 C 25.9375 -63.46875 26.078125 -62.648438 26.359375 -61.734375 C 26.640625 -60.816406 27.375 -59.722656 28.5625 -58.453125 C 30.15625 -58.847656 31.804688 -59.164062 33.515625 -59.40625 C 35.234375 -59.644531 36.972656 -59.765625 38.734375 -59.765625 C 44.304688 -59.765625 49.222656 -58.828125 53.484375 -56.953125 C 57.753906 -55.078125 61.28125 -52.507812 64.0625 -49.25 C 64.0625 -53.070312 63.144531 -56.71875 61.3125 -60.1875 C 59.476562 -63.65625 56.828125 -66.484375 53.359375 -68.671875 C 49.898438 -70.859375 45.660156 -71.953125 40.640625 -71.953125 Z M 40.640625 -71.953125 "/></g></g></g><g fill="#ffffff" fill-opacity="1"><g transform="translate(214.292591, 251.869581)"><g><path d="M 2.390625 0 L 2.390625 -1.4375 L 7.890625 -1.4375 C 8.679688 -1.4375 9.535156 -1.613281 10.453125 -1.96875 C 11.367188 -2.332031 12.1875 -3.070312 12.90625 -4.1875 C 13.625 -5.300781 13.984375 -6.929688 13.984375 -9.078125 L 13.984375 -56.890625 C 13.984375 -57.773438 13.898438 -58.753906 13.734375 -59.828125 C 13.578125 -60.898438 13.082031 -61.832031 12.25 -62.625 C 11.414062 -63.425781 9.960938 -63.828125 7.890625 -63.828125 L 7.890625 -65.265625 C 12.109375 -65.265625 15.289062 -66.195312 17.4375 -68.0625 C 19.59375 -69.9375 20.671875 -71.753906 20.671875 -73.515625 L 22.109375 -73.515625 L 22.109375 -55.828125 C 23.222656 -59.015625 24.632812 -61.941406 26.34375 -64.609375 C 28.0625 -67.273438 30.113281 -69.40625 32.5 -71 C 34.894531 -72.59375 37.648438 -73.390625 40.765625 -73.390625 C 43.066406 -73.390625 44.835938 -73.191406 46.078125 -72.796875 C 47.316406 -72.398438 48.59375 -72 49.90625 -71.59375 C 51.21875 -71.195312 53.148438 -71 55.703125 -71 C 58.015625 -71 59.410156 -71.394531 59.890625 -72.1875 C 60.367188 -72.988281 60.609375 -73.390625 60.609375 -73.390625 L 62.03125 -73.390625 L 43.984375 -23.1875 L 42.546875 -23.1875 L 51.390625 -47.8125 C 52.984375 -52.195312 53.582031 -56.222656 53.1875 -59.890625 C 52.789062 -63.554688 51.535156 -66.484375 49.421875 -68.671875 C 47.316406 -70.859375 44.429688 -71.953125 40.765625 -71.953125 C 37.734375 -71.953125 35.082031 -71.113281 32.8125 -69.4375 C 30.539062 -67.769531 28.628906 -65.660156 27.078125 -63.109375 C 25.523438 -60.554688 24.347656 -57.960938 23.546875 -55.328125 C 22.753906 -52.703125 22.273438 -50.476562 22.109375 -48.65625 L 22.109375 -9.078125 C 22.109375 -6.929688 22.46875 -5.300781 23.1875 -4.1875 C 23.90625 -3.070312 24.742188 -2.332031 25.703125 -1.96875 C 26.660156 -1.613281 27.492188 -1.4375 28.203125 -1.4375 L 33.703125 -1.4375 L 33.703125 0 Z M 2.390625 0 "/></g></g></g><g fill="#ffffff" fill-opacity="1"><g transform="translate(261.740627, 251.869581)"><g><path d="M 38.734375 2.390625 C 32.117188 2.390625 26.359375 1 21.453125 -1.78125 C 16.554688 -4.570312 12.75 -8.335938 10.03125 -13.078125 C 7.320312 -17.828125 5.96875 -23.03125 5.96875 -28.6875 C 5.96875 -33.226562 6.84375 -37.46875 8.59375 -41.40625 C 10.351562 -45.351562 12.847656 -48.78125 16.078125 -51.6875 C 19.304688 -54.601562 23.148438 -56.738281 27.609375 -58.09375 C 26.171875 -59.445312 24.65625 -60.738281 23.0625 -61.96875 C 21.46875 -63.207031 19.796875 -64.347656 18.046875 -65.390625 C 20.835938 -68.171875 24.101562 -70.195312 27.84375 -71.46875 C 31.59375 -72.75 35.78125 -73.390625 40.40625 -73.390625 C 47.65625 -73.390625 53.628906 -72.070312 58.328125 -69.4375 C 63.035156 -66.8125 66.5625 -63.207031 68.90625 -58.625 C 71.257812 -54.039062 72.4375 -48.882812 72.4375 -43.15625 L 72.4375 -12.4375 C 72.4375 -8.601562 72.992188 -5.8125 74.109375 -4.0625 C 75.222656 -2.3125 77.453125 -1.4375 80.796875 -1.4375 L 80.796875 0 L 71.59375 0 C 68.726562 0 66.796875 -0.972656 65.796875 -2.921875 C 64.804688 -4.878906 64.3125 -6.929688 64.3125 -9.078125 L 64.3125 -9.5625 C 61.601562 -6.132812 58.078125 -3.285156 53.734375 -1.015625 C 49.390625 1.253906 44.390625 2.390625 38.734375 2.390625 Z M 29.40625 -56.296875 C 24.382812 -54.222656 20.4375 -50.632812 17.5625 -45.53125 C 14.695312 -40.4375 13.265625 -34.703125 13.265625 -28.328125 C 13.265625 -22.910156 14.320312 -17.988281 16.4375 -13.5625 C 18.550781 -9.144531 21.519531 -5.617188 25.34375 -2.984375 C 29.164062 -0.359375 33.664062 0.953125 38.84375 0.953125 C 43.707031 0.953125 48.488281 -0.179688 53.1875 -2.453125 C 57.894531 -4.722656 61.601562 -7.929688 64.3125 -12.078125 L 64.3125 -46.5 C 63.113281 -48.25 61.457031 -50.019531 59.34375 -51.8125 C 57.226562 -53.601562 54.5 -55.097656 51.15625 -56.296875 C 47.8125 -57.492188 43.707031 -58.09375 38.84375 -58.09375 C 35.820312 -58.09375 32.992188 -57.613281 30.359375 -56.65625 C 32.273438 -54.738281 34.285156 -52.445312 36.390625 -49.78125 C 38.503906 -47.113281 40.28125 -44.046875 41.71875 -40.578125 C 43.15625 -37.109375 43.875 -33.144531 43.875 -28.6875 C 43.875 -24.46875 42.992188 -21.0625 41.234375 -18.46875 C 39.484375 -15.875 37.175781 -14.578125 34.3125 -14.578125 C 33.832031 -14.578125 33.472656 -14.695312 33.234375 -14.9375 C 33.953125 -15.101562 34.90625 -15.742188 36.09375 -16.859375 C 37.289062 -17.972656 38.382812 -19.546875 39.375 -21.578125 C 40.375 -23.609375 40.875 -26.054688 40.875 -28.921875 C 40.875 -34.335938 39.835938 -39.335938 37.765625 -43.921875 C 35.691406 -48.503906 32.90625 -52.628906 29.40625 -56.296875 Z M 40.640625 -71.953125 C 35.535156 -71.953125 31.804688 -71.195312 29.453125 -69.6875 C 27.109375 -68.175781 25.9375 -66.34375 25.9375 -64.1875 C 25.9375 -63.46875 26.078125 -62.648438 26.359375 -61.734375 C 26.640625 -60.816406 27.375 -59.722656 28.5625 -58.453125 C 30.15625 -58.847656 31.804688 -59.164062 33.515625 -59.40625 C 35.234375 -59.644531 36.972656 -59.765625 38.734375 -59.765625 C 44.304688 -59.765625 49.222656 -58.828125 53.484375 -56.953125 C 57.753906 -55.078125 61.28125 -52.507812 64.0625 -49.25 C 64.0625 -53.070312 63.144531 -56.71875 61.3125 -60.1875 C 59.476562 -63.65625 56.828125 -66.484375 53.359375 -68.671875 C 49.898438 -70.859375 45.660156 -71.953125 40.640625 -71.953125 Z M 40.640625 -71.953125 "/></g></g></g></svg>