<svg xmlns="http://www.w3.org/2000/svg" version="1.0" viewBox="0 0 450 450"><path fill="#fff" d="m109.827 251.87 40.532-69.563h-16.625q-8.721 0-13.328 2.156c-3.063 1.43-5.137 3.438-6.22 6.032q-1.61 3.879-1.609 8.906v2.75h-1.421v-23.672h1.421q0 1.8 2.391 2.094 2.39.298 4.313.297h41l-40.891 69.687h17.219q6.937 0 11.062-2.031 4.123-2.028 6.266-5.25 2.155-3.233 2.875-6.766c.476-2.351.719-4.523.719-6.515v-5.735h1.437v30h-1.328q-.002-2.157-2.219-2.281a84 84 0 0 0-4.234-.11Zm0 0"/><path fill="#fff" d="M185.62 254.26q-9.925 0-17.282-4.172c-4.899-2.789-8.703-6.554-11.422-11.297q-4.064-7.125-4.062-15.609 0-6.81 2.625-12.719a30.25 30.25 0 0 1 7.484-10.28q4.84-4.373 11.531-6.407a62 62 0 0 0-4.547-3.875 49 49 0 0 0-5.015-3.422 25.2 25.2 0 0 1 9.797-6.078q5.625-1.922 12.562-1.922 10.874.002 17.922 3.953 7.061 3.938 10.578 10.813 3.53 6.879 3.531 15.468v30.72q-.002 5.75 1.672 8.374 1.67 2.625 6.688 2.625v1.438h-9.203c-2.868 0-4.797-.973-5.797-2.922a13.4 13.4 0 0 1-1.485-6.157v-.484q-4.064 5.143-10.578 8.547-6.516 3.406-15 3.406m-9.329-58.687q-7.533 3.112-11.844 10.765-4.299 7.64-4.297 17.203-.002 8.127 3.172 14.766 3.17 6.628 8.907 10.578 5.73 3.938 13.5 3.938 7.294.002 14.343-3.407 7.06-3.403 11.125-9.625V205.37q-1.798-2.624-4.968-5.313c-2.118-1.789-4.844-3.285-8.188-4.484q-5.017-1.796-12.312-1.797-4.536 0-8.485 1.437 2.872 2.878 6.031 6.875 3.171 4.001 5.329 9.203 2.156 5.205 2.156 11.891c0 4.219-.883 7.625-2.64 10.219q-2.627 3.89-6.923 3.89-.72.002-1.078-.359 1.078-.246 2.86-1.922 1.793-1.67 3.28-4.719 1.5-3.044 1.5-7.343-.001-8.121-3.109-15a44.2 44.2 0 0 0-8.359-12.375m11.234-15.657q-7.659.002-11.187 2.266-3.516 2.267-3.516 5.5c0 .719.14 1.54.422 2.453q.422 1.377 2.203 3.281a49 49 0 0 1 4.953-.953 38 38 0 0 1 5.22-.359q8.355 0 14.75 2.812c4.269 1.875 7.796 4.446 10.577 7.704 0-3.82-.918-7.47-2.75-10.938-1.836-3.469-4.484-6.297-7.953-8.484q-5.19-3.282-12.719-3.282m0 0"/><path fill="#fff" d="M216.683 251.87v-1.438h5.5q1.185 0 2.563-.531 1.373-.544 2.453-2.219 1.078-1.669 1.078-4.89v-47.813c0-.883-.086-1.863-.25-2.938q-.235-1.606-1.484-2.796-1.255-1.203-4.36-1.204v-1.437q6.327.002 9.547-2.797 3.234-2.811 3.234-5.453h1.438v17.687q1.668-4.78 4.234-8.78c1.72-2.665 3.77-4.798 6.157-6.391q3.59-2.391 8.265-2.391 3.45.001 5.313.594 1.858.595 3.828 1.203 1.966.595 5.797.594 3.467 0 4.187-1.188l.719-1.203h1.422l-18.047 50.203h-1.438l8.844-24.625q2.39-6.575 1.797-12.078c-.398-3.664-1.652-6.594-3.766-8.781q-3.159-3.282-8.656-3.282-4.547.001-7.953 2.516-3.41 2.502-5.734 6.328-2.33 3.833-3.532 7.781c-.793 2.625-1.273 4.852-1.437 6.672v39.578q0 3.222 1.078 4.891 1.077 1.675 2.516 2.219 1.434.532 2.5.531h5.5v1.438Zm83.792 2.39q-9.924 0-17.281-4.172c-4.899-2.789-8.703-6.554-11.422-11.297q-4.065-7.125-4.063-15.609 0-6.81 2.625-12.719a30.25 30.25 0 0 1 7.485-10.28q4.84-4.373 11.531-6.407a62 62 0 0 0-4.547-3.875 49 49 0 0 0-5.015-3.422 25.2 25.2 0 0 1 9.796-6.078q5.625-1.922 12.563-1.922 10.874.002 17.922 3.953 7.061 3.938 10.578 10.813c2.351 4.586 3.531 9.742 3.531 15.468v30.72q-.002 5.75 1.672 8.374 1.67 2.625 6.688 2.625v1.438h-9.204c-2.867 0-4.796-.973-5.796-2.922a13.4 13.4 0 0 1-1.485-6.157v-.484q-4.063 5.143-10.578 8.547-6.516 3.406-15 3.406m-9.328-58.687c-5.024 2.074-8.969 5.664-11.844 10.765q-4.299 7.64-4.297 17.203-.002 8.127 3.172 14.766 3.17 6.628 8.906 10.578 5.73 3.938 13.5 3.938 7.296.002 14.344-3.407 7.06-3.403 11.125-9.625V205.37q-1.799-2.624-4.969-5.313c-2.117-1.789-4.843-3.285-8.187-4.484q-5.017-1.796-12.313-1.797-4.534 0-8.484 1.437 2.872 2.878 6.031 6.875 3.171 4.001 5.328 9.203 2.157 5.205 2.157 11.891c0 4.219-.883 7.625-2.641 10.219q-2.626 3.89-6.922 3.89-.72.002-1.078-.359 1.078-.246 2.86-1.922 1.792-1.67 3.28-4.719 1.5-3.044 1.5-7.343-.001-8.121-3.109-15a44.2 44.2 0 0 0-8.36-12.375m11.234-15.657q-7.659.002-11.187 2.266-3.516 2.267-3.516 5.5c0 .719.14 1.54.422 2.453q.422 1.377 2.203 3.281a49 49 0 0 1 4.953-.953 38 38 0 0 1 5.219-.359q8.356 0 14.75 2.812c4.27 1.875 7.797 4.446 10.578 7.704 0-3.82-.918-7.47-2.75-10.938-1.836-3.469-4.484-6.297-7.953-8.484q-5.19-3.282-12.719-3.282m0 0"/></svg>